%TF.GenerationSoftware,KiCad,Pcbnew,9.0.5*%
%TF.CreationDate,2025-12-24T11:27:01+01:00*%
%TF.ProjectId,lab0,6c616230-2e6b-4696-9361-645f70636258,rev?*%
%TF.SameCoordinates,Original*%
%TF.FileFunction,Soldermask,Top*%
%TF.FilePolarity,Negative*%
%FSLAX46Y46*%
G04 Gerber Fmt 4.6, Leading zero omitted, Abs format (unit mm)*
G04 Created by KiCad (PCBNEW 9.0.5) date 2025-12-24 11:27:01*
%MOMM*%
%LPD*%
G01*
G04 APERTURE LIST*
G04 Aperture macros list*
%AMRoundRect*
0 Rectangle with rounded corners*
0 $1 Rounding radius*
0 $2 $3 $4 $5 $6 $7 $8 $9 X,Y pos of 4 corners*
0 Add a 4 corners polygon primitive as box body*
4,1,4,$2,$3,$4,$5,$6,$7,$8,$9,$2,$3,0*
0 Add four circle primitives for the rounded corners*
1,1,$1+$1,$2,$3*
1,1,$1+$1,$4,$5*
1,1,$1+$1,$6,$7*
1,1,$1+$1,$8,$9*
0 Add four rect primitives between the rounded corners*
20,1,$1+$1,$2,$3,$4,$5,0*
20,1,$1+$1,$4,$5,$6,$7,0*
20,1,$1+$1,$6,$7,$8,$9,0*
20,1,$1+$1,$8,$9,$2,$3,0*%
G04 Aperture macros list end*
%ADD10C,2.000000*%
%ADD11C,1.300000*%
%ADD12RoundRect,0.200000X0.200000X0.275000X-0.200000X0.275000X-0.200000X-0.275000X0.200000X-0.275000X0*%
%ADD13C,1.700000*%
%ADD14R,1.700000X1.700000*%
%ADD15C,0.800000*%
%ADD16C,6.400000*%
G04 APERTURE END LIST*
D10*
%TO.C,SW1*%
X43510000Y-41190000D03*
X37010000Y-41190000D03*
X43510000Y-36690000D03*
X37010000Y-36690000D03*
%TD*%
%TO.C,SW2*%
X58510000Y-41190000D03*
X52010000Y-41190000D03*
X58510000Y-36690000D03*
X52010000Y-36690000D03*
%TD*%
%TO.C,SW3*%
X73510000Y-41190000D03*
X67010000Y-41190000D03*
X73510000Y-36690000D03*
X67010000Y-36690000D03*
%TD*%
%TO.C,SW4*%
X88510000Y-41190000D03*
X82010000Y-41190000D03*
X88510000Y-36690000D03*
X82010000Y-36690000D03*
%TD*%
%TO.C,SW5*%
X43510000Y-56190000D03*
X37010000Y-56190000D03*
X43510000Y-51690000D03*
X37010000Y-51690000D03*
%TD*%
%TO.C,SW6*%
X58510000Y-56190000D03*
X52010000Y-56190000D03*
X58510000Y-51690000D03*
X52010000Y-51690000D03*
%TD*%
%TO.C,SW7*%
X73510000Y-56190000D03*
X67010000Y-56190000D03*
X73510000Y-51690000D03*
X67010000Y-51690000D03*
%TD*%
%TO.C,SW8*%
X88510000Y-56190000D03*
X82010000Y-56190000D03*
X88510000Y-51690000D03*
X82010000Y-51690000D03*
%TD*%
%TO.C,SW9*%
X43510000Y-71190000D03*
X37010000Y-71190000D03*
X43510000Y-66690000D03*
X37010000Y-66690000D03*
%TD*%
%TO.C,SW10*%
X58510000Y-71190000D03*
X52010000Y-71190000D03*
X58510000Y-66690000D03*
X52010000Y-66690000D03*
%TD*%
%TO.C,SW11*%
X73510000Y-71190000D03*
X67010000Y-71190000D03*
X73510000Y-66690000D03*
X67010000Y-66690000D03*
%TD*%
%TO.C,SW12*%
X88510000Y-71190000D03*
X82010000Y-71190000D03*
X88510000Y-66690000D03*
X82010000Y-66690000D03*
%TD*%
%TO.C,SW13*%
X43510000Y-86190000D03*
X37010000Y-86190000D03*
X43510000Y-81690000D03*
X37010000Y-81690000D03*
%TD*%
%TO.C,SW14*%
X58510000Y-86190000D03*
X52010000Y-86190000D03*
X58510000Y-81690000D03*
X52010000Y-81690000D03*
%TD*%
%TO.C,SW15*%
X73510000Y-86190000D03*
X67010000Y-86190000D03*
X73510000Y-81690000D03*
X67010000Y-81690000D03*
%TD*%
%TO.C,SW16*%
X88510000Y-86190000D03*
X82010000Y-86190000D03*
X88510000Y-81690000D03*
X82010000Y-81690000D03*
%TD*%
D11*
%TO.C,H7*%
X27500000Y-97500000D03*
%TD*%
%TO.C,H6*%
X97500000Y-27500000D03*
%TD*%
%TO.C,H5*%
X27500000Y-27500000D03*
%TD*%
D12*
%TO.C,R4*%
X92800000Y-86200000D03*
X91150000Y-86200000D03*
%TD*%
%TO.C,R3*%
X92770000Y-71210000D03*
X91120000Y-71210000D03*
%TD*%
%TO.C,R2*%
X92790000Y-56190000D03*
X91140000Y-56190000D03*
%TD*%
%TO.C,R1*%
X92660000Y-41200000D03*
X91010000Y-41200000D03*
%TD*%
D13*
%TO.C,J1*%
X62920000Y-96000000D03*
D14*
X68000000Y-96000000D03*
D13*
X68000000Y-93460000D03*
X65460000Y-96000000D03*
X65460000Y-93460000D03*
X62920000Y-93460000D03*
X60380000Y-96000000D03*
X60380000Y-93460000D03*
X57840000Y-96000000D03*
X57840000Y-93460000D03*
%TD*%
D15*
%TO.C,H1*%
X28850000Y-31250000D03*
X29552944Y-29552944D03*
X29552944Y-32947056D03*
X31250000Y-28850000D03*
D16*
X31250000Y-31250000D03*
D15*
X31250000Y-33650000D03*
X32947056Y-29552944D03*
X32947056Y-32947056D03*
X33650000Y-31250000D03*
%TD*%
%TO.C,H4*%
X91350000Y-93750000D03*
X92052944Y-92052944D03*
X92052944Y-95447056D03*
X93750000Y-91350000D03*
D16*
X93750000Y-93750000D03*
D15*
X93750000Y-96150000D03*
X95447056Y-92052944D03*
X95447056Y-95447056D03*
X96150000Y-93750000D03*
%TD*%
%TO.C,H3*%
X28850000Y-93750000D03*
X29552944Y-92052944D03*
X29552944Y-95447056D03*
X31250000Y-91350000D03*
D16*
X31250000Y-93750000D03*
D15*
X31250000Y-96150000D03*
X32947056Y-92052944D03*
X32947056Y-95447056D03*
X33650000Y-93750000D03*
%TD*%
%TO.C,H2*%
X91350000Y-31250000D03*
X92052944Y-29552944D03*
X92052944Y-32947056D03*
X93750000Y-28850000D03*
D16*
X93750000Y-31250000D03*
D15*
X93750000Y-33650000D03*
X95447056Y-29552944D03*
X95447056Y-32947056D03*
X96150000Y-31250000D03*
%TD*%
M02*
