%TF.GenerationSoftware,KiCad,Pcbnew,9.0.5*%
%TF.CreationDate,2025-12-24T11:27:01+01:00*%
%TF.ProjectId,lab0,6c616230-2e6b-4696-9361-645f70636258,rev?*%
%TF.SameCoordinates,Original*%
%TF.FileFunction,Copper,L2,Bot*%
%TF.FilePolarity,Positive*%
%FSLAX46Y46*%
G04 Gerber Fmt 4.6, Leading zero omitted, Abs format (unit mm)*
G04 Created by KiCad (PCBNEW 9.0.5) date 2025-12-24 11:27:01*
%MOMM*%
%LPD*%
G01*
G04 APERTURE LIST*
G04 Aperture macros list*
%AMRoundRect*
0 Rectangle with rounded corners*
0 $1 Rounding radius*
0 $2 $3 $4 $5 $6 $7 $8 $9 X,Y pos of 4 corners*
0 Add a 4 corners polygon primitive as box body*
4,1,4,$2,$3,$4,$5,$6,$7,$8,$9,$2,$3,0*
0 Add four circle primitives for the rounded corners*
1,1,$1+$1,$2,$3*
1,1,$1+$1,$4,$5*
1,1,$1+$1,$6,$7*
1,1,$1+$1,$8,$9*
0 Add four rect primitives between the rounded corners*
20,1,$1+$1,$2,$3,$4,$5,0*
20,1,$1+$1,$4,$5,$6,$7,0*
20,1,$1+$1,$6,$7,$8,$9,0*
20,1,$1+$1,$8,$9,$2,$3,0*%
G04 Aperture macros list end*
%TA.AperFunction,ComponentPad*%
%ADD10C,2.000000*%
%TD*%
%TA.AperFunction,ComponentPad*%
%ADD11C,1.700000*%
%TD*%
%TA.AperFunction,ComponentPad*%
%ADD12R,1.700000X1.700000*%
%TD*%
%TA.AperFunction,SMDPad,CuDef*%
%ADD13RoundRect,0.218750X0.218750X0.256250X-0.218750X0.256250X-0.218750X-0.256250X0.218750X-0.256250X0*%
%TD*%
%TA.AperFunction,ComponentPad*%
%ADD14C,0.800000*%
%TD*%
%TA.AperFunction,ComponentPad*%
%ADD15C,6.400000*%
%TD*%
%TA.AperFunction,ViaPad*%
%ADD16C,0.600000*%
%TD*%
%TA.AperFunction,Conductor*%
%ADD17C,0.500000*%
%TD*%
G04 APERTURE END LIST*
D10*
%TO.P,SW1,2,2*%
%TO.N,COL_1*%
X43510000Y-41190000D03*
X37010000Y-41190000D03*
%TO.P,SW1,1,1*%
%TO.N,Net-(D1-A)*%
X43510000Y-36690000D03*
X37010000Y-36690000D03*
%TD*%
%TO.P,SW2,2,2*%
%TO.N,COL_1*%
X58510000Y-41190000D03*
X52010000Y-41190000D03*
%TO.P,SW2,1,1*%
%TO.N,Net-(D2-A)*%
X58510000Y-36690000D03*
X52010000Y-36690000D03*
%TD*%
%TO.P,SW3,2,2*%
%TO.N,COL_1*%
X73510000Y-41190000D03*
X67010000Y-41190000D03*
%TO.P,SW3,1,1*%
%TO.N,Net-(D3-A)*%
X73510000Y-36690000D03*
X67010000Y-36690000D03*
%TD*%
%TO.P,SW4,2,2*%
%TO.N,COL_1*%
X88510000Y-41190000D03*
X82010000Y-41190000D03*
%TO.P,SW4,1,1*%
%TO.N,Net-(D4-A)*%
X88510000Y-36690000D03*
X82010000Y-36690000D03*
%TD*%
%TO.P,SW5,2,2*%
%TO.N,COL_2*%
X43510000Y-56190000D03*
X37010000Y-56190000D03*
%TO.P,SW5,1,1*%
%TO.N,Net-(D5-A)*%
X43510000Y-51690000D03*
X37010000Y-51690000D03*
%TD*%
%TO.P,SW6,2,2*%
%TO.N,COL_2*%
X58510000Y-56190000D03*
X52010000Y-56190000D03*
%TO.P,SW6,1,1*%
%TO.N,Net-(D6-A)*%
X58510000Y-51690000D03*
X52010000Y-51690000D03*
%TD*%
%TO.P,SW7,2,2*%
%TO.N,COL_2*%
X73510000Y-56190000D03*
X67010000Y-56190000D03*
%TO.P,SW7,1,1*%
%TO.N,Net-(D7-A)*%
X73510000Y-51690000D03*
X67010000Y-51690000D03*
%TD*%
%TO.P,SW8,2,2*%
%TO.N,COL_2*%
X88510000Y-56190000D03*
X82010000Y-56190000D03*
%TO.P,SW8,1,1*%
%TO.N,Net-(D8-A)*%
X88510000Y-51690000D03*
X82010000Y-51690000D03*
%TD*%
%TO.P,SW9,2,2*%
%TO.N,COL_3*%
X43510000Y-71190000D03*
X37010000Y-71190000D03*
%TO.P,SW9,1,1*%
%TO.N,Net-(D9-A)*%
X43510000Y-66690000D03*
X37010000Y-66690000D03*
%TD*%
%TO.P,SW10,2,2*%
%TO.N,COL_3*%
X58510000Y-71190000D03*
X52010000Y-71190000D03*
%TO.P,SW10,1,1*%
%TO.N,Net-(D10-A)*%
X58510000Y-66690000D03*
X52010000Y-66690000D03*
%TD*%
%TO.P,SW11,2,2*%
%TO.N,COL_3*%
X73510000Y-71190000D03*
X67010000Y-71190000D03*
%TO.P,SW11,1,1*%
%TO.N,Net-(D11-A)*%
X73510000Y-66690000D03*
X67010000Y-66690000D03*
%TD*%
%TO.P,SW12,2,2*%
%TO.N,COL_3*%
X88510000Y-71190000D03*
X82010000Y-71190000D03*
%TO.P,SW12,1,1*%
%TO.N,Net-(D12-A)*%
X88510000Y-66690000D03*
X82010000Y-66690000D03*
%TD*%
%TO.P,SW13,2,2*%
%TO.N,COL_4*%
X43510000Y-86190000D03*
X37010000Y-86190000D03*
%TO.P,SW13,1,1*%
%TO.N,Net-(D13-A)*%
X43510000Y-81690000D03*
X37010000Y-81690000D03*
%TD*%
%TO.P,SW14,2,2*%
%TO.N,COL_4*%
X58510000Y-86190000D03*
X52010000Y-86190000D03*
%TO.P,SW14,1,1*%
%TO.N,Net-(D14-A)*%
X58510000Y-81690000D03*
X52010000Y-81690000D03*
%TD*%
%TO.P,SW15,2,2*%
%TO.N,COL_4*%
X73510000Y-86190000D03*
X67010000Y-86190000D03*
%TO.P,SW15,1,1*%
%TO.N,Net-(D15-A)*%
X73510000Y-81690000D03*
X67010000Y-81690000D03*
%TD*%
%TO.P,SW16,2,2*%
%TO.N,COL_4*%
X88510000Y-86190000D03*
X82010000Y-86190000D03*
%TO.P,SW16,1,1*%
%TO.N,Net-(D16-A)*%
X88510000Y-81690000D03*
X82010000Y-81690000D03*
%TD*%
D11*
%TO.P,J1,5,Pin_5*%
%TO.N,COL_2*%
X62920000Y-96000000D03*
D12*
%TO.P,J1,1,Pin_1*%
%TO.N,VCC*%
X68000000Y-96000000D03*
D11*
%TO.P,J1,2,Pin_2*%
%TO.N,GND*%
X68000000Y-93460000D03*
%TO.P,J1,3,Pin_3*%
%TO.N,COL_1*%
X65460000Y-96000000D03*
%TO.P,J1,4,Pin_4*%
%TO.N,RAW_4*%
X65460000Y-93460000D03*
%TO.P,J1,6,Pin_6*%
%TO.N,RAW_3*%
X62920000Y-93460000D03*
%TO.P,J1,7,Pin_7*%
%TO.N,COL_3*%
X60380000Y-96000000D03*
%TO.P,J1,8,Pin_8*%
%TO.N,RAW_2*%
X60380000Y-93460000D03*
%TO.P,J1,9,Pin_9*%
%TO.N,COL_4*%
X57840000Y-96000000D03*
%TO.P,J1,10,Pin_10*%
%TO.N,RAW_1*%
X57840000Y-93460000D03*
%TD*%
D13*
%TO.P,D16,1,K*%
%TO.N,RAW_4*%
X90227500Y-79120000D03*
%TO.P,D16,2,A*%
%TO.N,Net-(D16-A)*%
X88652500Y-79120000D03*
%TD*%
%TO.P,D15,1,K*%
%TO.N,RAW_3*%
X75227500Y-79120000D03*
%TO.P,D15,2,A*%
%TO.N,Net-(D15-A)*%
X73652500Y-79120000D03*
%TD*%
%TO.P,D14,1,K*%
%TO.N,RAW_2*%
X60227500Y-79120000D03*
%TO.P,D14,2,A*%
%TO.N,Net-(D14-A)*%
X58652500Y-79120000D03*
%TD*%
%TO.P,D13,1,K*%
%TO.N,RAW_1*%
X45227500Y-79120000D03*
%TO.P,D13,2,A*%
%TO.N,Net-(D13-A)*%
X43652500Y-79120000D03*
%TD*%
%TO.P,D12,1,K*%
%TO.N,RAW_4*%
X90227500Y-64120000D03*
%TO.P,D12,2,A*%
%TO.N,Net-(D12-A)*%
X88652500Y-64120000D03*
%TD*%
%TO.P,D11,1,K*%
%TO.N,RAW_3*%
X75227500Y-64120000D03*
%TO.P,D11,2,A*%
%TO.N,Net-(D11-A)*%
X73652500Y-64120000D03*
%TD*%
%TO.P,D10,1,K*%
%TO.N,RAW_2*%
X60227500Y-64120000D03*
%TO.P,D10,2,A*%
%TO.N,Net-(D10-A)*%
X58652500Y-64120000D03*
%TD*%
%TO.P,D9,1,K*%
%TO.N,RAW_1*%
X45227500Y-64120000D03*
%TO.P,D9,2,A*%
%TO.N,Net-(D9-A)*%
X43652500Y-64120000D03*
%TD*%
%TO.P,D8,1,K*%
%TO.N,RAW_4*%
X90227500Y-49120000D03*
%TO.P,D8,2,A*%
%TO.N,Net-(D8-A)*%
X88652500Y-49120000D03*
%TD*%
%TO.P,D7,1,K*%
%TO.N,RAW_3*%
X75227500Y-49120000D03*
%TO.P,D7,2,A*%
%TO.N,Net-(D7-A)*%
X73652500Y-49120000D03*
%TD*%
%TO.P,D6,1,K*%
%TO.N,RAW_2*%
X60227500Y-49120000D03*
%TO.P,D6,2,A*%
%TO.N,Net-(D6-A)*%
X58652500Y-49120000D03*
%TD*%
%TO.P,D5,1,K*%
%TO.N,RAW_1*%
X45227500Y-49120000D03*
%TO.P,D5,2,A*%
%TO.N,Net-(D5-A)*%
X43652500Y-49120000D03*
%TD*%
%TO.P,D4,1,K*%
%TO.N,RAW_4*%
X90227500Y-34120000D03*
%TO.P,D4,2,A*%
%TO.N,Net-(D4-A)*%
X88652500Y-34120000D03*
%TD*%
%TO.P,D3,1,K*%
%TO.N,RAW_3*%
X75227500Y-34120000D03*
%TO.P,D3,2,A*%
%TO.N,Net-(D3-A)*%
X73652500Y-34120000D03*
%TD*%
%TO.P,D2,1,K*%
%TO.N,RAW_2*%
X60227500Y-34120000D03*
%TO.P,D2,2,A*%
%TO.N,Net-(D2-A)*%
X58652500Y-34120000D03*
%TD*%
%TO.P,D1,1,K*%
%TO.N,RAW_1*%
X45227500Y-34120000D03*
%TO.P,D1,2,A*%
%TO.N,Net-(D1-A)*%
X43652500Y-34120000D03*
%TD*%
D14*
%TO.P,H1,1,1*%
%TO.N,GND*%
X28850000Y-31250000D03*
X29552944Y-29552944D03*
X29552944Y-32947056D03*
X31250000Y-28850000D03*
D15*
X31250000Y-31250000D03*
D14*
X31250000Y-33650000D03*
X32947056Y-29552944D03*
X32947056Y-32947056D03*
X33650000Y-31250000D03*
%TD*%
%TO.P,H4,1,1*%
%TO.N,GND*%
X91350000Y-93750000D03*
X92052944Y-92052944D03*
X92052944Y-95447056D03*
X93750000Y-91350000D03*
D15*
X93750000Y-93750000D03*
D14*
X93750000Y-96150000D03*
X95447056Y-92052944D03*
X95447056Y-95447056D03*
X96150000Y-93750000D03*
%TD*%
%TO.P,H3,1,1*%
%TO.N,GND*%
X28850000Y-93750000D03*
X29552944Y-92052944D03*
X29552944Y-95447056D03*
X31250000Y-91350000D03*
D15*
X31250000Y-93750000D03*
D14*
X31250000Y-96150000D03*
X32947056Y-92052944D03*
X32947056Y-95447056D03*
X33650000Y-93750000D03*
%TD*%
%TO.P,H2,1,1*%
%TO.N,GND*%
X91350000Y-31250000D03*
X92052944Y-29552944D03*
X92052944Y-32947056D03*
X93750000Y-28850000D03*
D15*
X93750000Y-31250000D03*
D14*
X93750000Y-33650000D03*
X95447056Y-29552944D03*
X95447056Y-32947056D03*
X96150000Y-31250000D03*
%TD*%
D16*
%TO.N,GND*%
X51870000Y-77170000D03*
X50510000Y-61990000D03*
X47910000Y-52630000D03*
%TD*%
D17*
%TO.N,RAW_4*%
X65460000Y-93460000D02*
X65460000Y-92070000D01*
X65460000Y-92070000D02*
X66260000Y-91270000D01*
X66260000Y-91270000D02*
X73510000Y-91270000D01*
X73510000Y-91270000D02*
X77650000Y-87130000D01*
X90227500Y-33647500D02*
X90227500Y-34120000D01*
X77650000Y-87130000D02*
X77650000Y-34020000D01*
X77650000Y-34020000D02*
X79640000Y-32030000D01*
X79640000Y-32030000D02*
X88610000Y-32030000D01*
X88610000Y-32030000D02*
X90227500Y-33647500D01*
%TO.N,COL_1*%
X65460000Y-96000000D02*
X65460000Y-97820000D01*
X65460000Y-97820000D02*
X66670000Y-99030000D01*
X66670000Y-99030000D02*
X75010000Y-99030000D01*
X75010000Y-99030000D02*
X79660000Y-94380000D01*
X79660000Y-94380000D02*
X79660000Y-43540000D01*
X79660000Y-43540000D02*
X82010000Y-41190000D01*
%TO.N,RAW_4*%
X90227500Y-79120000D02*
X90227500Y-64120000D01*
X90227500Y-64120000D02*
X90227500Y-49120000D01*
X90227500Y-34120000D02*
X90227500Y-49120000D01*
%TO.N,RAW_3*%
X62920000Y-91680000D02*
X64490000Y-90110000D01*
X67100000Y-90110000D02*
X70230000Y-86980000D01*
X64490000Y-90110000D02*
X67100000Y-90110000D01*
X62920000Y-93460000D02*
X62920000Y-91680000D01*
X70230000Y-86980000D02*
X70230000Y-79267500D01*
X70230000Y-79267500D02*
X75227500Y-74270000D01*
X75227500Y-75722500D02*
X75227500Y-64120000D01*
X75300000Y-31980000D02*
X74260000Y-30940000D01*
X74260000Y-30940000D02*
X72070000Y-30940000D01*
X72070000Y-30940000D02*
X70850000Y-32160000D01*
X75300000Y-34047500D02*
X75300000Y-31980000D01*
X75227500Y-34120000D02*
X75300000Y-34047500D01*
X70850000Y-32160000D02*
X70850000Y-42440000D01*
X70850000Y-42440000D02*
X75227500Y-46817500D01*
X75227500Y-46817500D02*
X75227500Y-49120000D01*
X75227500Y-49120000D02*
X75227500Y-64120000D01*
X75227500Y-79120000D02*
X75227500Y-75722500D01*
%TO.N,RAW_2*%
X60380000Y-93460000D02*
X60380000Y-79272500D01*
X60380000Y-79272500D02*
X60227500Y-79120000D01*
X60227500Y-79120000D02*
X60227500Y-64120000D01*
X60227500Y-64120000D02*
X60227500Y-49120000D01*
X60227500Y-34120000D02*
X60227500Y-49120000D01*
%TO.N,RAW_1*%
X57840000Y-93460000D02*
X54890000Y-90510000D01*
X54890000Y-90510000D02*
X54890000Y-51100000D01*
X52910000Y-49120000D02*
X45227500Y-49120000D01*
X54890000Y-51100000D02*
X52910000Y-49120000D01*
X45227500Y-49120000D02*
X45227500Y-34120000D01*
X45227500Y-49120000D02*
X45227500Y-64120000D01*
X45227500Y-79120000D02*
X45227500Y-64120000D01*
%TO.N,Net-(D13-A)*%
X43510000Y-81690000D02*
X43510000Y-79262500D01*
X43510000Y-79262500D02*
X43652500Y-79120000D01*
%TO.N,Net-(D14-A)*%
X58510000Y-81690000D02*
X58510000Y-79262500D01*
X58510000Y-79262500D02*
X58652500Y-79120000D01*
%TO.N,Net-(D15-A)*%
X73510000Y-81690000D02*
X73510000Y-79262500D01*
X73510000Y-79262500D02*
X73652500Y-79120000D01*
%TO.N,Net-(D16-A)*%
X88510000Y-81690000D02*
X88510000Y-79262500D01*
X88510000Y-79262500D02*
X88652500Y-79120000D01*
%TO.N,Net-(D12-A)*%
X88510000Y-66690000D02*
X88510000Y-64262500D01*
X88510000Y-64262500D02*
X88652500Y-64120000D01*
%TO.N,Net-(D11-A)*%
X73510000Y-66690000D02*
X73510000Y-64262500D01*
X73510000Y-64262500D02*
X73652500Y-64120000D01*
%TO.N,Net-(D10-A)*%
X58510000Y-66690000D02*
X58510000Y-64262500D01*
X58510000Y-64262500D02*
X58652500Y-64120000D01*
%TO.N,Net-(D9-A)*%
X43510000Y-66690000D02*
X43510000Y-64262500D01*
X43510000Y-64262500D02*
X43652500Y-64120000D01*
%TO.N,Net-(D6-A)*%
X58510000Y-51690000D02*
X58510000Y-49262500D01*
X58510000Y-49262500D02*
X58652500Y-49120000D01*
%TO.N,Net-(D5-A)*%
X43510000Y-51690000D02*
X43510000Y-49262500D01*
X43510000Y-49262500D02*
X43652500Y-49120000D01*
%TO.N,Net-(D1-A)*%
X43510000Y-36690000D02*
X43510000Y-34262500D01*
X43510000Y-34262500D02*
X43652500Y-34120000D01*
%TO.N,Net-(D2-A)*%
X58510000Y-36690000D02*
X58510000Y-34262500D01*
X58510000Y-34262500D02*
X58652500Y-34120000D01*
%TO.N,Net-(D3-A)*%
X73510000Y-36690000D02*
X73510000Y-34262500D01*
X73510000Y-34262500D02*
X73652500Y-34120000D01*
%TO.N,Net-(D7-A)*%
X73510000Y-51690000D02*
X73510000Y-49262500D01*
X73510000Y-49262500D02*
X73652500Y-49120000D01*
%TO.N,Net-(D8-A)*%
X88652500Y-49120000D02*
X88652500Y-51547500D01*
X88652500Y-51547500D02*
X88510000Y-51690000D01*
%TO.N,Net-(D4-A)*%
X88652500Y-34120000D02*
X88652500Y-36547500D01*
X88652500Y-36547500D02*
X88510000Y-36690000D01*
%TO.N,COL_2*%
X62920000Y-96000000D02*
X60090000Y-98830000D01*
X47010000Y-61190000D02*
X52010000Y-56190000D01*
X60090000Y-98830000D02*
X53810000Y-98830000D01*
X53810000Y-98830000D02*
X47010000Y-92030000D01*
X47010000Y-92030000D02*
X47010000Y-61190000D01*
%TO.N,COL_3*%
X60380000Y-96000000D02*
X58830000Y-97550000D01*
X49120000Y-91580000D02*
X49120000Y-74080000D01*
X58830000Y-97550000D02*
X55090000Y-97550000D01*
X49120000Y-74080000D02*
X52010000Y-71190000D01*
X55090000Y-97550000D02*
X49120000Y-91580000D01*
%TO.N,COL_4*%
X52010000Y-86190000D02*
X52010000Y-92340000D01*
X55670000Y-96000000D02*
X57840000Y-96000000D01*
X52010000Y-92340000D02*
X55670000Y-96000000D01*
%TD*%
%TA.AperFunction,Conductor*%
%TO.N,GND*%
G36*
X99442539Y-25520185D02*
G01*
X99488294Y-25572989D01*
X99499500Y-25624500D01*
X99499500Y-99375500D01*
X99479815Y-99442539D01*
X99427011Y-99488294D01*
X99375500Y-99499500D01*
X75901230Y-99499500D01*
X75834191Y-99479815D01*
X75788436Y-99427011D01*
X75778492Y-99357853D01*
X75807517Y-99294297D01*
X75813549Y-99287819D01*
X80242948Y-94858420D01*
X80242952Y-94858416D01*
X80316430Y-94748446D01*
X80316432Y-94748444D01*
X80325081Y-94735499D01*
X80325084Y-94735495D01*
X80381658Y-94598913D01*
X80410500Y-94453918D01*
X80410500Y-86872437D01*
X80430185Y-86805398D01*
X80482989Y-86759643D01*
X80552147Y-86749699D01*
X80615703Y-86778724D01*
X80644984Y-86816140D01*
X80726657Y-86976433D01*
X80865483Y-87167510D01*
X81032490Y-87334517D01*
X81223567Y-87473343D01*
X81310511Y-87517643D01*
X81434003Y-87580566D01*
X81434005Y-87580566D01*
X81434008Y-87580568D01*
X81554412Y-87619689D01*
X81658631Y-87653553D01*
X81891903Y-87690500D01*
X81891908Y-87690500D01*
X82128097Y-87690500D01*
X82361368Y-87653553D01*
X82585992Y-87580568D01*
X82796433Y-87473343D01*
X82987510Y-87334517D01*
X83154517Y-87167510D01*
X83293343Y-86976433D01*
X83400568Y-86765992D01*
X83473553Y-86541368D01*
X83510500Y-86308097D01*
X83510500Y-86071902D01*
X87009500Y-86071902D01*
X87009500Y-86308097D01*
X87046446Y-86541368D01*
X87119433Y-86765996D01*
X87173668Y-86872437D01*
X87226657Y-86976433D01*
X87365483Y-87167510D01*
X87532490Y-87334517D01*
X87723567Y-87473343D01*
X87810511Y-87517643D01*
X87934003Y-87580566D01*
X87934005Y-87580566D01*
X87934008Y-87580568D01*
X88054412Y-87619689D01*
X88158631Y-87653553D01*
X88391903Y-87690500D01*
X88391908Y-87690500D01*
X88628097Y-87690500D01*
X88861368Y-87653553D01*
X89085992Y-87580568D01*
X89296433Y-87473343D01*
X89487510Y-87334517D01*
X89654517Y-87167510D01*
X89793343Y-86976433D01*
X89900568Y-86765992D01*
X89973553Y-86541368D01*
X90010500Y-86308097D01*
X90010500Y-86071902D01*
X89973553Y-85838631D01*
X89939689Y-85734412D01*
X89900568Y-85614008D01*
X89900566Y-85614005D01*
X89900566Y-85614003D01*
X89793342Y-85403566D01*
X89654517Y-85212490D01*
X89487510Y-85045483D01*
X89296433Y-84906657D01*
X89293732Y-84905281D01*
X89085996Y-84799433D01*
X88861368Y-84726446D01*
X88628097Y-84689500D01*
X88628092Y-84689500D01*
X88391908Y-84689500D01*
X88391903Y-84689500D01*
X88158631Y-84726446D01*
X87934003Y-84799433D01*
X87723566Y-84906657D01*
X87633190Y-84972320D01*
X87532490Y-85045483D01*
X87532488Y-85045485D01*
X87532487Y-85045485D01*
X87365485Y-85212487D01*
X87365485Y-85212488D01*
X87365483Y-85212490D01*
X87305862Y-85294550D01*
X87226657Y-85403566D01*
X87119433Y-85614003D01*
X87046446Y-85838631D01*
X87009500Y-86071902D01*
X83510500Y-86071902D01*
X83473553Y-85838631D01*
X83439689Y-85734412D01*
X83400568Y-85614008D01*
X83400566Y-85614005D01*
X83400566Y-85614003D01*
X83293342Y-85403566D01*
X83154517Y-85212490D01*
X82987510Y-85045483D01*
X82796433Y-84906657D01*
X82793732Y-84905281D01*
X82585996Y-84799433D01*
X82361368Y-84726446D01*
X82128097Y-84689500D01*
X82128092Y-84689500D01*
X81891908Y-84689500D01*
X81891903Y-84689500D01*
X81658631Y-84726446D01*
X81434003Y-84799433D01*
X81223566Y-84906657D01*
X81133190Y-84972320D01*
X81032490Y-85045483D01*
X81032488Y-85045485D01*
X81032487Y-85045485D01*
X80865485Y-85212487D01*
X80865485Y-85212488D01*
X80865483Y-85212490D01*
X80805862Y-85294550D01*
X80726657Y-85403566D01*
X80644985Y-85563857D01*
X80597010Y-85614653D01*
X80529189Y-85631448D01*
X80463054Y-85608911D01*
X80419603Y-85554195D01*
X80410500Y-85507562D01*
X80410500Y-82372437D01*
X80430185Y-82305398D01*
X80482989Y-82259643D01*
X80552147Y-82249699D01*
X80615703Y-82278724D01*
X80644984Y-82316140D01*
X80726657Y-82476433D01*
X80865483Y-82667510D01*
X81032490Y-82834517D01*
X81223567Y-82973343D01*
X81322991Y-83024002D01*
X81434003Y-83080566D01*
X81434005Y-83080566D01*
X81434008Y-83080568D01*
X81554412Y-83119689D01*
X81658631Y-83153553D01*
X81891903Y-83190500D01*
X81891908Y-83190500D01*
X82128097Y-83190500D01*
X82361368Y-83153553D01*
X82585992Y-83080568D01*
X82796433Y-82973343D01*
X82987510Y-82834517D01*
X83154517Y-82667510D01*
X83293343Y-82476433D01*
X83400568Y-82265992D01*
X83473553Y-82041368D01*
X83510500Y-81808097D01*
X83510500Y-81571902D01*
X83473553Y-81338631D01*
X83439689Y-81234412D01*
X83400568Y-81114008D01*
X83400566Y-81114005D01*
X83400566Y-81114003D01*
X83293342Y-80903566D01*
X83154517Y-80712490D01*
X82987510Y-80545483D01*
X82796433Y-80406657D01*
X82752765Y-80384407D01*
X82585996Y-80299433D01*
X82361368Y-80226446D01*
X82128097Y-80189500D01*
X82128092Y-80189500D01*
X81891908Y-80189500D01*
X81891903Y-80189500D01*
X81658631Y-80226446D01*
X81434003Y-80299433D01*
X81223566Y-80406657D01*
X81133190Y-80472320D01*
X81032490Y-80545483D01*
X81032488Y-80545485D01*
X81032487Y-80545485D01*
X80865485Y-80712487D01*
X80865485Y-80712488D01*
X80865483Y-80712490D01*
X80805862Y-80794550D01*
X80726657Y-80903566D01*
X80644985Y-81063857D01*
X80597010Y-81114653D01*
X80529189Y-81131448D01*
X80463054Y-81108911D01*
X80419603Y-81054195D01*
X80410500Y-81007562D01*
X80410500Y-71872437D01*
X80430185Y-71805398D01*
X80482989Y-71759643D01*
X80552147Y-71749699D01*
X80615703Y-71778724D01*
X80644984Y-71816140D01*
X80726657Y-71976433D01*
X80865483Y-72167510D01*
X81032490Y-72334517D01*
X81223567Y-72473343D01*
X81322991Y-72524002D01*
X81434003Y-72580566D01*
X81434005Y-72580566D01*
X81434008Y-72580568D01*
X81554412Y-72619689D01*
X81658631Y-72653553D01*
X81891903Y-72690500D01*
X81891908Y-72690500D01*
X82128097Y-72690500D01*
X82361368Y-72653553D01*
X82399725Y-72641090D01*
X82585992Y-72580568D01*
X82796433Y-72473343D01*
X82987510Y-72334517D01*
X83154517Y-72167510D01*
X83293343Y-71976433D01*
X83400568Y-71765992D01*
X83473553Y-71541368D01*
X83476489Y-71522833D01*
X83510500Y-71308097D01*
X83510500Y-71071902D01*
X83473553Y-70838631D01*
X83439689Y-70734412D01*
X83400568Y-70614008D01*
X83400566Y-70614005D01*
X83400566Y-70614003D01*
X83293342Y-70403566D01*
X83154517Y-70212490D01*
X82987510Y-70045483D01*
X82796433Y-69906657D01*
X82585996Y-69799433D01*
X82361368Y-69726446D01*
X82128097Y-69689500D01*
X82128092Y-69689500D01*
X81891908Y-69689500D01*
X81891903Y-69689500D01*
X81658631Y-69726446D01*
X81434003Y-69799433D01*
X81223566Y-69906657D01*
X81114550Y-69985862D01*
X81032490Y-70045483D01*
X81032488Y-70045485D01*
X81032487Y-70045485D01*
X80865485Y-70212487D01*
X80865485Y-70212488D01*
X80865483Y-70212490D01*
X80805862Y-70294550D01*
X80726657Y-70403566D01*
X80644985Y-70563857D01*
X80597010Y-70614653D01*
X80529189Y-70631448D01*
X80463054Y-70608911D01*
X80419603Y-70554195D01*
X80410500Y-70507562D01*
X80410500Y-67372437D01*
X80430185Y-67305398D01*
X80482989Y-67259643D01*
X80552147Y-67249699D01*
X80615703Y-67278724D01*
X80644984Y-67316140D01*
X80726657Y-67476433D01*
X80865483Y-67667510D01*
X81032490Y-67834517D01*
X81223567Y-67973343D01*
X81322991Y-68024002D01*
X81434003Y-68080566D01*
X81434005Y-68080566D01*
X81434008Y-68080568D01*
X81554412Y-68119689D01*
X81658631Y-68153553D01*
X81891903Y-68190500D01*
X81891908Y-68190500D01*
X82128097Y-68190500D01*
X82361368Y-68153553D01*
X82585992Y-68080568D01*
X82796433Y-67973343D01*
X82987510Y-67834517D01*
X83154517Y-67667510D01*
X83293343Y-67476433D01*
X83400568Y-67265992D01*
X83473553Y-67041368D01*
X83510500Y-66808097D01*
X83510500Y-66571902D01*
X83473553Y-66338631D01*
X83439689Y-66234412D01*
X83400568Y-66114008D01*
X83400566Y-66114005D01*
X83400566Y-66114003D01*
X83293342Y-65903566D01*
X83154517Y-65712490D01*
X82987510Y-65545483D01*
X82796433Y-65406657D01*
X82752765Y-65384407D01*
X82585996Y-65299433D01*
X82361368Y-65226446D01*
X82128097Y-65189500D01*
X82128092Y-65189500D01*
X81891908Y-65189500D01*
X81891903Y-65189500D01*
X81658631Y-65226446D01*
X81434003Y-65299433D01*
X81223566Y-65406657D01*
X81114550Y-65485862D01*
X81032490Y-65545483D01*
X81032488Y-65545485D01*
X81032487Y-65545485D01*
X80865485Y-65712487D01*
X80865485Y-65712488D01*
X80865483Y-65712490D01*
X80805862Y-65794550D01*
X80726657Y-65903566D01*
X80644985Y-66063857D01*
X80597010Y-66114653D01*
X80529189Y-66131448D01*
X80463054Y-66108911D01*
X80419603Y-66054195D01*
X80410500Y-66007562D01*
X80410500Y-56872437D01*
X80430185Y-56805398D01*
X80482989Y-56759643D01*
X80552147Y-56749699D01*
X80615703Y-56778724D01*
X80644984Y-56816140D01*
X80726657Y-56976433D01*
X80865483Y-57167510D01*
X81032490Y-57334517D01*
X81223567Y-57473343D01*
X81322991Y-57524002D01*
X81434003Y-57580566D01*
X81434005Y-57580566D01*
X81434008Y-57580568D01*
X81554412Y-57619689D01*
X81658631Y-57653553D01*
X81891903Y-57690500D01*
X81891908Y-57690500D01*
X82128097Y-57690500D01*
X82361368Y-57653553D01*
X82399725Y-57641090D01*
X82585992Y-57580568D01*
X82796433Y-57473343D01*
X82987510Y-57334517D01*
X83154517Y-57167510D01*
X83293343Y-56976433D01*
X83400568Y-56765992D01*
X83473553Y-56541368D01*
X83476489Y-56522832D01*
X83510500Y-56308097D01*
X83510500Y-56071902D01*
X83473553Y-55838631D01*
X83439689Y-55734412D01*
X83400568Y-55614008D01*
X83400566Y-55614005D01*
X83400566Y-55614003D01*
X83293342Y-55403566D01*
X83154517Y-55212490D01*
X82987510Y-55045483D01*
X82796433Y-54906657D01*
X82585996Y-54799433D01*
X82361368Y-54726446D01*
X82128097Y-54689500D01*
X82128092Y-54689500D01*
X81891908Y-54689500D01*
X81891903Y-54689500D01*
X81658631Y-54726446D01*
X81434003Y-54799433D01*
X81223566Y-54906657D01*
X81114550Y-54985862D01*
X81032490Y-55045483D01*
X81032488Y-55045485D01*
X81032487Y-55045485D01*
X80865485Y-55212487D01*
X80865485Y-55212488D01*
X80865483Y-55212490D01*
X80805862Y-55294550D01*
X80726657Y-55403566D01*
X80644985Y-55563857D01*
X80597010Y-55614653D01*
X80529189Y-55631448D01*
X80463054Y-55608911D01*
X80419603Y-55554195D01*
X80410500Y-55507562D01*
X80410500Y-52372437D01*
X80430185Y-52305398D01*
X80482989Y-52259643D01*
X80552147Y-52249699D01*
X80615703Y-52278724D01*
X80644984Y-52316140D01*
X80726657Y-52476433D01*
X80865483Y-52667510D01*
X81032490Y-52834517D01*
X81223567Y-52973343D01*
X81322991Y-53024002D01*
X81434003Y-53080566D01*
X81434005Y-53080566D01*
X81434008Y-53080568D01*
X81554412Y-53119689D01*
X81658631Y-53153553D01*
X81891903Y-53190500D01*
X81891908Y-53190500D01*
X82128097Y-53190500D01*
X82361368Y-53153553D01*
X82585992Y-53080568D01*
X82796433Y-52973343D01*
X82987510Y-52834517D01*
X83154517Y-52667510D01*
X83293343Y-52476433D01*
X83400568Y-52265992D01*
X83473553Y-52041368D01*
X83510500Y-51808097D01*
X83510500Y-51571902D01*
X83473553Y-51338631D01*
X83439689Y-51234412D01*
X83400568Y-51114008D01*
X83400566Y-51114005D01*
X83400566Y-51114003D01*
X83293342Y-50903566D01*
X83154517Y-50712490D01*
X82987510Y-50545483D01*
X82796433Y-50406657D01*
X82752765Y-50384407D01*
X82585996Y-50299433D01*
X82361368Y-50226446D01*
X82128097Y-50189500D01*
X82128092Y-50189500D01*
X81891908Y-50189500D01*
X81891903Y-50189500D01*
X81658631Y-50226446D01*
X81434003Y-50299433D01*
X81223566Y-50406657D01*
X81117001Y-50484082D01*
X81032490Y-50545483D01*
X81032488Y-50545485D01*
X81032487Y-50545485D01*
X80865485Y-50712487D01*
X80865485Y-50712488D01*
X80865483Y-50712490D01*
X80842220Y-50744509D01*
X80726657Y-50903566D01*
X80644985Y-51063857D01*
X80597010Y-51114653D01*
X80529189Y-51131448D01*
X80463054Y-51108911D01*
X80419603Y-51054195D01*
X80410500Y-51007562D01*
X80410500Y-43902229D01*
X80430185Y-43835190D01*
X80446814Y-43814552D01*
X81570088Y-42691278D01*
X81631409Y-42657795D01*
X81677163Y-42656488D01*
X81738398Y-42666186D01*
X81891903Y-42690500D01*
X81891908Y-42690500D01*
X82128097Y-42690500D01*
X82361368Y-42653553D01*
X82399725Y-42641090D01*
X82585992Y-42580568D01*
X82796433Y-42473343D01*
X82987510Y-42334517D01*
X83154517Y-42167510D01*
X83293343Y-41976433D01*
X83400568Y-41765992D01*
X83473553Y-41541368D01*
X83476489Y-41522832D01*
X83510500Y-41308097D01*
X83510500Y-41071902D01*
X83473553Y-40838631D01*
X83400566Y-40614003D01*
X83293342Y-40403566D01*
X83154517Y-40212490D01*
X82987510Y-40045483D01*
X82796433Y-39906657D01*
X82585996Y-39799433D01*
X82361368Y-39726446D01*
X82128097Y-39689500D01*
X82128092Y-39689500D01*
X81891908Y-39689500D01*
X81891903Y-39689500D01*
X81658631Y-39726446D01*
X81434003Y-39799433D01*
X81223566Y-39906657D01*
X81114550Y-39985862D01*
X81032490Y-40045483D01*
X81032488Y-40045485D01*
X81032487Y-40045485D01*
X80865485Y-40212487D01*
X80865485Y-40212488D01*
X80865483Y-40212490D01*
X80805862Y-40294550D01*
X80726657Y-40403566D01*
X80619433Y-40614003D01*
X80546446Y-40838631D01*
X80509500Y-41071902D01*
X80509500Y-41308097D01*
X80543511Y-41522832D01*
X80534557Y-41592125D01*
X80508719Y-41629911D01*
X79077047Y-43061584D01*
X79077045Y-43061586D01*
X79056271Y-43092678D01*
X79047983Y-43105084D01*
X79021358Y-43144930D01*
X78994914Y-43184507D01*
X78938343Y-43321082D01*
X78938340Y-43321092D01*
X78909500Y-43466079D01*
X78909500Y-94017770D01*
X78889815Y-94084809D01*
X78873181Y-94105451D01*
X74735451Y-98243181D01*
X74674128Y-98276666D01*
X74647770Y-98279500D01*
X67032229Y-98279500D01*
X66965190Y-98259815D01*
X66944548Y-98243181D01*
X66246819Y-97545451D01*
X66213334Y-97484128D01*
X66210500Y-97457770D01*
X66210500Y-97187220D01*
X66230185Y-97120181D01*
X66261614Y-97086902D01*
X66339792Y-97030104D01*
X66453329Y-96916566D01*
X66514648Y-96883084D01*
X66584340Y-96888068D01*
X66640274Y-96929939D01*
X66657189Y-96960917D01*
X66706202Y-97092328D01*
X66706206Y-97092335D01*
X66792452Y-97207544D01*
X66792455Y-97207547D01*
X66907664Y-97293793D01*
X66907671Y-97293797D01*
X67042517Y-97344091D01*
X67042516Y-97344091D01*
X67046144Y-97344481D01*
X67102127Y-97350500D01*
X68897872Y-97350499D01*
X68957483Y-97344091D01*
X69092331Y-97293796D01*
X69207546Y-97207546D01*
X69293796Y-97092331D01*
X69344091Y-96957483D01*
X69350500Y-96897873D01*
X69350499Y-95102128D01*
X69344091Y-95042517D01*
X69342810Y-95039083D01*
X69293797Y-94907671D01*
X69293793Y-94907664D01*
X69207547Y-94792455D01*
X69207544Y-94792452D01*
X69092335Y-94706206D01*
X69092328Y-94706202D01*
X68957482Y-94655908D01*
X68957483Y-94655908D01*
X68897883Y-94649501D01*
X68897881Y-94649500D01*
X68897873Y-94649500D01*
X68897865Y-94649500D01*
X68887309Y-94649500D01*
X68820270Y-94629815D01*
X68799628Y-94613181D01*
X68129408Y-93942962D01*
X68192993Y-93925925D01*
X68307007Y-93860099D01*
X68400099Y-93767007D01*
X68465925Y-93652993D01*
X68482962Y-93589409D01*
X69115270Y-94221717D01*
X69115270Y-94221716D01*
X69154622Y-94167554D01*
X69251095Y-93978217D01*
X69316757Y-93776130D01*
X69316757Y-93776127D01*
X69350000Y-93566246D01*
X69350000Y-93353753D01*
X69316757Y-93143872D01*
X69316757Y-93143869D01*
X69251095Y-92941782D01*
X69154624Y-92752449D01*
X69115270Y-92698282D01*
X69115269Y-92698282D01*
X68482962Y-93330590D01*
X68465925Y-93267007D01*
X68400099Y-93152993D01*
X68307007Y-93059901D01*
X68192993Y-92994075D01*
X68129409Y-92977037D01*
X68761716Y-92344728D01*
X68707550Y-92305375D01*
X68608655Y-92254985D01*
X68557859Y-92207010D01*
X68541064Y-92139189D01*
X68563602Y-92073054D01*
X68618317Y-92029603D01*
X68664950Y-92020500D01*
X73583920Y-92020500D01*
X73681462Y-92001096D01*
X73728913Y-91991658D01*
X73865495Y-91935084D01*
X73919630Y-91898912D01*
X73988416Y-91852952D01*
X78232951Y-87608416D01*
X78315084Y-87485495D01*
X78371658Y-87348913D01*
X78400500Y-87203918D01*
X78400500Y-87056083D01*
X78400500Y-36571902D01*
X80509500Y-36571902D01*
X80509500Y-36808097D01*
X80546446Y-37041368D01*
X80619433Y-37265996D01*
X80726657Y-37476433D01*
X80865483Y-37667510D01*
X81032490Y-37834517D01*
X81223567Y-37973343D01*
X81322991Y-38024002D01*
X81434003Y-38080566D01*
X81434005Y-38080566D01*
X81434008Y-38080568D01*
X81554412Y-38119689D01*
X81658631Y-38153553D01*
X81891903Y-38190500D01*
X81891908Y-38190500D01*
X82128097Y-38190500D01*
X82361368Y-38153553D01*
X82585992Y-38080568D01*
X82796433Y-37973343D01*
X82987510Y-37834517D01*
X83154517Y-37667510D01*
X83293343Y-37476433D01*
X83400568Y-37265992D01*
X83473553Y-37041368D01*
X83510500Y-36808097D01*
X83510500Y-36571902D01*
X83473553Y-36338631D01*
X83400566Y-36114003D01*
X83293342Y-35903566D01*
X83154517Y-35712490D01*
X82987510Y-35545483D01*
X82796433Y-35406657D01*
X82752765Y-35384407D01*
X82585996Y-35299433D01*
X82361368Y-35226446D01*
X82128097Y-35189500D01*
X82128092Y-35189500D01*
X81891908Y-35189500D01*
X81891903Y-35189500D01*
X81658631Y-35226446D01*
X81434003Y-35299433D01*
X81223566Y-35406657D01*
X81117001Y-35484082D01*
X81032490Y-35545483D01*
X81032488Y-35545485D01*
X81032487Y-35545485D01*
X80865485Y-35712487D01*
X80865485Y-35712488D01*
X80865483Y-35712490D01*
X80805862Y-35794550D01*
X80726657Y-35903566D01*
X80619433Y-36114003D01*
X80546446Y-36338631D01*
X80509500Y-36571902D01*
X78400500Y-36571902D01*
X78400500Y-34382230D01*
X78420185Y-34315191D01*
X78436819Y-34294549D01*
X79914549Y-32816819D01*
X79975872Y-32783334D01*
X80002230Y-32780500D01*
X88247770Y-32780500D01*
X88277210Y-32789144D01*
X88307197Y-32795668D01*
X88312212Y-32799422D01*
X88314809Y-32800185D01*
X88335451Y-32816819D01*
X88452909Y-32934277D01*
X88486394Y-32995600D01*
X88481410Y-33065292D01*
X88439538Y-33121225D01*
X88377831Y-33145316D01*
X88287317Y-33154563D01*
X88287316Y-33154563D01*
X88287315Y-33154564D01*
X88243497Y-33169084D01*
X88127715Y-33207450D01*
X88127704Y-33207455D01*
X87984612Y-33295716D01*
X87984608Y-33295719D01*
X87865719Y-33414608D01*
X87865716Y-33414612D01*
X87777455Y-33557704D01*
X87777451Y-33557713D01*
X87724564Y-33717315D01*
X87724564Y-33717316D01*
X87724563Y-33717316D01*
X87714500Y-33815818D01*
X87714500Y-34424181D01*
X87724563Y-34522683D01*
X87777450Y-34682284D01*
X87777455Y-34682295D01*
X87865716Y-34825387D01*
X87870197Y-34831054D01*
X87869217Y-34831828D01*
X87899166Y-34886676D01*
X87902000Y-34913034D01*
X87902000Y-35239752D01*
X87882315Y-35306791D01*
X87834296Y-35350236D01*
X87723569Y-35406655D01*
X87628028Y-35476070D01*
X87532490Y-35545483D01*
X87532488Y-35545485D01*
X87532487Y-35545485D01*
X87365485Y-35712487D01*
X87365485Y-35712488D01*
X87365483Y-35712490D01*
X87305862Y-35794550D01*
X87226657Y-35903566D01*
X87119433Y-36114003D01*
X87046446Y-36338631D01*
X87009500Y-36571902D01*
X87009500Y-36808097D01*
X87046446Y-37041368D01*
X87119433Y-37265996D01*
X87226657Y-37476433D01*
X87365483Y-37667510D01*
X87532490Y-37834517D01*
X87723567Y-37973343D01*
X87822991Y-38024002D01*
X87934003Y-38080566D01*
X87934005Y-38080566D01*
X87934008Y-38080568D01*
X88054412Y-38119689D01*
X88158631Y-38153553D01*
X88391903Y-38190500D01*
X88391908Y-38190500D01*
X88628097Y-38190500D01*
X88861368Y-38153553D01*
X89085992Y-38080568D01*
X89296433Y-37973343D01*
X89296434Y-37973341D01*
X89296705Y-37973204D01*
X89365374Y-37960308D01*
X89430115Y-37986584D01*
X89470372Y-38043691D01*
X89477000Y-38083689D01*
X89477000Y-39796310D01*
X89457315Y-39863349D01*
X89404511Y-39909104D01*
X89335353Y-39919048D01*
X89296705Y-39906795D01*
X89085996Y-39799434D01*
X89085995Y-39799433D01*
X89085992Y-39799432D01*
X88993477Y-39769372D01*
X88861368Y-39726446D01*
X88628097Y-39689500D01*
X88628092Y-39689500D01*
X88391908Y-39689500D01*
X88391903Y-39689500D01*
X88158631Y-39726446D01*
X87934003Y-39799433D01*
X87723566Y-39906657D01*
X87614550Y-39985862D01*
X87532490Y-40045483D01*
X87532488Y-40045485D01*
X87532487Y-40045485D01*
X87365485Y-40212487D01*
X87365485Y-40212488D01*
X87365483Y-40212490D01*
X87305862Y-40294550D01*
X87226657Y-40403566D01*
X87119433Y-40614003D01*
X87046446Y-40838631D01*
X87009500Y-41071902D01*
X87009500Y-41308097D01*
X87046446Y-41541368D01*
X87119433Y-41765996D01*
X87226657Y-41976433D01*
X87365483Y-42167510D01*
X87532490Y-42334517D01*
X87723567Y-42473343D01*
X87803200Y-42513918D01*
X87934003Y-42580566D01*
X87934005Y-42580566D01*
X87934008Y-42580568D01*
X88054412Y-42619689D01*
X88158631Y-42653553D01*
X88391903Y-42690500D01*
X88391908Y-42690500D01*
X88628097Y-42690500D01*
X88861368Y-42653553D01*
X88899725Y-42641090D01*
X89085992Y-42580568D01*
X89296433Y-42473343D01*
X89296434Y-42473341D01*
X89296705Y-42473204D01*
X89365374Y-42460308D01*
X89430115Y-42486584D01*
X89470372Y-42543691D01*
X89477000Y-42583689D01*
X89477000Y-48170141D01*
X89457315Y-48237180D01*
X89404511Y-48282935D01*
X89335353Y-48292879D01*
X89287903Y-48275680D01*
X89177289Y-48207452D01*
X89177284Y-48207450D01*
X89175876Y-48206983D01*
X89017685Y-48154564D01*
X89017683Y-48154563D01*
X88919181Y-48144500D01*
X88919174Y-48144500D01*
X88385826Y-48144500D01*
X88385818Y-48144500D01*
X88287316Y-48154563D01*
X88287315Y-48154564D01*
X88240307Y-48170141D01*
X88127715Y-48207450D01*
X88127704Y-48207455D01*
X87984612Y-48295716D01*
X87984608Y-48295719D01*
X87865719Y-48414608D01*
X87865716Y-48414612D01*
X87777455Y-48557704D01*
X87777451Y-48557713D01*
X87724564Y-48717315D01*
X87724564Y-48717316D01*
X87724563Y-48717316D01*
X87714500Y-48815818D01*
X87714500Y-49424181D01*
X87724563Y-49522683D01*
X87777450Y-49682284D01*
X87777455Y-49682295D01*
X87865716Y-49825387D01*
X87870197Y-49831054D01*
X87869217Y-49831828D01*
X87899166Y-49886676D01*
X87902000Y-49913034D01*
X87902000Y-50239752D01*
X87882315Y-50306791D01*
X87834296Y-50350236D01*
X87723569Y-50406655D01*
X87628028Y-50476070D01*
X87532490Y-50545483D01*
X87532488Y-50545485D01*
X87532487Y-50545485D01*
X87365485Y-50712487D01*
X87365485Y-50712488D01*
X87365483Y-50712490D01*
X87342220Y-50744509D01*
X87226657Y-50903566D01*
X87119433Y-51114003D01*
X87046446Y-51338631D01*
X87009500Y-51571902D01*
X87009500Y-51808097D01*
X87046446Y-52041368D01*
X87119433Y-52265996D01*
X87173668Y-52372437D01*
X87226657Y-52476433D01*
X87365483Y-52667510D01*
X87532490Y-52834517D01*
X87723567Y-52973343D01*
X87822991Y-53024002D01*
X87934003Y-53080566D01*
X87934005Y-53080566D01*
X87934008Y-53080568D01*
X88054412Y-53119689D01*
X88158631Y-53153553D01*
X88391903Y-53190500D01*
X88391908Y-53190500D01*
X88628097Y-53190500D01*
X88861368Y-53153553D01*
X89085992Y-53080568D01*
X89296433Y-52973343D01*
X89296434Y-52973341D01*
X89296705Y-52973204D01*
X89365374Y-52960308D01*
X89430115Y-52986584D01*
X89470372Y-53043691D01*
X89477000Y-53083689D01*
X89477000Y-54796310D01*
X89457315Y-54863349D01*
X89404511Y-54909104D01*
X89335353Y-54919048D01*
X89296705Y-54906795D01*
X89085996Y-54799434D01*
X89085995Y-54799433D01*
X89085992Y-54799432D01*
X88993477Y-54769372D01*
X88861368Y-54726446D01*
X88628097Y-54689500D01*
X88628092Y-54689500D01*
X88391908Y-54689500D01*
X88391903Y-54689500D01*
X88158631Y-54726446D01*
X87934003Y-54799433D01*
X87723566Y-54906657D01*
X87614550Y-54985862D01*
X87532490Y-55045483D01*
X87532488Y-55045485D01*
X87532487Y-55045485D01*
X87365485Y-55212487D01*
X87365485Y-55212488D01*
X87365483Y-55212490D01*
X87305862Y-55294550D01*
X87226657Y-55403566D01*
X87119433Y-55614003D01*
X87046446Y-55838631D01*
X87009500Y-56071902D01*
X87009500Y-56308097D01*
X87046446Y-56541368D01*
X87119433Y-56765996D01*
X87173668Y-56872437D01*
X87226657Y-56976433D01*
X87365483Y-57167510D01*
X87532490Y-57334517D01*
X87723567Y-57473343D01*
X87822991Y-57524002D01*
X87934003Y-57580566D01*
X87934005Y-57580566D01*
X87934008Y-57580568D01*
X88054412Y-57619689D01*
X88158631Y-57653553D01*
X88391903Y-57690500D01*
X88391908Y-57690500D01*
X88628097Y-57690500D01*
X88861368Y-57653553D01*
X88899725Y-57641090D01*
X89085992Y-57580568D01*
X89296433Y-57473343D01*
X89296434Y-57473341D01*
X89296705Y-57473204D01*
X89365374Y-57460308D01*
X89430115Y-57486584D01*
X89470372Y-57543691D01*
X89477000Y-57583689D01*
X89477000Y-63170141D01*
X89457315Y-63237180D01*
X89404511Y-63282935D01*
X89335353Y-63292879D01*
X89287903Y-63275680D01*
X89177289Y-63207452D01*
X89177284Y-63207450D01*
X89175876Y-63206983D01*
X89017685Y-63154564D01*
X89017683Y-63154563D01*
X88919181Y-63144500D01*
X88919174Y-63144500D01*
X88385826Y-63144500D01*
X88385818Y-63144500D01*
X88287316Y-63154563D01*
X88287315Y-63154564D01*
X88240307Y-63170141D01*
X88127715Y-63207450D01*
X88127704Y-63207455D01*
X87984612Y-63295716D01*
X87984608Y-63295719D01*
X87865719Y-63414608D01*
X87865716Y-63414612D01*
X87777455Y-63557704D01*
X87777451Y-63557713D01*
X87724564Y-63717315D01*
X87724564Y-63717316D01*
X87724563Y-63717316D01*
X87714500Y-63815818D01*
X87714500Y-64424181D01*
X87724563Y-64522683D01*
X87753206Y-64609119D01*
X87759500Y-64648123D01*
X87759500Y-65317368D01*
X87739815Y-65384407D01*
X87708386Y-65417686D01*
X87532488Y-65545484D01*
X87365485Y-65712487D01*
X87365485Y-65712488D01*
X87365483Y-65712490D01*
X87305862Y-65794550D01*
X87226657Y-65903566D01*
X87119433Y-66114003D01*
X87046446Y-66338631D01*
X87009500Y-66571902D01*
X87009500Y-66808097D01*
X87046446Y-67041368D01*
X87119433Y-67265996D01*
X87173668Y-67372437D01*
X87226657Y-67476433D01*
X87365483Y-67667510D01*
X87532490Y-67834517D01*
X87723567Y-67973343D01*
X87822991Y-68024002D01*
X87934003Y-68080566D01*
X87934005Y-68080566D01*
X87934008Y-68080568D01*
X88054412Y-68119689D01*
X88158631Y-68153553D01*
X88391903Y-68190500D01*
X88391908Y-68190500D01*
X88628097Y-68190500D01*
X88861368Y-68153553D01*
X89085992Y-68080568D01*
X89296433Y-67973343D01*
X89296434Y-67973341D01*
X89296705Y-67973204D01*
X89365374Y-67960308D01*
X89430115Y-67986584D01*
X89470372Y-68043691D01*
X89477000Y-68083689D01*
X89477000Y-69796310D01*
X89457315Y-69863349D01*
X89404511Y-69909104D01*
X89335353Y-69919048D01*
X89296705Y-69906795D01*
X89085996Y-69799434D01*
X89085995Y-69799433D01*
X89085992Y-69799432D01*
X88993477Y-69769372D01*
X88861368Y-69726446D01*
X88628097Y-69689500D01*
X88628092Y-69689500D01*
X88391908Y-69689500D01*
X88391903Y-69689500D01*
X88158631Y-69726446D01*
X87934003Y-69799433D01*
X87723566Y-69906657D01*
X87614550Y-69985862D01*
X87532490Y-70045483D01*
X87532488Y-70045485D01*
X87532487Y-70045485D01*
X87365485Y-70212487D01*
X87365485Y-70212488D01*
X87365483Y-70212490D01*
X87305862Y-70294550D01*
X87226657Y-70403566D01*
X87119433Y-70614003D01*
X87046446Y-70838631D01*
X87009500Y-71071902D01*
X87009500Y-71308097D01*
X87046446Y-71541368D01*
X87119433Y-71765996D01*
X87173668Y-71872437D01*
X87226657Y-71976433D01*
X87365483Y-72167510D01*
X87532490Y-72334517D01*
X87723567Y-72473343D01*
X87822991Y-72524002D01*
X87934003Y-72580566D01*
X87934005Y-72580566D01*
X87934008Y-72580568D01*
X88054412Y-72619689D01*
X88158631Y-72653553D01*
X88391903Y-72690500D01*
X88391908Y-72690500D01*
X88628097Y-72690500D01*
X88861368Y-72653553D01*
X88899725Y-72641090D01*
X89085992Y-72580568D01*
X89296433Y-72473343D01*
X89296434Y-72473341D01*
X89296705Y-72473204D01*
X89365374Y-72460308D01*
X89430115Y-72486584D01*
X89470372Y-72543691D01*
X89477000Y-72583689D01*
X89477000Y-78170141D01*
X89457315Y-78237180D01*
X89404511Y-78282935D01*
X89335353Y-78292879D01*
X89287903Y-78275680D01*
X89177289Y-78207452D01*
X89177284Y-78207450D01*
X89175876Y-78206983D01*
X89017685Y-78154564D01*
X89017683Y-78154563D01*
X88919181Y-78144500D01*
X88919174Y-78144500D01*
X88385826Y-78144500D01*
X88385818Y-78144500D01*
X88287316Y-78154563D01*
X88287315Y-78154564D01*
X88240307Y-78170141D01*
X88127715Y-78207450D01*
X88127704Y-78207455D01*
X87984612Y-78295716D01*
X87984608Y-78295719D01*
X87865719Y-78414608D01*
X87865716Y-78414612D01*
X87777455Y-78557704D01*
X87777451Y-78557713D01*
X87724564Y-78717315D01*
X87724564Y-78717316D01*
X87724563Y-78717316D01*
X87714500Y-78815818D01*
X87714500Y-79424181D01*
X87724563Y-79522683D01*
X87753206Y-79609119D01*
X87759500Y-79648123D01*
X87759500Y-80317368D01*
X87739815Y-80384407D01*
X87708386Y-80417686D01*
X87532488Y-80545484D01*
X87365485Y-80712487D01*
X87365485Y-80712488D01*
X87365483Y-80712490D01*
X87305862Y-80794550D01*
X87226657Y-80903566D01*
X87119433Y-81114003D01*
X87046446Y-81338631D01*
X87009500Y-81571902D01*
X87009500Y-81808097D01*
X87046446Y-82041368D01*
X87119433Y-82265996D01*
X87173668Y-82372437D01*
X87226657Y-82476433D01*
X87365483Y-82667510D01*
X87532490Y-82834517D01*
X87723567Y-82973343D01*
X87822991Y-83024002D01*
X87934003Y-83080566D01*
X87934005Y-83080566D01*
X87934008Y-83080568D01*
X88054412Y-83119689D01*
X88158631Y-83153553D01*
X88391903Y-83190500D01*
X88391908Y-83190500D01*
X88628097Y-83190500D01*
X88861368Y-83153553D01*
X89085992Y-83080568D01*
X89296433Y-82973343D01*
X89487510Y-82834517D01*
X89654517Y-82667510D01*
X89793343Y-82476433D01*
X89900568Y-82265992D01*
X89973553Y-82041368D01*
X90010500Y-81808097D01*
X90010500Y-81571902D01*
X89973553Y-81338631D01*
X89939689Y-81234412D01*
X89900568Y-81114008D01*
X89900566Y-81114005D01*
X89900566Y-81114003D01*
X89793342Y-80903566D01*
X89654517Y-80712490D01*
X89487510Y-80545483D01*
X89386810Y-80472320D01*
X89311614Y-80417686D01*
X89268949Y-80362355D01*
X89260500Y-80317368D01*
X89260500Y-80050428D01*
X89280185Y-79983389D01*
X89301143Y-79958626D01*
X89309634Y-79950915D01*
X89320391Y-79944281D01*
X89354436Y-79910235D01*
X89356643Y-79908232D01*
X89385499Y-79894234D01*
X89413642Y-79878868D01*
X89416725Y-79879088D01*
X89419508Y-79877739D01*
X89451346Y-79881564D01*
X89483334Y-79883852D01*
X89486311Y-79885765D01*
X89488879Y-79886074D01*
X89496171Y-79892102D01*
X89527681Y-79912353D01*
X89559608Y-79944280D01*
X89559612Y-79944283D01*
X89702704Y-80032544D01*
X89702707Y-80032545D01*
X89702713Y-80032549D01*
X89862315Y-80085436D01*
X89960826Y-80095500D01*
X89960831Y-80095500D01*
X90494169Y-80095500D01*
X90494174Y-80095500D01*
X90592685Y-80085436D01*
X90752287Y-80032549D01*
X90895391Y-79944281D01*
X91014281Y-79825391D01*
X91102549Y-79682287D01*
X91155436Y-79522685D01*
X91165500Y-79424174D01*
X91165500Y-78815826D01*
X91155436Y-78717315D01*
X91102549Y-78557713D01*
X91102545Y-78557707D01*
X91102544Y-78557704D01*
X91014283Y-78414612D01*
X91009803Y-78408946D01*
X91010782Y-78408171D01*
X90980834Y-78353324D01*
X90978000Y-78326966D01*
X90978000Y-64913034D01*
X90997685Y-64845995D01*
X91013890Y-64825885D01*
X91014275Y-64825396D01*
X91014281Y-64825391D01*
X91102549Y-64682287D01*
X91155436Y-64522685D01*
X91165500Y-64424174D01*
X91165500Y-63815826D01*
X91155436Y-63717315D01*
X91102549Y-63557713D01*
X91102545Y-63557707D01*
X91102544Y-63557704D01*
X91014283Y-63414612D01*
X91009803Y-63408946D01*
X91010782Y-63408171D01*
X90980834Y-63353324D01*
X90978000Y-63326966D01*
X90978000Y-49913034D01*
X90997685Y-49845995D01*
X91013890Y-49825885D01*
X91014275Y-49825396D01*
X91014281Y-49825391D01*
X91102549Y-49682287D01*
X91155436Y-49522685D01*
X91165500Y-49424174D01*
X91165500Y-48815826D01*
X91155436Y-48717315D01*
X91102549Y-48557713D01*
X91102545Y-48557707D01*
X91102544Y-48557704D01*
X91014283Y-48414612D01*
X91009803Y-48408946D01*
X91010782Y-48408171D01*
X90980834Y-48353324D01*
X90978000Y-48326966D01*
X90978000Y-34913034D01*
X90997685Y-34845995D01*
X91013890Y-34825885D01*
X91014275Y-34825396D01*
X91014281Y-34825391D01*
X91102549Y-34682287D01*
X91155436Y-34522685D01*
X91165500Y-34424174D01*
X91165500Y-33815826D01*
X91155436Y-33717315D01*
X91102549Y-33557713D01*
X91102545Y-33557706D01*
X91102544Y-33557704D01*
X91014283Y-33414612D01*
X91014280Y-33414608D01*
X90903049Y-33303377D01*
X90887628Y-33284587D01*
X90810452Y-33169085D01*
X90762592Y-33121225D01*
X90705916Y-33064549D01*
X90421867Y-32780500D01*
X89088421Y-31447052D01*
X89088418Y-31447049D01*
X89013586Y-31397049D01*
X88965495Y-31364916D01*
X88965492Y-31364914D01*
X88965491Y-31364914D01*
X88828917Y-31308343D01*
X88828907Y-31308340D01*
X88683920Y-31279500D01*
X88683918Y-31279500D01*
X79566082Y-31279500D01*
X79566080Y-31279500D01*
X79421092Y-31308340D01*
X79421082Y-31308343D01*
X79284508Y-31364914D01*
X79236414Y-31397049D01*
X79161581Y-31447049D01*
X77067049Y-33541581D01*
X77029742Y-33597415D01*
X77029743Y-33597416D01*
X76984914Y-33664508D01*
X76928343Y-33801082D01*
X76928340Y-33801092D01*
X76899500Y-33946079D01*
X76899500Y-86767770D01*
X76879815Y-86834809D01*
X76863181Y-86855451D01*
X73235451Y-90483181D01*
X73174128Y-90516666D01*
X73147770Y-90519500D01*
X68051230Y-90519500D01*
X67984191Y-90499815D01*
X67938436Y-90447011D01*
X67928492Y-90377853D01*
X67957517Y-90314297D01*
X67963549Y-90307819D01*
X70812948Y-87458419D01*
X70812947Y-87458419D01*
X70812951Y-87458416D01*
X70895084Y-87335495D01*
X70951658Y-87198913D01*
X70961096Y-87151462D01*
X70980500Y-87053920D01*
X70980500Y-86071902D01*
X72009500Y-86071902D01*
X72009500Y-86308097D01*
X72046446Y-86541368D01*
X72119433Y-86765996D01*
X72173668Y-86872437D01*
X72226657Y-86976433D01*
X72365483Y-87167510D01*
X72532490Y-87334517D01*
X72723567Y-87473343D01*
X72810511Y-87517643D01*
X72934003Y-87580566D01*
X72934005Y-87580566D01*
X72934008Y-87580568D01*
X73054412Y-87619689D01*
X73158631Y-87653553D01*
X73391903Y-87690500D01*
X73391908Y-87690500D01*
X73628097Y-87690500D01*
X73861368Y-87653553D01*
X74085992Y-87580568D01*
X74296433Y-87473343D01*
X74487510Y-87334517D01*
X74654517Y-87167510D01*
X74793343Y-86976433D01*
X74900568Y-86765992D01*
X74973553Y-86541368D01*
X75010500Y-86308097D01*
X75010500Y-86071902D01*
X74973553Y-85838631D01*
X74939689Y-85734412D01*
X74900568Y-85614008D01*
X74900566Y-85614005D01*
X74900566Y-85614003D01*
X74793342Y-85403566D01*
X74654517Y-85212490D01*
X74487510Y-85045483D01*
X74296433Y-84906657D01*
X74293732Y-84905281D01*
X74085996Y-84799433D01*
X73861368Y-84726446D01*
X73628097Y-84689500D01*
X73628092Y-84689500D01*
X73391908Y-84689500D01*
X73391903Y-84689500D01*
X73158631Y-84726446D01*
X72934003Y-84799433D01*
X72723566Y-84906657D01*
X72633190Y-84972320D01*
X72532490Y-85045483D01*
X72532488Y-85045485D01*
X72532487Y-85045485D01*
X72365485Y-85212487D01*
X72365485Y-85212488D01*
X72365483Y-85212490D01*
X72305862Y-85294550D01*
X72226657Y-85403566D01*
X72119433Y-85614003D01*
X72046446Y-85838631D01*
X72009500Y-86071902D01*
X70980500Y-86071902D01*
X70980500Y-79629729D01*
X71000185Y-79562690D01*
X71016819Y-79542048D01*
X74265319Y-76293548D01*
X74326642Y-76260063D01*
X74396334Y-76265047D01*
X74452267Y-76306919D01*
X74476684Y-76372383D01*
X74477000Y-76381229D01*
X74477000Y-78170141D01*
X74457315Y-78237180D01*
X74404511Y-78282935D01*
X74335353Y-78292879D01*
X74287903Y-78275680D01*
X74177289Y-78207452D01*
X74177284Y-78207450D01*
X74175876Y-78206983D01*
X74017685Y-78154564D01*
X74017683Y-78154563D01*
X73919181Y-78144500D01*
X73919174Y-78144500D01*
X73385826Y-78144500D01*
X73385818Y-78144500D01*
X73287316Y-78154563D01*
X73287315Y-78154564D01*
X73240307Y-78170141D01*
X73127715Y-78207450D01*
X73127704Y-78207455D01*
X72984612Y-78295716D01*
X72984608Y-78295719D01*
X72865719Y-78414608D01*
X72865716Y-78414612D01*
X72777455Y-78557704D01*
X72777451Y-78557713D01*
X72724564Y-78717315D01*
X72724564Y-78717316D01*
X72724563Y-78717316D01*
X72714500Y-78815818D01*
X72714500Y-79424181D01*
X72724563Y-79522683D01*
X72753206Y-79609119D01*
X72759500Y-79648123D01*
X72759500Y-80317368D01*
X72739815Y-80384407D01*
X72708386Y-80417686D01*
X72532488Y-80545484D01*
X72365485Y-80712487D01*
X72365485Y-80712488D01*
X72365483Y-80712490D01*
X72305862Y-80794550D01*
X72226657Y-80903566D01*
X72119433Y-81114003D01*
X72046446Y-81338631D01*
X72009500Y-81571902D01*
X72009500Y-81808097D01*
X72046446Y-82041368D01*
X72119433Y-82265996D01*
X72173668Y-82372437D01*
X72226657Y-82476433D01*
X72365483Y-82667510D01*
X72532490Y-82834517D01*
X72723567Y-82973343D01*
X72822991Y-83024002D01*
X72934003Y-83080566D01*
X72934005Y-83080566D01*
X72934008Y-83080568D01*
X73054412Y-83119689D01*
X73158631Y-83153553D01*
X73391903Y-83190500D01*
X73391908Y-83190500D01*
X73628097Y-83190500D01*
X73861368Y-83153553D01*
X74085992Y-83080568D01*
X74296433Y-82973343D01*
X74487510Y-82834517D01*
X74654517Y-82667510D01*
X74793343Y-82476433D01*
X74900568Y-82265992D01*
X74973553Y-82041368D01*
X75010500Y-81808097D01*
X75010500Y-81571902D01*
X74973553Y-81338631D01*
X74939689Y-81234412D01*
X74900568Y-81114008D01*
X74900566Y-81114005D01*
X74900566Y-81114003D01*
X74793342Y-80903566D01*
X74654517Y-80712490D01*
X74487510Y-80545483D01*
X74386810Y-80472320D01*
X74311614Y-80417686D01*
X74268949Y-80362355D01*
X74260500Y-80317368D01*
X74260500Y-80050428D01*
X74280185Y-79983389D01*
X74301143Y-79958626D01*
X74309634Y-79950915D01*
X74320391Y-79944281D01*
X74354436Y-79910235D01*
X74356643Y-79908232D01*
X74385499Y-79894234D01*
X74413642Y-79878868D01*
X74416725Y-79879088D01*
X74419508Y-79877739D01*
X74451346Y-79881564D01*
X74483334Y-79883852D01*
X74486311Y-79885765D01*
X74488879Y-79886074D01*
X74496171Y-79892102D01*
X74527681Y-79912353D01*
X74559608Y-79944280D01*
X74559612Y-79944283D01*
X74702704Y-80032544D01*
X74702707Y-80032545D01*
X74702713Y-80032549D01*
X74862315Y-80085436D01*
X74960826Y-80095500D01*
X74960831Y-80095500D01*
X75494169Y-80095500D01*
X75494174Y-80095500D01*
X75592685Y-80085436D01*
X75752287Y-80032549D01*
X75895391Y-79944281D01*
X76014281Y-79825391D01*
X76102549Y-79682287D01*
X76155436Y-79522685D01*
X76165500Y-79424174D01*
X76165500Y-78815826D01*
X76155436Y-78717315D01*
X76102549Y-78557713D01*
X76102545Y-78557707D01*
X76102544Y-78557704D01*
X76014283Y-78414612D01*
X76009803Y-78408946D01*
X76010782Y-78408171D01*
X75980834Y-78353324D01*
X75978000Y-78326966D01*
X75978000Y-64913034D01*
X75997685Y-64845995D01*
X76013890Y-64825885D01*
X76014275Y-64825396D01*
X76014281Y-64825391D01*
X76102549Y-64682287D01*
X76155436Y-64522685D01*
X76165500Y-64424174D01*
X76165500Y-63815826D01*
X76155436Y-63717315D01*
X76102549Y-63557713D01*
X76102545Y-63557707D01*
X76102544Y-63557704D01*
X76014283Y-63414612D01*
X76009803Y-63408946D01*
X76010782Y-63408171D01*
X75980834Y-63353324D01*
X75978000Y-63326966D01*
X75978000Y-49913034D01*
X75997685Y-49845995D01*
X76013890Y-49825885D01*
X76014275Y-49825396D01*
X76014281Y-49825391D01*
X76102549Y-49682287D01*
X76155436Y-49522685D01*
X76165500Y-49424174D01*
X76165500Y-48815826D01*
X76155436Y-48717315D01*
X76102549Y-48557713D01*
X76102545Y-48557707D01*
X76102544Y-48557704D01*
X76014283Y-48414612D01*
X76009803Y-48408946D01*
X76010782Y-48408171D01*
X75980834Y-48353324D01*
X75978000Y-48326966D01*
X75978000Y-46743579D01*
X75949159Y-46598592D01*
X75949158Y-46598591D01*
X75949158Y-46598587D01*
X75892584Y-46462005D01*
X75859686Y-46412770D01*
X75859685Y-46412768D01*
X75810456Y-46339089D01*
X75810452Y-46339084D01*
X71636819Y-42165451D01*
X71603334Y-42104128D01*
X71600500Y-42077770D01*
X71600500Y-41071902D01*
X72009500Y-41071902D01*
X72009500Y-41308097D01*
X72046446Y-41541368D01*
X72119433Y-41765996D01*
X72226657Y-41976433D01*
X72365483Y-42167510D01*
X72532490Y-42334517D01*
X72723567Y-42473343D01*
X72803200Y-42513918D01*
X72934003Y-42580566D01*
X72934005Y-42580566D01*
X72934008Y-42580568D01*
X73054412Y-42619689D01*
X73158631Y-42653553D01*
X73391903Y-42690500D01*
X73391908Y-42690500D01*
X73628097Y-42690500D01*
X73861368Y-42653553D01*
X73899725Y-42641090D01*
X74085992Y-42580568D01*
X74296433Y-42473343D01*
X74487510Y-42334517D01*
X74654517Y-42167510D01*
X74793343Y-41976433D01*
X74900568Y-41765992D01*
X74973553Y-41541368D01*
X74976489Y-41522832D01*
X75010500Y-41308097D01*
X75010500Y-41071902D01*
X74973553Y-40838631D01*
X74900566Y-40614003D01*
X74793342Y-40403566D01*
X74654517Y-40212490D01*
X74487510Y-40045483D01*
X74296433Y-39906657D01*
X74085996Y-39799433D01*
X73861368Y-39726446D01*
X73628097Y-39689500D01*
X73628092Y-39689500D01*
X73391908Y-39689500D01*
X73391903Y-39689500D01*
X73158631Y-39726446D01*
X72934003Y-39799433D01*
X72723566Y-39906657D01*
X72614550Y-39985862D01*
X72532490Y-40045483D01*
X72532488Y-40045485D01*
X72532487Y-40045485D01*
X72365485Y-40212487D01*
X72365485Y-40212488D01*
X72365483Y-40212490D01*
X72305862Y-40294550D01*
X72226657Y-40403566D01*
X72119433Y-40614003D01*
X72046446Y-40838631D01*
X72009500Y-41071902D01*
X71600500Y-41071902D01*
X71600500Y-32522229D01*
X71620185Y-32455190D01*
X71636819Y-32434548D01*
X72344548Y-31726819D01*
X72405871Y-31693334D01*
X72432229Y-31690500D01*
X73897770Y-31690500D01*
X73964809Y-31710185D01*
X73985451Y-31726819D01*
X74513181Y-32254548D01*
X74546666Y-32315871D01*
X74549500Y-32342229D01*
X74549500Y-33225466D01*
X74529815Y-33292505D01*
X74477011Y-33338260D01*
X74407853Y-33348204D01*
X74344297Y-33319179D01*
X74337819Y-33313147D01*
X74320391Y-33295719D01*
X74320387Y-33295716D01*
X74177295Y-33207455D01*
X74177289Y-33207452D01*
X74177287Y-33207451D01*
X74017685Y-33154564D01*
X74017683Y-33154563D01*
X73919181Y-33144500D01*
X73919174Y-33144500D01*
X73385826Y-33144500D01*
X73385818Y-33144500D01*
X73287316Y-33154563D01*
X73287315Y-33154564D01*
X73243497Y-33169084D01*
X73127715Y-33207450D01*
X73127704Y-33207455D01*
X72984612Y-33295716D01*
X72984608Y-33295719D01*
X72865719Y-33414608D01*
X72865716Y-33414612D01*
X72777455Y-33557704D01*
X72777451Y-33557713D01*
X72724564Y-33717315D01*
X72724564Y-33717316D01*
X72724563Y-33717316D01*
X72714500Y-33815818D01*
X72714500Y-34424181D01*
X72724563Y-34522683D01*
X72753206Y-34609119D01*
X72759500Y-34648123D01*
X72759500Y-35317368D01*
X72739815Y-35384407D01*
X72708386Y-35417686D01*
X72532488Y-35545484D01*
X72365485Y-35712487D01*
X72365485Y-35712488D01*
X72365483Y-35712490D01*
X72305862Y-35794550D01*
X72226657Y-35903566D01*
X72119433Y-36114003D01*
X72046446Y-36338631D01*
X72009500Y-36571902D01*
X72009500Y-36808097D01*
X72046446Y-37041368D01*
X72119433Y-37265996D01*
X72226657Y-37476433D01*
X72365483Y-37667510D01*
X72532490Y-37834517D01*
X72723567Y-37973343D01*
X72822991Y-38024002D01*
X72934003Y-38080566D01*
X72934005Y-38080566D01*
X72934008Y-38080568D01*
X73054412Y-38119689D01*
X73158631Y-38153553D01*
X73391903Y-38190500D01*
X73391908Y-38190500D01*
X73628097Y-38190500D01*
X73861368Y-38153553D01*
X74085992Y-38080568D01*
X74296433Y-37973343D01*
X74487510Y-37834517D01*
X74654517Y-37667510D01*
X74793343Y-37476433D01*
X74900568Y-37265992D01*
X74973553Y-37041368D01*
X75010500Y-36808097D01*
X75010500Y-36571902D01*
X74973553Y-36338631D01*
X74900566Y-36114003D01*
X74793342Y-35903566D01*
X74654517Y-35712490D01*
X74487510Y-35545483D01*
X74402999Y-35484082D01*
X74311614Y-35417686D01*
X74268949Y-35362355D01*
X74260500Y-35317368D01*
X74260500Y-35050428D01*
X74280185Y-34983389D01*
X74301143Y-34958626D01*
X74309634Y-34950915D01*
X74320391Y-34944281D01*
X74354436Y-34910235D01*
X74356643Y-34908232D01*
X74385499Y-34894234D01*
X74413642Y-34878868D01*
X74416725Y-34879088D01*
X74419508Y-34877739D01*
X74451346Y-34881564D01*
X74483334Y-34883852D01*
X74486311Y-34885765D01*
X74488879Y-34886074D01*
X74496171Y-34892102D01*
X74527681Y-34912353D01*
X74559608Y-34944280D01*
X74559612Y-34944283D01*
X74702704Y-35032544D01*
X74702707Y-35032545D01*
X74702713Y-35032549D01*
X74862315Y-35085436D01*
X74960826Y-35095500D01*
X74960831Y-35095500D01*
X75494169Y-35095500D01*
X75494174Y-35095500D01*
X75592685Y-35085436D01*
X75752287Y-35032549D01*
X75895391Y-34944281D01*
X76014281Y-34825391D01*
X76102549Y-34682287D01*
X76155436Y-34522685D01*
X76165500Y-34424174D01*
X76165500Y-33815826D01*
X76155436Y-33717315D01*
X76102549Y-33557713D01*
X76102545Y-33557706D01*
X76068961Y-33503257D01*
X76050500Y-33438161D01*
X76050500Y-31906079D01*
X76021659Y-31761092D01*
X76021658Y-31761091D01*
X76021658Y-31761087D01*
X75988727Y-31681584D01*
X75965087Y-31624511D01*
X75965080Y-31624498D01*
X75882952Y-31501585D01*
X75882951Y-31501584D01*
X75778416Y-31397049D01*
X75660867Y-31279500D01*
X74738421Y-30357052D01*
X74738414Y-30357046D01*
X74664729Y-30307812D01*
X74664729Y-30307813D01*
X74615491Y-30274913D01*
X74478917Y-30218343D01*
X74478907Y-30218340D01*
X74333920Y-30189500D01*
X74333918Y-30189500D01*
X71996082Y-30189500D01*
X71996076Y-30189500D01*
X71967242Y-30195234D01*
X71967243Y-30195235D01*
X71851093Y-30218339D01*
X71851083Y-30218342D01*
X71771081Y-30251479D01*
X71771082Y-30251480D01*
X71714505Y-30274915D01*
X71632372Y-30329795D01*
X71591585Y-30357047D01*
X71591581Y-30357050D01*
X70267050Y-31681580D01*
X70267044Y-31681588D01*
X70217812Y-31755268D01*
X70217813Y-31755269D01*
X70184921Y-31804496D01*
X70184914Y-31804508D01*
X70128342Y-31941086D01*
X70128340Y-31941092D01*
X70099500Y-32086079D01*
X70099500Y-32086082D01*
X70099500Y-42513918D01*
X70099500Y-42513920D01*
X70099499Y-42513920D01*
X70128340Y-42658907D01*
X70128343Y-42658917D01*
X70184913Y-42795490D01*
X70184914Y-42795491D01*
X70184916Y-42795495D01*
X70200181Y-42818340D01*
X70200182Y-42818342D01*
X70267051Y-42918420D01*
X70267052Y-42918421D01*
X74440681Y-47092049D01*
X74474166Y-47153372D01*
X74477000Y-47179730D01*
X74477000Y-48170141D01*
X74457315Y-48237180D01*
X74404511Y-48282935D01*
X74335353Y-48292879D01*
X74287903Y-48275680D01*
X74177289Y-48207452D01*
X74177284Y-48207450D01*
X74175876Y-48206983D01*
X74017685Y-48154564D01*
X74017683Y-48154563D01*
X73919181Y-48144500D01*
X73919174Y-48144500D01*
X73385826Y-48144500D01*
X73385818Y-48144500D01*
X73287316Y-48154563D01*
X73287315Y-48154564D01*
X73240307Y-48170141D01*
X73127715Y-48207450D01*
X73127704Y-48207455D01*
X72984612Y-48295716D01*
X72984608Y-48295719D01*
X72865719Y-48414608D01*
X72865716Y-48414612D01*
X72777455Y-48557704D01*
X72777451Y-48557713D01*
X72724564Y-48717315D01*
X72724564Y-48717316D01*
X72724563Y-48717316D01*
X72714500Y-48815818D01*
X72714500Y-49424181D01*
X72724563Y-49522683D01*
X72753206Y-49609119D01*
X72759500Y-49648123D01*
X72759500Y-50317368D01*
X72739815Y-50384407D01*
X72708386Y-50417686D01*
X72532488Y-50545484D01*
X72365485Y-50712487D01*
X72365485Y-50712488D01*
X72365483Y-50712490D01*
X72342220Y-50744509D01*
X72226657Y-50903566D01*
X72119433Y-51114003D01*
X72046446Y-51338631D01*
X72009500Y-51571902D01*
X72009500Y-51808097D01*
X72046446Y-52041368D01*
X72119433Y-52265996D01*
X72173668Y-52372437D01*
X72226657Y-52476433D01*
X72365483Y-52667510D01*
X72532490Y-52834517D01*
X72723567Y-52973343D01*
X72822991Y-53024002D01*
X72934003Y-53080566D01*
X72934005Y-53080566D01*
X72934008Y-53080568D01*
X73054412Y-53119689D01*
X73158631Y-53153553D01*
X73391903Y-53190500D01*
X73391908Y-53190500D01*
X73628097Y-53190500D01*
X73861368Y-53153553D01*
X74085992Y-53080568D01*
X74296433Y-52973343D01*
X74296434Y-52973341D01*
X74296705Y-52973204D01*
X74365374Y-52960308D01*
X74430115Y-52986584D01*
X74470372Y-53043691D01*
X74477000Y-53083689D01*
X74477000Y-54796310D01*
X74457315Y-54863349D01*
X74404511Y-54909104D01*
X74335353Y-54919048D01*
X74296705Y-54906795D01*
X74085996Y-54799434D01*
X74085995Y-54799433D01*
X74085992Y-54799432D01*
X73993477Y-54769372D01*
X73861368Y-54726446D01*
X73628097Y-54689500D01*
X73628092Y-54689500D01*
X73391908Y-54689500D01*
X73391903Y-54689500D01*
X73158631Y-54726446D01*
X72934003Y-54799433D01*
X72723566Y-54906657D01*
X72614550Y-54985862D01*
X72532490Y-55045483D01*
X72532488Y-55045485D01*
X72532487Y-55045485D01*
X72365485Y-55212487D01*
X72365485Y-55212488D01*
X72365483Y-55212490D01*
X72305862Y-55294550D01*
X72226657Y-55403566D01*
X72119433Y-55614003D01*
X72046446Y-55838631D01*
X72009500Y-56071902D01*
X72009500Y-56308097D01*
X72046446Y-56541368D01*
X72119433Y-56765996D01*
X72173668Y-56872437D01*
X72226657Y-56976433D01*
X72365483Y-57167510D01*
X72532490Y-57334517D01*
X72723567Y-57473343D01*
X72822991Y-57524002D01*
X72934003Y-57580566D01*
X72934005Y-57580566D01*
X72934008Y-57580568D01*
X73054412Y-57619689D01*
X73158631Y-57653553D01*
X73391903Y-57690500D01*
X73391908Y-57690500D01*
X73628097Y-57690500D01*
X73861368Y-57653553D01*
X73899725Y-57641090D01*
X74085992Y-57580568D01*
X74296433Y-57473343D01*
X74296434Y-57473341D01*
X74296705Y-57473204D01*
X74365374Y-57460308D01*
X74430115Y-57486584D01*
X74470372Y-57543691D01*
X74477000Y-57583689D01*
X74477000Y-63170141D01*
X74457315Y-63237180D01*
X74404511Y-63282935D01*
X74335353Y-63292879D01*
X74287903Y-63275680D01*
X74177289Y-63207452D01*
X74177284Y-63207450D01*
X74175876Y-63206983D01*
X74017685Y-63154564D01*
X74017683Y-63154563D01*
X73919181Y-63144500D01*
X73919174Y-63144500D01*
X73385826Y-63144500D01*
X73385818Y-63144500D01*
X73287316Y-63154563D01*
X73287315Y-63154564D01*
X73240307Y-63170141D01*
X73127715Y-63207450D01*
X73127704Y-63207455D01*
X72984612Y-63295716D01*
X72984608Y-63295719D01*
X72865719Y-63414608D01*
X72865716Y-63414612D01*
X72777455Y-63557704D01*
X72777451Y-63557713D01*
X72724564Y-63717315D01*
X72724564Y-63717316D01*
X72724563Y-63717316D01*
X72714500Y-63815818D01*
X72714500Y-64424181D01*
X72724563Y-64522683D01*
X72753206Y-64609119D01*
X72759500Y-64648123D01*
X72759500Y-65317368D01*
X72739815Y-65384407D01*
X72708386Y-65417686D01*
X72532488Y-65545484D01*
X72365485Y-65712487D01*
X72365485Y-65712488D01*
X72365483Y-65712490D01*
X72305862Y-65794550D01*
X72226657Y-65903566D01*
X72119433Y-66114003D01*
X72046446Y-66338631D01*
X72009500Y-66571902D01*
X72009500Y-66808097D01*
X72046446Y-67041368D01*
X72119433Y-67265996D01*
X72173668Y-67372437D01*
X72226657Y-67476433D01*
X72365483Y-67667510D01*
X72532490Y-67834517D01*
X72723567Y-67973343D01*
X72822991Y-68024002D01*
X72934003Y-68080566D01*
X72934005Y-68080566D01*
X72934008Y-68080568D01*
X73054412Y-68119689D01*
X73158631Y-68153553D01*
X73391903Y-68190500D01*
X73391908Y-68190500D01*
X73628097Y-68190500D01*
X73861368Y-68153553D01*
X74085992Y-68080568D01*
X74296433Y-67973343D01*
X74296434Y-67973341D01*
X74296705Y-67973204D01*
X74365374Y-67960308D01*
X74430115Y-67986584D01*
X74470372Y-68043691D01*
X74477000Y-68083689D01*
X74477000Y-69796310D01*
X74457315Y-69863349D01*
X74404511Y-69909104D01*
X74335353Y-69919048D01*
X74296705Y-69906795D01*
X74085996Y-69799434D01*
X74085995Y-69799433D01*
X74085992Y-69799432D01*
X73993477Y-69769372D01*
X73861368Y-69726446D01*
X73628097Y-69689500D01*
X73628092Y-69689500D01*
X73391908Y-69689500D01*
X73391903Y-69689500D01*
X73158631Y-69726446D01*
X72934003Y-69799433D01*
X72723566Y-69906657D01*
X72614550Y-69985862D01*
X72532490Y-70045483D01*
X72532488Y-70045485D01*
X72532487Y-70045485D01*
X72365485Y-70212487D01*
X72365485Y-70212488D01*
X72365483Y-70212490D01*
X72305862Y-70294550D01*
X72226657Y-70403566D01*
X72119433Y-70614003D01*
X72046446Y-70838631D01*
X72009500Y-71071902D01*
X72009500Y-71308097D01*
X72046446Y-71541368D01*
X72119433Y-71765996D01*
X72173668Y-71872437D01*
X72226657Y-71976433D01*
X72365483Y-72167510D01*
X72532490Y-72334517D01*
X72723567Y-72473343D01*
X72822991Y-72524002D01*
X72934003Y-72580566D01*
X72934005Y-72580566D01*
X72934008Y-72580568D01*
X73054412Y-72619689D01*
X73158631Y-72653553D01*
X73391903Y-72690500D01*
X73391908Y-72690500D01*
X73628097Y-72690500D01*
X73861368Y-72653553D01*
X73899725Y-72641090D01*
X74085992Y-72580568D01*
X74296433Y-72473343D01*
X74296434Y-72473341D01*
X74296705Y-72473204D01*
X74365374Y-72460308D01*
X74430115Y-72486584D01*
X74470372Y-72543691D01*
X74477000Y-72583689D01*
X74477000Y-73907769D01*
X74457315Y-73974808D01*
X74440681Y-73995450D01*
X69647050Y-78789080D01*
X69647044Y-78789088D01*
X69597812Y-78862768D01*
X69597813Y-78862769D01*
X69564921Y-78911996D01*
X69564914Y-78912008D01*
X69508342Y-79048586D01*
X69508340Y-79048592D01*
X69479500Y-79193579D01*
X69479500Y-86617770D01*
X69459815Y-86684809D01*
X69443181Y-86705451D01*
X66825451Y-89323181D01*
X66764128Y-89356666D01*
X66737770Y-89359500D01*
X64416080Y-89359500D01*
X64271092Y-89388340D01*
X64271082Y-89388343D01*
X64134511Y-89444912D01*
X64134498Y-89444919D01*
X64011584Y-89527048D01*
X64011580Y-89527051D01*
X62337050Y-91201580D01*
X62337044Y-91201588D01*
X62287812Y-91275268D01*
X62287813Y-91275269D01*
X62254921Y-91324496D01*
X62254914Y-91324508D01*
X62198342Y-91461086D01*
X62198340Y-91461092D01*
X62169500Y-91606079D01*
X62169500Y-92272779D01*
X62149815Y-92339818D01*
X62118385Y-92373097D01*
X62040211Y-92429893D01*
X62040208Y-92429896D01*
X61889894Y-92580209D01*
X61889890Y-92580213D01*
X61764949Y-92752182D01*
X61760484Y-92760946D01*
X61712509Y-92811742D01*
X61644688Y-92828536D01*
X61578553Y-92805998D01*
X61539516Y-92760946D01*
X61535050Y-92752182D01*
X61410109Y-92580213D01*
X61259792Y-92429896D01*
X61259788Y-92429893D01*
X61181615Y-92373097D01*
X61138949Y-92317767D01*
X61130500Y-92272779D01*
X61130500Y-86071902D01*
X65509500Y-86071902D01*
X65509500Y-86308097D01*
X65546446Y-86541368D01*
X65619433Y-86765996D01*
X65673668Y-86872437D01*
X65726657Y-86976433D01*
X65865483Y-87167510D01*
X66032490Y-87334517D01*
X66223567Y-87473343D01*
X66310511Y-87517643D01*
X66434003Y-87580566D01*
X66434005Y-87580566D01*
X66434008Y-87580568D01*
X66554412Y-87619689D01*
X66658631Y-87653553D01*
X66891903Y-87690500D01*
X66891908Y-87690500D01*
X67128097Y-87690500D01*
X67361368Y-87653553D01*
X67585992Y-87580568D01*
X67796433Y-87473343D01*
X67987510Y-87334517D01*
X68154517Y-87167510D01*
X68293343Y-86976433D01*
X68400568Y-86765992D01*
X68473553Y-86541368D01*
X68510500Y-86308097D01*
X68510500Y-86071902D01*
X68473553Y-85838631D01*
X68439689Y-85734412D01*
X68400568Y-85614008D01*
X68400566Y-85614005D01*
X68400566Y-85614003D01*
X68293342Y-85403566D01*
X68154517Y-85212490D01*
X67987510Y-85045483D01*
X67796433Y-84906657D01*
X67793732Y-84905281D01*
X67585996Y-84799433D01*
X67361368Y-84726446D01*
X67128097Y-84689500D01*
X67128092Y-84689500D01*
X66891908Y-84689500D01*
X66891903Y-84689500D01*
X66658631Y-84726446D01*
X66434003Y-84799433D01*
X66223566Y-84906657D01*
X66133190Y-84972320D01*
X66032490Y-85045483D01*
X66032488Y-85045485D01*
X66032487Y-85045485D01*
X65865485Y-85212487D01*
X65865485Y-85212488D01*
X65865483Y-85212490D01*
X65805862Y-85294550D01*
X65726657Y-85403566D01*
X65619433Y-85614003D01*
X65546446Y-85838631D01*
X65509500Y-86071902D01*
X61130500Y-86071902D01*
X61130500Y-81571902D01*
X65509500Y-81571902D01*
X65509500Y-81808097D01*
X65546446Y-82041368D01*
X65619433Y-82265996D01*
X65673668Y-82372437D01*
X65726657Y-82476433D01*
X65865483Y-82667510D01*
X66032490Y-82834517D01*
X66223567Y-82973343D01*
X66322991Y-83024002D01*
X66434003Y-83080566D01*
X66434005Y-83080566D01*
X66434008Y-83080568D01*
X66554412Y-83119689D01*
X66658631Y-83153553D01*
X66891903Y-83190500D01*
X66891908Y-83190500D01*
X67128097Y-83190500D01*
X67361368Y-83153553D01*
X67585992Y-83080568D01*
X67796433Y-82973343D01*
X67987510Y-82834517D01*
X68154517Y-82667510D01*
X68293343Y-82476433D01*
X68400568Y-82265992D01*
X68473553Y-82041368D01*
X68510500Y-81808097D01*
X68510500Y-81571902D01*
X68473553Y-81338631D01*
X68439689Y-81234412D01*
X68400568Y-81114008D01*
X68400566Y-81114005D01*
X68400566Y-81114003D01*
X68293342Y-80903566D01*
X68154517Y-80712490D01*
X67987510Y-80545483D01*
X67796433Y-80406657D01*
X67752765Y-80384407D01*
X67585996Y-80299433D01*
X67361368Y-80226446D01*
X67128097Y-80189500D01*
X67128092Y-80189500D01*
X66891908Y-80189500D01*
X66891903Y-80189500D01*
X66658631Y-80226446D01*
X66434003Y-80299433D01*
X66223566Y-80406657D01*
X66133190Y-80472320D01*
X66032490Y-80545483D01*
X66032488Y-80545485D01*
X66032487Y-80545485D01*
X65865485Y-80712487D01*
X65865485Y-80712488D01*
X65865483Y-80712490D01*
X65805862Y-80794550D01*
X65726657Y-80903566D01*
X65619433Y-81114003D01*
X65546446Y-81338631D01*
X65509500Y-81571902D01*
X61130500Y-81571902D01*
X61130500Y-79617945D01*
X61136794Y-79578941D01*
X61155436Y-79522685D01*
X61165500Y-79424174D01*
X61165500Y-78815826D01*
X61155436Y-78717315D01*
X61102549Y-78557713D01*
X61102545Y-78557707D01*
X61102544Y-78557704D01*
X61014283Y-78414612D01*
X61009803Y-78408946D01*
X61010782Y-78408171D01*
X60980834Y-78353324D01*
X60978000Y-78326966D01*
X60978000Y-71071902D01*
X65509500Y-71071902D01*
X65509500Y-71308097D01*
X65546446Y-71541368D01*
X65619433Y-71765996D01*
X65673668Y-71872437D01*
X65726657Y-71976433D01*
X65865483Y-72167510D01*
X66032490Y-72334517D01*
X66223567Y-72473343D01*
X66322991Y-72524002D01*
X66434003Y-72580566D01*
X66434005Y-72580566D01*
X66434008Y-72580568D01*
X66554412Y-72619689D01*
X66658631Y-72653553D01*
X66891903Y-72690500D01*
X66891908Y-72690500D01*
X67128097Y-72690500D01*
X67361368Y-72653553D01*
X67399725Y-72641090D01*
X67585992Y-72580568D01*
X67796433Y-72473343D01*
X67987510Y-72334517D01*
X68154517Y-72167510D01*
X68293343Y-71976433D01*
X68400568Y-71765992D01*
X68473553Y-71541368D01*
X68476489Y-71522833D01*
X68510500Y-71308097D01*
X68510500Y-71071902D01*
X68473553Y-70838631D01*
X68439689Y-70734412D01*
X68400568Y-70614008D01*
X68400566Y-70614005D01*
X68400566Y-70614003D01*
X68293342Y-70403566D01*
X68154517Y-70212490D01*
X67987510Y-70045483D01*
X67796433Y-69906657D01*
X67585996Y-69799433D01*
X67361368Y-69726446D01*
X67128097Y-69689500D01*
X67128092Y-69689500D01*
X66891908Y-69689500D01*
X66891903Y-69689500D01*
X66658631Y-69726446D01*
X66434003Y-69799433D01*
X66223566Y-69906657D01*
X66114550Y-69985862D01*
X66032490Y-70045483D01*
X66032488Y-70045485D01*
X66032487Y-70045485D01*
X65865485Y-70212487D01*
X65865485Y-70212488D01*
X65865483Y-70212490D01*
X65805862Y-70294550D01*
X65726657Y-70403566D01*
X65619433Y-70614003D01*
X65546446Y-70838631D01*
X65509500Y-71071902D01*
X60978000Y-71071902D01*
X60978000Y-66571902D01*
X65509500Y-66571902D01*
X65509500Y-66808097D01*
X65546446Y-67041368D01*
X65619433Y-67265996D01*
X65673668Y-67372437D01*
X65726657Y-67476433D01*
X65865483Y-67667510D01*
X66032490Y-67834517D01*
X66223567Y-67973343D01*
X66322991Y-68024002D01*
X66434003Y-68080566D01*
X66434005Y-68080566D01*
X66434008Y-68080568D01*
X66554412Y-68119689D01*
X66658631Y-68153553D01*
X66891903Y-68190500D01*
X66891908Y-68190500D01*
X67128097Y-68190500D01*
X67361368Y-68153553D01*
X67585992Y-68080568D01*
X67796433Y-67973343D01*
X67987510Y-67834517D01*
X68154517Y-67667510D01*
X68293343Y-67476433D01*
X68400568Y-67265992D01*
X68473553Y-67041368D01*
X68510500Y-66808097D01*
X68510500Y-66571902D01*
X68473553Y-66338631D01*
X68439689Y-66234412D01*
X68400568Y-66114008D01*
X68400566Y-66114005D01*
X68400566Y-66114003D01*
X68293342Y-65903566D01*
X68154517Y-65712490D01*
X67987510Y-65545483D01*
X67796433Y-65406657D01*
X67752765Y-65384407D01*
X67585996Y-65299433D01*
X67361368Y-65226446D01*
X67128097Y-65189500D01*
X67128092Y-65189500D01*
X66891908Y-65189500D01*
X66891903Y-65189500D01*
X66658631Y-65226446D01*
X66434003Y-65299433D01*
X66223566Y-65406657D01*
X66114550Y-65485862D01*
X66032490Y-65545483D01*
X66032488Y-65545485D01*
X66032487Y-65545485D01*
X65865485Y-65712487D01*
X65865485Y-65712488D01*
X65865483Y-65712490D01*
X65805862Y-65794550D01*
X65726657Y-65903566D01*
X65619433Y-66114003D01*
X65546446Y-66338631D01*
X65509500Y-66571902D01*
X60978000Y-66571902D01*
X60978000Y-64913034D01*
X60997685Y-64845995D01*
X61013890Y-64825885D01*
X61014275Y-64825396D01*
X61014281Y-64825391D01*
X61102549Y-64682287D01*
X61155436Y-64522685D01*
X61165500Y-64424174D01*
X61165500Y-63815826D01*
X61155436Y-63717315D01*
X61102549Y-63557713D01*
X61102545Y-63557707D01*
X61102544Y-63557704D01*
X61014283Y-63414612D01*
X61009803Y-63408946D01*
X61010782Y-63408171D01*
X60980834Y-63353324D01*
X60978000Y-63326966D01*
X60978000Y-56071902D01*
X65509500Y-56071902D01*
X65509500Y-56308097D01*
X65546446Y-56541368D01*
X65619433Y-56765996D01*
X65673668Y-56872437D01*
X65726657Y-56976433D01*
X65865483Y-57167510D01*
X66032490Y-57334517D01*
X66223567Y-57473343D01*
X66322991Y-57524002D01*
X66434003Y-57580566D01*
X66434005Y-57580566D01*
X66434008Y-57580568D01*
X66554412Y-57619689D01*
X66658631Y-57653553D01*
X66891903Y-57690500D01*
X66891908Y-57690500D01*
X67128097Y-57690500D01*
X67361368Y-57653553D01*
X67399725Y-57641090D01*
X67585992Y-57580568D01*
X67796433Y-57473343D01*
X67987510Y-57334517D01*
X68154517Y-57167510D01*
X68293343Y-56976433D01*
X68400568Y-56765992D01*
X68473553Y-56541368D01*
X68476489Y-56522832D01*
X68510500Y-56308097D01*
X68510500Y-56071902D01*
X68473553Y-55838631D01*
X68439689Y-55734412D01*
X68400568Y-55614008D01*
X68400566Y-55614005D01*
X68400566Y-55614003D01*
X68293342Y-55403566D01*
X68154517Y-55212490D01*
X67987510Y-55045483D01*
X67796433Y-54906657D01*
X67585996Y-54799433D01*
X67361368Y-54726446D01*
X67128097Y-54689500D01*
X67128092Y-54689500D01*
X66891908Y-54689500D01*
X66891903Y-54689500D01*
X66658631Y-54726446D01*
X66434003Y-54799433D01*
X66223566Y-54906657D01*
X66114550Y-54985862D01*
X66032490Y-55045483D01*
X66032488Y-55045485D01*
X66032487Y-55045485D01*
X65865485Y-55212487D01*
X65865485Y-55212488D01*
X65865483Y-55212490D01*
X65805862Y-55294550D01*
X65726657Y-55403566D01*
X65619433Y-55614003D01*
X65546446Y-55838631D01*
X65509500Y-56071902D01*
X60978000Y-56071902D01*
X60978000Y-51571902D01*
X65509500Y-51571902D01*
X65509500Y-51808097D01*
X65546446Y-52041368D01*
X65619433Y-52265996D01*
X65673668Y-52372437D01*
X65726657Y-52476433D01*
X65865483Y-52667510D01*
X66032490Y-52834517D01*
X66223567Y-52973343D01*
X66322991Y-53024002D01*
X66434003Y-53080566D01*
X66434005Y-53080566D01*
X66434008Y-53080568D01*
X66554412Y-53119689D01*
X66658631Y-53153553D01*
X66891903Y-53190500D01*
X66891908Y-53190500D01*
X67128097Y-53190500D01*
X67361368Y-53153553D01*
X67585992Y-53080568D01*
X67796433Y-52973343D01*
X67987510Y-52834517D01*
X68154517Y-52667510D01*
X68293343Y-52476433D01*
X68400568Y-52265992D01*
X68473553Y-52041368D01*
X68510500Y-51808097D01*
X68510500Y-51571902D01*
X68473553Y-51338631D01*
X68439689Y-51234412D01*
X68400568Y-51114008D01*
X68400566Y-51114005D01*
X68400566Y-51114003D01*
X68293342Y-50903566D01*
X68154517Y-50712490D01*
X67987510Y-50545483D01*
X67796433Y-50406657D01*
X67752765Y-50384407D01*
X67585996Y-50299433D01*
X67361368Y-50226446D01*
X67128097Y-50189500D01*
X67128092Y-50189500D01*
X66891908Y-50189500D01*
X66891903Y-50189500D01*
X66658631Y-50226446D01*
X66434003Y-50299433D01*
X66223566Y-50406657D01*
X66117001Y-50484082D01*
X66032490Y-50545483D01*
X66032488Y-50545485D01*
X66032487Y-50545485D01*
X65865485Y-50712487D01*
X65865485Y-50712488D01*
X65865483Y-50712490D01*
X65842220Y-50744509D01*
X65726657Y-50903566D01*
X65619433Y-51114003D01*
X65546446Y-51338631D01*
X65509500Y-51571902D01*
X60978000Y-51571902D01*
X60978000Y-49913034D01*
X60997685Y-49845995D01*
X61013890Y-49825885D01*
X61014275Y-49825396D01*
X61014281Y-49825391D01*
X61102549Y-49682287D01*
X61155436Y-49522685D01*
X61165500Y-49424174D01*
X61165500Y-48815826D01*
X61155436Y-48717315D01*
X61102549Y-48557713D01*
X61102545Y-48557707D01*
X61102544Y-48557704D01*
X61014283Y-48414612D01*
X61009803Y-48408946D01*
X61010782Y-48408171D01*
X60980834Y-48353324D01*
X60978000Y-48326966D01*
X60978000Y-41071902D01*
X65509500Y-41071902D01*
X65509500Y-41308097D01*
X65546446Y-41541368D01*
X65619433Y-41765996D01*
X65726657Y-41976433D01*
X65865483Y-42167510D01*
X66032490Y-42334517D01*
X66223567Y-42473343D01*
X66303200Y-42513918D01*
X66434003Y-42580566D01*
X66434005Y-42580566D01*
X66434008Y-42580568D01*
X66554412Y-42619689D01*
X66658631Y-42653553D01*
X66891903Y-42690500D01*
X66891908Y-42690500D01*
X67128097Y-42690500D01*
X67361368Y-42653553D01*
X67399725Y-42641090D01*
X67585992Y-42580568D01*
X67796433Y-42473343D01*
X67987510Y-42334517D01*
X68154517Y-42167510D01*
X68293343Y-41976433D01*
X68400568Y-41765992D01*
X68473553Y-41541368D01*
X68476489Y-41522832D01*
X68510500Y-41308097D01*
X68510500Y-41071902D01*
X68473553Y-40838631D01*
X68400566Y-40614003D01*
X68293342Y-40403566D01*
X68154517Y-40212490D01*
X67987510Y-40045483D01*
X67796433Y-39906657D01*
X67585996Y-39799433D01*
X67361368Y-39726446D01*
X67128097Y-39689500D01*
X67128092Y-39689500D01*
X66891908Y-39689500D01*
X66891903Y-39689500D01*
X66658631Y-39726446D01*
X66434003Y-39799433D01*
X66223566Y-39906657D01*
X66114550Y-39985862D01*
X66032490Y-40045483D01*
X66032488Y-40045485D01*
X66032487Y-40045485D01*
X65865485Y-40212487D01*
X65865485Y-40212488D01*
X65865483Y-40212490D01*
X65805862Y-40294550D01*
X65726657Y-40403566D01*
X65619433Y-40614003D01*
X65546446Y-40838631D01*
X65509500Y-41071902D01*
X60978000Y-41071902D01*
X60978000Y-36571902D01*
X65509500Y-36571902D01*
X65509500Y-36808097D01*
X65546446Y-37041368D01*
X65619433Y-37265996D01*
X65726657Y-37476433D01*
X65865483Y-37667510D01*
X66032490Y-37834517D01*
X66223567Y-37973343D01*
X66322991Y-38024002D01*
X66434003Y-38080566D01*
X66434005Y-38080566D01*
X66434008Y-38080568D01*
X66554412Y-38119689D01*
X66658631Y-38153553D01*
X66891903Y-38190500D01*
X66891908Y-38190500D01*
X67128097Y-38190500D01*
X67361368Y-38153553D01*
X67585992Y-38080568D01*
X67796433Y-37973343D01*
X67987510Y-37834517D01*
X68154517Y-37667510D01*
X68293343Y-37476433D01*
X68400568Y-37265992D01*
X68473553Y-37041368D01*
X68510500Y-36808097D01*
X68510500Y-36571902D01*
X68473553Y-36338631D01*
X68400566Y-36114003D01*
X68293342Y-35903566D01*
X68154517Y-35712490D01*
X67987510Y-35545483D01*
X67796433Y-35406657D01*
X67752765Y-35384407D01*
X67585996Y-35299433D01*
X67361368Y-35226446D01*
X67128097Y-35189500D01*
X67128092Y-35189500D01*
X66891908Y-35189500D01*
X66891903Y-35189500D01*
X66658631Y-35226446D01*
X66434003Y-35299433D01*
X66223566Y-35406657D01*
X66117001Y-35484082D01*
X66032490Y-35545483D01*
X66032488Y-35545485D01*
X66032487Y-35545485D01*
X65865485Y-35712487D01*
X65865485Y-35712488D01*
X65865483Y-35712490D01*
X65805862Y-35794550D01*
X65726657Y-35903566D01*
X65619433Y-36114003D01*
X65546446Y-36338631D01*
X65509500Y-36571902D01*
X60978000Y-36571902D01*
X60978000Y-34913034D01*
X60997685Y-34845995D01*
X61013890Y-34825885D01*
X61014275Y-34825396D01*
X61014281Y-34825391D01*
X61102549Y-34682287D01*
X61155436Y-34522685D01*
X61165500Y-34424174D01*
X61165500Y-33815826D01*
X61155436Y-33717315D01*
X61102549Y-33557713D01*
X61102545Y-33557706D01*
X61102544Y-33557704D01*
X61014283Y-33414612D01*
X61014280Y-33414608D01*
X60895391Y-33295719D01*
X60895387Y-33295716D01*
X60752295Y-33207455D01*
X60752289Y-33207452D01*
X60752287Y-33207451D01*
X60592685Y-33154564D01*
X60592683Y-33154563D01*
X60494181Y-33144500D01*
X60494174Y-33144500D01*
X59960826Y-33144500D01*
X59960818Y-33144500D01*
X59862316Y-33154563D01*
X59862315Y-33154564D01*
X59818497Y-33169084D01*
X59702715Y-33207450D01*
X59702704Y-33207455D01*
X59559612Y-33295716D01*
X59559608Y-33295719D01*
X59527681Y-33327647D01*
X59466358Y-33361132D01*
X59396666Y-33356148D01*
X59352319Y-33327647D01*
X59320391Y-33295719D01*
X59320387Y-33295716D01*
X59177295Y-33207455D01*
X59177289Y-33207452D01*
X59177287Y-33207451D01*
X59017685Y-33154564D01*
X59017683Y-33154563D01*
X58919181Y-33144500D01*
X58919174Y-33144500D01*
X58385826Y-33144500D01*
X58385818Y-33144500D01*
X58287316Y-33154563D01*
X58287315Y-33154564D01*
X58243497Y-33169084D01*
X58127715Y-33207450D01*
X58127704Y-33207455D01*
X57984612Y-33295716D01*
X57984608Y-33295719D01*
X57865719Y-33414608D01*
X57865716Y-33414612D01*
X57777455Y-33557704D01*
X57777451Y-33557713D01*
X57724564Y-33717315D01*
X57724564Y-33717316D01*
X57724563Y-33717316D01*
X57714500Y-33815818D01*
X57714500Y-34424181D01*
X57724563Y-34522683D01*
X57753206Y-34609119D01*
X57759500Y-34648123D01*
X57759500Y-35317368D01*
X57739815Y-35384407D01*
X57708386Y-35417686D01*
X57532488Y-35545484D01*
X57365485Y-35712487D01*
X57365485Y-35712488D01*
X57365483Y-35712490D01*
X57305862Y-35794550D01*
X57226657Y-35903566D01*
X57119433Y-36114003D01*
X57046446Y-36338631D01*
X57009500Y-36571902D01*
X57009500Y-36808097D01*
X57046446Y-37041368D01*
X57119433Y-37265996D01*
X57226657Y-37476433D01*
X57365483Y-37667510D01*
X57532490Y-37834517D01*
X57723567Y-37973343D01*
X57822991Y-38024002D01*
X57934003Y-38080566D01*
X57934005Y-38080566D01*
X57934008Y-38080568D01*
X58054412Y-38119689D01*
X58158631Y-38153553D01*
X58391903Y-38190500D01*
X58391908Y-38190500D01*
X58628097Y-38190500D01*
X58861368Y-38153553D01*
X59085992Y-38080568D01*
X59296433Y-37973343D01*
X59296434Y-37973341D01*
X59296705Y-37973204D01*
X59365374Y-37960308D01*
X59430115Y-37986584D01*
X59470372Y-38043691D01*
X59477000Y-38083689D01*
X59477000Y-39796310D01*
X59457315Y-39863349D01*
X59404511Y-39909104D01*
X59335353Y-39919048D01*
X59296705Y-39906795D01*
X59085996Y-39799434D01*
X59085995Y-39799433D01*
X59085992Y-39799432D01*
X58993477Y-39769372D01*
X58861368Y-39726446D01*
X58628097Y-39689500D01*
X58628092Y-39689500D01*
X58391908Y-39689500D01*
X58391903Y-39689500D01*
X58158631Y-39726446D01*
X57934003Y-39799433D01*
X57723566Y-39906657D01*
X57614550Y-39985862D01*
X57532490Y-40045483D01*
X57532488Y-40045485D01*
X57532487Y-40045485D01*
X57365485Y-40212487D01*
X57365485Y-40212488D01*
X57365483Y-40212490D01*
X57305862Y-40294550D01*
X57226657Y-40403566D01*
X57119433Y-40614003D01*
X57046446Y-40838631D01*
X57009500Y-41071902D01*
X57009500Y-41308097D01*
X57046446Y-41541368D01*
X57119433Y-41765996D01*
X57226657Y-41976433D01*
X57365483Y-42167510D01*
X57532490Y-42334517D01*
X57723567Y-42473343D01*
X57803200Y-42513918D01*
X57934003Y-42580566D01*
X57934005Y-42580566D01*
X57934008Y-42580568D01*
X58054412Y-42619689D01*
X58158631Y-42653553D01*
X58391903Y-42690500D01*
X58391908Y-42690500D01*
X58628097Y-42690500D01*
X58861368Y-42653553D01*
X58899725Y-42641090D01*
X59085992Y-42580568D01*
X59296433Y-42473343D01*
X59296434Y-42473341D01*
X59296705Y-42473204D01*
X59365374Y-42460308D01*
X59430115Y-42486584D01*
X59470372Y-42543691D01*
X59477000Y-42583689D01*
X59477000Y-48170141D01*
X59457315Y-48237180D01*
X59404511Y-48282935D01*
X59335353Y-48292879D01*
X59287903Y-48275680D01*
X59177289Y-48207452D01*
X59177284Y-48207450D01*
X59175876Y-48206983D01*
X59017685Y-48154564D01*
X59017683Y-48154563D01*
X58919181Y-48144500D01*
X58919174Y-48144500D01*
X58385826Y-48144500D01*
X58385818Y-48144500D01*
X58287316Y-48154563D01*
X58287315Y-48154564D01*
X58240307Y-48170141D01*
X58127715Y-48207450D01*
X58127704Y-48207455D01*
X57984612Y-48295716D01*
X57984608Y-48295719D01*
X57865719Y-48414608D01*
X57865716Y-48414612D01*
X57777455Y-48557704D01*
X57777451Y-48557713D01*
X57724564Y-48717315D01*
X57724564Y-48717316D01*
X57724563Y-48717316D01*
X57714500Y-48815818D01*
X57714500Y-49424181D01*
X57724563Y-49522683D01*
X57753206Y-49609119D01*
X57759500Y-49648123D01*
X57759500Y-50317368D01*
X57739815Y-50384407D01*
X57708386Y-50417686D01*
X57532488Y-50545484D01*
X57365485Y-50712487D01*
X57365485Y-50712488D01*
X57365483Y-50712490D01*
X57342220Y-50744509D01*
X57226657Y-50903566D01*
X57119433Y-51114003D01*
X57046446Y-51338631D01*
X57009500Y-51571902D01*
X57009500Y-51808097D01*
X57046446Y-52041368D01*
X57119433Y-52265996D01*
X57173668Y-52372437D01*
X57226657Y-52476433D01*
X57365483Y-52667510D01*
X57532490Y-52834517D01*
X57723567Y-52973343D01*
X57822991Y-53024002D01*
X57934003Y-53080566D01*
X57934005Y-53080566D01*
X57934008Y-53080568D01*
X58054412Y-53119689D01*
X58158631Y-53153553D01*
X58391903Y-53190500D01*
X58391908Y-53190500D01*
X58628097Y-53190500D01*
X58861368Y-53153553D01*
X59085992Y-53080568D01*
X59296433Y-52973343D01*
X59296434Y-52973341D01*
X59296705Y-52973204D01*
X59365374Y-52960308D01*
X59430115Y-52986584D01*
X59470372Y-53043691D01*
X59477000Y-53083689D01*
X59477000Y-54796310D01*
X59457315Y-54863349D01*
X59404511Y-54909104D01*
X59335353Y-54919048D01*
X59296705Y-54906795D01*
X59085996Y-54799434D01*
X59085995Y-54799433D01*
X59085992Y-54799432D01*
X58993477Y-54769372D01*
X58861368Y-54726446D01*
X58628097Y-54689500D01*
X58628092Y-54689500D01*
X58391908Y-54689500D01*
X58391903Y-54689500D01*
X58158631Y-54726446D01*
X57934003Y-54799433D01*
X57723566Y-54906657D01*
X57614550Y-54985862D01*
X57532490Y-55045483D01*
X57532488Y-55045485D01*
X57532487Y-55045485D01*
X57365485Y-55212487D01*
X57365485Y-55212488D01*
X57365483Y-55212490D01*
X57305862Y-55294550D01*
X57226657Y-55403566D01*
X57119433Y-55614003D01*
X57046446Y-55838631D01*
X57009500Y-56071902D01*
X57009500Y-56308097D01*
X57046446Y-56541368D01*
X57119433Y-56765996D01*
X57173668Y-56872437D01*
X57226657Y-56976433D01*
X57365483Y-57167510D01*
X57532490Y-57334517D01*
X57723567Y-57473343D01*
X57822991Y-57524002D01*
X57934003Y-57580566D01*
X57934005Y-57580566D01*
X57934008Y-57580568D01*
X58054412Y-57619689D01*
X58158631Y-57653553D01*
X58391903Y-57690500D01*
X58391908Y-57690500D01*
X58628097Y-57690500D01*
X58861368Y-57653553D01*
X58899725Y-57641090D01*
X59085992Y-57580568D01*
X59296433Y-57473343D01*
X59296434Y-57473341D01*
X59296705Y-57473204D01*
X59365374Y-57460308D01*
X59430115Y-57486584D01*
X59470372Y-57543691D01*
X59477000Y-57583689D01*
X59477000Y-63170141D01*
X59457315Y-63237180D01*
X59404511Y-63282935D01*
X59335353Y-63292879D01*
X59287903Y-63275680D01*
X59177289Y-63207452D01*
X59177284Y-63207450D01*
X59175876Y-63206983D01*
X59017685Y-63154564D01*
X59017683Y-63154563D01*
X58919181Y-63144500D01*
X58919174Y-63144500D01*
X58385826Y-63144500D01*
X58385818Y-63144500D01*
X58287316Y-63154563D01*
X58287315Y-63154564D01*
X58240307Y-63170141D01*
X58127715Y-63207450D01*
X58127704Y-63207455D01*
X57984612Y-63295716D01*
X57984608Y-63295719D01*
X57865719Y-63414608D01*
X57865716Y-63414612D01*
X57777455Y-63557704D01*
X57777451Y-63557713D01*
X57724564Y-63717315D01*
X57724564Y-63717316D01*
X57724563Y-63717316D01*
X57714500Y-63815818D01*
X57714500Y-64424181D01*
X57724563Y-64522683D01*
X57753206Y-64609119D01*
X57759500Y-64648123D01*
X57759500Y-65317368D01*
X57739815Y-65384407D01*
X57708386Y-65417686D01*
X57532488Y-65545484D01*
X57365485Y-65712487D01*
X57365485Y-65712488D01*
X57365483Y-65712490D01*
X57305862Y-65794550D01*
X57226657Y-65903566D01*
X57119433Y-66114003D01*
X57046446Y-66338631D01*
X57009500Y-66571902D01*
X57009500Y-66808097D01*
X57046446Y-67041368D01*
X57119433Y-67265996D01*
X57173668Y-67372437D01*
X57226657Y-67476433D01*
X57365483Y-67667510D01*
X57532490Y-67834517D01*
X57723567Y-67973343D01*
X57822991Y-68024002D01*
X57934003Y-68080566D01*
X57934005Y-68080566D01*
X57934008Y-68080568D01*
X58054412Y-68119689D01*
X58158631Y-68153553D01*
X58391903Y-68190500D01*
X58391908Y-68190500D01*
X58628097Y-68190500D01*
X58861368Y-68153553D01*
X59085992Y-68080568D01*
X59296433Y-67973343D01*
X59296434Y-67973341D01*
X59296705Y-67973204D01*
X59365374Y-67960308D01*
X59430115Y-67986584D01*
X59470372Y-68043691D01*
X59477000Y-68083689D01*
X59477000Y-69796310D01*
X59457315Y-69863349D01*
X59404511Y-69909104D01*
X59335353Y-69919048D01*
X59296705Y-69906795D01*
X59085996Y-69799434D01*
X59085995Y-69799433D01*
X59085992Y-69799432D01*
X58993477Y-69769372D01*
X58861368Y-69726446D01*
X58628097Y-69689500D01*
X58628092Y-69689500D01*
X58391908Y-69689500D01*
X58391903Y-69689500D01*
X58158631Y-69726446D01*
X57934003Y-69799433D01*
X57723566Y-69906657D01*
X57614550Y-69985862D01*
X57532490Y-70045483D01*
X57532488Y-70045485D01*
X57532487Y-70045485D01*
X57365485Y-70212487D01*
X57365485Y-70212488D01*
X57365483Y-70212490D01*
X57305862Y-70294550D01*
X57226657Y-70403566D01*
X57119433Y-70614003D01*
X57046446Y-70838631D01*
X57009500Y-71071902D01*
X57009500Y-71308097D01*
X57046446Y-71541368D01*
X57119433Y-71765996D01*
X57173668Y-71872437D01*
X57226657Y-71976433D01*
X57365483Y-72167510D01*
X57532490Y-72334517D01*
X57723567Y-72473343D01*
X57822991Y-72524002D01*
X57934003Y-72580566D01*
X57934005Y-72580566D01*
X57934008Y-72580568D01*
X58054412Y-72619689D01*
X58158631Y-72653553D01*
X58391903Y-72690500D01*
X58391908Y-72690500D01*
X58628097Y-72690500D01*
X58861368Y-72653553D01*
X58899725Y-72641090D01*
X59085992Y-72580568D01*
X59296433Y-72473343D01*
X59296434Y-72473341D01*
X59296705Y-72473204D01*
X59365374Y-72460308D01*
X59430115Y-72486584D01*
X59470372Y-72543691D01*
X59477000Y-72583689D01*
X59477000Y-78170141D01*
X59457315Y-78237180D01*
X59404511Y-78282935D01*
X59335353Y-78292879D01*
X59287903Y-78275680D01*
X59177289Y-78207452D01*
X59177284Y-78207450D01*
X59175876Y-78206983D01*
X59017685Y-78154564D01*
X59017683Y-78154563D01*
X58919181Y-78144500D01*
X58919174Y-78144500D01*
X58385826Y-78144500D01*
X58385818Y-78144500D01*
X58287316Y-78154563D01*
X58287315Y-78154564D01*
X58240307Y-78170141D01*
X58127715Y-78207450D01*
X58127704Y-78207455D01*
X57984612Y-78295716D01*
X57984608Y-78295719D01*
X57865719Y-78414608D01*
X57865716Y-78414612D01*
X57777455Y-78557704D01*
X57777451Y-78557713D01*
X57724564Y-78717315D01*
X57724564Y-78717316D01*
X57724563Y-78717316D01*
X57714500Y-78815818D01*
X57714500Y-79424181D01*
X57724563Y-79522683D01*
X57753206Y-79609119D01*
X57759500Y-79648123D01*
X57759500Y-80317368D01*
X57739815Y-80384407D01*
X57708386Y-80417686D01*
X57532488Y-80545484D01*
X57365485Y-80712487D01*
X57365485Y-80712488D01*
X57365483Y-80712490D01*
X57305862Y-80794550D01*
X57226657Y-80903566D01*
X57119433Y-81114003D01*
X57046446Y-81338631D01*
X57009500Y-81571902D01*
X57009500Y-81808097D01*
X57046446Y-82041368D01*
X57119433Y-82265996D01*
X57173668Y-82372437D01*
X57226657Y-82476433D01*
X57365483Y-82667510D01*
X57532490Y-82834517D01*
X57723567Y-82973343D01*
X57822991Y-83024002D01*
X57934003Y-83080566D01*
X57934005Y-83080566D01*
X57934008Y-83080568D01*
X58054412Y-83119689D01*
X58158631Y-83153553D01*
X58391903Y-83190500D01*
X58391908Y-83190500D01*
X58628097Y-83190500D01*
X58861368Y-83153553D01*
X59085992Y-83080568D01*
X59296433Y-82973343D01*
X59432617Y-82874398D01*
X59498420Y-82850920D01*
X59566474Y-82866745D01*
X59615169Y-82916850D01*
X59629500Y-82974718D01*
X59629500Y-84905281D01*
X59609815Y-84972320D01*
X59557011Y-85018075D01*
X59487853Y-85028019D01*
X59432615Y-85005599D01*
X59296433Y-84906657D01*
X59293732Y-84905281D01*
X59085996Y-84799433D01*
X58861368Y-84726446D01*
X58628097Y-84689500D01*
X58628092Y-84689500D01*
X58391908Y-84689500D01*
X58391903Y-84689500D01*
X58158631Y-84726446D01*
X57934003Y-84799433D01*
X57723566Y-84906657D01*
X57633190Y-84972320D01*
X57532490Y-85045483D01*
X57532488Y-85045485D01*
X57532487Y-85045485D01*
X57365485Y-85212487D01*
X57365485Y-85212488D01*
X57365483Y-85212490D01*
X57305862Y-85294550D01*
X57226657Y-85403566D01*
X57119433Y-85614003D01*
X57046446Y-85838631D01*
X57009500Y-86071902D01*
X57009500Y-86308097D01*
X57046446Y-86541368D01*
X57119433Y-86765996D01*
X57173668Y-86872437D01*
X57226657Y-86976433D01*
X57365483Y-87167510D01*
X57532490Y-87334517D01*
X57723567Y-87473343D01*
X57810511Y-87517643D01*
X57934003Y-87580566D01*
X57934005Y-87580566D01*
X57934008Y-87580568D01*
X58054412Y-87619689D01*
X58158631Y-87653553D01*
X58391903Y-87690500D01*
X58391908Y-87690500D01*
X58628097Y-87690500D01*
X58861368Y-87653553D01*
X59085992Y-87580568D01*
X59296433Y-87473343D01*
X59432617Y-87374398D01*
X59498420Y-87350920D01*
X59566474Y-87366745D01*
X59615169Y-87416850D01*
X59629500Y-87474718D01*
X59629500Y-92272779D01*
X59609815Y-92339818D01*
X59578385Y-92373097D01*
X59500211Y-92429893D01*
X59500208Y-92429896D01*
X59349894Y-92580209D01*
X59349890Y-92580213D01*
X59224949Y-92752182D01*
X59220484Y-92760946D01*
X59172509Y-92811742D01*
X59104688Y-92828536D01*
X59038553Y-92805998D01*
X58999516Y-92760946D01*
X58995050Y-92752182D01*
X58870109Y-92580213D01*
X58719786Y-92429890D01*
X58547820Y-92304951D01*
X58358414Y-92208444D01*
X58358413Y-92208443D01*
X58358412Y-92208443D01*
X58156243Y-92142754D01*
X58156241Y-92142753D01*
X58156240Y-92142753D01*
X57985192Y-92115662D01*
X57946287Y-92109500D01*
X57733713Y-92109500D01*
X57733708Y-92109500D01*
X57638271Y-92124616D01*
X57568978Y-92115662D01*
X57531192Y-92089824D01*
X55676819Y-90235451D01*
X55643334Y-90174128D01*
X55640500Y-90147770D01*
X55640500Y-51026079D01*
X55611659Y-50881092D01*
X55611658Y-50881091D01*
X55611658Y-50881087D01*
X55555084Y-50744505D01*
X55522186Y-50695270D01*
X55522185Y-50695268D01*
X55472956Y-50621589D01*
X55472952Y-50621584D01*
X53388421Y-48537052D01*
X53388414Y-48537046D01*
X53314729Y-48487812D01*
X53314729Y-48487813D01*
X53265491Y-48454913D01*
X53128917Y-48398343D01*
X53128907Y-48398340D01*
X52983920Y-48369500D01*
X52983918Y-48369500D01*
X46102000Y-48369500D01*
X46034961Y-48349815D01*
X45989206Y-48297011D01*
X45978000Y-48245500D01*
X45978000Y-41071902D01*
X50509500Y-41071902D01*
X50509500Y-41308097D01*
X50546446Y-41541368D01*
X50619433Y-41765996D01*
X50726657Y-41976433D01*
X50865483Y-42167510D01*
X51032490Y-42334517D01*
X51223567Y-42473343D01*
X51303200Y-42513918D01*
X51434003Y-42580566D01*
X51434005Y-42580566D01*
X51434008Y-42580568D01*
X51554412Y-42619689D01*
X51658631Y-42653553D01*
X51891903Y-42690500D01*
X51891908Y-42690500D01*
X52128097Y-42690500D01*
X52361368Y-42653553D01*
X52399725Y-42641090D01*
X52585992Y-42580568D01*
X52796433Y-42473343D01*
X52987510Y-42334517D01*
X53154517Y-42167510D01*
X53293343Y-41976433D01*
X53400568Y-41765992D01*
X53473553Y-41541368D01*
X53476489Y-41522832D01*
X53510500Y-41308097D01*
X53510500Y-41071902D01*
X53473553Y-40838631D01*
X53400566Y-40614003D01*
X53293342Y-40403566D01*
X53154517Y-40212490D01*
X52987510Y-40045483D01*
X52796433Y-39906657D01*
X52585996Y-39799433D01*
X52361368Y-39726446D01*
X52128097Y-39689500D01*
X52128092Y-39689500D01*
X51891908Y-39689500D01*
X51891903Y-39689500D01*
X51658631Y-39726446D01*
X51434003Y-39799433D01*
X51223566Y-39906657D01*
X51114550Y-39985862D01*
X51032490Y-40045483D01*
X51032488Y-40045485D01*
X51032487Y-40045485D01*
X50865485Y-40212487D01*
X50865485Y-40212488D01*
X50865483Y-40212490D01*
X50805862Y-40294550D01*
X50726657Y-40403566D01*
X50619433Y-40614003D01*
X50546446Y-40838631D01*
X50509500Y-41071902D01*
X45978000Y-41071902D01*
X45978000Y-36571902D01*
X50509500Y-36571902D01*
X50509500Y-36808097D01*
X50546446Y-37041368D01*
X50619433Y-37265996D01*
X50726657Y-37476433D01*
X50865483Y-37667510D01*
X51032490Y-37834517D01*
X51223567Y-37973343D01*
X51322991Y-38024002D01*
X51434003Y-38080566D01*
X51434005Y-38080566D01*
X51434008Y-38080568D01*
X51554412Y-38119689D01*
X51658631Y-38153553D01*
X51891903Y-38190500D01*
X51891908Y-38190500D01*
X52128097Y-38190500D01*
X52361368Y-38153553D01*
X52585992Y-38080568D01*
X52796433Y-37973343D01*
X52987510Y-37834517D01*
X53154517Y-37667510D01*
X53293343Y-37476433D01*
X53400568Y-37265992D01*
X53473553Y-37041368D01*
X53510500Y-36808097D01*
X53510500Y-36571902D01*
X53473553Y-36338631D01*
X53400566Y-36114003D01*
X53293342Y-35903566D01*
X53154517Y-35712490D01*
X52987510Y-35545483D01*
X52796433Y-35406657D01*
X52752765Y-35384407D01*
X52585996Y-35299433D01*
X52361368Y-35226446D01*
X52128097Y-35189500D01*
X52128092Y-35189500D01*
X51891908Y-35189500D01*
X51891903Y-35189500D01*
X51658631Y-35226446D01*
X51434003Y-35299433D01*
X51223566Y-35406657D01*
X51117001Y-35484082D01*
X51032490Y-35545483D01*
X51032488Y-35545485D01*
X51032487Y-35545485D01*
X50865485Y-35712487D01*
X50865485Y-35712488D01*
X50865483Y-35712490D01*
X50805862Y-35794550D01*
X50726657Y-35903566D01*
X50619433Y-36114003D01*
X50546446Y-36338631D01*
X50509500Y-36571902D01*
X45978000Y-36571902D01*
X45978000Y-34913034D01*
X45997685Y-34845995D01*
X46013890Y-34825885D01*
X46014275Y-34825396D01*
X46014281Y-34825391D01*
X46102549Y-34682287D01*
X46155436Y-34522685D01*
X46165500Y-34424174D01*
X46165500Y-33815826D01*
X46155436Y-33717315D01*
X46102549Y-33557713D01*
X46102545Y-33557706D01*
X46102544Y-33557704D01*
X46014283Y-33414612D01*
X46014280Y-33414608D01*
X45895391Y-33295719D01*
X45895387Y-33295716D01*
X45752295Y-33207455D01*
X45752289Y-33207452D01*
X45752287Y-33207451D01*
X45592685Y-33154564D01*
X45592683Y-33154563D01*
X45494181Y-33144500D01*
X45494174Y-33144500D01*
X44960826Y-33144500D01*
X44960818Y-33144500D01*
X44862316Y-33154563D01*
X44862315Y-33154564D01*
X44818497Y-33169084D01*
X44702715Y-33207450D01*
X44702704Y-33207455D01*
X44559612Y-33295716D01*
X44559608Y-33295719D01*
X44527681Y-33327647D01*
X44466358Y-33361132D01*
X44396666Y-33356148D01*
X44352319Y-33327647D01*
X44320391Y-33295719D01*
X44320387Y-33295716D01*
X44177295Y-33207455D01*
X44177289Y-33207452D01*
X44177287Y-33207451D01*
X44017685Y-33154564D01*
X44017683Y-33154563D01*
X43919181Y-33144500D01*
X43919174Y-33144500D01*
X43385826Y-33144500D01*
X43385818Y-33144500D01*
X43287316Y-33154563D01*
X43287315Y-33154564D01*
X43243497Y-33169084D01*
X43127715Y-33207450D01*
X43127704Y-33207455D01*
X42984612Y-33295716D01*
X42984608Y-33295719D01*
X42865719Y-33414608D01*
X42865716Y-33414612D01*
X42777455Y-33557704D01*
X42777451Y-33557713D01*
X42724564Y-33717315D01*
X42724564Y-33717316D01*
X42724563Y-33717316D01*
X42714500Y-33815818D01*
X42714500Y-34424181D01*
X42724563Y-34522683D01*
X42753206Y-34609119D01*
X42759500Y-34648123D01*
X42759500Y-35317368D01*
X42739815Y-35384407D01*
X42708386Y-35417686D01*
X42532488Y-35545484D01*
X42365485Y-35712487D01*
X42365485Y-35712488D01*
X42365483Y-35712490D01*
X42305862Y-35794550D01*
X42226657Y-35903566D01*
X42119433Y-36114003D01*
X42046446Y-36338631D01*
X42009500Y-36571902D01*
X42009500Y-36808097D01*
X42046446Y-37041368D01*
X42119433Y-37265996D01*
X42226657Y-37476433D01*
X42365483Y-37667510D01*
X42532490Y-37834517D01*
X42723567Y-37973343D01*
X42822991Y-38024002D01*
X42934003Y-38080566D01*
X42934005Y-38080566D01*
X42934008Y-38080568D01*
X43054412Y-38119689D01*
X43158631Y-38153553D01*
X43391903Y-38190500D01*
X43391908Y-38190500D01*
X43628097Y-38190500D01*
X43861368Y-38153553D01*
X44085992Y-38080568D01*
X44296433Y-37973343D01*
X44296434Y-37973341D01*
X44296705Y-37973204D01*
X44365374Y-37960308D01*
X44430115Y-37986584D01*
X44470372Y-38043691D01*
X44477000Y-38083689D01*
X44477000Y-39796310D01*
X44457315Y-39863349D01*
X44404511Y-39909104D01*
X44335353Y-39919048D01*
X44296705Y-39906795D01*
X44085996Y-39799434D01*
X44085995Y-39799433D01*
X44085992Y-39799432D01*
X43993477Y-39769372D01*
X43861368Y-39726446D01*
X43628097Y-39689500D01*
X43628092Y-39689500D01*
X43391908Y-39689500D01*
X43391903Y-39689500D01*
X43158631Y-39726446D01*
X42934003Y-39799433D01*
X42723566Y-39906657D01*
X42614550Y-39985862D01*
X42532490Y-40045483D01*
X42532488Y-40045485D01*
X42532487Y-40045485D01*
X42365485Y-40212487D01*
X42365485Y-40212488D01*
X42365483Y-40212490D01*
X42305862Y-40294550D01*
X42226657Y-40403566D01*
X42119433Y-40614003D01*
X42046446Y-40838631D01*
X42009500Y-41071902D01*
X42009500Y-41308097D01*
X42046446Y-41541368D01*
X42119433Y-41765996D01*
X42226657Y-41976433D01*
X42365483Y-42167510D01*
X42532490Y-42334517D01*
X42723567Y-42473343D01*
X42803200Y-42513918D01*
X42934003Y-42580566D01*
X42934005Y-42580566D01*
X42934008Y-42580568D01*
X43054412Y-42619689D01*
X43158631Y-42653553D01*
X43391903Y-42690500D01*
X43391908Y-42690500D01*
X43628097Y-42690500D01*
X43861368Y-42653553D01*
X43899725Y-42641090D01*
X44085992Y-42580568D01*
X44296433Y-42473343D01*
X44296434Y-42473341D01*
X44296705Y-42473204D01*
X44365374Y-42460308D01*
X44430115Y-42486584D01*
X44470372Y-42543691D01*
X44477000Y-42583689D01*
X44477000Y-48170141D01*
X44457315Y-48237180D01*
X44404511Y-48282935D01*
X44335353Y-48292879D01*
X44287903Y-48275680D01*
X44177289Y-48207452D01*
X44177284Y-48207450D01*
X44175876Y-48206983D01*
X44017685Y-48154564D01*
X44017683Y-48154563D01*
X43919181Y-48144500D01*
X43919174Y-48144500D01*
X43385826Y-48144500D01*
X43385818Y-48144500D01*
X43287316Y-48154563D01*
X43287315Y-48154564D01*
X43240307Y-48170141D01*
X43127715Y-48207450D01*
X43127704Y-48207455D01*
X42984612Y-48295716D01*
X42984608Y-48295719D01*
X42865719Y-48414608D01*
X42865716Y-48414612D01*
X42777455Y-48557704D01*
X42777451Y-48557713D01*
X42724564Y-48717315D01*
X42724564Y-48717316D01*
X42724563Y-48717316D01*
X42714500Y-48815818D01*
X42714500Y-49424181D01*
X42724563Y-49522683D01*
X42753206Y-49609119D01*
X42759500Y-49648123D01*
X42759500Y-50317368D01*
X42739815Y-50384407D01*
X42708386Y-50417686D01*
X42532488Y-50545484D01*
X42365485Y-50712487D01*
X42365485Y-50712488D01*
X42365483Y-50712490D01*
X42342220Y-50744509D01*
X42226657Y-50903566D01*
X42119433Y-51114003D01*
X42046446Y-51338631D01*
X42009500Y-51571902D01*
X42009500Y-51808097D01*
X42046446Y-52041368D01*
X42119433Y-52265996D01*
X42173668Y-52372437D01*
X42226657Y-52476433D01*
X42365483Y-52667510D01*
X42532490Y-52834517D01*
X42723567Y-52973343D01*
X42822991Y-53024002D01*
X42934003Y-53080566D01*
X42934005Y-53080566D01*
X42934008Y-53080568D01*
X43054412Y-53119689D01*
X43158631Y-53153553D01*
X43391903Y-53190500D01*
X43391908Y-53190500D01*
X43628097Y-53190500D01*
X43861368Y-53153553D01*
X44085992Y-53080568D01*
X44296433Y-52973343D01*
X44296434Y-52973341D01*
X44296705Y-52973204D01*
X44365374Y-52960308D01*
X44430115Y-52986584D01*
X44470372Y-53043691D01*
X44477000Y-53083689D01*
X44477000Y-54796310D01*
X44457315Y-54863349D01*
X44404511Y-54909104D01*
X44335353Y-54919048D01*
X44296705Y-54906795D01*
X44085996Y-54799434D01*
X44085995Y-54799433D01*
X44085992Y-54799432D01*
X43993477Y-54769372D01*
X43861368Y-54726446D01*
X43628097Y-54689500D01*
X43628092Y-54689500D01*
X43391908Y-54689500D01*
X43391903Y-54689500D01*
X43158631Y-54726446D01*
X42934003Y-54799433D01*
X42723566Y-54906657D01*
X42614550Y-54985862D01*
X42532490Y-55045483D01*
X42532488Y-55045485D01*
X42532487Y-55045485D01*
X42365485Y-55212487D01*
X42365485Y-55212488D01*
X42365483Y-55212490D01*
X42305862Y-55294550D01*
X42226657Y-55403566D01*
X42119433Y-55614003D01*
X42046446Y-55838631D01*
X42009500Y-56071902D01*
X42009500Y-56308097D01*
X42046446Y-56541368D01*
X42119433Y-56765996D01*
X42173668Y-56872437D01*
X42226657Y-56976433D01*
X42365483Y-57167510D01*
X42532490Y-57334517D01*
X42723567Y-57473343D01*
X42822991Y-57524002D01*
X42934003Y-57580566D01*
X42934005Y-57580566D01*
X42934008Y-57580568D01*
X43054412Y-57619689D01*
X43158631Y-57653553D01*
X43391903Y-57690500D01*
X43391908Y-57690500D01*
X43628097Y-57690500D01*
X43861368Y-57653553D01*
X43899725Y-57641090D01*
X44085992Y-57580568D01*
X44296433Y-57473343D01*
X44296434Y-57473341D01*
X44296705Y-57473204D01*
X44365374Y-57460308D01*
X44430115Y-57486584D01*
X44470372Y-57543691D01*
X44477000Y-57583689D01*
X44477000Y-63170141D01*
X44457315Y-63237180D01*
X44404511Y-63282935D01*
X44335353Y-63292879D01*
X44287903Y-63275680D01*
X44177289Y-63207452D01*
X44177284Y-63207450D01*
X44175876Y-63206983D01*
X44017685Y-63154564D01*
X44017683Y-63154563D01*
X43919181Y-63144500D01*
X43919174Y-63144500D01*
X43385826Y-63144500D01*
X43385818Y-63144500D01*
X43287316Y-63154563D01*
X43287315Y-63154564D01*
X43240307Y-63170141D01*
X43127715Y-63207450D01*
X43127704Y-63207455D01*
X42984612Y-63295716D01*
X42984608Y-63295719D01*
X42865719Y-63414608D01*
X42865716Y-63414612D01*
X42777455Y-63557704D01*
X42777451Y-63557713D01*
X42724564Y-63717315D01*
X42724564Y-63717316D01*
X42724563Y-63717316D01*
X42714500Y-63815818D01*
X42714500Y-64424181D01*
X42724563Y-64522683D01*
X42753206Y-64609119D01*
X42759500Y-64648123D01*
X42759500Y-65317368D01*
X42739815Y-65384407D01*
X42708386Y-65417686D01*
X42532488Y-65545484D01*
X42365485Y-65712487D01*
X42365485Y-65712488D01*
X42365483Y-65712490D01*
X42305862Y-65794550D01*
X42226657Y-65903566D01*
X42119433Y-66114003D01*
X42046446Y-66338631D01*
X42009500Y-66571902D01*
X42009500Y-66808097D01*
X42046446Y-67041368D01*
X42119433Y-67265996D01*
X42173668Y-67372437D01*
X42226657Y-67476433D01*
X42365483Y-67667510D01*
X42532490Y-67834517D01*
X42723567Y-67973343D01*
X42822991Y-68024002D01*
X42934003Y-68080566D01*
X42934005Y-68080566D01*
X42934008Y-68080568D01*
X43054412Y-68119689D01*
X43158631Y-68153553D01*
X43391903Y-68190500D01*
X43391908Y-68190500D01*
X43628097Y-68190500D01*
X43861368Y-68153553D01*
X44085992Y-68080568D01*
X44296433Y-67973343D01*
X44296434Y-67973341D01*
X44296705Y-67973204D01*
X44365374Y-67960308D01*
X44430115Y-67986584D01*
X44470372Y-68043691D01*
X44477000Y-68083689D01*
X44477000Y-69796310D01*
X44457315Y-69863349D01*
X44404511Y-69909104D01*
X44335353Y-69919048D01*
X44296705Y-69906795D01*
X44085996Y-69799434D01*
X44085995Y-69799433D01*
X44085992Y-69799432D01*
X43993477Y-69769372D01*
X43861368Y-69726446D01*
X43628097Y-69689500D01*
X43628092Y-69689500D01*
X43391908Y-69689500D01*
X43391903Y-69689500D01*
X43158631Y-69726446D01*
X42934003Y-69799433D01*
X42723566Y-69906657D01*
X42614550Y-69985862D01*
X42532490Y-70045483D01*
X42532488Y-70045485D01*
X42532487Y-70045485D01*
X42365485Y-70212487D01*
X42365485Y-70212488D01*
X42365483Y-70212490D01*
X42305862Y-70294550D01*
X42226657Y-70403566D01*
X42119433Y-70614003D01*
X42046446Y-70838631D01*
X42009500Y-71071902D01*
X42009500Y-71308097D01*
X42046446Y-71541368D01*
X42119433Y-71765996D01*
X42173668Y-71872437D01*
X42226657Y-71976433D01*
X42365483Y-72167510D01*
X42532490Y-72334517D01*
X42723567Y-72473343D01*
X42822991Y-72524002D01*
X42934003Y-72580566D01*
X42934005Y-72580566D01*
X42934008Y-72580568D01*
X43054412Y-72619689D01*
X43158631Y-72653553D01*
X43391903Y-72690500D01*
X43391908Y-72690500D01*
X43628097Y-72690500D01*
X43861368Y-72653553D01*
X43899725Y-72641090D01*
X44085992Y-72580568D01*
X44296433Y-72473343D01*
X44296434Y-72473341D01*
X44296705Y-72473204D01*
X44365374Y-72460308D01*
X44430115Y-72486584D01*
X44470372Y-72543691D01*
X44477000Y-72583689D01*
X44477000Y-78170141D01*
X44457315Y-78237180D01*
X44404511Y-78282935D01*
X44335353Y-78292879D01*
X44287903Y-78275680D01*
X44177289Y-78207452D01*
X44177284Y-78207450D01*
X44175876Y-78206983D01*
X44017685Y-78154564D01*
X44017683Y-78154563D01*
X43919181Y-78144500D01*
X43919174Y-78144500D01*
X43385826Y-78144500D01*
X43385818Y-78144500D01*
X43287316Y-78154563D01*
X43287315Y-78154564D01*
X43240307Y-78170141D01*
X43127715Y-78207450D01*
X43127704Y-78207455D01*
X42984612Y-78295716D01*
X42984608Y-78295719D01*
X42865719Y-78414608D01*
X42865716Y-78414612D01*
X42777455Y-78557704D01*
X42777451Y-78557713D01*
X42724564Y-78717315D01*
X42724564Y-78717316D01*
X42724563Y-78717316D01*
X42714500Y-78815818D01*
X42714500Y-79424181D01*
X42724563Y-79522683D01*
X42753206Y-79609119D01*
X42759500Y-79648123D01*
X42759500Y-80317368D01*
X42739815Y-80384407D01*
X42708386Y-80417686D01*
X42532488Y-80545484D01*
X42365485Y-80712487D01*
X42365485Y-80712488D01*
X42365483Y-80712490D01*
X42305862Y-80794550D01*
X42226657Y-80903566D01*
X42119433Y-81114003D01*
X42046446Y-81338631D01*
X42009500Y-81571902D01*
X42009500Y-81808097D01*
X42046446Y-82041368D01*
X42119433Y-82265996D01*
X42173668Y-82372437D01*
X42226657Y-82476433D01*
X42365483Y-82667510D01*
X42532490Y-82834517D01*
X42723567Y-82973343D01*
X42822991Y-83024002D01*
X42934003Y-83080566D01*
X42934005Y-83080566D01*
X42934008Y-83080568D01*
X43054412Y-83119689D01*
X43158631Y-83153553D01*
X43391903Y-83190500D01*
X43391908Y-83190500D01*
X43628097Y-83190500D01*
X43861368Y-83153553D01*
X44085992Y-83080568D01*
X44296433Y-82973343D01*
X44487510Y-82834517D01*
X44654517Y-82667510D01*
X44793343Y-82476433D01*
X44900568Y-82265992D01*
X44973553Y-82041368D01*
X45010500Y-81808097D01*
X45010500Y-81571902D01*
X44973553Y-81338631D01*
X44939689Y-81234412D01*
X44900568Y-81114008D01*
X44900566Y-81114005D01*
X44900566Y-81114003D01*
X44793342Y-80903566D01*
X44654517Y-80712490D01*
X44487510Y-80545483D01*
X44386810Y-80472320D01*
X44311614Y-80417686D01*
X44268949Y-80362355D01*
X44260500Y-80317368D01*
X44260500Y-80050428D01*
X44280185Y-79983389D01*
X44301143Y-79958626D01*
X44309634Y-79950915D01*
X44320391Y-79944281D01*
X44354436Y-79910235D01*
X44356643Y-79908232D01*
X44385499Y-79894234D01*
X44413642Y-79878868D01*
X44416725Y-79879088D01*
X44419508Y-79877739D01*
X44451346Y-79881564D01*
X44483334Y-79883852D01*
X44486311Y-79885765D01*
X44488879Y-79886074D01*
X44496171Y-79892102D01*
X44527681Y-79912353D01*
X44559608Y-79944280D01*
X44559612Y-79944283D01*
X44702704Y-80032544D01*
X44702707Y-80032545D01*
X44702713Y-80032549D01*
X44862315Y-80085436D01*
X44960826Y-80095500D01*
X44960831Y-80095500D01*
X45494169Y-80095500D01*
X45494174Y-80095500D01*
X45592685Y-80085436D01*
X45752287Y-80032549D01*
X45895391Y-79944281D01*
X46014281Y-79825391D01*
X46029962Y-79799967D01*
X46081909Y-79753244D01*
X46150872Y-79742023D01*
X46214954Y-79769866D01*
X46253810Y-79827935D01*
X46259500Y-79865066D01*
X46259500Y-92103918D01*
X46259500Y-92103920D01*
X46259499Y-92103920D01*
X46288340Y-92248907D01*
X46288343Y-92248917D01*
X46344913Y-92385490D01*
X46344914Y-92385492D01*
X46374584Y-92429896D01*
X46374585Y-92429898D01*
X46427043Y-92508410D01*
X46427047Y-92508415D01*
X53206451Y-99287819D01*
X53239936Y-99349142D01*
X53234952Y-99418834D01*
X53193080Y-99474767D01*
X53127616Y-99499184D01*
X53118770Y-99499500D01*
X25624500Y-99499500D01*
X25557461Y-99479815D01*
X25511706Y-99427011D01*
X25500500Y-99375500D01*
X25500500Y-97418592D01*
X26673500Y-97418592D01*
X26673500Y-97581407D01*
X26705259Y-97741073D01*
X26705262Y-97741082D01*
X26767562Y-97891490D01*
X26767563Y-97891492D01*
X26858015Y-98026862D01*
X26858018Y-98026866D01*
X26973133Y-98141981D01*
X26973137Y-98141984D01*
X27108505Y-98232435D01*
X27108506Y-98232435D01*
X27108507Y-98232436D01*
X27108509Y-98232437D01*
X27208781Y-98273970D01*
X27258919Y-98294738D01*
X27258921Y-98294738D01*
X27258926Y-98294740D01*
X27418592Y-98326499D01*
X27418595Y-98326500D01*
X27418597Y-98326500D01*
X27581405Y-98326500D01*
X27581406Y-98326499D01*
X27634629Y-98315912D01*
X27741073Y-98294740D01*
X27741076Y-98294738D01*
X27741081Y-98294738D01*
X27891495Y-98232435D01*
X28026863Y-98141984D01*
X28141984Y-98026863D01*
X28232435Y-97891495D01*
X28294738Y-97741081D01*
X28326500Y-97581403D01*
X28326500Y-97418597D01*
X28326500Y-97418594D01*
X28326499Y-97418592D01*
X28294740Y-97258926D01*
X28294737Y-97258917D01*
X28291688Y-97251557D01*
X28246405Y-97142231D01*
X28232437Y-97108509D01*
X28232436Y-97108507D01*
X28221627Y-97092331D01*
X28141984Y-96973137D01*
X28141981Y-96973133D01*
X28026866Y-96858018D01*
X28026862Y-96858015D01*
X27891492Y-96767563D01*
X27891490Y-96767562D01*
X27741082Y-96705262D01*
X27741073Y-96705259D01*
X27581406Y-96673500D01*
X27581403Y-96673500D01*
X27418597Y-96673500D01*
X27418594Y-96673500D01*
X27258926Y-96705259D01*
X27258917Y-96705262D01*
X27108509Y-96767562D01*
X27108507Y-96767563D01*
X26973137Y-96858015D01*
X26973133Y-96858018D01*
X26858018Y-96973133D01*
X26858015Y-96973137D01*
X26767563Y-97108507D01*
X26767562Y-97108509D01*
X26705262Y-97258917D01*
X26705259Y-97258926D01*
X26673500Y-97418592D01*
X25500500Y-97418592D01*
X25500500Y-86071902D01*
X35509500Y-86071902D01*
X35509500Y-86308097D01*
X35546446Y-86541368D01*
X35619433Y-86765996D01*
X35673668Y-86872437D01*
X35726657Y-86976433D01*
X35865483Y-87167510D01*
X36032490Y-87334517D01*
X36223567Y-87473343D01*
X36310511Y-87517643D01*
X36434003Y-87580566D01*
X36434005Y-87580566D01*
X36434008Y-87580568D01*
X36554412Y-87619689D01*
X36658631Y-87653553D01*
X36891903Y-87690500D01*
X36891908Y-87690500D01*
X37128097Y-87690500D01*
X37361368Y-87653553D01*
X37585992Y-87580568D01*
X37796433Y-87473343D01*
X37987510Y-87334517D01*
X38154517Y-87167510D01*
X38293343Y-86976433D01*
X38400568Y-86765992D01*
X38473553Y-86541368D01*
X38510500Y-86308097D01*
X38510500Y-86071902D01*
X42009500Y-86071902D01*
X42009500Y-86308097D01*
X42046446Y-86541368D01*
X42119433Y-86765996D01*
X42173668Y-86872437D01*
X42226657Y-86976433D01*
X42365483Y-87167510D01*
X42532490Y-87334517D01*
X42723567Y-87473343D01*
X42810511Y-87517643D01*
X42934003Y-87580566D01*
X42934005Y-87580566D01*
X42934008Y-87580568D01*
X43054412Y-87619689D01*
X43158631Y-87653553D01*
X43391903Y-87690500D01*
X43391908Y-87690500D01*
X43628097Y-87690500D01*
X43861368Y-87653553D01*
X44085992Y-87580568D01*
X44296433Y-87473343D01*
X44487510Y-87334517D01*
X44654517Y-87167510D01*
X44793343Y-86976433D01*
X44900568Y-86765992D01*
X44973553Y-86541368D01*
X45010500Y-86308097D01*
X45010500Y-86071902D01*
X44973553Y-85838631D01*
X44939689Y-85734412D01*
X44900568Y-85614008D01*
X44900566Y-85614005D01*
X44900566Y-85614003D01*
X44793342Y-85403566D01*
X44654517Y-85212490D01*
X44487510Y-85045483D01*
X44296433Y-84906657D01*
X44293732Y-84905281D01*
X44085996Y-84799433D01*
X43861368Y-84726446D01*
X43628097Y-84689500D01*
X43628092Y-84689500D01*
X43391908Y-84689500D01*
X43391903Y-84689500D01*
X43158631Y-84726446D01*
X42934003Y-84799433D01*
X42723566Y-84906657D01*
X42633190Y-84972320D01*
X42532490Y-85045483D01*
X42532488Y-85045485D01*
X42532487Y-85045485D01*
X42365485Y-85212487D01*
X42365485Y-85212488D01*
X42365483Y-85212490D01*
X42305862Y-85294550D01*
X42226657Y-85403566D01*
X42119433Y-85614003D01*
X42046446Y-85838631D01*
X42009500Y-86071902D01*
X38510500Y-86071902D01*
X38473553Y-85838631D01*
X38439689Y-85734412D01*
X38400568Y-85614008D01*
X38400566Y-85614005D01*
X38400566Y-85614003D01*
X38293342Y-85403566D01*
X38154517Y-85212490D01*
X37987510Y-85045483D01*
X37796433Y-84906657D01*
X37793732Y-84905281D01*
X37585996Y-84799433D01*
X37361368Y-84726446D01*
X37128097Y-84689500D01*
X37128092Y-84689500D01*
X36891908Y-84689500D01*
X36891903Y-84689500D01*
X36658631Y-84726446D01*
X36434003Y-84799433D01*
X36223566Y-84906657D01*
X36133190Y-84972320D01*
X36032490Y-85045483D01*
X36032488Y-85045485D01*
X36032487Y-85045485D01*
X35865485Y-85212487D01*
X35865485Y-85212488D01*
X35865483Y-85212490D01*
X35805862Y-85294550D01*
X35726657Y-85403566D01*
X35619433Y-85614003D01*
X35546446Y-85838631D01*
X35509500Y-86071902D01*
X25500500Y-86071902D01*
X25500500Y-81571902D01*
X35509500Y-81571902D01*
X35509500Y-81808097D01*
X35546446Y-82041368D01*
X35619433Y-82265996D01*
X35673668Y-82372437D01*
X35726657Y-82476433D01*
X35865483Y-82667510D01*
X36032490Y-82834517D01*
X36223567Y-82973343D01*
X36322991Y-83024002D01*
X36434003Y-83080566D01*
X36434005Y-83080566D01*
X36434008Y-83080568D01*
X36554412Y-83119689D01*
X36658631Y-83153553D01*
X36891903Y-83190500D01*
X36891908Y-83190500D01*
X37128097Y-83190500D01*
X37361368Y-83153553D01*
X37585992Y-83080568D01*
X37796433Y-82973343D01*
X37987510Y-82834517D01*
X38154517Y-82667510D01*
X38293343Y-82476433D01*
X38400568Y-82265992D01*
X38473553Y-82041368D01*
X38510500Y-81808097D01*
X38510500Y-81571902D01*
X38473553Y-81338631D01*
X38439689Y-81234412D01*
X38400568Y-81114008D01*
X38400566Y-81114005D01*
X38400566Y-81114003D01*
X38293342Y-80903566D01*
X38154517Y-80712490D01*
X37987510Y-80545483D01*
X37796433Y-80406657D01*
X37752765Y-80384407D01*
X37585996Y-80299433D01*
X37361368Y-80226446D01*
X37128097Y-80189500D01*
X37128092Y-80189500D01*
X36891908Y-80189500D01*
X36891903Y-80189500D01*
X36658631Y-80226446D01*
X36434003Y-80299433D01*
X36223566Y-80406657D01*
X36133190Y-80472320D01*
X36032490Y-80545483D01*
X36032488Y-80545485D01*
X36032487Y-80545485D01*
X35865485Y-80712487D01*
X35865485Y-80712488D01*
X35865483Y-80712490D01*
X35805862Y-80794550D01*
X35726657Y-80903566D01*
X35619433Y-81114003D01*
X35546446Y-81338631D01*
X35509500Y-81571902D01*
X25500500Y-81571902D01*
X25500500Y-71071902D01*
X35509500Y-71071902D01*
X35509500Y-71308097D01*
X35546446Y-71541368D01*
X35619433Y-71765996D01*
X35673668Y-71872437D01*
X35726657Y-71976433D01*
X35865483Y-72167510D01*
X36032490Y-72334517D01*
X36223567Y-72473343D01*
X36322991Y-72524002D01*
X36434003Y-72580566D01*
X36434005Y-72580566D01*
X36434008Y-72580568D01*
X36554412Y-72619689D01*
X36658631Y-72653553D01*
X36891903Y-72690500D01*
X36891908Y-72690500D01*
X37128097Y-72690500D01*
X37361368Y-72653553D01*
X37399725Y-72641090D01*
X37585992Y-72580568D01*
X37796433Y-72473343D01*
X37987510Y-72334517D01*
X38154517Y-72167510D01*
X38293343Y-71976433D01*
X38400568Y-71765992D01*
X38473553Y-71541368D01*
X38476489Y-71522833D01*
X38510500Y-71308097D01*
X38510500Y-71071902D01*
X38473553Y-70838631D01*
X38439689Y-70734412D01*
X38400568Y-70614008D01*
X38400566Y-70614005D01*
X38400566Y-70614003D01*
X38293342Y-70403566D01*
X38154517Y-70212490D01*
X37987510Y-70045483D01*
X37796433Y-69906657D01*
X37585996Y-69799433D01*
X37361368Y-69726446D01*
X37128097Y-69689500D01*
X37128092Y-69689500D01*
X36891908Y-69689500D01*
X36891903Y-69689500D01*
X36658631Y-69726446D01*
X36434003Y-69799433D01*
X36223566Y-69906657D01*
X36114550Y-69985862D01*
X36032490Y-70045483D01*
X36032488Y-70045485D01*
X36032487Y-70045485D01*
X35865485Y-70212487D01*
X35865485Y-70212488D01*
X35865483Y-70212490D01*
X35805862Y-70294550D01*
X35726657Y-70403566D01*
X35619433Y-70614003D01*
X35546446Y-70838631D01*
X35509500Y-71071902D01*
X25500500Y-71071902D01*
X25500500Y-66571902D01*
X35509500Y-66571902D01*
X35509500Y-66808097D01*
X35546446Y-67041368D01*
X35619433Y-67265996D01*
X35673668Y-67372437D01*
X35726657Y-67476433D01*
X35865483Y-67667510D01*
X36032490Y-67834517D01*
X36223567Y-67973343D01*
X36322991Y-68024002D01*
X36434003Y-68080566D01*
X36434005Y-68080566D01*
X36434008Y-68080568D01*
X36554412Y-68119689D01*
X36658631Y-68153553D01*
X36891903Y-68190500D01*
X36891908Y-68190500D01*
X37128097Y-68190500D01*
X37361368Y-68153553D01*
X37585992Y-68080568D01*
X37796433Y-67973343D01*
X37987510Y-67834517D01*
X38154517Y-67667510D01*
X38293343Y-67476433D01*
X38400568Y-67265992D01*
X38473553Y-67041368D01*
X38510500Y-66808097D01*
X38510500Y-66571902D01*
X38473553Y-66338631D01*
X38439689Y-66234412D01*
X38400568Y-66114008D01*
X38400566Y-66114005D01*
X38400566Y-66114003D01*
X38293342Y-65903566D01*
X38154517Y-65712490D01*
X37987510Y-65545483D01*
X37796433Y-65406657D01*
X37752765Y-65384407D01*
X37585996Y-65299433D01*
X37361368Y-65226446D01*
X37128097Y-65189500D01*
X37128092Y-65189500D01*
X36891908Y-65189500D01*
X36891903Y-65189500D01*
X36658631Y-65226446D01*
X36434003Y-65299433D01*
X36223566Y-65406657D01*
X36114550Y-65485862D01*
X36032490Y-65545483D01*
X36032488Y-65545485D01*
X36032487Y-65545485D01*
X35865485Y-65712487D01*
X35865485Y-65712488D01*
X35865483Y-65712490D01*
X35805862Y-65794550D01*
X35726657Y-65903566D01*
X35619433Y-66114003D01*
X35546446Y-66338631D01*
X35509500Y-66571902D01*
X25500500Y-66571902D01*
X25500500Y-56071902D01*
X35509500Y-56071902D01*
X35509500Y-56308097D01*
X35546446Y-56541368D01*
X35619433Y-56765996D01*
X35673668Y-56872437D01*
X35726657Y-56976433D01*
X35865483Y-57167510D01*
X36032490Y-57334517D01*
X36223567Y-57473343D01*
X36322991Y-57524002D01*
X36434003Y-57580566D01*
X36434005Y-57580566D01*
X36434008Y-57580568D01*
X36554412Y-57619689D01*
X36658631Y-57653553D01*
X36891903Y-57690500D01*
X36891908Y-57690500D01*
X37128097Y-57690500D01*
X37361368Y-57653553D01*
X37399725Y-57641090D01*
X37585992Y-57580568D01*
X37796433Y-57473343D01*
X37987510Y-57334517D01*
X38154517Y-57167510D01*
X38293343Y-56976433D01*
X38400568Y-56765992D01*
X38473553Y-56541368D01*
X38476489Y-56522832D01*
X38510500Y-56308097D01*
X38510500Y-56071902D01*
X38473553Y-55838631D01*
X38439689Y-55734412D01*
X38400568Y-55614008D01*
X38400566Y-55614005D01*
X38400566Y-55614003D01*
X38293342Y-55403566D01*
X38154517Y-55212490D01*
X37987510Y-55045483D01*
X37796433Y-54906657D01*
X37585996Y-54799433D01*
X37361368Y-54726446D01*
X37128097Y-54689500D01*
X37128092Y-54689500D01*
X36891908Y-54689500D01*
X36891903Y-54689500D01*
X36658631Y-54726446D01*
X36434003Y-54799433D01*
X36223566Y-54906657D01*
X36114550Y-54985862D01*
X36032490Y-55045483D01*
X36032488Y-55045485D01*
X36032487Y-55045485D01*
X35865485Y-55212487D01*
X35865485Y-55212488D01*
X35865483Y-55212490D01*
X35805862Y-55294550D01*
X35726657Y-55403566D01*
X35619433Y-55614003D01*
X35546446Y-55838631D01*
X35509500Y-56071902D01*
X25500500Y-56071902D01*
X25500500Y-51571902D01*
X35509500Y-51571902D01*
X35509500Y-51808097D01*
X35546446Y-52041368D01*
X35619433Y-52265996D01*
X35673668Y-52372437D01*
X35726657Y-52476433D01*
X35865483Y-52667510D01*
X36032490Y-52834517D01*
X36223567Y-52973343D01*
X36322991Y-53024002D01*
X36434003Y-53080566D01*
X36434005Y-53080566D01*
X36434008Y-53080568D01*
X36554412Y-53119689D01*
X36658631Y-53153553D01*
X36891903Y-53190500D01*
X36891908Y-53190500D01*
X37128097Y-53190500D01*
X37361368Y-53153553D01*
X37585992Y-53080568D01*
X37796433Y-52973343D01*
X37987510Y-52834517D01*
X38154517Y-52667510D01*
X38293343Y-52476433D01*
X38400568Y-52265992D01*
X38473553Y-52041368D01*
X38510500Y-51808097D01*
X38510500Y-51571902D01*
X38473553Y-51338631D01*
X38439689Y-51234412D01*
X38400568Y-51114008D01*
X38400566Y-51114005D01*
X38400566Y-51114003D01*
X38293342Y-50903566D01*
X38154517Y-50712490D01*
X37987510Y-50545483D01*
X37796433Y-50406657D01*
X37752765Y-50384407D01*
X37585996Y-50299433D01*
X37361368Y-50226446D01*
X37128097Y-50189500D01*
X37128092Y-50189500D01*
X36891908Y-50189500D01*
X36891903Y-50189500D01*
X36658631Y-50226446D01*
X36434003Y-50299433D01*
X36223566Y-50406657D01*
X36117001Y-50484082D01*
X36032490Y-50545483D01*
X36032488Y-50545485D01*
X36032487Y-50545485D01*
X35865485Y-50712487D01*
X35865485Y-50712488D01*
X35865483Y-50712490D01*
X35842220Y-50744509D01*
X35726657Y-50903566D01*
X35619433Y-51114003D01*
X35546446Y-51338631D01*
X35509500Y-51571902D01*
X25500500Y-51571902D01*
X25500500Y-41071902D01*
X35509500Y-41071902D01*
X35509500Y-41308097D01*
X35546446Y-41541368D01*
X35619433Y-41765996D01*
X35726657Y-41976433D01*
X35865483Y-42167510D01*
X36032490Y-42334517D01*
X36223567Y-42473343D01*
X36303200Y-42513918D01*
X36434003Y-42580566D01*
X36434005Y-42580566D01*
X36434008Y-42580568D01*
X36554412Y-42619689D01*
X36658631Y-42653553D01*
X36891903Y-42690500D01*
X36891908Y-42690500D01*
X37128097Y-42690500D01*
X37361368Y-42653553D01*
X37399725Y-42641090D01*
X37585992Y-42580568D01*
X37796433Y-42473343D01*
X37987510Y-42334517D01*
X38154517Y-42167510D01*
X38293343Y-41976433D01*
X38400568Y-41765992D01*
X38473553Y-41541368D01*
X38476489Y-41522832D01*
X38510500Y-41308097D01*
X38510500Y-41071902D01*
X38473553Y-40838631D01*
X38400566Y-40614003D01*
X38293342Y-40403566D01*
X38154517Y-40212490D01*
X37987510Y-40045483D01*
X37796433Y-39906657D01*
X37585996Y-39799433D01*
X37361368Y-39726446D01*
X37128097Y-39689500D01*
X37128092Y-39689500D01*
X36891908Y-39689500D01*
X36891903Y-39689500D01*
X36658631Y-39726446D01*
X36434003Y-39799433D01*
X36223566Y-39906657D01*
X36114550Y-39985862D01*
X36032490Y-40045483D01*
X36032488Y-40045485D01*
X36032487Y-40045485D01*
X35865485Y-40212487D01*
X35865485Y-40212488D01*
X35865483Y-40212490D01*
X35805862Y-40294550D01*
X35726657Y-40403566D01*
X35619433Y-40614003D01*
X35546446Y-40838631D01*
X35509500Y-41071902D01*
X25500500Y-41071902D01*
X25500500Y-36571902D01*
X35509500Y-36571902D01*
X35509500Y-36808097D01*
X35546446Y-37041368D01*
X35619433Y-37265996D01*
X35726657Y-37476433D01*
X35865483Y-37667510D01*
X36032490Y-37834517D01*
X36223567Y-37973343D01*
X36322991Y-38024002D01*
X36434003Y-38080566D01*
X36434005Y-38080566D01*
X36434008Y-38080568D01*
X36554412Y-38119689D01*
X36658631Y-38153553D01*
X36891903Y-38190500D01*
X36891908Y-38190500D01*
X37128097Y-38190500D01*
X37361368Y-38153553D01*
X37585992Y-38080568D01*
X37796433Y-37973343D01*
X37987510Y-37834517D01*
X38154517Y-37667510D01*
X38293343Y-37476433D01*
X38400568Y-37265992D01*
X38473553Y-37041368D01*
X38510500Y-36808097D01*
X38510500Y-36571902D01*
X38473553Y-36338631D01*
X38400566Y-36114003D01*
X38293342Y-35903566D01*
X38154517Y-35712490D01*
X37987510Y-35545483D01*
X37796433Y-35406657D01*
X37752765Y-35384407D01*
X37585996Y-35299433D01*
X37361368Y-35226446D01*
X37128097Y-35189500D01*
X37128092Y-35189500D01*
X36891908Y-35189500D01*
X36891903Y-35189500D01*
X36658631Y-35226446D01*
X36434003Y-35299433D01*
X36223566Y-35406657D01*
X36117001Y-35484082D01*
X36032490Y-35545483D01*
X36032488Y-35545485D01*
X36032487Y-35545485D01*
X35865485Y-35712487D01*
X35865485Y-35712488D01*
X35865483Y-35712490D01*
X35805862Y-35794550D01*
X35726657Y-35903566D01*
X35619433Y-36114003D01*
X35546446Y-36338631D01*
X35509500Y-36571902D01*
X25500500Y-36571902D01*
X25500500Y-27418592D01*
X26673500Y-27418592D01*
X26673500Y-27581407D01*
X26705259Y-27741073D01*
X26705262Y-27741082D01*
X26767562Y-27891490D01*
X26767563Y-27891492D01*
X26858015Y-28026862D01*
X26858018Y-28026866D01*
X26973133Y-28141981D01*
X26973137Y-28141984D01*
X27108505Y-28232435D01*
X27108506Y-28232435D01*
X27108507Y-28232436D01*
X27108509Y-28232437D01*
X27208781Y-28273970D01*
X27258919Y-28294738D01*
X27258921Y-28294738D01*
X27258926Y-28294740D01*
X27418592Y-28326499D01*
X27418595Y-28326500D01*
X27418597Y-28326500D01*
X27581405Y-28326500D01*
X27581406Y-28326499D01*
X27634629Y-28315912D01*
X27741073Y-28294740D01*
X27741076Y-28294738D01*
X27741081Y-28294738D01*
X27891495Y-28232435D01*
X28026863Y-28141984D01*
X28141984Y-28026863D01*
X28232435Y-27891495D01*
X28294738Y-27741081D01*
X28326500Y-27581403D01*
X28326500Y-27418597D01*
X28326500Y-27418594D01*
X28326499Y-27418592D01*
X96673500Y-27418592D01*
X96673500Y-27581407D01*
X96705259Y-27741073D01*
X96705262Y-27741082D01*
X96767562Y-27891490D01*
X96767563Y-27891492D01*
X96858015Y-28026862D01*
X96858018Y-28026866D01*
X96973133Y-28141981D01*
X96973137Y-28141984D01*
X97108505Y-28232435D01*
X97108506Y-28232435D01*
X97108507Y-28232436D01*
X97108509Y-28232437D01*
X97208781Y-28273970D01*
X97258919Y-28294738D01*
X97258921Y-28294738D01*
X97258926Y-28294740D01*
X97418592Y-28326499D01*
X97418595Y-28326500D01*
X97418597Y-28326500D01*
X97581405Y-28326500D01*
X97581406Y-28326499D01*
X97634629Y-28315912D01*
X97741073Y-28294740D01*
X97741076Y-28294738D01*
X97741081Y-28294738D01*
X97891495Y-28232435D01*
X98026863Y-28141984D01*
X98141984Y-28026863D01*
X98232435Y-27891495D01*
X98294738Y-27741081D01*
X98326500Y-27581403D01*
X98326500Y-27418597D01*
X98326500Y-27418594D01*
X98326499Y-27418592D01*
X98294740Y-27258926D01*
X98294737Y-27258917D01*
X98232437Y-27108509D01*
X98232436Y-27108507D01*
X98141984Y-26973137D01*
X98141981Y-26973133D01*
X98026866Y-26858018D01*
X98026862Y-26858015D01*
X97891492Y-26767563D01*
X97891490Y-26767562D01*
X97741082Y-26705262D01*
X97741073Y-26705259D01*
X97581406Y-26673500D01*
X97581403Y-26673500D01*
X97418597Y-26673500D01*
X97418594Y-26673500D01*
X97258926Y-26705259D01*
X97258917Y-26705262D01*
X97108509Y-26767562D01*
X97108507Y-26767563D01*
X96973137Y-26858015D01*
X96973133Y-26858018D01*
X96858018Y-26973133D01*
X96858015Y-26973137D01*
X96767563Y-27108507D01*
X96767562Y-27108509D01*
X96705262Y-27258917D01*
X96705259Y-27258926D01*
X96673500Y-27418592D01*
X28326499Y-27418592D01*
X28294740Y-27258926D01*
X28294737Y-27258917D01*
X28232437Y-27108509D01*
X28232436Y-27108507D01*
X28141984Y-26973137D01*
X28141981Y-26973133D01*
X28026866Y-26858018D01*
X28026862Y-26858015D01*
X27891492Y-26767563D01*
X27891490Y-26767562D01*
X27741082Y-26705262D01*
X27741073Y-26705259D01*
X27581406Y-26673500D01*
X27581403Y-26673500D01*
X27418597Y-26673500D01*
X27418594Y-26673500D01*
X27258926Y-26705259D01*
X27258917Y-26705262D01*
X27108509Y-26767562D01*
X27108507Y-26767563D01*
X26973137Y-26858015D01*
X26973133Y-26858018D01*
X26858018Y-26973133D01*
X26858015Y-26973137D01*
X26767563Y-27108507D01*
X26767562Y-27108509D01*
X26705262Y-27258917D01*
X26705259Y-27258926D01*
X26673500Y-27418592D01*
X25500500Y-27418592D01*
X25500500Y-25624500D01*
X25520185Y-25557461D01*
X25572989Y-25511706D01*
X25624500Y-25500500D01*
X99375500Y-25500500D01*
X99442539Y-25520185D01*
G37*
%TD.AperFunction*%
%TA.AperFunction,Conductor*%
G36*
X52614809Y-49890185D02*
G01*
X52635451Y-49906819D01*
X52933709Y-50205077D01*
X52967194Y-50266400D01*
X52962210Y-50336092D01*
X52920338Y-50392025D01*
X52854874Y-50416442D01*
X52789733Y-50403243D01*
X52585996Y-50299433D01*
X52361368Y-50226446D01*
X52128097Y-50189500D01*
X52128092Y-50189500D01*
X51891908Y-50189500D01*
X51891903Y-50189500D01*
X51658631Y-50226446D01*
X51434003Y-50299433D01*
X51223566Y-50406657D01*
X51117001Y-50484082D01*
X51032490Y-50545483D01*
X51032488Y-50545485D01*
X51032487Y-50545485D01*
X50865485Y-50712487D01*
X50865485Y-50712488D01*
X50865483Y-50712490D01*
X50842220Y-50744509D01*
X50726657Y-50903566D01*
X50619433Y-51114003D01*
X50546446Y-51338631D01*
X50509500Y-51571902D01*
X50509500Y-51808097D01*
X50546446Y-52041368D01*
X50619433Y-52265996D01*
X50673668Y-52372437D01*
X50726657Y-52476433D01*
X50865483Y-52667510D01*
X51032490Y-52834517D01*
X51223567Y-52973343D01*
X51322991Y-53024002D01*
X51434003Y-53080566D01*
X51434005Y-53080566D01*
X51434008Y-53080568D01*
X51554412Y-53119689D01*
X51658631Y-53153553D01*
X51891903Y-53190500D01*
X51891908Y-53190500D01*
X52128097Y-53190500D01*
X52361368Y-53153553D01*
X52585992Y-53080568D01*
X52796433Y-52973343D01*
X52987510Y-52834517D01*
X53154517Y-52667510D01*
X53293343Y-52476433D01*
X53400568Y-52265992D01*
X53473553Y-52041368D01*
X53510500Y-51808097D01*
X53510500Y-51571902D01*
X53473553Y-51338631D01*
X53439689Y-51234412D01*
X53400568Y-51114008D01*
X53400566Y-51114005D01*
X53400566Y-51114003D01*
X53296756Y-50910266D01*
X53283860Y-50841597D01*
X53310136Y-50776856D01*
X53367243Y-50736599D01*
X53437048Y-50733607D01*
X53494922Y-50766290D01*
X54103181Y-51374549D01*
X54136666Y-51435872D01*
X54139500Y-51462230D01*
X54139500Y-90583918D01*
X54139500Y-90583920D01*
X54139499Y-90583920D01*
X54168340Y-90728907D01*
X54168343Y-90728917D01*
X54222847Y-90860500D01*
X54224916Y-90865495D01*
X54245846Y-90896819D01*
X54257662Y-90914504D01*
X54307049Y-90988418D01*
X54307052Y-90988421D01*
X56469824Y-93151192D01*
X56503309Y-93212515D01*
X56504616Y-93258271D01*
X56489500Y-93353707D01*
X56489500Y-93566286D01*
X56522753Y-93776239D01*
X56588444Y-93978414D01*
X56684951Y-94167820D01*
X56809890Y-94339786D01*
X56960213Y-94490109D01*
X57132182Y-94615050D01*
X57140946Y-94619516D01*
X57191742Y-94667491D01*
X57208536Y-94735312D01*
X57185998Y-94801447D01*
X57140946Y-94840484D01*
X57132182Y-94844949D01*
X56960213Y-94969890D01*
X56809892Y-95120211D01*
X56753097Y-95198385D01*
X56697767Y-95241051D01*
X56652779Y-95249500D01*
X56032229Y-95249500D01*
X55965190Y-95229815D01*
X55944548Y-95213181D01*
X52796819Y-92065451D01*
X52763334Y-92004128D01*
X52760500Y-91977770D01*
X52760500Y-87562631D01*
X52780185Y-87495592D01*
X52811614Y-87462313D01*
X52816978Y-87458416D01*
X52987510Y-87334517D01*
X53154517Y-87167510D01*
X53293343Y-86976433D01*
X53400568Y-86765992D01*
X53473553Y-86541368D01*
X53510500Y-86308097D01*
X53510500Y-86071902D01*
X53473553Y-85838631D01*
X53439689Y-85734412D01*
X53400568Y-85614008D01*
X53400566Y-85614005D01*
X53400566Y-85614003D01*
X53293342Y-85403566D01*
X53154517Y-85212490D01*
X52987510Y-85045483D01*
X52796433Y-84906657D01*
X52793732Y-84905281D01*
X52585996Y-84799433D01*
X52361368Y-84726446D01*
X52128097Y-84689500D01*
X52128092Y-84689500D01*
X51891908Y-84689500D01*
X51891903Y-84689500D01*
X51658631Y-84726446D01*
X51434003Y-84799433D01*
X51223566Y-84906657D01*
X51133190Y-84972320D01*
X51032490Y-85045483D01*
X51032488Y-85045485D01*
X51032487Y-85045485D01*
X50865485Y-85212487D01*
X50865485Y-85212488D01*
X50865483Y-85212490D01*
X50805862Y-85294550D01*
X50726657Y-85403566D01*
X50619433Y-85614003D01*
X50546446Y-85838631D01*
X50509500Y-86071902D01*
X50509500Y-86308097D01*
X50546446Y-86541368D01*
X50619433Y-86765996D01*
X50673668Y-86872437D01*
X50726657Y-86976433D01*
X50865483Y-87167510D01*
X51032490Y-87334517D01*
X51203022Y-87458416D01*
X51208386Y-87462313D01*
X51251051Y-87517643D01*
X51259500Y-87562631D01*
X51259500Y-92358770D01*
X51239815Y-92425809D01*
X51187011Y-92471564D01*
X51117853Y-92481508D01*
X51054297Y-92452483D01*
X51047819Y-92446451D01*
X49906819Y-91305451D01*
X49873334Y-91244128D01*
X49870500Y-91217770D01*
X49870500Y-81571902D01*
X50509500Y-81571902D01*
X50509500Y-81808097D01*
X50546446Y-82041368D01*
X50619433Y-82265996D01*
X50673668Y-82372437D01*
X50726657Y-82476433D01*
X50865483Y-82667510D01*
X51032490Y-82834517D01*
X51223567Y-82973343D01*
X51322991Y-83024002D01*
X51434003Y-83080566D01*
X51434005Y-83080566D01*
X51434008Y-83080568D01*
X51554412Y-83119689D01*
X51658631Y-83153553D01*
X51891903Y-83190500D01*
X51891908Y-83190500D01*
X52128097Y-83190500D01*
X52361368Y-83153553D01*
X52585992Y-83080568D01*
X52796433Y-82973343D01*
X52987510Y-82834517D01*
X53154517Y-82667510D01*
X53293343Y-82476433D01*
X53400568Y-82265992D01*
X53473553Y-82041368D01*
X53510500Y-81808097D01*
X53510500Y-81571902D01*
X53473553Y-81338631D01*
X53439689Y-81234412D01*
X53400568Y-81114008D01*
X53400566Y-81114005D01*
X53400566Y-81114003D01*
X53293342Y-80903566D01*
X53154517Y-80712490D01*
X52987510Y-80545483D01*
X52796433Y-80406657D01*
X52752765Y-80384407D01*
X52585996Y-80299433D01*
X52361368Y-80226446D01*
X52128097Y-80189500D01*
X52128092Y-80189500D01*
X51891908Y-80189500D01*
X51891903Y-80189500D01*
X51658631Y-80226446D01*
X51434003Y-80299433D01*
X51223566Y-80406657D01*
X51133190Y-80472320D01*
X51032490Y-80545483D01*
X51032488Y-80545485D01*
X51032487Y-80545485D01*
X50865485Y-80712487D01*
X50865485Y-80712488D01*
X50865483Y-80712490D01*
X50805862Y-80794550D01*
X50726657Y-80903566D01*
X50619433Y-81114003D01*
X50546446Y-81338631D01*
X50509500Y-81571902D01*
X49870500Y-81571902D01*
X49870500Y-74442228D01*
X49890185Y-74375189D01*
X49906814Y-74354552D01*
X51570087Y-72691278D01*
X51631408Y-72657795D01*
X51677163Y-72656488D01*
X51712789Y-72662130D01*
X51891903Y-72690500D01*
X51891908Y-72690500D01*
X52128097Y-72690500D01*
X52361368Y-72653553D01*
X52399725Y-72641090D01*
X52585992Y-72580568D01*
X52796433Y-72473343D01*
X52987510Y-72334517D01*
X53154517Y-72167510D01*
X53293343Y-71976433D01*
X53400568Y-71765992D01*
X53473553Y-71541368D01*
X53476489Y-71522833D01*
X53510500Y-71308097D01*
X53510500Y-71071902D01*
X53473553Y-70838631D01*
X53439689Y-70734412D01*
X53400568Y-70614008D01*
X53400566Y-70614005D01*
X53400566Y-70614003D01*
X53293342Y-70403566D01*
X53154517Y-70212490D01*
X52987510Y-70045483D01*
X52796433Y-69906657D01*
X52585996Y-69799433D01*
X52361368Y-69726446D01*
X52128097Y-69689500D01*
X52128092Y-69689500D01*
X51891908Y-69689500D01*
X51891903Y-69689500D01*
X51658631Y-69726446D01*
X51434003Y-69799433D01*
X51223566Y-69906657D01*
X51114550Y-69985862D01*
X51032490Y-70045483D01*
X51032488Y-70045485D01*
X51032487Y-70045485D01*
X50865485Y-70212487D01*
X50865485Y-70212488D01*
X50865483Y-70212490D01*
X50805862Y-70294550D01*
X50726657Y-70403566D01*
X50619433Y-70614003D01*
X50546446Y-70838631D01*
X50509500Y-71071902D01*
X50509500Y-71308097D01*
X50543511Y-71522833D01*
X50534556Y-71592126D01*
X50508719Y-71629912D01*
X48537050Y-73601580D01*
X48537044Y-73601588D01*
X48487812Y-73675268D01*
X48487813Y-73675269D01*
X48454921Y-73724496D01*
X48454914Y-73724508D01*
X48398342Y-73861086D01*
X48398340Y-73861092D01*
X48369500Y-74006079D01*
X48369500Y-91653919D01*
X48398340Y-91798907D01*
X48398343Y-91798917D01*
X48454914Y-91935492D01*
X48454915Y-91935494D01*
X48454916Y-91935495D01*
X48481439Y-91975190D01*
X48487663Y-91984504D01*
X48487664Y-91984507D01*
X48537046Y-92058414D01*
X48537052Y-92058421D01*
X54346451Y-97867819D01*
X54357063Y-97887255D01*
X54371564Y-97903989D01*
X54373480Y-97917320D01*
X54379936Y-97929142D01*
X54378356Y-97951228D01*
X54381508Y-97973147D01*
X54375912Y-97985398D01*
X54374952Y-97998834D01*
X54361681Y-98016560D01*
X54352483Y-98036703D01*
X54341151Y-98043985D01*
X54333080Y-98054767D01*
X54312334Y-98062504D01*
X54293705Y-98074477D01*
X54271786Y-98077628D01*
X54267616Y-98079184D01*
X54258770Y-98079500D01*
X54172229Y-98079500D01*
X54105190Y-98059815D01*
X54084548Y-98043181D01*
X47796819Y-91755451D01*
X47763334Y-91694128D01*
X47760500Y-91667770D01*
X47760500Y-66571902D01*
X50509500Y-66571902D01*
X50509500Y-66808097D01*
X50546446Y-67041368D01*
X50619433Y-67265996D01*
X50673668Y-67372437D01*
X50726657Y-67476433D01*
X50865483Y-67667510D01*
X51032490Y-67834517D01*
X51223567Y-67973343D01*
X51322991Y-68024002D01*
X51434003Y-68080566D01*
X51434005Y-68080566D01*
X51434008Y-68080568D01*
X51554412Y-68119689D01*
X51658631Y-68153553D01*
X51891903Y-68190500D01*
X51891908Y-68190500D01*
X52128097Y-68190500D01*
X52361368Y-68153553D01*
X52585992Y-68080568D01*
X52796433Y-67973343D01*
X52987510Y-67834517D01*
X53154517Y-67667510D01*
X53293343Y-67476433D01*
X53400568Y-67265992D01*
X53473553Y-67041368D01*
X53510500Y-66808097D01*
X53510500Y-66571902D01*
X53473553Y-66338631D01*
X53439689Y-66234412D01*
X53400568Y-66114008D01*
X53400566Y-66114005D01*
X53400566Y-66114003D01*
X53293342Y-65903566D01*
X53154517Y-65712490D01*
X52987510Y-65545483D01*
X52796433Y-65406657D01*
X52752765Y-65384407D01*
X52585996Y-65299433D01*
X52361368Y-65226446D01*
X52128097Y-65189500D01*
X52128092Y-65189500D01*
X51891908Y-65189500D01*
X51891903Y-65189500D01*
X51658631Y-65226446D01*
X51434003Y-65299433D01*
X51223566Y-65406657D01*
X51114550Y-65485862D01*
X51032490Y-65545483D01*
X51032488Y-65545485D01*
X51032487Y-65545485D01*
X50865485Y-65712487D01*
X50865485Y-65712488D01*
X50865483Y-65712490D01*
X50805862Y-65794550D01*
X50726657Y-65903566D01*
X50619433Y-66114003D01*
X50546446Y-66338631D01*
X50509500Y-66571902D01*
X47760500Y-66571902D01*
X47760500Y-61552229D01*
X47780185Y-61485190D01*
X47796814Y-61464553D01*
X51570088Y-57691278D01*
X51631409Y-57657795D01*
X51677163Y-57656488D01*
X51738398Y-57666186D01*
X51891903Y-57690500D01*
X51891908Y-57690500D01*
X52128097Y-57690500D01*
X52361368Y-57653553D01*
X52399725Y-57641090D01*
X52585992Y-57580568D01*
X52796433Y-57473343D01*
X52987510Y-57334517D01*
X53154517Y-57167510D01*
X53293343Y-56976433D01*
X53400568Y-56765992D01*
X53473553Y-56541368D01*
X53476489Y-56522832D01*
X53510500Y-56308097D01*
X53510500Y-56071902D01*
X53473553Y-55838631D01*
X53439689Y-55734412D01*
X53400568Y-55614008D01*
X53400566Y-55614005D01*
X53400566Y-55614003D01*
X53293342Y-55403566D01*
X53154517Y-55212490D01*
X52987510Y-55045483D01*
X52796433Y-54906657D01*
X52585996Y-54799433D01*
X52361368Y-54726446D01*
X52128097Y-54689500D01*
X52128092Y-54689500D01*
X51891908Y-54689500D01*
X51891903Y-54689500D01*
X51658631Y-54726446D01*
X51434003Y-54799433D01*
X51223566Y-54906657D01*
X51114550Y-54985862D01*
X51032490Y-55045483D01*
X51032488Y-55045485D01*
X51032487Y-55045485D01*
X50865485Y-55212487D01*
X50865485Y-55212488D01*
X50865483Y-55212490D01*
X50805862Y-55294550D01*
X50726657Y-55403566D01*
X50619433Y-55614003D01*
X50546446Y-55838631D01*
X50509500Y-56071902D01*
X50509500Y-56308097D01*
X50543511Y-56522832D01*
X50534557Y-56592125D01*
X50508719Y-56629911D01*
X46427050Y-60711580D01*
X46427044Y-60711588D01*
X46377812Y-60785268D01*
X46377813Y-60785269D01*
X46344921Y-60834496D01*
X46344914Y-60834508D01*
X46288342Y-60971086D01*
X46288340Y-60971092D01*
X46259500Y-61116079D01*
X46259500Y-63374933D01*
X46250301Y-63406260D01*
X46242315Y-63437913D01*
X46240510Y-63439601D01*
X46239815Y-63441972D01*
X46215150Y-63463343D01*
X46191309Y-63485664D01*
X46188877Y-63486109D01*
X46187011Y-63487727D01*
X46154708Y-63492371D01*
X46122584Y-63498259D01*
X46120298Y-63497319D01*
X46117853Y-63497671D01*
X46088154Y-63484108D01*
X46057960Y-63471698D01*
X46055914Y-63469384D01*
X46054297Y-63468646D01*
X46033839Y-63445933D01*
X46031809Y-63443027D01*
X46014281Y-63414609D01*
X46006593Y-63406921D01*
X46000339Y-63397966D01*
X45992552Y-63374785D01*
X45980834Y-63353324D01*
X45978710Y-63333574D01*
X45978092Y-63331733D01*
X45978386Y-63330564D01*
X45978000Y-63326966D01*
X45978000Y-49994500D01*
X45997685Y-49927461D01*
X46050489Y-49881706D01*
X46102000Y-49870500D01*
X52547770Y-49870500D01*
X52614809Y-49890185D01*
G37*
%TD.AperFunction*%
%TA.AperFunction,Conductor*%
G36*
X67534075Y-93652993D02*
G01*
X67599901Y-93767007D01*
X67692993Y-93860099D01*
X67807007Y-93925925D01*
X67870590Y-93942962D01*
X67200370Y-94613181D01*
X67139047Y-94646666D01*
X67112698Y-94649500D01*
X67102134Y-94649500D01*
X67102123Y-94649501D01*
X67042516Y-94655908D01*
X66907671Y-94706202D01*
X66907664Y-94706206D01*
X66792455Y-94792452D01*
X66792452Y-94792455D01*
X66706206Y-94907664D01*
X66706203Y-94907669D01*
X66657189Y-95039083D01*
X66615317Y-95095016D01*
X66549853Y-95119433D01*
X66481580Y-95104581D01*
X66453326Y-95083430D01*
X66339786Y-94969890D01*
X66167820Y-94844951D01*
X66167115Y-94844591D01*
X66159054Y-94840485D01*
X66108259Y-94792512D01*
X66091463Y-94724692D01*
X66113999Y-94658556D01*
X66159054Y-94619515D01*
X66167816Y-94615051D01*
X66190036Y-94598907D01*
X66339786Y-94490109D01*
X66339788Y-94490106D01*
X66339792Y-94490104D01*
X66490104Y-94339792D01*
X66490106Y-94339788D01*
X66490109Y-94339786D01*
X66575890Y-94221717D01*
X66615051Y-94167816D01*
X66619793Y-94158508D01*
X66667763Y-94107711D01*
X66735583Y-94090911D01*
X66801719Y-94113445D01*
X66840763Y-94158500D01*
X66845373Y-94167547D01*
X66884728Y-94221716D01*
X67517037Y-93589408D01*
X67534075Y-93652993D01*
G37*
%TD.AperFunction*%
%TA.AperFunction,Conductor*%
G36*
X67402090Y-92040185D02*
G01*
X67447845Y-92092989D01*
X67457789Y-92162147D01*
X67428764Y-92225703D01*
X67391346Y-92254985D01*
X67292439Y-92305380D01*
X67238282Y-92344727D01*
X67238282Y-92344728D01*
X67870591Y-92977037D01*
X67807007Y-92994075D01*
X67692993Y-93059901D01*
X67599901Y-93152993D01*
X67534075Y-93267007D01*
X67517037Y-93330591D01*
X66884728Y-92698282D01*
X66884727Y-92698282D01*
X66845380Y-92752440D01*
X66845376Y-92752446D01*
X66840760Y-92761505D01*
X66792781Y-92812297D01*
X66724959Y-92829087D01*
X66658826Y-92806543D01*
X66619794Y-92761493D01*
X66615051Y-92752184D01*
X66615049Y-92752181D01*
X66615048Y-92752179D01*
X66490109Y-92580213D01*
X66338312Y-92428416D01*
X66304827Y-92367093D01*
X66309811Y-92297401D01*
X66338307Y-92253059D01*
X66534550Y-92056816D01*
X66595873Y-92023334D01*
X66622230Y-92020500D01*
X67335051Y-92020500D01*
X67402090Y-92040185D01*
G37*
%TD.AperFunction*%
%TD*%
M02*
