%TF.GenerationSoftware,KiCad,Pcbnew,9.0.5*%
%TF.CreationDate,2025-12-24T11:27:01+01:00*%
%TF.ProjectId,lab0,6c616230-2e6b-4696-9361-645f70636258,rev?*%
%TF.SameCoordinates,Original*%
%TF.FileFunction,Copper,L1,Top*%
%TF.FilePolarity,Positive*%
%FSLAX46Y46*%
G04 Gerber Fmt 4.6, Leading zero omitted, Abs format (unit mm)*
G04 Created by KiCad (PCBNEW 9.0.5) date 2025-12-24 11:27:01*
%MOMM*%
%LPD*%
G01*
G04 APERTURE LIST*
G04 Aperture macros list*
%AMRoundRect*
0 Rectangle with rounded corners*
0 $1 Rounding radius*
0 $2 $3 $4 $5 $6 $7 $8 $9 X,Y pos of 4 corners*
0 Add a 4 corners polygon primitive as box body*
4,1,4,$2,$3,$4,$5,$6,$7,$8,$9,$2,$3,0*
0 Add four circle primitives for the rounded corners*
1,1,$1+$1,$2,$3*
1,1,$1+$1,$4,$5*
1,1,$1+$1,$6,$7*
1,1,$1+$1,$8,$9*
0 Add four rect primitives between the rounded corners*
20,1,$1+$1,$2,$3,$4,$5,0*
20,1,$1+$1,$4,$5,$6,$7,0*
20,1,$1+$1,$6,$7,$8,$9,0*
20,1,$1+$1,$8,$9,$2,$3,0*%
G04 Aperture macros list end*
%TA.AperFunction,ComponentPad*%
%ADD10C,2.000000*%
%TD*%
%TA.AperFunction,SMDPad,CuDef*%
%ADD11RoundRect,0.200000X0.200000X0.275000X-0.200000X0.275000X-0.200000X-0.275000X0.200000X-0.275000X0*%
%TD*%
%TA.AperFunction,ComponentPad*%
%ADD12C,1.700000*%
%TD*%
%TA.AperFunction,ComponentPad*%
%ADD13R,1.700000X1.700000*%
%TD*%
%TA.AperFunction,ComponentPad*%
%ADD14C,0.800000*%
%TD*%
%TA.AperFunction,ComponentPad*%
%ADD15C,6.400000*%
%TD*%
%TA.AperFunction,ViaPad*%
%ADD16C,0.600000*%
%TD*%
%TA.AperFunction,Conductor*%
%ADD17C,0.500000*%
%TD*%
G04 APERTURE END LIST*
D10*
%TO.P,SW1,2,2*%
%TO.N,COL_1*%
X43510000Y-41190000D03*
X37010000Y-41190000D03*
%TO.P,SW1,1,1*%
%TO.N,Net-(D1-A)*%
X43510000Y-36690000D03*
X37010000Y-36690000D03*
%TD*%
%TO.P,SW2,2,2*%
%TO.N,COL_1*%
X58510000Y-41190000D03*
X52010000Y-41190000D03*
%TO.P,SW2,1,1*%
%TO.N,Net-(D2-A)*%
X58510000Y-36690000D03*
X52010000Y-36690000D03*
%TD*%
%TO.P,SW3,2,2*%
%TO.N,COL_1*%
X73510000Y-41190000D03*
X67010000Y-41190000D03*
%TO.P,SW3,1,1*%
%TO.N,Net-(D3-A)*%
X73510000Y-36690000D03*
X67010000Y-36690000D03*
%TD*%
%TO.P,SW4,2,2*%
%TO.N,COL_1*%
X88510000Y-41190000D03*
X82010000Y-41190000D03*
%TO.P,SW4,1,1*%
%TO.N,Net-(D4-A)*%
X88510000Y-36690000D03*
X82010000Y-36690000D03*
%TD*%
%TO.P,SW5,2,2*%
%TO.N,COL_2*%
X43510000Y-56190000D03*
X37010000Y-56190000D03*
%TO.P,SW5,1,1*%
%TO.N,Net-(D5-A)*%
X43510000Y-51690000D03*
X37010000Y-51690000D03*
%TD*%
%TO.P,SW6,2,2*%
%TO.N,COL_2*%
X58510000Y-56190000D03*
X52010000Y-56190000D03*
%TO.P,SW6,1,1*%
%TO.N,Net-(D6-A)*%
X58510000Y-51690000D03*
X52010000Y-51690000D03*
%TD*%
%TO.P,SW7,2,2*%
%TO.N,COL_2*%
X73510000Y-56190000D03*
X67010000Y-56190000D03*
%TO.P,SW7,1,1*%
%TO.N,Net-(D7-A)*%
X73510000Y-51690000D03*
X67010000Y-51690000D03*
%TD*%
%TO.P,SW8,2,2*%
%TO.N,COL_2*%
X88510000Y-56190000D03*
X82010000Y-56190000D03*
%TO.P,SW8,1,1*%
%TO.N,Net-(D8-A)*%
X88510000Y-51690000D03*
X82010000Y-51690000D03*
%TD*%
%TO.P,SW9,2,2*%
%TO.N,COL_3*%
X43510000Y-71190000D03*
X37010000Y-71190000D03*
%TO.P,SW9,1,1*%
%TO.N,Net-(D9-A)*%
X43510000Y-66690000D03*
X37010000Y-66690000D03*
%TD*%
%TO.P,SW10,2,2*%
%TO.N,COL_3*%
X58510000Y-71190000D03*
X52010000Y-71190000D03*
%TO.P,SW10,1,1*%
%TO.N,Net-(D10-A)*%
X58510000Y-66690000D03*
X52010000Y-66690000D03*
%TD*%
%TO.P,SW11,2,2*%
%TO.N,COL_3*%
X73510000Y-71190000D03*
X67010000Y-71190000D03*
%TO.P,SW11,1,1*%
%TO.N,Net-(D11-A)*%
X73510000Y-66690000D03*
X67010000Y-66690000D03*
%TD*%
%TO.P,SW12,2,2*%
%TO.N,COL_3*%
X88510000Y-71190000D03*
X82010000Y-71190000D03*
%TO.P,SW12,1,1*%
%TO.N,Net-(D12-A)*%
X88510000Y-66690000D03*
X82010000Y-66690000D03*
%TD*%
%TO.P,SW13,2,2*%
%TO.N,COL_4*%
X43510000Y-86190000D03*
X37010000Y-86190000D03*
%TO.P,SW13,1,1*%
%TO.N,Net-(D13-A)*%
X43510000Y-81690000D03*
X37010000Y-81690000D03*
%TD*%
%TO.P,SW14,2,2*%
%TO.N,COL_4*%
X58510000Y-86190000D03*
X52010000Y-86190000D03*
%TO.P,SW14,1,1*%
%TO.N,Net-(D14-A)*%
X58510000Y-81690000D03*
X52010000Y-81690000D03*
%TD*%
%TO.P,SW15,2,2*%
%TO.N,COL_4*%
X73510000Y-86190000D03*
X67010000Y-86190000D03*
%TO.P,SW15,1,1*%
%TO.N,Net-(D15-A)*%
X73510000Y-81690000D03*
X67010000Y-81690000D03*
%TD*%
%TO.P,SW16,2,2*%
%TO.N,COL_4*%
X88510000Y-86190000D03*
X82010000Y-86190000D03*
%TO.P,SW16,1,1*%
%TO.N,Net-(D16-A)*%
X88510000Y-81690000D03*
X82010000Y-81690000D03*
%TD*%
D11*
%TO.P,R4,1*%
%TO.N,VCC*%
X92800000Y-86200000D03*
%TO.P,R4,2*%
%TO.N,COL_4*%
X91150000Y-86200000D03*
%TD*%
%TO.P,R3,1*%
%TO.N,VCC*%
X92770000Y-71210000D03*
%TO.P,R3,2*%
%TO.N,COL_3*%
X91120000Y-71210000D03*
%TD*%
%TO.P,R2,1*%
%TO.N,VCC*%
X92790000Y-56190000D03*
%TO.P,R2,2*%
%TO.N,COL_2*%
X91140000Y-56190000D03*
%TD*%
%TO.P,R1,1*%
%TO.N,VCC*%
X92660000Y-41200000D03*
%TO.P,R1,2*%
%TO.N,COL_1*%
X91010000Y-41200000D03*
%TD*%
D12*
%TO.P,J1,5,Pin_5*%
%TO.N,COL_2*%
X62920000Y-96000000D03*
D13*
%TO.P,J1,1,Pin_1*%
%TO.N,VCC*%
X68000000Y-96000000D03*
D12*
%TO.P,J1,2,Pin_2*%
%TO.N,GND*%
X68000000Y-93460000D03*
%TO.P,J1,3,Pin_3*%
%TO.N,COL_1*%
X65460000Y-96000000D03*
%TO.P,J1,4,Pin_4*%
%TO.N,RAW_4*%
X65460000Y-93460000D03*
%TO.P,J1,6,Pin_6*%
%TO.N,RAW_3*%
X62920000Y-93460000D03*
%TO.P,J1,7,Pin_7*%
%TO.N,COL_3*%
X60380000Y-96000000D03*
%TO.P,J1,8,Pin_8*%
%TO.N,RAW_2*%
X60380000Y-93460000D03*
%TO.P,J1,9,Pin_9*%
%TO.N,COL_4*%
X57840000Y-96000000D03*
%TO.P,J1,10,Pin_10*%
%TO.N,RAW_1*%
X57840000Y-93460000D03*
%TD*%
D14*
%TO.P,H1,1,1*%
%TO.N,GND*%
X28850000Y-31250000D03*
X29552944Y-29552944D03*
X29552944Y-32947056D03*
X31250000Y-28850000D03*
D15*
X31250000Y-31250000D03*
D14*
X31250000Y-33650000D03*
X32947056Y-29552944D03*
X32947056Y-32947056D03*
X33650000Y-31250000D03*
%TD*%
%TO.P,H4,1,1*%
%TO.N,GND*%
X91350000Y-93750000D03*
X92052944Y-92052944D03*
X92052944Y-95447056D03*
X93750000Y-91350000D03*
D15*
X93750000Y-93750000D03*
D14*
X93750000Y-96150000D03*
X95447056Y-92052944D03*
X95447056Y-95447056D03*
X96150000Y-93750000D03*
%TD*%
%TO.P,H3,1,1*%
%TO.N,GND*%
X28850000Y-93750000D03*
X29552944Y-92052944D03*
X29552944Y-95447056D03*
X31250000Y-91350000D03*
D15*
X31250000Y-93750000D03*
D14*
X31250000Y-96150000D03*
X32947056Y-92052944D03*
X32947056Y-95447056D03*
X33650000Y-93750000D03*
%TD*%
%TO.P,H2,1,1*%
%TO.N,GND*%
X91350000Y-31250000D03*
X92052944Y-29552944D03*
X92052944Y-32947056D03*
X93750000Y-28850000D03*
D15*
X93750000Y-31250000D03*
D14*
X93750000Y-33650000D03*
X95447056Y-29552944D03*
X95447056Y-32947056D03*
X96150000Y-31250000D03*
%TD*%
D16*
%TO.N,GND*%
X51870000Y-77170000D03*
X50510000Y-61990000D03*
X47910000Y-52630000D03*
%TD*%
D17*
%TO.N,COL_3*%
X52010000Y-71190000D02*
X58510000Y-71190000D01*
%TO.N,Net-(D14-A)*%
X58510000Y-81690000D02*
X52010000Y-81690000D01*
%TO.N,VCC*%
X92790000Y-56190000D02*
X92790000Y-41330000D01*
X92790000Y-41330000D02*
X92660000Y-41200000D01*
X92770000Y-71210000D02*
X92770000Y-65390000D01*
X92770000Y-65390000D02*
X92790000Y-65370000D01*
X92790000Y-65370000D02*
X92790000Y-56190000D01*
X92800000Y-86200000D02*
X92800000Y-71240000D01*
X92800000Y-71240000D02*
X92770000Y-71210000D01*
X68000000Y-96000000D02*
X84630000Y-96000000D01*
X84630000Y-96000000D02*
X92800000Y-87830000D01*
X92800000Y-87830000D02*
X92800000Y-86200000D01*
%TO.N,COL_1*%
X91010000Y-41200000D02*
X88520000Y-41200000D01*
X88520000Y-41200000D02*
X88510000Y-41190000D01*
%TO.N,COL_2*%
X91140000Y-56190000D02*
X88510000Y-56190000D01*
%TO.N,COL_3*%
X91120000Y-71210000D02*
X88530000Y-71210000D01*
X88530000Y-71210000D02*
X88510000Y-71190000D01*
%TO.N,COL_4*%
X91150000Y-86200000D02*
X88520000Y-86200000D01*
X88520000Y-86200000D02*
X88510000Y-86190000D01*
%TO.N,Net-(D16-A)*%
X82010000Y-81690000D02*
X88510000Y-81690000D01*
%TO.N,Net-(D15-A)*%
X67010000Y-81690000D02*
X73510000Y-81690000D01*
%TO.N,Net-(D13-A)*%
X37010000Y-81690000D02*
X43510000Y-81690000D01*
%TO.N,COL_4*%
X88510000Y-86190000D02*
X82010000Y-86190000D01*
X82010000Y-86190000D02*
X73510000Y-86190000D01*
X73510000Y-86190000D02*
X67010000Y-86190000D01*
X67010000Y-86190000D02*
X58510000Y-86190000D01*
X58510000Y-86190000D02*
X52010000Y-86190000D01*
X52010000Y-86190000D02*
X43510000Y-86190000D01*
X37010000Y-86190000D02*
X43510000Y-86190000D01*
%TO.N,Net-(D9-A)*%
X43510000Y-66690000D02*
X37010000Y-66690000D01*
%TO.N,Net-(D10-A)*%
X58510000Y-66690000D02*
X52010000Y-66690000D01*
%TO.N,Net-(D11-A)*%
X73510000Y-66690000D02*
X67010000Y-66690000D01*
%TO.N,Net-(D12-A)*%
X88510000Y-66690000D02*
X82010000Y-66690000D01*
%TO.N,Net-(D8-A)*%
X82010000Y-51690000D02*
X88510000Y-51690000D01*
%TO.N,Net-(D7-A)*%
X67010000Y-51690000D02*
X73510000Y-51690000D01*
%TO.N,Net-(D6-A)*%
X52010000Y-51690000D02*
X58510000Y-51690000D01*
%TO.N,Net-(D5-A)*%
X37010000Y-51690000D02*
X43510000Y-51690000D01*
%TO.N,Net-(D4-A)*%
X82010000Y-36690000D02*
X88510000Y-36690000D01*
%TO.N,Net-(D3-A)*%
X67010000Y-36690000D02*
X73510000Y-36690000D01*
%TO.N,Net-(D2-A)*%
X52010000Y-36690000D02*
X58510000Y-36690000D01*
%TO.N,Net-(D1-A)*%
X37010000Y-36690000D02*
X43510000Y-36690000D01*
%TO.N,COL_1*%
X37010000Y-41190000D02*
X43510000Y-41190000D01*
X43510000Y-41190000D02*
X52010000Y-41190000D01*
X52010000Y-41190000D02*
X58510000Y-41190000D01*
X58510000Y-41190000D02*
X67010000Y-41190000D01*
X67010000Y-41190000D02*
X73510000Y-41190000D01*
X73510000Y-41190000D02*
X82010000Y-41190000D01*
X88510000Y-41190000D02*
X82010000Y-41190000D01*
%TO.N,COL_2*%
X88510000Y-56190000D02*
X82010000Y-56190000D01*
X82010000Y-56190000D02*
X73510000Y-56190000D01*
X67010000Y-56190000D02*
X73510000Y-56190000D01*
X58510000Y-56190000D02*
X67010000Y-56190000D01*
X52010000Y-56190000D02*
X58510000Y-56190000D01*
X43510000Y-56190000D02*
X52010000Y-56190000D01*
X37010000Y-56190000D02*
X43510000Y-56190000D01*
%TO.N,COL_3*%
X82010000Y-71190000D02*
X88510000Y-71190000D01*
X73510000Y-71190000D02*
X82010000Y-71190000D01*
X67010000Y-71190000D02*
X73510000Y-71190000D01*
X58510000Y-71190000D02*
X67010000Y-71190000D01*
X43510000Y-71190000D02*
X52010000Y-71190000D01*
X37010000Y-71190000D02*
X43510000Y-71190000D01*
%TD*%
%TA.AperFunction,Conductor*%
%TO.N,GND*%
G36*
X67534075Y-93652993D02*
G01*
X67599901Y-93767007D01*
X67692993Y-93860099D01*
X67807007Y-93925925D01*
X67870590Y-93942962D01*
X67200370Y-94613181D01*
X67139047Y-94646666D01*
X67112698Y-94649500D01*
X67102134Y-94649500D01*
X67102123Y-94649501D01*
X67042516Y-94655908D01*
X66907671Y-94706202D01*
X66907664Y-94706206D01*
X66792455Y-94792452D01*
X66792452Y-94792455D01*
X66706206Y-94907664D01*
X66706203Y-94907669D01*
X66657189Y-95039083D01*
X66615317Y-95095016D01*
X66549853Y-95119433D01*
X66481580Y-95104581D01*
X66453326Y-95083430D01*
X66339786Y-94969890D01*
X66167820Y-94844951D01*
X66167115Y-94844591D01*
X66159054Y-94840485D01*
X66108259Y-94792512D01*
X66091463Y-94724692D01*
X66113999Y-94658556D01*
X66159054Y-94619515D01*
X66167816Y-94615051D01*
X66189789Y-94599086D01*
X66339786Y-94490109D01*
X66339788Y-94490106D01*
X66339792Y-94490104D01*
X66490104Y-94339792D01*
X66490106Y-94339788D01*
X66490109Y-94339786D01*
X66575890Y-94221717D01*
X66615051Y-94167816D01*
X66619793Y-94158508D01*
X66667763Y-94107711D01*
X66735583Y-94090911D01*
X66801719Y-94113445D01*
X66840763Y-94158500D01*
X66845373Y-94167547D01*
X66884728Y-94221716D01*
X67517037Y-93589408D01*
X67534075Y-93652993D01*
G37*
%TD.AperFunction*%
%TA.AperFunction,Conductor*%
G36*
X99442539Y-25520185D02*
G01*
X99488294Y-25572989D01*
X99499500Y-25624500D01*
X99499500Y-99375500D01*
X99479815Y-99442539D01*
X99427011Y-99488294D01*
X99375500Y-99499500D01*
X25624500Y-99499500D01*
X25557461Y-99479815D01*
X25511706Y-99427011D01*
X25500500Y-99375500D01*
X25500500Y-97418592D01*
X26673500Y-97418592D01*
X26673500Y-97581407D01*
X26705259Y-97741073D01*
X26705262Y-97741082D01*
X26767562Y-97891490D01*
X26767563Y-97891492D01*
X26858015Y-98026862D01*
X26858018Y-98026866D01*
X26973133Y-98141981D01*
X26973137Y-98141984D01*
X27108505Y-98232435D01*
X27108506Y-98232435D01*
X27108507Y-98232436D01*
X27108509Y-98232437D01*
X27208781Y-98273970D01*
X27258919Y-98294738D01*
X27258921Y-98294738D01*
X27258926Y-98294740D01*
X27418592Y-98326499D01*
X27418595Y-98326500D01*
X27418597Y-98326500D01*
X27581405Y-98326500D01*
X27581406Y-98326499D01*
X27634629Y-98315912D01*
X27741073Y-98294740D01*
X27741076Y-98294738D01*
X27741081Y-98294738D01*
X27891495Y-98232435D01*
X28026863Y-98141984D01*
X28141984Y-98026863D01*
X28232435Y-97891495D01*
X28294738Y-97741081D01*
X28326500Y-97581403D01*
X28326500Y-97418597D01*
X28326500Y-97418594D01*
X28326499Y-97418592D01*
X28294740Y-97258926D01*
X28294737Y-97258917D01*
X28291688Y-97251557D01*
X28232435Y-97108505D01*
X28141984Y-96973137D01*
X28141981Y-96973133D01*
X28026866Y-96858018D01*
X28026862Y-96858015D01*
X27891492Y-96767563D01*
X27891490Y-96767562D01*
X27741082Y-96705262D01*
X27741073Y-96705259D01*
X27581406Y-96673500D01*
X27581403Y-96673500D01*
X27418597Y-96673500D01*
X27418594Y-96673500D01*
X27258926Y-96705259D01*
X27258917Y-96705262D01*
X27108509Y-96767562D01*
X27108507Y-96767563D01*
X26973137Y-96858015D01*
X26973133Y-96858018D01*
X26858018Y-96973133D01*
X26858015Y-96973137D01*
X26767563Y-97108507D01*
X26767562Y-97108509D01*
X26705262Y-97258917D01*
X26705259Y-97258926D01*
X26673500Y-97418592D01*
X25500500Y-97418592D01*
X25500500Y-81571902D01*
X35509500Y-81571902D01*
X35509500Y-81808097D01*
X35546446Y-82041368D01*
X35619433Y-82265996D01*
X35708348Y-82440500D01*
X35726657Y-82476433D01*
X35865483Y-82667510D01*
X36032490Y-82834517D01*
X36223567Y-82973343D01*
X36322991Y-83024002D01*
X36434003Y-83080566D01*
X36434005Y-83080566D01*
X36434008Y-83080568D01*
X36554412Y-83119689D01*
X36658631Y-83153553D01*
X36891903Y-83190500D01*
X36891908Y-83190500D01*
X37128097Y-83190500D01*
X37361368Y-83153553D01*
X37585992Y-83080568D01*
X37796433Y-82973343D01*
X37987510Y-82834517D01*
X38154517Y-82667510D01*
X38282313Y-82491613D01*
X38337643Y-82448949D01*
X38382631Y-82440500D01*
X42137369Y-82440500D01*
X42204408Y-82460185D01*
X42237685Y-82491613D01*
X42365483Y-82667510D01*
X42532490Y-82834517D01*
X42723567Y-82973343D01*
X42822991Y-83024002D01*
X42934003Y-83080566D01*
X42934005Y-83080566D01*
X42934008Y-83080568D01*
X43054412Y-83119689D01*
X43158631Y-83153553D01*
X43391903Y-83190500D01*
X43391908Y-83190500D01*
X43628097Y-83190500D01*
X43861368Y-83153553D01*
X44085992Y-83080568D01*
X44296433Y-82973343D01*
X44487510Y-82834517D01*
X44654517Y-82667510D01*
X44793343Y-82476433D01*
X44900568Y-82265992D01*
X44973553Y-82041368D01*
X45010500Y-81808097D01*
X45010500Y-81571902D01*
X50509500Y-81571902D01*
X50509500Y-81808097D01*
X50546446Y-82041368D01*
X50619433Y-82265996D01*
X50708348Y-82440500D01*
X50726657Y-82476433D01*
X50865483Y-82667510D01*
X51032490Y-82834517D01*
X51223567Y-82973343D01*
X51322991Y-83024002D01*
X51434003Y-83080566D01*
X51434005Y-83080566D01*
X51434008Y-83080568D01*
X51554412Y-83119689D01*
X51658631Y-83153553D01*
X51891903Y-83190500D01*
X51891908Y-83190500D01*
X52128097Y-83190500D01*
X52361368Y-83153553D01*
X52585992Y-83080568D01*
X52796433Y-82973343D01*
X52987510Y-82834517D01*
X53154517Y-82667510D01*
X53282313Y-82491613D01*
X53337643Y-82448949D01*
X53382631Y-82440500D01*
X57137369Y-82440500D01*
X57204408Y-82460185D01*
X57237685Y-82491613D01*
X57365483Y-82667510D01*
X57532490Y-82834517D01*
X57723567Y-82973343D01*
X57822991Y-83024002D01*
X57934003Y-83080566D01*
X57934005Y-83080566D01*
X57934008Y-83080568D01*
X58054412Y-83119689D01*
X58158631Y-83153553D01*
X58391903Y-83190500D01*
X58391908Y-83190500D01*
X58628097Y-83190500D01*
X58861368Y-83153553D01*
X59085992Y-83080568D01*
X59296433Y-82973343D01*
X59487510Y-82834517D01*
X59654517Y-82667510D01*
X59793343Y-82476433D01*
X59900568Y-82265992D01*
X59973553Y-82041368D01*
X60010500Y-81808097D01*
X60010500Y-81571902D01*
X65509500Y-81571902D01*
X65509500Y-81808097D01*
X65546446Y-82041368D01*
X65619433Y-82265996D01*
X65708348Y-82440500D01*
X65726657Y-82476433D01*
X65865483Y-82667510D01*
X66032490Y-82834517D01*
X66223567Y-82973343D01*
X66322991Y-83024002D01*
X66434003Y-83080566D01*
X66434005Y-83080566D01*
X66434008Y-83080568D01*
X66554412Y-83119689D01*
X66658631Y-83153553D01*
X66891903Y-83190500D01*
X66891908Y-83190500D01*
X67128097Y-83190500D01*
X67361368Y-83153553D01*
X67585992Y-83080568D01*
X67796433Y-82973343D01*
X67987510Y-82834517D01*
X68154517Y-82667510D01*
X68282313Y-82491613D01*
X68337643Y-82448949D01*
X68382631Y-82440500D01*
X72137369Y-82440500D01*
X72204408Y-82460185D01*
X72237685Y-82491613D01*
X72365483Y-82667510D01*
X72532490Y-82834517D01*
X72723567Y-82973343D01*
X72822991Y-83024002D01*
X72934003Y-83080566D01*
X72934005Y-83080566D01*
X72934008Y-83080568D01*
X73054412Y-83119689D01*
X73158631Y-83153553D01*
X73391903Y-83190500D01*
X73391908Y-83190500D01*
X73628097Y-83190500D01*
X73861368Y-83153553D01*
X74085992Y-83080568D01*
X74296433Y-82973343D01*
X74487510Y-82834517D01*
X74654517Y-82667510D01*
X74793343Y-82476433D01*
X74900568Y-82265992D01*
X74973553Y-82041368D01*
X75010500Y-81808097D01*
X75010500Y-81571902D01*
X80509500Y-81571902D01*
X80509500Y-81808097D01*
X80546446Y-82041368D01*
X80619433Y-82265996D01*
X80708348Y-82440500D01*
X80726657Y-82476433D01*
X80865483Y-82667510D01*
X81032490Y-82834517D01*
X81223567Y-82973343D01*
X81322991Y-83024002D01*
X81434003Y-83080566D01*
X81434005Y-83080566D01*
X81434008Y-83080568D01*
X81554412Y-83119689D01*
X81658631Y-83153553D01*
X81891903Y-83190500D01*
X81891908Y-83190500D01*
X82128097Y-83190500D01*
X82361368Y-83153553D01*
X82585992Y-83080568D01*
X82796433Y-82973343D01*
X82987510Y-82834517D01*
X83154517Y-82667510D01*
X83282313Y-82491613D01*
X83337643Y-82448949D01*
X83382631Y-82440500D01*
X87137369Y-82440500D01*
X87204408Y-82460185D01*
X87237685Y-82491613D01*
X87365483Y-82667510D01*
X87532490Y-82834517D01*
X87723567Y-82973343D01*
X87822991Y-83024002D01*
X87934003Y-83080566D01*
X87934005Y-83080566D01*
X87934008Y-83080568D01*
X88054412Y-83119689D01*
X88158631Y-83153553D01*
X88391903Y-83190500D01*
X88391908Y-83190500D01*
X88628097Y-83190500D01*
X88861368Y-83153553D01*
X89085992Y-83080568D01*
X89296433Y-82973343D01*
X89487510Y-82834517D01*
X89654517Y-82667510D01*
X89793343Y-82476433D01*
X89900568Y-82265992D01*
X89973553Y-82041368D01*
X90010500Y-81808097D01*
X90010500Y-81571902D01*
X89973553Y-81338631D01*
X89900566Y-81114003D01*
X89844002Y-81002991D01*
X89793343Y-80903567D01*
X89654517Y-80712490D01*
X89487510Y-80545483D01*
X89296433Y-80406657D01*
X89085996Y-80299433D01*
X88861368Y-80226446D01*
X88628097Y-80189500D01*
X88628092Y-80189500D01*
X88391908Y-80189500D01*
X88391903Y-80189500D01*
X88158631Y-80226446D01*
X87934003Y-80299433D01*
X87723566Y-80406657D01*
X87614550Y-80485862D01*
X87532490Y-80545483D01*
X87532488Y-80545485D01*
X87532487Y-80545485D01*
X87365485Y-80712487D01*
X87365485Y-80712488D01*
X87365483Y-80712490D01*
X87237687Y-80888386D01*
X87182357Y-80931051D01*
X87137369Y-80939500D01*
X83382631Y-80939500D01*
X83315592Y-80919815D01*
X83282313Y-80888386D01*
X83154517Y-80712490D01*
X82987510Y-80545483D01*
X82796433Y-80406657D01*
X82585996Y-80299433D01*
X82361368Y-80226446D01*
X82128097Y-80189500D01*
X82128092Y-80189500D01*
X81891908Y-80189500D01*
X81891903Y-80189500D01*
X81658631Y-80226446D01*
X81434003Y-80299433D01*
X81223566Y-80406657D01*
X81114550Y-80485862D01*
X81032490Y-80545483D01*
X81032488Y-80545485D01*
X81032487Y-80545485D01*
X80865485Y-80712487D01*
X80865485Y-80712488D01*
X80865483Y-80712490D01*
X80805862Y-80794550D01*
X80726657Y-80903566D01*
X80619433Y-81114003D01*
X80546446Y-81338631D01*
X80509500Y-81571902D01*
X75010500Y-81571902D01*
X74973553Y-81338631D01*
X74900566Y-81114003D01*
X74844002Y-81002991D01*
X74793343Y-80903567D01*
X74654517Y-80712490D01*
X74487510Y-80545483D01*
X74296433Y-80406657D01*
X74085996Y-80299433D01*
X73861368Y-80226446D01*
X73628097Y-80189500D01*
X73628092Y-80189500D01*
X73391908Y-80189500D01*
X73391903Y-80189500D01*
X73158631Y-80226446D01*
X72934003Y-80299433D01*
X72723566Y-80406657D01*
X72614550Y-80485862D01*
X72532490Y-80545483D01*
X72532488Y-80545485D01*
X72532487Y-80545485D01*
X72365485Y-80712487D01*
X72365485Y-80712488D01*
X72365483Y-80712490D01*
X72237687Y-80888386D01*
X72182357Y-80931051D01*
X72137369Y-80939500D01*
X68382631Y-80939500D01*
X68315592Y-80919815D01*
X68282313Y-80888386D01*
X68154517Y-80712490D01*
X67987510Y-80545483D01*
X67796433Y-80406657D01*
X67585996Y-80299433D01*
X67361368Y-80226446D01*
X67128097Y-80189500D01*
X67128092Y-80189500D01*
X66891908Y-80189500D01*
X66891903Y-80189500D01*
X66658631Y-80226446D01*
X66434003Y-80299433D01*
X66223566Y-80406657D01*
X66114550Y-80485862D01*
X66032490Y-80545483D01*
X66032488Y-80545485D01*
X66032487Y-80545485D01*
X65865485Y-80712487D01*
X65865485Y-80712488D01*
X65865483Y-80712490D01*
X65805862Y-80794550D01*
X65726657Y-80903566D01*
X65619433Y-81114003D01*
X65546446Y-81338631D01*
X65509500Y-81571902D01*
X60010500Y-81571902D01*
X59973553Y-81338631D01*
X59900566Y-81114003D01*
X59844002Y-81002991D01*
X59793343Y-80903567D01*
X59654517Y-80712490D01*
X59487510Y-80545483D01*
X59296433Y-80406657D01*
X59085996Y-80299433D01*
X58861368Y-80226446D01*
X58628097Y-80189500D01*
X58628092Y-80189500D01*
X58391908Y-80189500D01*
X58391903Y-80189500D01*
X58158631Y-80226446D01*
X57934003Y-80299433D01*
X57723566Y-80406657D01*
X57614550Y-80485862D01*
X57532490Y-80545483D01*
X57532488Y-80545485D01*
X57532487Y-80545485D01*
X57365485Y-80712487D01*
X57365485Y-80712488D01*
X57365483Y-80712490D01*
X57237687Y-80888386D01*
X57182357Y-80931051D01*
X57137369Y-80939500D01*
X53382631Y-80939500D01*
X53315592Y-80919815D01*
X53282313Y-80888386D01*
X53154517Y-80712490D01*
X52987510Y-80545483D01*
X52796433Y-80406657D01*
X52585996Y-80299433D01*
X52361368Y-80226446D01*
X52128097Y-80189500D01*
X52128092Y-80189500D01*
X51891908Y-80189500D01*
X51891903Y-80189500D01*
X51658631Y-80226446D01*
X51434003Y-80299433D01*
X51223566Y-80406657D01*
X51114550Y-80485862D01*
X51032490Y-80545483D01*
X51032488Y-80545485D01*
X51032487Y-80545485D01*
X50865485Y-80712487D01*
X50865485Y-80712488D01*
X50865483Y-80712490D01*
X50805862Y-80794550D01*
X50726657Y-80903566D01*
X50619433Y-81114003D01*
X50546446Y-81338631D01*
X50509500Y-81571902D01*
X45010500Y-81571902D01*
X44973553Y-81338631D01*
X44900566Y-81114003D01*
X44844002Y-81002991D01*
X44793343Y-80903567D01*
X44654517Y-80712490D01*
X44487510Y-80545483D01*
X44296433Y-80406657D01*
X44085996Y-80299433D01*
X43861368Y-80226446D01*
X43628097Y-80189500D01*
X43628092Y-80189500D01*
X43391908Y-80189500D01*
X43391903Y-80189500D01*
X43158631Y-80226446D01*
X42934003Y-80299433D01*
X42723566Y-80406657D01*
X42614550Y-80485862D01*
X42532490Y-80545483D01*
X42532488Y-80545485D01*
X42532487Y-80545485D01*
X42365485Y-80712487D01*
X42365485Y-80712488D01*
X42365483Y-80712490D01*
X42237687Y-80888386D01*
X42182357Y-80931051D01*
X42137369Y-80939500D01*
X38382631Y-80939500D01*
X38315592Y-80919815D01*
X38282313Y-80888386D01*
X38154517Y-80712490D01*
X37987510Y-80545483D01*
X37796433Y-80406657D01*
X37585996Y-80299433D01*
X37361368Y-80226446D01*
X37128097Y-80189500D01*
X37128092Y-80189500D01*
X36891908Y-80189500D01*
X36891903Y-80189500D01*
X36658631Y-80226446D01*
X36434003Y-80299433D01*
X36223566Y-80406657D01*
X36114550Y-80485862D01*
X36032490Y-80545483D01*
X36032488Y-80545485D01*
X36032487Y-80545485D01*
X35865485Y-80712487D01*
X35865485Y-80712488D01*
X35865483Y-80712490D01*
X35805862Y-80794550D01*
X35726657Y-80903566D01*
X35619433Y-81114003D01*
X35546446Y-81338631D01*
X35509500Y-81571902D01*
X25500500Y-81571902D01*
X25500500Y-66571902D01*
X35509500Y-66571902D01*
X35509500Y-66808097D01*
X35546446Y-67041368D01*
X35619433Y-67265996D01*
X35708348Y-67440500D01*
X35726657Y-67476433D01*
X35865483Y-67667510D01*
X36032490Y-67834517D01*
X36223567Y-67973343D01*
X36322991Y-68024002D01*
X36434003Y-68080566D01*
X36434005Y-68080566D01*
X36434008Y-68080568D01*
X36554412Y-68119689D01*
X36658631Y-68153553D01*
X36891903Y-68190500D01*
X36891908Y-68190500D01*
X37128097Y-68190500D01*
X37361368Y-68153553D01*
X37585992Y-68080568D01*
X37796433Y-67973343D01*
X37987510Y-67834517D01*
X38154517Y-67667510D01*
X38282313Y-67491613D01*
X38337643Y-67448949D01*
X38382631Y-67440500D01*
X42137369Y-67440500D01*
X42204408Y-67460185D01*
X42237685Y-67491613D01*
X42365483Y-67667510D01*
X42532490Y-67834517D01*
X42723567Y-67973343D01*
X42822991Y-68024002D01*
X42934003Y-68080566D01*
X42934005Y-68080566D01*
X42934008Y-68080568D01*
X43054412Y-68119689D01*
X43158631Y-68153553D01*
X43391903Y-68190500D01*
X43391908Y-68190500D01*
X43628097Y-68190500D01*
X43861368Y-68153553D01*
X44085992Y-68080568D01*
X44296433Y-67973343D01*
X44487510Y-67834517D01*
X44654517Y-67667510D01*
X44793343Y-67476433D01*
X44900568Y-67265992D01*
X44973553Y-67041368D01*
X45010500Y-66808097D01*
X45010500Y-66571902D01*
X50509500Y-66571902D01*
X50509500Y-66808097D01*
X50546446Y-67041368D01*
X50619433Y-67265996D01*
X50708348Y-67440500D01*
X50726657Y-67476433D01*
X50865483Y-67667510D01*
X51032490Y-67834517D01*
X51223567Y-67973343D01*
X51322991Y-68024002D01*
X51434003Y-68080566D01*
X51434005Y-68080566D01*
X51434008Y-68080568D01*
X51554412Y-68119689D01*
X51658631Y-68153553D01*
X51891903Y-68190500D01*
X51891908Y-68190500D01*
X52128097Y-68190500D01*
X52361368Y-68153553D01*
X52585992Y-68080568D01*
X52796433Y-67973343D01*
X52987510Y-67834517D01*
X53154517Y-67667510D01*
X53282313Y-67491613D01*
X53337643Y-67448949D01*
X53382631Y-67440500D01*
X57137369Y-67440500D01*
X57204408Y-67460185D01*
X57237685Y-67491613D01*
X57365483Y-67667510D01*
X57532490Y-67834517D01*
X57723567Y-67973343D01*
X57822991Y-68024002D01*
X57934003Y-68080566D01*
X57934005Y-68080566D01*
X57934008Y-68080568D01*
X58054412Y-68119689D01*
X58158631Y-68153553D01*
X58391903Y-68190500D01*
X58391908Y-68190500D01*
X58628097Y-68190500D01*
X58861368Y-68153553D01*
X59085992Y-68080568D01*
X59296433Y-67973343D01*
X59487510Y-67834517D01*
X59654517Y-67667510D01*
X59793343Y-67476433D01*
X59900568Y-67265992D01*
X59973553Y-67041368D01*
X60010500Y-66808097D01*
X60010500Y-66571902D01*
X65509500Y-66571902D01*
X65509500Y-66808097D01*
X65546446Y-67041368D01*
X65619433Y-67265996D01*
X65708348Y-67440500D01*
X65726657Y-67476433D01*
X65865483Y-67667510D01*
X66032490Y-67834517D01*
X66223567Y-67973343D01*
X66322991Y-68024002D01*
X66434003Y-68080566D01*
X66434005Y-68080566D01*
X66434008Y-68080568D01*
X66554412Y-68119689D01*
X66658631Y-68153553D01*
X66891903Y-68190500D01*
X66891908Y-68190500D01*
X67128097Y-68190500D01*
X67361368Y-68153553D01*
X67585992Y-68080568D01*
X67796433Y-67973343D01*
X67987510Y-67834517D01*
X68154517Y-67667510D01*
X68282313Y-67491613D01*
X68337643Y-67448949D01*
X68382631Y-67440500D01*
X72137369Y-67440500D01*
X72204408Y-67460185D01*
X72237685Y-67491613D01*
X72365483Y-67667510D01*
X72532490Y-67834517D01*
X72723567Y-67973343D01*
X72822991Y-68024002D01*
X72934003Y-68080566D01*
X72934005Y-68080566D01*
X72934008Y-68080568D01*
X73054412Y-68119689D01*
X73158631Y-68153553D01*
X73391903Y-68190500D01*
X73391908Y-68190500D01*
X73628097Y-68190500D01*
X73861368Y-68153553D01*
X74085992Y-68080568D01*
X74296433Y-67973343D01*
X74487510Y-67834517D01*
X74654517Y-67667510D01*
X74793343Y-67476433D01*
X74900568Y-67265992D01*
X74973553Y-67041368D01*
X75010500Y-66808097D01*
X75010500Y-66571902D01*
X80509500Y-66571902D01*
X80509500Y-66808097D01*
X80546446Y-67041368D01*
X80619433Y-67265996D01*
X80708348Y-67440500D01*
X80726657Y-67476433D01*
X80865483Y-67667510D01*
X81032490Y-67834517D01*
X81223567Y-67973343D01*
X81322991Y-68024002D01*
X81434003Y-68080566D01*
X81434005Y-68080566D01*
X81434008Y-68080568D01*
X81554412Y-68119689D01*
X81658631Y-68153553D01*
X81891903Y-68190500D01*
X81891908Y-68190500D01*
X82128097Y-68190500D01*
X82361368Y-68153553D01*
X82585992Y-68080568D01*
X82796433Y-67973343D01*
X82987510Y-67834517D01*
X83154517Y-67667510D01*
X83282313Y-67491613D01*
X83337643Y-67448949D01*
X83382631Y-67440500D01*
X87137369Y-67440500D01*
X87204408Y-67460185D01*
X87237685Y-67491613D01*
X87365483Y-67667510D01*
X87532490Y-67834517D01*
X87723567Y-67973343D01*
X87822991Y-68024002D01*
X87934003Y-68080566D01*
X87934005Y-68080566D01*
X87934008Y-68080568D01*
X88054412Y-68119689D01*
X88158631Y-68153553D01*
X88391903Y-68190500D01*
X88391908Y-68190500D01*
X88628097Y-68190500D01*
X88861368Y-68153553D01*
X89085992Y-68080568D01*
X89296433Y-67973343D01*
X89487510Y-67834517D01*
X89654517Y-67667510D01*
X89793343Y-67476433D01*
X89900568Y-67265992D01*
X89973553Y-67041368D01*
X90010500Y-66808097D01*
X90010500Y-66571902D01*
X89973553Y-66338631D01*
X89900566Y-66114003D01*
X89844002Y-66002991D01*
X89793343Y-65903567D01*
X89654517Y-65712490D01*
X89487510Y-65545483D01*
X89296433Y-65406657D01*
X89085996Y-65299433D01*
X88861368Y-65226446D01*
X88628097Y-65189500D01*
X88628092Y-65189500D01*
X88391908Y-65189500D01*
X88391903Y-65189500D01*
X88158631Y-65226446D01*
X87934003Y-65299433D01*
X87723566Y-65406657D01*
X87672279Y-65443920D01*
X87532490Y-65545483D01*
X87532488Y-65545485D01*
X87532487Y-65545485D01*
X87365485Y-65712487D01*
X87365485Y-65712488D01*
X87365483Y-65712490D01*
X87237687Y-65888386D01*
X87182357Y-65931051D01*
X87137369Y-65939500D01*
X83382631Y-65939500D01*
X83315592Y-65919815D01*
X83282313Y-65888386D01*
X83154517Y-65712490D01*
X82987510Y-65545483D01*
X82796433Y-65406657D01*
X82585996Y-65299433D01*
X82361368Y-65226446D01*
X82128097Y-65189500D01*
X82128092Y-65189500D01*
X81891908Y-65189500D01*
X81891903Y-65189500D01*
X81658631Y-65226446D01*
X81434003Y-65299433D01*
X81223566Y-65406657D01*
X81172279Y-65443920D01*
X81032490Y-65545483D01*
X81032488Y-65545485D01*
X81032487Y-65545485D01*
X80865485Y-65712487D01*
X80865485Y-65712488D01*
X80865483Y-65712490D01*
X80805862Y-65794550D01*
X80726657Y-65903566D01*
X80619433Y-66114003D01*
X80546446Y-66338631D01*
X80509500Y-66571902D01*
X75010500Y-66571902D01*
X74973553Y-66338631D01*
X74900566Y-66114003D01*
X74844002Y-66002991D01*
X74793343Y-65903567D01*
X74654517Y-65712490D01*
X74487510Y-65545483D01*
X74296433Y-65406657D01*
X74085996Y-65299433D01*
X73861368Y-65226446D01*
X73628097Y-65189500D01*
X73628092Y-65189500D01*
X73391908Y-65189500D01*
X73391903Y-65189500D01*
X73158631Y-65226446D01*
X72934003Y-65299433D01*
X72723566Y-65406657D01*
X72672279Y-65443920D01*
X72532490Y-65545483D01*
X72532488Y-65545485D01*
X72532487Y-65545485D01*
X72365485Y-65712487D01*
X72365485Y-65712488D01*
X72365483Y-65712490D01*
X72237687Y-65888386D01*
X72182357Y-65931051D01*
X72137369Y-65939500D01*
X68382631Y-65939500D01*
X68315592Y-65919815D01*
X68282313Y-65888386D01*
X68154517Y-65712490D01*
X67987510Y-65545483D01*
X67796433Y-65406657D01*
X67585996Y-65299433D01*
X67361368Y-65226446D01*
X67128097Y-65189500D01*
X67128092Y-65189500D01*
X66891908Y-65189500D01*
X66891903Y-65189500D01*
X66658631Y-65226446D01*
X66434003Y-65299433D01*
X66223566Y-65406657D01*
X66172279Y-65443920D01*
X66032490Y-65545483D01*
X66032488Y-65545485D01*
X66032487Y-65545485D01*
X65865485Y-65712487D01*
X65865485Y-65712488D01*
X65865483Y-65712490D01*
X65805862Y-65794550D01*
X65726657Y-65903566D01*
X65619433Y-66114003D01*
X65546446Y-66338631D01*
X65509500Y-66571902D01*
X60010500Y-66571902D01*
X59973553Y-66338631D01*
X59900566Y-66114003D01*
X59844002Y-66002991D01*
X59793343Y-65903567D01*
X59654517Y-65712490D01*
X59487510Y-65545483D01*
X59296433Y-65406657D01*
X59085996Y-65299433D01*
X58861368Y-65226446D01*
X58628097Y-65189500D01*
X58628092Y-65189500D01*
X58391908Y-65189500D01*
X58391903Y-65189500D01*
X58158631Y-65226446D01*
X57934003Y-65299433D01*
X57723566Y-65406657D01*
X57672279Y-65443920D01*
X57532490Y-65545483D01*
X57532488Y-65545485D01*
X57532487Y-65545485D01*
X57365485Y-65712487D01*
X57365485Y-65712488D01*
X57365483Y-65712490D01*
X57237687Y-65888386D01*
X57182357Y-65931051D01*
X57137369Y-65939500D01*
X53382631Y-65939500D01*
X53315592Y-65919815D01*
X53282313Y-65888386D01*
X53154517Y-65712490D01*
X52987510Y-65545483D01*
X52796433Y-65406657D01*
X52585996Y-65299433D01*
X52361368Y-65226446D01*
X52128097Y-65189500D01*
X52128092Y-65189500D01*
X51891908Y-65189500D01*
X51891903Y-65189500D01*
X51658631Y-65226446D01*
X51434003Y-65299433D01*
X51223566Y-65406657D01*
X51172279Y-65443920D01*
X51032490Y-65545483D01*
X51032488Y-65545485D01*
X51032487Y-65545485D01*
X50865485Y-65712487D01*
X50865485Y-65712488D01*
X50865483Y-65712490D01*
X50805862Y-65794550D01*
X50726657Y-65903566D01*
X50619433Y-66114003D01*
X50546446Y-66338631D01*
X50509500Y-66571902D01*
X45010500Y-66571902D01*
X44973553Y-66338631D01*
X44900566Y-66114003D01*
X44844002Y-66002991D01*
X44793343Y-65903567D01*
X44654517Y-65712490D01*
X44487510Y-65545483D01*
X44296433Y-65406657D01*
X44085996Y-65299433D01*
X43861368Y-65226446D01*
X43628097Y-65189500D01*
X43628092Y-65189500D01*
X43391908Y-65189500D01*
X43391903Y-65189500D01*
X43158631Y-65226446D01*
X42934003Y-65299433D01*
X42723566Y-65406657D01*
X42672279Y-65443920D01*
X42532490Y-65545483D01*
X42532488Y-65545485D01*
X42532487Y-65545485D01*
X42365485Y-65712487D01*
X42365485Y-65712488D01*
X42365483Y-65712490D01*
X42237687Y-65888386D01*
X42182357Y-65931051D01*
X42137369Y-65939500D01*
X38382631Y-65939500D01*
X38315592Y-65919815D01*
X38282313Y-65888386D01*
X38154517Y-65712490D01*
X37987510Y-65545483D01*
X37796433Y-65406657D01*
X37585996Y-65299433D01*
X37361368Y-65226446D01*
X37128097Y-65189500D01*
X37128092Y-65189500D01*
X36891908Y-65189500D01*
X36891903Y-65189500D01*
X36658631Y-65226446D01*
X36434003Y-65299433D01*
X36223566Y-65406657D01*
X36172279Y-65443920D01*
X36032490Y-65545483D01*
X36032488Y-65545485D01*
X36032487Y-65545485D01*
X35865485Y-65712487D01*
X35865485Y-65712488D01*
X35865483Y-65712490D01*
X35805862Y-65794550D01*
X35726657Y-65903566D01*
X35619433Y-66114003D01*
X35546446Y-66338631D01*
X35509500Y-66571902D01*
X25500500Y-66571902D01*
X25500500Y-51571902D01*
X35509500Y-51571902D01*
X35509500Y-51808097D01*
X35546446Y-52041368D01*
X35619433Y-52265996D01*
X35708348Y-52440500D01*
X35726657Y-52476433D01*
X35865483Y-52667510D01*
X36032490Y-52834517D01*
X36223567Y-52973343D01*
X36322991Y-53024002D01*
X36434003Y-53080566D01*
X36434005Y-53080566D01*
X36434008Y-53080568D01*
X36554412Y-53119689D01*
X36658631Y-53153553D01*
X36891903Y-53190500D01*
X36891908Y-53190500D01*
X37128097Y-53190500D01*
X37361368Y-53153553D01*
X37585992Y-53080568D01*
X37796433Y-52973343D01*
X37987510Y-52834517D01*
X38154517Y-52667510D01*
X38282313Y-52491613D01*
X38337643Y-52448949D01*
X38382631Y-52440500D01*
X42137369Y-52440500D01*
X42204408Y-52460185D01*
X42237685Y-52491613D01*
X42365483Y-52667510D01*
X42532490Y-52834517D01*
X42723567Y-52973343D01*
X42822991Y-53024002D01*
X42934003Y-53080566D01*
X42934005Y-53080566D01*
X42934008Y-53080568D01*
X43054412Y-53119689D01*
X43158631Y-53153553D01*
X43391903Y-53190500D01*
X43391908Y-53190500D01*
X43628097Y-53190500D01*
X43861368Y-53153553D01*
X44085992Y-53080568D01*
X44296433Y-52973343D01*
X44487510Y-52834517D01*
X44654517Y-52667510D01*
X44793343Y-52476433D01*
X44900568Y-52265992D01*
X44973553Y-52041368D01*
X45010500Y-51808097D01*
X45010500Y-51571902D01*
X50509500Y-51571902D01*
X50509500Y-51808097D01*
X50546446Y-52041368D01*
X50619433Y-52265996D01*
X50708348Y-52440500D01*
X50726657Y-52476433D01*
X50865483Y-52667510D01*
X51032490Y-52834517D01*
X51223567Y-52973343D01*
X51322991Y-53024002D01*
X51434003Y-53080566D01*
X51434005Y-53080566D01*
X51434008Y-53080568D01*
X51554412Y-53119689D01*
X51658631Y-53153553D01*
X51891903Y-53190500D01*
X51891908Y-53190500D01*
X52128097Y-53190500D01*
X52361368Y-53153553D01*
X52585992Y-53080568D01*
X52796433Y-52973343D01*
X52987510Y-52834517D01*
X53154517Y-52667510D01*
X53282313Y-52491613D01*
X53337643Y-52448949D01*
X53382631Y-52440500D01*
X57137369Y-52440500D01*
X57204408Y-52460185D01*
X57237685Y-52491613D01*
X57365483Y-52667510D01*
X57532490Y-52834517D01*
X57723567Y-52973343D01*
X57822991Y-53024002D01*
X57934003Y-53080566D01*
X57934005Y-53080566D01*
X57934008Y-53080568D01*
X58054412Y-53119689D01*
X58158631Y-53153553D01*
X58391903Y-53190500D01*
X58391908Y-53190500D01*
X58628097Y-53190500D01*
X58861368Y-53153553D01*
X59085992Y-53080568D01*
X59296433Y-52973343D01*
X59487510Y-52834517D01*
X59654517Y-52667510D01*
X59793343Y-52476433D01*
X59900568Y-52265992D01*
X59973553Y-52041368D01*
X60010500Y-51808097D01*
X60010500Y-51571902D01*
X65509500Y-51571902D01*
X65509500Y-51808097D01*
X65546446Y-52041368D01*
X65619433Y-52265996D01*
X65708348Y-52440500D01*
X65726657Y-52476433D01*
X65865483Y-52667510D01*
X66032490Y-52834517D01*
X66223567Y-52973343D01*
X66322991Y-53024002D01*
X66434003Y-53080566D01*
X66434005Y-53080566D01*
X66434008Y-53080568D01*
X66554412Y-53119689D01*
X66658631Y-53153553D01*
X66891903Y-53190500D01*
X66891908Y-53190500D01*
X67128097Y-53190500D01*
X67361368Y-53153553D01*
X67585992Y-53080568D01*
X67796433Y-52973343D01*
X67987510Y-52834517D01*
X68154517Y-52667510D01*
X68282313Y-52491613D01*
X68337643Y-52448949D01*
X68382631Y-52440500D01*
X72137369Y-52440500D01*
X72204408Y-52460185D01*
X72237685Y-52491613D01*
X72365483Y-52667510D01*
X72532490Y-52834517D01*
X72723567Y-52973343D01*
X72822991Y-53024002D01*
X72934003Y-53080566D01*
X72934005Y-53080566D01*
X72934008Y-53080568D01*
X73054412Y-53119689D01*
X73158631Y-53153553D01*
X73391903Y-53190500D01*
X73391908Y-53190500D01*
X73628097Y-53190500D01*
X73861368Y-53153553D01*
X74085992Y-53080568D01*
X74296433Y-52973343D01*
X74487510Y-52834517D01*
X74654517Y-52667510D01*
X74793343Y-52476433D01*
X74900568Y-52265992D01*
X74973553Y-52041368D01*
X75010500Y-51808097D01*
X75010500Y-51571902D01*
X80509500Y-51571902D01*
X80509500Y-51808097D01*
X80546446Y-52041368D01*
X80619433Y-52265996D01*
X80708348Y-52440500D01*
X80726657Y-52476433D01*
X80865483Y-52667510D01*
X81032490Y-52834517D01*
X81223567Y-52973343D01*
X81322991Y-53024002D01*
X81434003Y-53080566D01*
X81434005Y-53080566D01*
X81434008Y-53080568D01*
X81554412Y-53119689D01*
X81658631Y-53153553D01*
X81891903Y-53190500D01*
X81891908Y-53190500D01*
X82128097Y-53190500D01*
X82361368Y-53153553D01*
X82585992Y-53080568D01*
X82796433Y-52973343D01*
X82987510Y-52834517D01*
X83154517Y-52667510D01*
X83282313Y-52491613D01*
X83337643Y-52448949D01*
X83382631Y-52440500D01*
X87137369Y-52440500D01*
X87204408Y-52460185D01*
X87237685Y-52491613D01*
X87365483Y-52667510D01*
X87532490Y-52834517D01*
X87723567Y-52973343D01*
X87822991Y-53024002D01*
X87934003Y-53080566D01*
X87934005Y-53080566D01*
X87934008Y-53080568D01*
X88054412Y-53119689D01*
X88158631Y-53153553D01*
X88391903Y-53190500D01*
X88391908Y-53190500D01*
X88628097Y-53190500D01*
X88861368Y-53153553D01*
X89085992Y-53080568D01*
X89296433Y-52973343D01*
X89487510Y-52834517D01*
X89654517Y-52667510D01*
X89793343Y-52476433D01*
X89900568Y-52265992D01*
X89973553Y-52041368D01*
X90010500Y-51808097D01*
X90010500Y-51571902D01*
X89973553Y-51338631D01*
X89900566Y-51114003D01*
X89844002Y-51002991D01*
X89793343Y-50903567D01*
X89654517Y-50712490D01*
X89487510Y-50545483D01*
X89296433Y-50406657D01*
X89085996Y-50299433D01*
X88861368Y-50226446D01*
X88628097Y-50189500D01*
X88628092Y-50189500D01*
X88391908Y-50189500D01*
X88391903Y-50189500D01*
X88158631Y-50226446D01*
X87934003Y-50299433D01*
X87723566Y-50406657D01*
X87614550Y-50485862D01*
X87532490Y-50545483D01*
X87532488Y-50545485D01*
X87532487Y-50545485D01*
X87365485Y-50712487D01*
X87365485Y-50712488D01*
X87365483Y-50712490D01*
X87237687Y-50888386D01*
X87182357Y-50931051D01*
X87137369Y-50939500D01*
X83382631Y-50939500D01*
X83315592Y-50919815D01*
X83282313Y-50888386D01*
X83154517Y-50712490D01*
X82987510Y-50545483D01*
X82796433Y-50406657D01*
X82585996Y-50299433D01*
X82361368Y-50226446D01*
X82128097Y-50189500D01*
X82128092Y-50189500D01*
X81891908Y-50189500D01*
X81891903Y-50189500D01*
X81658631Y-50226446D01*
X81434003Y-50299433D01*
X81223566Y-50406657D01*
X81114550Y-50485862D01*
X81032490Y-50545483D01*
X81032488Y-50545485D01*
X81032487Y-50545485D01*
X80865485Y-50712487D01*
X80865485Y-50712488D01*
X80865483Y-50712490D01*
X80805862Y-50794550D01*
X80726657Y-50903566D01*
X80619433Y-51114003D01*
X80546446Y-51338631D01*
X80509500Y-51571902D01*
X75010500Y-51571902D01*
X74973553Y-51338631D01*
X74900566Y-51114003D01*
X74844002Y-51002991D01*
X74793343Y-50903567D01*
X74654517Y-50712490D01*
X74487510Y-50545483D01*
X74296433Y-50406657D01*
X74085996Y-50299433D01*
X73861368Y-50226446D01*
X73628097Y-50189500D01*
X73628092Y-50189500D01*
X73391908Y-50189500D01*
X73391903Y-50189500D01*
X73158631Y-50226446D01*
X72934003Y-50299433D01*
X72723566Y-50406657D01*
X72614550Y-50485862D01*
X72532490Y-50545483D01*
X72532488Y-50545485D01*
X72532487Y-50545485D01*
X72365485Y-50712487D01*
X72365485Y-50712488D01*
X72365483Y-50712490D01*
X72237687Y-50888386D01*
X72182357Y-50931051D01*
X72137369Y-50939500D01*
X68382631Y-50939500D01*
X68315592Y-50919815D01*
X68282313Y-50888386D01*
X68154517Y-50712490D01*
X67987510Y-50545483D01*
X67796433Y-50406657D01*
X67585996Y-50299433D01*
X67361368Y-50226446D01*
X67128097Y-50189500D01*
X67128092Y-50189500D01*
X66891908Y-50189500D01*
X66891903Y-50189500D01*
X66658631Y-50226446D01*
X66434003Y-50299433D01*
X66223566Y-50406657D01*
X66114550Y-50485862D01*
X66032490Y-50545483D01*
X66032488Y-50545485D01*
X66032487Y-50545485D01*
X65865485Y-50712487D01*
X65865485Y-50712488D01*
X65865483Y-50712490D01*
X65805862Y-50794550D01*
X65726657Y-50903566D01*
X65619433Y-51114003D01*
X65546446Y-51338631D01*
X65509500Y-51571902D01*
X60010500Y-51571902D01*
X59973553Y-51338631D01*
X59900566Y-51114003D01*
X59844002Y-51002991D01*
X59793343Y-50903567D01*
X59654517Y-50712490D01*
X59487510Y-50545483D01*
X59296433Y-50406657D01*
X59085996Y-50299433D01*
X58861368Y-50226446D01*
X58628097Y-50189500D01*
X58628092Y-50189500D01*
X58391908Y-50189500D01*
X58391903Y-50189500D01*
X58158631Y-50226446D01*
X57934003Y-50299433D01*
X57723566Y-50406657D01*
X57614550Y-50485862D01*
X57532490Y-50545483D01*
X57532488Y-50545485D01*
X57532487Y-50545485D01*
X57365485Y-50712487D01*
X57365485Y-50712488D01*
X57365483Y-50712490D01*
X57237687Y-50888386D01*
X57182357Y-50931051D01*
X57137369Y-50939500D01*
X53382631Y-50939500D01*
X53315592Y-50919815D01*
X53282313Y-50888386D01*
X53154517Y-50712490D01*
X52987510Y-50545483D01*
X52796433Y-50406657D01*
X52585996Y-50299433D01*
X52361368Y-50226446D01*
X52128097Y-50189500D01*
X52128092Y-50189500D01*
X51891908Y-50189500D01*
X51891903Y-50189500D01*
X51658631Y-50226446D01*
X51434003Y-50299433D01*
X51223566Y-50406657D01*
X51114550Y-50485862D01*
X51032490Y-50545483D01*
X51032488Y-50545485D01*
X51032487Y-50545485D01*
X50865485Y-50712487D01*
X50865485Y-50712488D01*
X50865483Y-50712490D01*
X50805862Y-50794550D01*
X50726657Y-50903566D01*
X50619433Y-51114003D01*
X50546446Y-51338631D01*
X50509500Y-51571902D01*
X45010500Y-51571902D01*
X44973553Y-51338631D01*
X44900566Y-51114003D01*
X44844002Y-51002991D01*
X44793343Y-50903567D01*
X44654517Y-50712490D01*
X44487510Y-50545483D01*
X44296433Y-50406657D01*
X44085996Y-50299433D01*
X43861368Y-50226446D01*
X43628097Y-50189500D01*
X43628092Y-50189500D01*
X43391908Y-50189500D01*
X43391903Y-50189500D01*
X43158631Y-50226446D01*
X42934003Y-50299433D01*
X42723566Y-50406657D01*
X42614550Y-50485862D01*
X42532490Y-50545483D01*
X42532488Y-50545485D01*
X42532487Y-50545485D01*
X42365485Y-50712487D01*
X42365485Y-50712488D01*
X42365483Y-50712490D01*
X42237687Y-50888386D01*
X42182357Y-50931051D01*
X42137369Y-50939500D01*
X38382631Y-50939500D01*
X38315592Y-50919815D01*
X38282313Y-50888386D01*
X38154517Y-50712490D01*
X37987510Y-50545483D01*
X37796433Y-50406657D01*
X37585996Y-50299433D01*
X37361368Y-50226446D01*
X37128097Y-50189500D01*
X37128092Y-50189500D01*
X36891908Y-50189500D01*
X36891903Y-50189500D01*
X36658631Y-50226446D01*
X36434003Y-50299433D01*
X36223566Y-50406657D01*
X36114550Y-50485862D01*
X36032490Y-50545483D01*
X36032488Y-50545485D01*
X36032487Y-50545485D01*
X35865485Y-50712487D01*
X35865485Y-50712488D01*
X35865483Y-50712490D01*
X35805862Y-50794550D01*
X35726657Y-50903566D01*
X35619433Y-51114003D01*
X35546446Y-51338631D01*
X35509500Y-51571902D01*
X25500500Y-51571902D01*
X25500500Y-41071902D01*
X35509500Y-41071902D01*
X35509500Y-41308097D01*
X35546446Y-41541368D01*
X35619433Y-41765996D01*
X35691374Y-41907187D01*
X35726657Y-41976433D01*
X35865483Y-42167510D01*
X36032490Y-42334517D01*
X36223567Y-42473343D01*
X36322991Y-42524002D01*
X36434003Y-42580566D01*
X36434005Y-42580566D01*
X36434008Y-42580568D01*
X36554412Y-42619689D01*
X36658631Y-42653553D01*
X36891903Y-42690500D01*
X36891908Y-42690500D01*
X37128097Y-42690500D01*
X37361368Y-42653553D01*
X37585992Y-42580568D01*
X37796433Y-42473343D01*
X37987510Y-42334517D01*
X38154517Y-42167510D01*
X38282313Y-41991613D01*
X38337643Y-41948949D01*
X38382631Y-41940500D01*
X42137369Y-41940500D01*
X42204408Y-41960185D01*
X42237685Y-41991613D01*
X42365483Y-42167510D01*
X42532490Y-42334517D01*
X42723567Y-42473343D01*
X42822991Y-42524002D01*
X42934003Y-42580566D01*
X42934005Y-42580566D01*
X42934008Y-42580568D01*
X43054412Y-42619689D01*
X43158631Y-42653553D01*
X43391903Y-42690500D01*
X43391908Y-42690500D01*
X43628097Y-42690500D01*
X43861368Y-42653553D01*
X44085992Y-42580568D01*
X44296433Y-42473343D01*
X44487510Y-42334517D01*
X44654517Y-42167510D01*
X44782313Y-41991613D01*
X44837643Y-41948949D01*
X44882631Y-41940500D01*
X50637369Y-41940500D01*
X50704408Y-41960185D01*
X50737685Y-41991613D01*
X50865483Y-42167510D01*
X51032490Y-42334517D01*
X51223567Y-42473343D01*
X51322991Y-42524002D01*
X51434003Y-42580566D01*
X51434005Y-42580566D01*
X51434008Y-42580568D01*
X51554412Y-42619689D01*
X51658631Y-42653553D01*
X51891903Y-42690500D01*
X51891908Y-42690500D01*
X52128097Y-42690500D01*
X52361368Y-42653553D01*
X52585992Y-42580568D01*
X52796433Y-42473343D01*
X52987510Y-42334517D01*
X53154517Y-42167510D01*
X53282313Y-41991613D01*
X53337643Y-41948949D01*
X53382631Y-41940500D01*
X57137369Y-41940500D01*
X57204408Y-41960185D01*
X57237685Y-41991613D01*
X57365483Y-42167510D01*
X57532490Y-42334517D01*
X57723567Y-42473343D01*
X57822991Y-42524002D01*
X57934003Y-42580566D01*
X57934005Y-42580566D01*
X57934008Y-42580568D01*
X58054412Y-42619689D01*
X58158631Y-42653553D01*
X58391903Y-42690500D01*
X58391908Y-42690500D01*
X58628097Y-42690500D01*
X58861368Y-42653553D01*
X59085992Y-42580568D01*
X59296433Y-42473343D01*
X59487510Y-42334517D01*
X59654517Y-42167510D01*
X59782313Y-41991613D01*
X59837643Y-41948949D01*
X59882631Y-41940500D01*
X65637369Y-41940500D01*
X65704408Y-41960185D01*
X65737685Y-41991613D01*
X65865483Y-42167510D01*
X66032490Y-42334517D01*
X66223567Y-42473343D01*
X66322991Y-42524002D01*
X66434003Y-42580566D01*
X66434005Y-42580566D01*
X66434008Y-42580568D01*
X66554412Y-42619689D01*
X66658631Y-42653553D01*
X66891903Y-42690500D01*
X66891908Y-42690500D01*
X67128097Y-42690500D01*
X67361368Y-42653553D01*
X67585992Y-42580568D01*
X67796433Y-42473343D01*
X67987510Y-42334517D01*
X68154517Y-42167510D01*
X68282313Y-41991613D01*
X68337643Y-41948949D01*
X68382631Y-41940500D01*
X72137369Y-41940500D01*
X72204408Y-41960185D01*
X72237685Y-41991613D01*
X72365483Y-42167510D01*
X72532490Y-42334517D01*
X72723567Y-42473343D01*
X72822991Y-42524002D01*
X72934003Y-42580566D01*
X72934005Y-42580566D01*
X72934008Y-42580568D01*
X73054412Y-42619689D01*
X73158631Y-42653553D01*
X73391903Y-42690500D01*
X73391908Y-42690500D01*
X73628097Y-42690500D01*
X73861368Y-42653553D01*
X74085992Y-42580568D01*
X74296433Y-42473343D01*
X74487510Y-42334517D01*
X74654517Y-42167510D01*
X74782313Y-41991613D01*
X74837643Y-41948949D01*
X74882631Y-41940500D01*
X80637369Y-41940500D01*
X80704408Y-41960185D01*
X80737685Y-41991613D01*
X80865483Y-42167510D01*
X81032490Y-42334517D01*
X81223567Y-42473343D01*
X81322991Y-42524002D01*
X81434003Y-42580566D01*
X81434005Y-42580566D01*
X81434008Y-42580568D01*
X81554412Y-42619689D01*
X81658631Y-42653553D01*
X81891903Y-42690500D01*
X81891908Y-42690500D01*
X82128097Y-42690500D01*
X82361368Y-42653553D01*
X82585992Y-42580568D01*
X82796433Y-42473343D01*
X82987510Y-42334517D01*
X83154517Y-42167510D01*
X83282313Y-41991613D01*
X83337643Y-41948949D01*
X83382631Y-41940500D01*
X87137369Y-41940500D01*
X87204408Y-41960185D01*
X87237685Y-41991613D01*
X87365483Y-42167510D01*
X87532490Y-42334517D01*
X87723567Y-42473343D01*
X87822991Y-42524002D01*
X87934003Y-42580566D01*
X87934005Y-42580566D01*
X87934008Y-42580568D01*
X88054412Y-42619689D01*
X88158631Y-42653553D01*
X88391903Y-42690500D01*
X88391908Y-42690500D01*
X88628097Y-42690500D01*
X88861368Y-42653553D01*
X89085992Y-42580568D01*
X89296433Y-42473343D01*
X89487510Y-42334517D01*
X89654517Y-42167510D01*
X89775047Y-42001614D01*
X89830377Y-41958949D01*
X89875365Y-41950500D01*
X90243481Y-41950500D01*
X90310520Y-41970185D01*
X90331163Y-41986820D01*
X90374811Y-42030468D01*
X90374811Y-42030469D01*
X90374813Y-42030470D01*
X90374815Y-42030472D01*
X90520394Y-42118478D01*
X90682804Y-42169086D01*
X90753384Y-42175500D01*
X90753387Y-42175500D01*
X91266613Y-42175500D01*
X91266616Y-42175500D01*
X91337196Y-42169086D01*
X91499606Y-42118478D01*
X91645185Y-42030472D01*
X91747320Y-41928336D01*
X91755265Y-41923998D01*
X91760690Y-41916752D01*
X91785446Y-41907518D01*
X91808641Y-41894853D01*
X91817671Y-41895498D01*
X91826154Y-41892335D01*
X91851974Y-41897951D01*
X91878333Y-41899837D01*
X91887386Y-41905655D01*
X91894427Y-41907187D01*
X91922681Y-41928338D01*
X92003181Y-42008838D01*
X92036666Y-42070161D01*
X92039500Y-42096519D01*
X92039500Y-55324480D01*
X92019815Y-55391519D01*
X91967011Y-55437274D01*
X91897853Y-55447218D01*
X91834297Y-55418193D01*
X91827819Y-55412161D01*
X91775188Y-55359530D01*
X91629606Y-55271522D01*
X91467196Y-55220914D01*
X91467194Y-55220913D01*
X91467192Y-55220913D01*
X91417778Y-55216423D01*
X91396616Y-55214500D01*
X90883384Y-55214500D01*
X90864145Y-55216248D01*
X90812807Y-55220913D01*
X90650393Y-55271522D01*
X90504811Y-55359530D01*
X90504811Y-55359531D01*
X90461163Y-55403180D01*
X90399840Y-55436666D01*
X90373481Y-55439500D01*
X89882631Y-55439500D01*
X89815592Y-55419815D01*
X89782313Y-55388386D01*
X89654517Y-55212490D01*
X89487510Y-55045483D01*
X89296433Y-54906657D01*
X89085996Y-54799433D01*
X88861368Y-54726446D01*
X88628097Y-54689500D01*
X88628092Y-54689500D01*
X88391908Y-54689500D01*
X88391903Y-54689500D01*
X88158631Y-54726446D01*
X87934003Y-54799433D01*
X87723566Y-54906657D01*
X87614550Y-54985862D01*
X87532490Y-55045483D01*
X87532488Y-55045485D01*
X87532487Y-55045485D01*
X87365485Y-55212487D01*
X87365485Y-55212488D01*
X87365483Y-55212490D01*
X87258652Y-55359530D01*
X87237687Y-55388386D01*
X87182357Y-55431051D01*
X87137369Y-55439500D01*
X83382631Y-55439500D01*
X83315592Y-55419815D01*
X83282313Y-55388386D01*
X83154517Y-55212490D01*
X82987510Y-55045483D01*
X82796433Y-54906657D01*
X82585996Y-54799433D01*
X82361368Y-54726446D01*
X82128097Y-54689500D01*
X82128092Y-54689500D01*
X81891908Y-54689500D01*
X81891903Y-54689500D01*
X81658631Y-54726446D01*
X81434003Y-54799433D01*
X81223566Y-54906657D01*
X81114550Y-54985862D01*
X81032490Y-55045483D01*
X81032488Y-55045485D01*
X81032487Y-55045485D01*
X80865485Y-55212487D01*
X80865485Y-55212488D01*
X80865483Y-55212490D01*
X80758652Y-55359530D01*
X80737687Y-55388386D01*
X80682357Y-55431051D01*
X80637369Y-55439500D01*
X74882631Y-55439500D01*
X74815592Y-55419815D01*
X74782313Y-55388386D01*
X74654517Y-55212490D01*
X74487510Y-55045483D01*
X74296433Y-54906657D01*
X74085996Y-54799433D01*
X73861368Y-54726446D01*
X73628097Y-54689500D01*
X73628092Y-54689500D01*
X73391908Y-54689500D01*
X73391903Y-54689500D01*
X73158631Y-54726446D01*
X72934003Y-54799433D01*
X72723566Y-54906657D01*
X72614550Y-54985862D01*
X72532490Y-55045483D01*
X72532488Y-55045485D01*
X72532487Y-55045485D01*
X72365485Y-55212487D01*
X72365485Y-55212488D01*
X72365483Y-55212490D01*
X72258652Y-55359530D01*
X72237687Y-55388386D01*
X72182357Y-55431051D01*
X72137369Y-55439500D01*
X68382631Y-55439500D01*
X68315592Y-55419815D01*
X68282313Y-55388386D01*
X68154517Y-55212490D01*
X67987510Y-55045483D01*
X67796433Y-54906657D01*
X67585996Y-54799433D01*
X67361368Y-54726446D01*
X67128097Y-54689500D01*
X67128092Y-54689500D01*
X66891908Y-54689500D01*
X66891903Y-54689500D01*
X66658631Y-54726446D01*
X66434003Y-54799433D01*
X66223566Y-54906657D01*
X66114550Y-54985862D01*
X66032490Y-55045483D01*
X66032488Y-55045485D01*
X66032487Y-55045485D01*
X65865485Y-55212487D01*
X65865485Y-55212488D01*
X65865483Y-55212490D01*
X65758652Y-55359530D01*
X65737687Y-55388386D01*
X65682357Y-55431051D01*
X65637369Y-55439500D01*
X59882631Y-55439500D01*
X59815592Y-55419815D01*
X59782313Y-55388386D01*
X59654517Y-55212490D01*
X59487510Y-55045483D01*
X59296433Y-54906657D01*
X59085996Y-54799433D01*
X58861368Y-54726446D01*
X58628097Y-54689500D01*
X58628092Y-54689500D01*
X58391908Y-54689500D01*
X58391903Y-54689500D01*
X58158631Y-54726446D01*
X57934003Y-54799433D01*
X57723566Y-54906657D01*
X57614550Y-54985862D01*
X57532490Y-55045483D01*
X57532488Y-55045485D01*
X57532487Y-55045485D01*
X57365485Y-55212487D01*
X57365485Y-55212488D01*
X57365483Y-55212490D01*
X57258652Y-55359530D01*
X57237687Y-55388386D01*
X57182357Y-55431051D01*
X57137369Y-55439500D01*
X53382631Y-55439500D01*
X53315592Y-55419815D01*
X53282313Y-55388386D01*
X53154517Y-55212490D01*
X52987510Y-55045483D01*
X52796433Y-54906657D01*
X52585996Y-54799433D01*
X52361368Y-54726446D01*
X52128097Y-54689500D01*
X52128092Y-54689500D01*
X51891908Y-54689500D01*
X51891903Y-54689500D01*
X51658631Y-54726446D01*
X51434003Y-54799433D01*
X51223566Y-54906657D01*
X51114550Y-54985862D01*
X51032490Y-55045483D01*
X51032488Y-55045485D01*
X51032487Y-55045485D01*
X50865485Y-55212487D01*
X50865485Y-55212488D01*
X50865483Y-55212490D01*
X50758652Y-55359530D01*
X50737687Y-55388386D01*
X50682357Y-55431051D01*
X50637369Y-55439500D01*
X44882631Y-55439500D01*
X44815592Y-55419815D01*
X44782313Y-55388386D01*
X44654517Y-55212490D01*
X44487510Y-55045483D01*
X44296433Y-54906657D01*
X44085996Y-54799433D01*
X43861368Y-54726446D01*
X43628097Y-54689500D01*
X43628092Y-54689500D01*
X43391908Y-54689500D01*
X43391903Y-54689500D01*
X43158631Y-54726446D01*
X42934003Y-54799433D01*
X42723566Y-54906657D01*
X42614550Y-54985862D01*
X42532490Y-55045483D01*
X42532488Y-55045485D01*
X42532487Y-55045485D01*
X42365485Y-55212487D01*
X42365485Y-55212488D01*
X42365483Y-55212490D01*
X42258652Y-55359530D01*
X42237687Y-55388386D01*
X42182357Y-55431051D01*
X42137369Y-55439500D01*
X38382631Y-55439500D01*
X38315592Y-55419815D01*
X38282313Y-55388386D01*
X38154517Y-55212490D01*
X37987510Y-55045483D01*
X37796433Y-54906657D01*
X37585996Y-54799433D01*
X37361368Y-54726446D01*
X37128097Y-54689500D01*
X37128092Y-54689500D01*
X36891908Y-54689500D01*
X36891903Y-54689500D01*
X36658631Y-54726446D01*
X36434003Y-54799433D01*
X36223566Y-54906657D01*
X36114550Y-54985862D01*
X36032490Y-55045483D01*
X36032488Y-55045485D01*
X36032487Y-55045485D01*
X35865485Y-55212487D01*
X35865485Y-55212488D01*
X35865483Y-55212490D01*
X35859363Y-55220914D01*
X35726657Y-55403566D01*
X35619433Y-55614003D01*
X35546446Y-55838631D01*
X35509500Y-56071902D01*
X35509500Y-56308097D01*
X35546446Y-56541368D01*
X35619433Y-56765996D01*
X35707756Y-56939338D01*
X35726657Y-56976433D01*
X35865483Y-57167510D01*
X36032490Y-57334517D01*
X36223567Y-57473343D01*
X36322991Y-57524002D01*
X36434003Y-57580566D01*
X36434005Y-57580566D01*
X36434008Y-57580568D01*
X36554412Y-57619689D01*
X36658631Y-57653553D01*
X36891903Y-57690500D01*
X36891908Y-57690500D01*
X37128097Y-57690500D01*
X37361368Y-57653553D01*
X37585992Y-57580568D01*
X37796433Y-57473343D01*
X37987510Y-57334517D01*
X38154517Y-57167510D01*
X38282313Y-56991613D01*
X38337643Y-56948949D01*
X38382631Y-56940500D01*
X42137369Y-56940500D01*
X42204408Y-56960185D01*
X42237685Y-56991613D01*
X42365483Y-57167510D01*
X42532490Y-57334517D01*
X42723567Y-57473343D01*
X42822991Y-57524002D01*
X42934003Y-57580566D01*
X42934005Y-57580566D01*
X42934008Y-57580568D01*
X43054412Y-57619689D01*
X43158631Y-57653553D01*
X43391903Y-57690500D01*
X43391908Y-57690500D01*
X43628097Y-57690500D01*
X43861368Y-57653553D01*
X44085992Y-57580568D01*
X44296433Y-57473343D01*
X44487510Y-57334517D01*
X44654517Y-57167510D01*
X44782313Y-56991613D01*
X44837643Y-56948949D01*
X44882631Y-56940500D01*
X50637369Y-56940500D01*
X50704408Y-56960185D01*
X50737685Y-56991613D01*
X50865483Y-57167510D01*
X51032490Y-57334517D01*
X51223567Y-57473343D01*
X51322991Y-57524002D01*
X51434003Y-57580566D01*
X51434005Y-57580566D01*
X51434008Y-57580568D01*
X51554412Y-57619689D01*
X51658631Y-57653553D01*
X51891903Y-57690500D01*
X51891908Y-57690500D01*
X52128097Y-57690500D01*
X52361368Y-57653553D01*
X52585992Y-57580568D01*
X52796433Y-57473343D01*
X52987510Y-57334517D01*
X53154517Y-57167510D01*
X53282313Y-56991613D01*
X53337643Y-56948949D01*
X53382631Y-56940500D01*
X57137369Y-56940500D01*
X57204408Y-56960185D01*
X57237685Y-56991613D01*
X57365483Y-57167510D01*
X57532490Y-57334517D01*
X57723567Y-57473343D01*
X57822991Y-57524002D01*
X57934003Y-57580566D01*
X57934005Y-57580566D01*
X57934008Y-57580568D01*
X58054412Y-57619689D01*
X58158631Y-57653553D01*
X58391903Y-57690500D01*
X58391908Y-57690500D01*
X58628097Y-57690500D01*
X58861368Y-57653553D01*
X59085992Y-57580568D01*
X59296433Y-57473343D01*
X59487510Y-57334517D01*
X59654517Y-57167510D01*
X59782313Y-56991613D01*
X59837643Y-56948949D01*
X59882631Y-56940500D01*
X65637369Y-56940500D01*
X65704408Y-56960185D01*
X65737685Y-56991613D01*
X65865483Y-57167510D01*
X66032490Y-57334517D01*
X66223567Y-57473343D01*
X66322991Y-57524002D01*
X66434003Y-57580566D01*
X66434005Y-57580566D01*
X66434008Y-57580568D01*
X66554412Y-57619689D01*
X66658631Y-57653553D01*
X66891903Y-57690500D01*
X66891908Y-57690500D01*
X67128097Y-57690500D01*
X67361368Y-57653553D01*
X67585992Y-57580568D01*
X67796433Y-57473343D01*
X67987510Y-57334517D01*
X68154517Y-57167510D01*
X68282313Y-56991613D01*
X68337643Y-56948949D01*
X68382631Y-56940500D01*
X72137369Y-56940500D01*
X72204408Y-56960185D01*
X72237685Y-56991613D01*
X72365483Y-57167510D01*
X72532490Y-57334517D01*
X72723567Y-57473343D01*
X72822991Y-57524002D01*
X72934003Y-57580566D01*
X72934005Y-57580566D01*
X72934008Y-57580568D01*
X73054412Y-57619689D01*
X73158631Y-57653553D01*
X73391903Y-57690500D01*
X73391908Y-57690500D01*
X73628097Y-57690500D01*
X73861368Y-57653553D01*
X74085992Y-57580568D01*
X74296433Y-57473343D01*
X74487510Y-57334517D01*
X74654517Y-57167510D01*
X74782313Y-56991613D01*
X74837643Y-56948949D01*
X74882631Y-56940500D01*
X80637369Y-56940500D01*
X80704408Y-56960185D01*
X80737685Y-56991613D01*
X80865483Y-57167510D01*
X81032490Y-57334517D01*
X81223567Y-57473343D01*
X81322991Y-57524002D01*
X81434003Y-57580566D01*
X81434005Y-57580566D01*
X81434008Y-57580568D01*
X81554412Y-57619689D01*
X81658631Y-57653553D01*
X81891903Y-57690500D01*
X81891908Y-57690500D01*
X82128097Y-57690500D01*
X82361368Y-57653553D01*
X82585992Y-57580568D01*
X82796433Y-57473343D01*
X82987510Y-57334517D01*
X83154517Y-57167510D01*
X83282313Y-56991613D01*
X83337643Y-56948949D01*
X83382631Y-56940500D01*
X87137369Y-56940500D01*
X87204408Y-56960185D01*
X87237685Y-56991613D01*
X87365483Y-57167510D01*
X87532490Y-57334517D01*
X87723567Y-57473343D01*
X87822991Y-57524002D01*
X87934003Y-57580566D01*
X87934005Y-57580566D01*
X87934008Y-57580568D01*
X88054412Y-57619689D01*
X88158631Y-57653553D01*
X88391903Y-57690500D01*
X88391908Y-57690500D01*
X88628097Y-57690500D01*
X88861368Y-57653553D01*
X89085992Y-57580568D01*
X89296433Y-57473343D01*
X89487510Y-57334517D01*
X89654517Y-57167510D01*
X89782313Y-56991613D01*
X89837643Y-56948949D01*
X89882631Y-56940500D01*
X90373481Y-56940500D01*
X90440520Y-56960185D01*
X90461163Y-56976820D01*
X90504811Y-57020468D01*
X90504811Y-57020469D01*
X90504813Y-57020470D01*
X90504815Y-57020472D01*
X90650394Y-57108478D01*
X90812804Y-57159086D01*
X90883384Y-57165500D01*
X90883387Y-57165500D01*
X91396613Y-57165500D01*
X91396616Y-57165500D01*
X91467196Y-57159086D01*
X91629606Y-57108478D01*
X91775185Y-57020472D01*
X91775189Y-57020468D01*
X91827819Y-56967839D01*
X91889142Y-56934354D01*
X91958834Y-56939338D01*
X92014767Y-56981210D01*
X92039184Y-57046674D01*
X92039500Y-57055520D01*
X92039500Y-65203324D01*
X92037117Y-65227516D01*
X92019500Y-65316079D01*
X92019500Y-70344480D01*
X91999815Y-70411519D01*
X91947011Y-70457274D01*
X91877853Y-70467218D01*
X91814297Y-70438193D01*
X91807819Y-70432161D01*
X91755188Y-70379530D01*
X91609606Y-70291522D01*
X91447196Y-70240914D01*
X91447194Y-70240913D01*
X91447192Y-70240913D01*
X91397778Y-70236423D01*
X91376616Y-70234500D01*
X90863384Y-70234500D01*
X90844145Y-70236248D01*
X90792807Y-70240913D01*
X90630393Y-70291522D01*
X90484811Y-70379530D01*
X90484811Y-70379531D01*
X90441163Y-70423180D01*
X90379840Y-70456666D01*
X90353481Y-70459500D01*
X89897062Y-70459500D01*
X89830023Y-70439815D01*
X89797496Y-70406572D01*
X89796207Y-70407509D01*
X89775879Y-70379530D01*
X89654517Y-70212490D01*
X89487510Y-70045483D01*
X89296433Y-69906657D01*
X89085996Y-69799433D01*
X88861368Y-69726446D01*
X88628097Y-69689500D01*
X88628092Y-69689500D01*
X88391908Y-69689500D01*
X88391903Y-69689500D01*
X88158631Y-69726446D01*
X87934003Y-69799433D01*
X87723566Y-69906657D01*
X87614550Y-69985862D01*
X87532490Y-70045483D01*
X87532488Y-70045485D01*
X87532487Y-70045485D01*
X87365485Y-70212487D01*
X87365485Y-70212488D01*
X87365483Y-70212490D01*
X87237687Y-70388386D01*
X87182357Y-70431051D01*
X87137369Y-70439500D01*
X83382631Y-70439500D01*
X83315592Y-70419815D01*
X83282313Y-70388386D01*
X83154517Y-70212490D01*
X82987510Y-70045483D01*
X82796433Y-69906657D01*
X82585996Y-69799433D01*
X82361368Y-69726446D01*
X82128097Y-69689500D01*
X82128092Y-69689500D01*
X81891908Y-69689500D01*
X81891903Y-69689500D01*
X81658631Y-69726446D01*
X81434003Y-69799433D01*
X81223566Y-69906657D01*
X81114550Y-69985862D01*
X81032490Y-70045483D01*
X81032488Y-70045485D01*
X81032487Y-70045485D01*
X80865485Y-70212487D01*
X80865485Y-70212488D01*
X80865483Y-70212490D01*
X80737687Y-70388386D01*
X80682357Y-70431051D01*
X80637369Y-70439500D01*
X74882631Y-70439500D01*
X74815592Y-70419815D01*
X74782313Y-70388386D01*
X74654517Y-70212490D01*
X74487510Y-70045483D01*
X74296433Y-69906657D01*
X74085996Y-69799433D01*
X73861368Y-69726446D01*
X73628097Y-69689500D01*
X73628092Y-69689500D01*
X73391908Y-69689500D01*
X73391903Y-69689500D01*
X73158631Y-69726446D01*
X72934003Y-69799433D01*
X72723566Y-69906657D01*
X72614550Y-69985862D01*
X72532490Y-70045483D01*
X72532488Y-70045485D01*
X72532487Y-70045485D01*
X72365485Y-70212487D01*
X72365485Y-70212488D01*
X72365483Y-70212490D01*
X72237687Y-70388386D01*
X72182357Y-70431051D01*
X72137369Y-70439500D01*
X68382631Y-70439500D01*
X68315592Y-70419815D01*
X68282313Y-70388386D01*
X68154517Y-70212490D01*
X67987510Y-70045483D01*
X67796433Y-69906657D01*
X67585996Y-69799433D01*
X67361368Y-69726446D01*
X67128097Y-69689500D01*
X67128092Y-69689500D01*
X66891908Y-69689500D01*
X66891903Y-69689500D01*
X66658631Y-69726446D01*
X66434003Y-69799433D01*
X66223566Y-69906657D01*
X66114550Y-69985862D01*
X66032490Y-70045483D01*
X66032488Y-70045485D01*
X66032487Y-70045485D01*
X65865485Y-70212487D01*
X65865485Y-70212488D01*
X65865483Y-70212490D01*
X65737687Y-70388386D01*
X65682357Y-70431051D01*
X65637369Y-70439500D01*
X59882631Y-70439500D01*
X59815592Y-70419815D01*
X59782313Y-70388386D01*
X59654517Y-70212490D01*
X59487510Y-70045483D01*
X59296433Y-69906657D01*
X59085996Y-69799433D01*
X58861368Y-69726446D01*
X58628097Y-69689500D01*
X58628092Y-69689500D01*
X58391908Y-69689500D01*
X58391903Y-69689500D01*
X58158631Y-69726446D01*
X57934003Y-69799433D01*
X57723566Y-69906657D01*
X57614550Y-69985862D01*
X57532490Y-70045483D01*
X57532488Y-70045485D01*
X57532487Y-70045485D01*
X57365485Y-70212487D01*
X57365485Y-70212488D01*
X57365483Y-70212490D01*
X57237687Y-70388386D01*
X57182357Y-70431051D01*
X57137369Y-70439500D01*
X53382631Y-70439500D01*
X53315592Y-70419815D01*
X53282313Y-70388386D01*
X53154517Y-70212490D01*
X52987510Y-70045483D01*
X52796433Y-69906657D01*
X52585996Y-69799433D01*
X52361368Y-69726446D01*
X52128097Y-69689500D01*
X52128092Y-69689500D01*
X51891908Y-69689500D01*
X51891903Y-69689500D01*
X51658631Y-69726446D01*
X51434003Y-69799433D01*
X51223566Y-69906657D01*
X51114550Y-69985862D01*
X51032490Y-70045483D01*
X51032488Y-70045485D01*
X51032487Y-70045485D01*
X50865485Y-70212487D01*
X50865485Y-70212488D01*
X50865483Y-70212490D01*
X50737687Y-70388386D01*
X50682357Y-70431051D01*
X50637369Y-70439500D01*
X44882631Y-70439500D01*
X44815592Y-70419815D01*
X44782313Y-70388386D01*
X44654517Y-70212490D01*
X44487510Y-70045483D01*
X44296433Y-69906657D01*
X44085996Y-69799433D01*
X43861368Y-69726446D01*
X43628097Y-69689500D01*
X43628092Y-69689500D01*
X43391908Y-69689500D01*
X43391903Y-69689500D01*
X43158631Y-69726446D01*
X42934003Y-69799433D01*
X42723566Y-69906657D01*
X42614550Y-69985862D01*
X42532490Y-70045483D01*
X42532488Y-70045485D01*
X42532487Y-70045485D01*
X42365485Y-70212487D01*
X42365485Y-70212488D01*
X42365483Y-70212490D01*
X42237687Y-70388386D01*
X42182357Y-70431051D01*
X42137369Y-70439500D01*
X38382631Y-70439500D01*
X38315592Y-70419815D01*
X38282313Y-70388386D01*
X38154517Y-70212490D01*
X37987510Y-70045483D01*
X37796433Y-69906657D01*
X37585996Y-69799433D01*
X37361368Y-69726446D01*
X37128097Y-69689500D01*
X37128092Y-69689500D01*
X36891908Y-69689500D01*
X36891903Y-69689500D01*
X36658631Y-69726446D01*
X36434003Y-69799433D01*
X36223566Y-69906657D01*
X36114550Y-69985862D01*
X36032490Y-70045483D01*
X36032488Y-70045485D01*
X36032487Y-70045485D01*
X35865485Y-70212487D01*
X35865485Y-70212488D01*
X35865483Y-70212490D01*
X35844832Y-70240914D01*
X35726657Y-70403566D01*
X35619433Y-70614003D01*
X35546446Y-70838631D01*
X35509500Y-71071902D01*
X35509500Y-71308097D01*
X35546446Y-71541368D01*
X35619433Y-71765996D01*
X35694515Y-71913351D01*
X35726657Y-71976433D01*
X35865483Y-72167510D01*
X36032490Y-72334517D01*
X36223567Y-72473343D01*
X36322991Y-72524002D01*
X36434003Y-72580566D01*
X36434005Y-72580566D01*
X36434008Y-72580568D01*
X36554412Y-72619689D01*
X36658631Y-72653553D01*
X36891903Y-72690500D01*
X36891908Y-72690500D01*
X37128097Y-72690500D01*
X37361368Y-72653553D01*
X37585992Y-72580568D01*
X37796433Y-72473343D01*
X37987510Y-72334517D01*
X38154517Y-72167510D01*
X38282313Y-71991613D01*
X38337643Y-71948949D01*
X38382631Y-71940500D01*
X42137369Y-71940500D01*
X42204408Y-71960185D01*
X42237685Y-71991613D01*
X42365483Y-72167510D01*
X42532490Y-72334517D01*
X42723567Y-72473343D01*
X42822991Y-72524002D01*
X42934003Y-72580566D01*
X42934005Y-72580566D01*
X42934008Y-72580568D01*
X43054412Y-72619689D01*
X43158631Y-72653553D01*
X43391903Y-72690500D01*
X43391908Y-72690500D01*
X43628097Y-72690500D01*
X43861368Y-72653553D01*
X44085992Y-72580568D01*
X44296433Y-72473343D01*
X44487510Y-72334517D01*
X44654517Y-72167510D01*
X44782313Y-71991613D01*
X44837643Y-71948949D01*
X44882631Y-71940500D01*
X50637369Y-71940500D01*
X50704408Y-71960185D01*
X50737685Y-71991613D01*
X50865483Y-72167510D01*
X51032490Y-72334517D01*
X51223567Y-72473343D01*
X51322991Y-72524002D01*
X51434003Y-72580566D01*
X51434005Y-72580566D01*
X51434008Y-72580568D01*
X51554412Y-72619689D01*
X51658631Y-72653553D01*
X51891903Y-72690500D01*
X51891908Y-72690500D01*
X52128097Y-72690500D01*
X52361368Y-72653553D01*
X52585992Y-72580568D01*
X52796433Y-72473343D01*
X52987510Y-72334517D01*
X53154517Y-72167510D01*
X53282313Y-71991613D01*
X53337643Y-71948949D01*
X53382631Y-71940500D01*
X57137369Y-71940500D01*
X57204408Y-71960185D01*
X57237685Y-71991613D01*
X57365483Y-72167510D01*
X57532490Y-72334517D01*
X57723567Y-72473343D01*
X57822991Y-72524002D01*
X57934003Y-72580566D01*
X57934005Y-72580566D01*
X57934008Y-72580568D01*
X58054412Y-72619689D01*
X58158631Y-72653553D01*
X58391903Y-72690500D01*
X58391908Y-72690500D01*
X58628097Y-72690500D01*
X58861368Y-72653553D01*
X59085992Y-72580568D01*
X59296433Y-72473343D01*
X59487510Y-72334517D01*
X59654517Y-72167510D01*
X59782313Y-71991613D01*
X59837643Y-71948949D01*
X59882631Y-71940500D01*
X65637369Y-71940500D01*
X65704408Y-71960185D01*
X65737685Y-71991613D01*
X65865483Y-72167510D01*
X66032490Y-72334517D01*
X66223567Y-72473343D01*
X66322991Y-72524002D01*
X66434003Y-72580566D01*
X66434005Y-72580566D01*
X66434008Y-72580568D01*
X66554412Y-72619689D01*
X66658631Y-72653553D01*
X66891903Y-72690500D01*
X66891908Y-72690500D01*
X67128097Y-72690500D01*
X67361368Y-72653553D01*
X67585992Y-72580568D01*
X67796433Y-72473343D01*
X67987510Y-72334517D01*
X68154517Y-72167510D01*
X68282313Y-71991613D01*
X68337643Y-71948949D01*
X68382631Y-71940500D01*
X72137369Y-71940500D01*
X72204408Y-71960185D01*
X72237685Y-71991613D01*
X72365483Y-72167510D01*
X72532490Y-72334517D01*
X72723567Y-72473343D01*
X72822991Y-72524002D01*
X72934003Y-72580566D01*
X72934005Y-72580566D01*
X72934008Y-72580568D01*
X73054412Y-72619689D01*
X73158631Y-72653553D01*
X73391903Y-72690500D01*
X73391908Y-72690500D01*
X73628097Y-72690500D01*
X73861368Y-72653553D01*
X74085992Y-72580568D01*
X74296433Y-72473343D01*
X74487510Y-72334517D01*
X74654517Y-72167510D01*
X74782313Y-71991613D01*
X74837643Y-71948949D01*
X74882631Y-71940500D01*
X80637369Y-71940500D01*
X80704408Y-71960185D01*
X80737685Y-71991613D01*
X80865483Y-72167510D01*
X81032490Y-72334517D01*
X81223567Y-72473343D01*
X81322991Y-72524002D01*
X81434003Y-72580566D01*
X81434005Y-72580566D01*
X81434008Y-72580568D01*
X81554412Y-72619689D01*
X81658631Y-72653553D01*
X81891903Y-72690500D01*
X81891908Y-72690500D01*
X82128097Y-72690500D01*
X82361368Y-72653553D01*
X82585992Y-72580568D01*
X82796433Y-72473343D01*
X82987510Y-72334517D01*
X83154517Y-72167510D01*
X83282313Y-71991613D01*
X83337643Y-71948949D01*
X83382631Y-71940500D01*
X87137369Y-71940500D01*
X87204408Y-71960185D01*
X87237685Y-71991613D01*
X87365483Y-72167510D01*
X87532490Y-72334517D01*
X87723567Y-72473343D01*
X87822991Y-72524002D01*
X87934003Y-72580566D01*
X87934005Y-72580566D01*
X87934008Y-72580568D01*
X88054412Y-72619689D01*
X88158631Y-72653553D01*
X88391903Y-72690500D01*
X88391908Y-72690500D01*
X88628097Y-72690500D01*
X88861368Y-72653553D01*
X89085992Y-72580568D01*
X89296433Y-72473343D01*
X89487510Y-72334517D01*
X89654517Y-72167510D01*
X89767782Y-72011613D01*
X89823112Y-71968949D01*
X89868100Y-71960500D01*
X90353481Y-71960500D01*
X90420520Y-71980185D01*
X90441163Y-71996820D01*
X90484811Y-72040468D01*
X90484811Y-72040469D01*
X90484813Y-72040470D01*
X90484815Y-72040472D01*
X90630394Y-72128478D01*
X90792804Y-72179086D01*
X90863384Y-72185500D01*
X90863387Y-72185500D01*
X91376613Y-72185500D01*
X91376616Y-72185500D01*
X91447196Y-72179086D01*
X91609606Y-72128478D01*
X91755185Y-72040472D01*
X91784043Y-72011614D01*
X91837819Y-71957839D01*
X91899142Y-71924354D01*
X91968834Y-71929338D01*
X92024767Y-71971210D01*
X92049184Y-72036674D01*
X92049500Y-72045520D01*
X92049500Y-85334480D01*
X92029815Y-85401519D01*
X91977011Y-85447274D01*
X91907853Y-85457218D01*
X91844297Y-85428193D01*
X91837819Y-85422161D01*
X91785188Y-85369530D01*
X91639606Y-85281522D01*
X91477196Y-85230914D01*
X91477194Y-85230913D01*
X91477192Y-85230913D01*
X91427778Y-85226423D01*
X91406616Y-85224500D01*
X90893384Y-85224500D01*
X90874145Y-85226248D01*
X90822807Y-85230913D01*
X90660393Y-85281522D01*
X90514811Y-85369530D01*
X90514811Y-85369531D01*
X90471163Y-85413180D01*
X90409840Y-85446666D01*
X90383481Y-85449500D01*
X89889897Y-85449500D01*
X89822858Y-85429815D01*
X89789579Y-85398386D01*
X89743148Y-85334480D01*
X89654517Y-85212490D01*
X89487510Y-85045483D01*
X89296433Y-84906657D01*
X89085996Y-84799433D01*
X88861368Y-84726446D01*
X88628097Y-84689500D01*
X88628092Y-84689500D01*
X88391908Y-84689500D01*
X88391903Y-84689500D01*
X88158631Y-84726446D01*
X87934003Y-84799433D01*
X87723566Y-84906657D01*
X87614550Y-84985862D01*
X87532490Y-85045483D01*
X87532488Y-85045485D01*
X87532487Y-85045485D01*
X87365485Y-85212487D01*
X87365485Y-85212488D01*
X87365483Y-85212490D01*
X87251386Y-85369531D01*
X87237687Y-85388386D01*
X87182357Y-85431051D01*
X87137369Y-85439500D01*
X83382631Y-85439500D01*
X83315592Y-85419815D01*
X83282313Y-85388386D01*
X83268614Y-85369531D01*
X83154517Y-85212490D01*
X82987510Y-85045483D01*
X82796433Y-84906657D01*
X82585996Y-84799433D01*
X82361368Y-84726446D01*
X82128097Y-84689500D01*
X82128092Y-84689500D01*
X81891908Y-84689500D01*
X81891903Y-84689500D01*
X81658631Y-84726446D01*
X81434003Y-84799433D01*
X81223566Y-84906657D01*
X81114550Y-84985862D01*
X81032490Y-85045483D01*
X81032488Y-85045485D01*
X81032487Y-85045485D01*
X80865485Y-85212487D01*
X80865485Y-85212488D01*
X80865483Y-85212490D01*
X80751386Y-85369531D01*
X80737687Y-85388386D01*
X80682357Y-85431051D01*
X80637369Y-85439500D01*
X74882631Y-85439500D01*
X74815592Y-85419815D01*
X74782313Y-85388386D01*
X74768614Y-85369531D01*
X74654517Y-85212490D01*
X74487510Y-85045483D01*
X74296433Y-84906657D01*
X74085996Y-84799433D01*
X73861368Y-84726446D01*
X73628097Y-84689500D01*
X73628092Y-84689500D01*
X73391908Y-84689500D01*
X73391903Y-84689500D01*
X73158631Y-84726446D01*
X72934003Y-84799433D01*
X72723566Y-84906657D01*
X72614550Y-84985862D01*
X72532490Y-85045483D01*
X72532488Y-85045485D01*
X72532487Y-85045485D01*
X72365485Y-85212487D01*
X72365485Y-85212488D01*
X72365483Y-85212490D01*
X72251386Y-85369531D01*
X72237687Y-85388386D01*
X72182357Y-85431051D01*
X72137369Y-85439500D01*
X68382631Y-85439500D01*
X68315592Y-85419815D01*
X68282313Y-85388386D01*
X68268614Y-85369531D01*
X68154517Y-85212490D01*
X67987510Y-85045483D01*
X67796433Y-84906657D01*
X67585996Y-84799433D01*
X67361368Y-84726446D01*
X67128097Y-84689500D01*
X67128092Y-84689500D01*
X66891908Y-84689500D01*
X66891903Y-84689500D01*
X66658631Y-84726446D01*
X66434003Y-84799433D01*
X66223566Y-84906657D01*
X66114550Y-84985862D01*
X66032490Y-85045483D01*
X66032488Y-85045485D01*
X66032487Y-85045485D01*
X65865485Y-85212487D01*
X65865485Y-85212488D01*
X65865483Y-85212490D01*
X65751386Y-85369531D01*
X65737687Y-85388386D01*
X65682357Y-85431051D01*
X65637369Y-85439500D01*
X59882631Y-85439500D01*
X59815592Y-85419815D01*
X59782313Y-85388386D01*
X59768614Y-85369531D01*
X59654517Y-85212490D01*
X59487510Y-85045483D01*
X59296433Y-84906657D01*
X59085996Y-84799433D01*
X58861368Y-84726446D01*
X58628097Y-84689500D01*
X58628092Y-84689500D01*
X58391908Y-84689500D01*
X58391903Y-84689500D01*
X58158631Y-84726446D01*
X57934003Y-84799433D01*
X57723566Y-84906657D01*
X57614550Y-84985862D01*
X57532490Y-85045483D01*
X57532488Y-85045485D01*
X57532487Y-85045485D01*
X57365485Y-85212487D01*
X57365485Y-85212488D01*
X57365483Y-85212490D01*
X57251386Y-85369531D01*
X57237687Y-85388386D01*
X57182357Y-85431051D01*
X57137369Y-85439500D01*
X53382631Y-85439500D01*
X53315592Y-85419815D01*
X53282313Y-85388386D01*
X53268614Y-85369531D01*
X53154517Y-85212490D01*
X52987510Y-85045483D01*
X52796433Y-84906657D01*
X52585996Y-84799433D01*
X52361368Y-84726446D01*
X52128097Y-84689500D01*
X52128092Y-84689500D01*
X51891908Y-84689500D01*
X51891903Y-84689500D01*
X51658631Y-84726446D01*
X51434003Y-84799433D01*
X51223566Y-84906657D01*
X51114550Y-84985862D01*
X51032490Y-85045483D01*
X51032488Y-85045485D01*
X51032487Y-85045485D01*
X50865485Y-85212487D01*
X50865485Y-85212488D01*
X50865483Y-85212490D01*
X50751386Y-85369531D01*
X50737687Y-85388386D01*
X50682357Y-85431051D01*
X50637369Y-85439500D01*
X44882631Y-85439500D01*
X44815592Y-85419815D01*
X44782313Y-85388386D01*
X44768614Y-85369531D01*
X44654517Y-85212490D01*
X44487510Y-85045483D01*
X44296433Y-84906657D01*
X44085996Y-84799433D01*
X43861368Y-84726446D01*
X43628097Y-84689500D01*
X43628092Y-84689500D01*
X43391908Y-84689500D01*
X43391903Y-84689500D01*
X43158631Y-84726446D01*
X42934003Y-84799433D01*
X42723566Y-84906657D01*
X42614550Y-84985862D01*
X42532490Y-85045483D01*
X42532488Y-85045485D01*
X42532487Y-85045485D01*
X42365485Y-85212487D01*
X42365485Y-85212488D01*
X42365483Y-85212490D01*
X42251386Y-85369531D01*
X42237687Y-85388386D01*
X42182357Y-85431051D01*
X42137369Y-85439500D01*
X38382631Y-85439500D01*
X38315592Y-85419815D01*
X38282313Y-85388386D01*
X38268614Y-85369531D01*
X38154517Y-85212490D01*
X37987510Y-85045483D01*
X37796433Y-84906657D01*
X37585996Y-84799433D01*
X37361368Y-84726446D01*
X37128097Y-84689500D01*
X37128092Y-84689500D01*
X36891908Y-84689500D01*
X36891903Y-84689500D01*
X36658631Y-84726446D01*
X36434003Y-84799433D01*
X36223566Y-84906657D01*
X36114550Y-84985862D01*
X36032490Y-85045483D01*
X36032488Y-85045485D01*
X36032487Y-85045485D01*
X35865485Y-85212487D01*
X35865485Y-85212488D01*
X35865483Y-85212490D01*
X35815328Y-85281522D01*
X35726657Y-85403566D01*
X35619433Y-85614003D01*
X35546446Y-85838631D01*
X35509500Y-86071902D01*
X35509500Y-86308097D01*
X35546446Y-86541368D01*
X35619433Y-86765996D01*
X35682019Y-86888826D01*
X35726657Y-86976433D01*
X35865483Y-87167510D01*
X36032490Y-87334517D01*
X36223567Y-87473343D01*
X36313433Y-87519132D01*
X36434003Y-87580566D01*
X36434005Y-87580566D01*
X36434008Y-87580568D01*
X36554412Y-87619689D01*
X36658631Y-87653553D01*
X36891903Y-87690500D01*
X36891908Y-87690500D01*
X37128097Y-87690500D01*
X37361368Y-87653553D01*
X37585992Y-87580568D01*
X37796433Y-87473343D01*
X37987510Y-87334517D01*
X38154517Y-87167510D01*
X38282313Y-86991613D01*
X38337643Y-86948949D01*
X38382631Y-86940500D01*
X42137369Y-86940500D01*
X42204408Y-86960185D01*
X42237685Y-86991613D01*
X42365483Y-87167510D01*
X42532490Y-87334517D01*
X42723567Y-87473343D01*
X42813433Y-87519132D01*
X42934003Y-87580566D01*
X42934005Y-87580566D01*
X42934008Y-87580568D01*
X43054412Y-87619689D01*
X43158631Y-87653553D01*
X43391903Y-87690500D01*
X43391908Y-87690500D01*
X43628097Y-87690500D01*
X43861368Y-87653553D01*
X44085992Y-87580568D01*
X44296433Y-87473343D01*
X44487510Y-87334517D01*
X44654517Y-87167510D01*
X44782313Y-86991613D01*
X44837643Y-86948949D01*
X44882631Y-86940500D01*
X50637369Y-86940500D01*
X50704408Y-86960185D01*
X50737685Y-86991613D01*
X50865483Y-87167510D01*
X51032490Y-87334517D01*
X51223567Y-87473343D01*
X51313433Y-87519132D01*
X51434003Y-87580566D01*
X51434005Y-87580566D01*
X51434008Y-87580568D01*
X51554412Y-87619689D01*
X51658631Y-87653553D01*
X51891903Y-87690500D01*
X51891908Y-87690500D01*
X52128097Y-87690500D01*
X52361368Y-87653553D01*
X52585992Y-87580568D01*
X52796433Y-87473343D01*
X52987510Y-87334517D01*
X53154517Y-87167510D01*
X53282313Y-86991613D01*
X53337643Y-86948949D01*
X53382631Y-86940500D01*
X57137369Y-86940500D01*
X57204408Y-86960185D01*
X57237685Y-86991613D01*
X57365483Y-87167510D01*
X57532490Y-87334517D01*
X57723567Y-87473343D01*
X57813433Y-87519132D01*
X57934003Y-87580566D01*
X57934005Y-87580566D01*
X57934008Y-87580568D01*
X58054412Y-87619689D01*
X58158631Y-87653553D01*
X58391903Y-87690500D01*
X58391908Y-87690500D01*
X58628097Y-87690500D01*
X58861368Y-87653553D01*
X59085992Y-87580568D01*
X59296433Y-87473343D01*
X59487510Y-87334517D01*
X59654517Y-87167510D01*
X59782313Y-86991613D01*
X59837643Y-86948949D01*
X59882631Y-86940500D01*
X65637369Y-86940500D01*
X65704408Y-86960185D01*
X65737685Y-86991613D01*
X65865483Y-87167510D01*
X66032490Y-87334517D01*
X66223567Y-87473343D01*
X66313433Y-87519132D01*
X66434003Y-87580566D01*
X66434005Y-87580566D01*
X66434008Y-87580568D01*
X66554412Y-87619689D01*
X66658631Y-87653553D01*
X66891903Y-87690500D01*
X66891908Y-87690500D01*
X67128097Y-87690500D01*
X67361368Y-87653553D01*
X67585992Y-87580568D01*
X67796433Y-87473343D01*
X67987510Y-87334517D01*
X68154517Y-87167510D01*
X68282313Y-86991613D01*
X68337643Y-86948949D01*
X68382631Y-86940500D01*
X72137369Y-86940500D01*
X72204408Y-86960185D01*
X72237685Y-86991613D01*
X72365483Y-87167510D01*
X72532490Y-87334517D01*
X72723567Y-87473343D01*
X72813433Y-87519132D01*
X72934003Y-87580566D01*
X72934005Y-87580566D01*
X72934008Y-87580568D01*
X73054412Y-87619689D01*
X73158631Y-87653553D01*
X73391903Y-87690500D01*
X73391908Y-87690500D01*
X73628097Y-87690500D01*
X73861368Y-87653553D01*
X74085992Y-87580568D01*
X74296433Y-87473343D01*
X74487510Y-87334517D01*
X74654517Y-87167510D01*
X74782313Y-86991613D01*
X74837643Y-86948949D01*
X74882631Y-86940500D01*
X80637369Y-86940500D01*
X80704408Y-86960185D01*
X80737685Y-86991613D01*
X80865483Y-87167510D01*
X81032490Y-87334517D01*
X81223567Y-87473343D01*
X81313433Y-87519132D01*
X81434003Y-87580566D01*
X81434005Y-87580566D01*
X81434008Y-87580568D01*
X81554412Y-87619689D01*
X81658631Y-87653553D01*
X81891903Y-87690500D01*
X81891908Y-87690500D01*
X82128097Y-87690500D01*
X82361368Y-87653553D01*
X82585992Y-87580568D01*
X82796433Y-87473343D01*
X82987510Y-87334517D01*
X83154517Y-87167510D01*
X83282313Y-86991613D01*
X83337643Y-86948949D01*
X83382631Y-86940500D01*
X87137369Y-86940500D01*
X87204408Y-86960185D01*
X87237685Y-86991613D01*
X87365483Y-87167510D01*
X87532490Y-87334517D01*
X87723567Y-87473343D01*
X87813433Y-87519132D01*
X87934003Y-87580566D01*
X87934005Y-87580566D01*
X87934008Y-87580568D01*
X88054412Y-87619689D01*
X88158631Y-87653553D01*
X88391903Y-87690500D01*
X88391908Y-87690500D01*
X88628097Y-87690500D01*
X88861368Y-87653553D01*
X89085992Y-87580568D01*
X89296433Y-87473343D01*
X89487510Y-87334517D01*
X89654517Y-87167510D01*
X89775047Y-87001614D01*
X89830377Y-86958949D01*
X89875365Y-86950500D01*
X90383481Y-86950500D01*
X90450520Y-86970185D01*
X90471163Y-86986820D01*
X90514811Y-87030468D01*
X90514811Y-87030469D01*
X90514813Y-87030470D01*
X90514815Y-87030472D01*
X90660394Y-87118478D01*
X90822804Y-87169086D01*
X90893384Y-87175500D01*
X90893387Y-87175500D01*
X91406613Y-87175500D01*
X91406616Y-87175500D01*
X91477196Y-87169086D01*
X91639606Y-87118478D01*
X91785185Y-87030472D01*
X91785189Y-87030468D01*
X91837819Y-86977839D01*
X91899142Y-86944354D01*
X91968834Y-86949338D01*
X92024767Y-86991210D01*
X92049184Y-87056674D01*
X92049500Y-87065520D01*
X92049500Y-87467770D01*
X92029815Y-87534809D01*
X92013181Y-87555451D01*
X84355451Y-95213181D01*
X84294128Y-95246666D01*
X84267770Y-95249500D01*
X69474499Y-95249500D01*
X69407460Y-95229815D01*
X69361705Y-95177011D01*
X69350499Y-95125500D01*
X69350499Y-95102129D01*
X69350498Y-95102123D01*
X69344091Y-95042516D01*
X69293797Y-94907671D01*
X69293793Y-94907664D01*
X69207547Y-94792455D01*
X69207544Y-94792452D01*
X69092335Y-94706206D01*
X69092328Y-94706202D01*
X68957482Y-94655908D01*
X68957483Y-94655908D01*
X68897883Y-94649501D01*
X68897881Y-94649500D01*
X68897873Y-94649500D01*
X68897865Y-94649500D01*
X68887309Y-94649500D01*
X68820270Y-94629815D01*
X68799628Y-94613181D01*
X68129408Y-93942962D01*
X68192993Y-93925925D01*
X68307007Y-93860099D01*
X68400099Y-93767007D01*
X68465925Y-93652993D01*
X68482962Y-93589409D01*
X69115270Y-94221717D01*
X69115270Y-94221716D01*
X69154622Y-94167554D01*
X69251095Y-93978217D01*
X69316757Y-93776130D01*
X69316757Y-93776127D01*
X69350000Y-93566246D01*
X69350000Y-93353753D01*
X69316757Y-93143872D01*
X69316757Y-93143869D01*
X69251095Y-92941782D01*
X69154624Y-92752449D01*
X69115270Y-92698282D01*
X69115269Y-92698282D01*
X68482962Y-93330590D01*
X68465925Y-93267007D01*
X68400099Y-93152993D01*
X68307007Y-93059901D01*
X68192993Y-92994075D01*
X68129409Y-92977037D01*
X68761716Y-92344728D01*
X68707550Y-92305375D01*
X68518217Y-92208904D01*
X68316129Y-92143242D01*
X68106246Y-92110000D01*
X67893754Y-92110000D01*
X67683872Y-92143242D01*
X67683869Y-92143242D01*
X67481782Y-92208904D01*
X67292439Y-92305380D01*
X67238282Y-92344727D01*
X67238282Y-92344728D01*
X67870591Y-92977037D01*
X67807007Y-92994075D01*
X67692993Y-93059901D01*
X67599901Y-93152993D01*
X67534075Y-93267007D01*
X67517037Y-93330591D01*
X66884728Y-92698282D01*
X66884727Y-92698282D01*
X66845380Y-92752440D01*
X66845376Y-92752446D01*
X66840760Y-92761505D01*
X66792781Y-92812297D01*
X66724959Y-92829087D01*
X66658826Y-92806543D01*
X66619794Y-92761493D01*
X66615051Y-92752184D01*
X66615049Y-92752181D01*
X66615048Y-92752179D01*
X66490109Y-92580213D01*
X66339786Y-92429890D01*
X66167820Y-92304951D01*
X65978414Y-92208444D01*
X65978413Y-92208443D01*
X65978412Y-92208443D01*
X65776243Y-92142754D01*
X65776241Y-92142753D01*
X65776240Y-92142753D01*
X65614957Y-92117208D01*
X65566287Y-92109500D01*
X65353713Y-92109500D01*
X65305042Y-92117208D01*
X65143760Y-92142753D01*
X64941585Y-92208444D01*
X64752179Y-92304951D01*
X64580213Y-92429890D01*
X64429890Y-92580213D01*
X64304949Y-92752182D01*
X64300484Y-92760946D01*
X64252509Y-92811742D01*
X64184688Y-92828536D01*
X64118553Y-92805998D01*
X64079516Y-92760946D01*
X64075050Y-92752182D01*
X63950109Y-92580213D01*
X63799786Y-92429890D01*
X63627820Y-92304951D01*
X63438414Y-92208444D01*
X63438413Y-92208443D01*
X63438412Y-92208443D01*
X63236243Y-92142754D01*
X63236241Y-92142753D01*
X63236240Y-92142753D01*
X63074957Y-92117208D01*
X63026287Y-92109500D01*
X62813713Y-92109500D01*
X62765042Y-92117208D01*
X62603760Y-92142753D01*
X62401585Y-92208444D01*
X62212179Y-92304951D01*
X62040213Y-92429890D01*
X61889890Y-92580213D01*
X61764949Y-92752182D01*
X61760484Y-92760946D01*
X61712509Y-92811742D01*
X61644688Y-92828536D01*
X61578553Y-92805998D01*
X61539516Y-92760946D01*
X61535050Y-92752182D01*
X61410109Y-92580213D01*
X61259786Y-92429890D01*
X61087820Y-92304951D01*
X60898414Y-92208444D01*
X60898413Y-92208443D01*
X60898412Y-92208443D01*
X60696243Y-92142754D01*
X60696241Y-92142753D01*
X60696240Y-92142753D01*
X60534957Y-92117208D01*
X60486287Y-92109500D01*
X60273713Y-92109500D01*
X60225042Y-92117208D01*
X60063760Y-92142753D01*
X59861585Y-92208444D01*
X59672179Y-92304951D01*
X59500213Y-92429890D01*
X59349890Y-92580213D01*
X59224949Y-92752182D01*
X59220484Y-92760946D01*
X59172509Y-92811742D01*
X59104688Y-92828536D01*
X59038553Y-92805998D01*
X58999516Y-92760946D01*
X58995050Y-92752182D01*
X58870109Y-92580213D01*
X58719786Y-92429890D01*
X58547820Y-92304951D01*
X58358414Y-92208444D01*
X58358413Y-92208443D01*
X58358412Y-92208443D01*
X58156243Y-92142754D01*
X58156241Y-92142753D01*
X58156240Y-92142753D01*
X57994957Y-92117208D01*
X57946287Y-92109500D01*
X57733713Y-92109500D01*
X57685042Y-92117208D01*
X57523760Y-92142753D01*
X57321585Y-92208444D01*
X57132179Y-92304951D01*
X56960213Y-92429890D01*
X56809890Y-92580213D01*
X56684951Y-92752179D01*
X56588444Y-92941585D01*
X56522753Y-93143760D01*
X56489500Y-93353713D01*
X56489500Y-93566286D01*
X56522753Y-93776239D01*
X56588444Y-93978414D01*
X56684951Y-94167820D01*
X56809890Y-94339786D01*
X56960213Y-94490109D01*
X57132182Y-94615050D01*
X57140946Y-94619516D01*
X57191742Y-94667491D01*
X57208536Y-94735312D01*
X57185998Y-94801447D01*
X57140946Y-94840484D01*
X57132182Y-94844949D01*
X56960213Y-94969890D01*
X56809890Y-95120213D01*
X56684951Y-95292179D01*
X56588444Y-95481585D01*
X56522753Y-95683760D01*
X56489500Y-95893713D01*
X56489500Y-96106286D01*
X56522753Y-96316239D01*
X56588444Y-96518414D01*
X56684951Y-96707820D01*
X56809890Y-96879786D01*
X56960213Y-97030109D01*
X57132179Y-97155048D01*
X57132181Y-97155049D01*
X57132184Y-97155051D01*
X57321588Y-97251557D01*
X57523757Y-97317246D01*
X57733713Y-97350500D01*
X57733714Y-97350500D01*
X57946286Y-97350500D01*
X57946287Y-97350500D01*
X58156243Y-97317246D01*
X58358412Y-97251557D01*
X58547816Y-97155051D01*
X58634138Y-97092335D01*
X58719786Y-97030109D01*
X58719788Y-97030106D01*
X58719792Y-97030104D01*
X58870104Y-96879792D01*
X58870106Y-96879788D01*
X58870109Y-96879786D01*
X58995048Y-96707820D01*
X58995047Y-96707820D01*
X58995051Y-96707816D01*
X58999514Y-96699054D01*
X59047488Y-96648259D01*
X59115308Y-96631463D01*
X59181444Y-96653999D01*
X59220486Y-96699056D01*
X59224951Y-96707820D01*
X59349890Y-96879786D01*
X59500213Y-97030109D01*
X59672179Y-97155048D01*
X59672181Y-97155049D01*
X59672184Y-97155051D01*
X59861588Y-97251557D01*
X60063757Y-97317246D01*
X60273713Y-97350500D01*
X60273714Y-97350500D01*
X60486286Y-97350500D01*
X60486287Y-97350500D01*
X60696243Y-97317246D01*
X60898412Y-97251557D01*
X61087816Y-97155051D01*
X61174138Y-97092335D01*
X61259786Y-97030109D01*
X61259788Y-97030106D01*
X61259792Y-97030104D01*
X61410104Y-96879792D01*
X61410106Y-96879788D01*
X61410109Y-96879786D01*
X61535048Y-96707820D01*
X61535047Y-96707820D01*
X61535051Y-96707816D01*
X61539514Y-96699054D01*
X61587488Y-96648259D01*
X61655308Y-96631463D01*
X61721444Y-96653999D01*
X61760486Y-96699056D01*
X61764951Y-96707820D01*
X61889890Y-96879786D01*
X62040213Y-97030109D01*
X62212179Y-97155048D01*
X62212181Y-97155049D01*
X62212184Y-97155051D01*
X62401588Y-97251557D01*
X62603757Y-97317246D01*
X62813713Y-97350500D01*
X62813714Y-97350500D01*
X63026286Y-97350500D01*
X63026287Y-97350500D01*
X63236243Y-97317246D01*
X63438412Y-97251557D01*
X63627816Y-97155051D01*
X63714138Y-97092335D01*
X63799786Y-97030109D01*
X63799788Y-97030106D01*
X63799792Y-97030104D01*
X63950104Y-96879792D01*
X63950106Y-96879788D01*
X63950109Y-96879786D01*
X64075048Y-96707820D01*
X64075047Y-96707820D01*
X64075051Y-96707816D01*
X64079514Y-96699054D01*
X64127488Y-96648259D01*
X64195308Y-96631463D01*
X64261444Y-96653999D01*
X64300486Y-96699056D01*
X64304951Y-96707820D01*
X64429890Y-96879786D01*
X64580213Y-97030109D01*
X64752179Y-97155048D01*
X64752181Y-97155049D01*
X64752184Y-97155051D01*
X64941588Y-97251557D01*
X65143757Y-97317246D01*
X65353713Y-97350500D01*
X65353714Y-97350500D01*
X65566286Y-97350500D01*
X65566287Y-97350500D01*
X65776243Y-97317246D01*
X65978412Y-97251557D01*
X66167816Y-97155051D01*
X66339792Y-97030104D01*
X66453329Y-96916566D01*
X66514648Y-96883084D01*
X66584340Y-96888068D01*
X66640274Y-96929939D01*
X66657189Y-96960917D01*
X66706202Y-97092328D01*
X66706206Y-97092335D01*
X66792452Y-97207544D01*
X66792455Y-97207547D01*
X66907664Y-97293793D01*
X66907671Y-97293797D01*
X67042517Y-97344091D01*
X67042516Y-97344091D01*
X67049444Y-97344835D01*
X67102127Y-97350500D01*
X68897872Y-97350499D01*
X68957483Y-97344091D01*
X69092331Y-97293796D01*
X69207546Y-97207546D01*
X69293796Y-97092331D01*
X69344091Y-96957483D01*
X69350500Y-96897873D01*
X69350500Y-96874500D01*
X69370185Y-96807461D01*
X69422989Y-96761706D01*
X69474500Y-96750500D01*
X84703920Y-96750500D01*
X84801462Y-96731096D01*
X84848913Y-96721658D01*
X84985495Y-96665084D01*
X85034729Y-96632186D01*
X85035812Y-96631463D01*
X85059071Y-96615921D01*
X85108416Y-96582952D01*
X93382952Y-88308416D01*
X93432186Y-88234729D01*
X93465084Y-88185495D01*
X93521658Y-88048913D01*
X93550500Y-87903918D01*
X93550500Y-86952976D01*
X93568382Y-86888829D01*
X93643478Y-86764606D01*
X93694086Y-86602196D01*
X93700500Y-86531616D01*
X93700500Y-85868384D01*
X93694086Y-85797804D01*
X93643478Y-85635394D01*
X93568382Y-85511171D01*
X93550500Y-85447023D01*
X93550500Y-71913351D01*
X93568383Y-71849201D01*
X93613478Y-71774606D01*
X93664086Y-71612196D01*
X93670500Y-71541616D01*
X93670500Y-70878384D01*
X93664086Y-70807804D01*
X93613478Y-70645394D01*
X93538382Y-70521171D01*
X93520500Y-70457023D01*
X93520500Y-65556674D01*
X93522883Y-65532482D01*
X93540500Y-65443920D01*
X93540500Y-56942976D01*
X93558382Y-56878829D01*
X93633478Y-56754606D01*
X93684086Y-56592196D01*
X93690500Y-56521616D01*
X93690500Y-55858384D01*
X93684086Y-55787804D01*
X93633478Y-55625394D01*
X93558382Y-55501171D01*
X93540500Y-55437023D01*
X93540500Y-41664665D01*
X93546114Y-41627777D01*
X93554086Y-41602196D01*
X93560500Y-41531616D01*
X93560500Y-40868384D01*
X93554086Y-40797804D01*
X93503478Y-40635394D01*
X93415472Y-40489815D01*
X93415470Y-40489813D01*
X93415469Y-40489811D01*
X93295188Y-40369530D01*
X93149606Y-40281522D01*
X92987196Y-40230914D01*
X92987194Y-40230913D01*
X92987192Y-40230913D01*
X92937778Y-40226423D01*
X92916616Y-40224500D01*
X92403384Y-40224500D01*
X92384145Y-40226248D01*
X92332807Y-40230913D01*
X92170393Y-40281522D01*
X92024811Y-40369530D01*
X92024810Y-40369531D01*
X91922681Y-40471661D01*
X91861358Y-40505146D01*
X91791666Y-40500162D01*
X91747319Y-40471661D01*
X91645188Y-40369530D01*
X91499606Y-40281522D01*
X91337196Y-40230914D01*
X91337194Y-40230913D01*
X91337192Y-40230913D01*
X91287778Y-40226423D01*
X91266616Y-40224500D01*
X90753384Y-40224500D01*
X90734145Y-40226248D01*
X90682807Y-40230913D01*
X90520393Y-40281522D01*
X90374811Y-40369530D01*
X90374811Y-40369531D01*
X90331163Y-40413180D01*
X90269840Y-40446666D01*
X90243481Y-40449500D01*
X89889897Y-40449500D01*
X89822858Y-40429815D01*
X89789579Y-40398386D01*
X89768612Y-40369528D01*
X89654517Y-40212490D01*
X89487510Y-40045483D01*
X89296433Y-39906657D01*
X89085996Y-39799433D01*
X88861368Y-39726446D01*
X88628097Y-39689500D01*
X88628092Y-39689500D01*
X88391908Y-39689500D01*
X88391903Y-39689500D01*
X88158631Y-39726446D01*
X87934003Y-39799433D01*
X87723566Y-39906657D01*
X87614550Y-39985862D01*
X87532490Y-40045483D01*
X87532488Y-40045485D01*
X87532487Y-40045485D01*
X87365485Y-40212487D01*
X87365485Y-40212488D01*
X87365483Y-40212490D01*
X87251386Y-40369531D01*
X87237687Y-40388386D01*
X87182357Y-40431051D01*
X87137369Y-40439500D01*
X83382631Y-40439500D01*
X83315592Y-40419815D01*
X83282313Y-40388386D01*
X83268614Y-40369531D01*
X83154517Y-40212490D01*
X82987510Y-40045483D01*
X82796433Y-39906657D01*
X82585996Y-39799433D01*
X82361368Y-39726446D01*
X82128097Y-39689500D01*
X82128092Y-39689500D01*
X81891908Y-39689500D01*
X81891903Y-39689500D01*
X81658631Y-39726446D01*
X81434003Y-39799433D01*
X81223566Y-39906657D01*
X81114550Y-39985862D01*
X81032490Y-40045483D01*
X81032488Y-40045485D01*
X81032487Y-40045485D01*
X80865485Y-40212487D01*
X80865485Y-40212488D01*
X80865483Y-40212490D01*
X80751386Y-40369531D01*
X80737687Y-40388386D01*
X80682357Y-40431051D01*
X80637369Y-40439500D01*
X74882631Y-40439500D01*
X74815592Y-40419815D01*
X74782313Y-40388386D01*
X74768614Y-40369531D01*
X74654517Y-40212490D01*
X74487510Y-40045483D01*
X74296433Y-39906657D01*
X74085996Y-39799433D01*
X73861368Y-39726446D01*
X73628097Y-39689500D01*
X73628092Y-39689500D01*
X73391908Y-39689500D01*
X73391903Y-39689500D01*
X73158631Y-39726446D01*
X72934003Y-39799433D01*
X72723566Y-39906657D01*
X72614550Y-39985862D01*
X72532490Y-40045483D01*
X72532488Y-40045485D01*
X72532487Y-40045485D01*
X72365485Y-40212487D01*
X72365485Y-40212488D01*
X72365483Y-40212490D01*
X72251386Y-40369531D01*
X72237687Y-40388386D01*
X72182357Y-40431051D01*
X72137369Y-40439500D01*
X68382631Y-40439500D01*
X68315592Y-40419815D01*
X68282313Y-40388386D01*
X68268614Y-40369531D01*
X68154517Y-40212490D01*
X67987510Y-40045483D01*
X67796433Y-39906657D01*
X67585996Y-39799433D01*
X67361368Y-39726446D01*
X67128097Y-39689500D01*
X67128092Y-39689500D01*
X66891908Y-39689500D01*
X66891903Y-39689500D01*
X66658631Y-39726446D01*
X66434003Y-39799433D01*
X66223566Y-39906657D01*
X66114550Y-39985862D01*
X66032490Y-40045483D01*
X66032488Y-40045485D01*
X66032487Y-40045485D01*
X65865485Y-40212487D01*
X65865485Y-40212488D01*
X65865483Y-40212490D01*
X65751386Y-40369531D01*
X65737687Y-40388386D01*
X65682357Y-40431051D01*
X65637369Y-40439500D01*
X59882631Y-40439500D01*
X59815592Y-40419815D01*
X59782313Y-40388386D01*
X59768614Y-40369531D01*
X59654517Y-40212490D01*
X59487510Y-40045483D01*
X59296433Y-39906657D01*
X59085996Y-39799433D01*
X58861368Y-39726446D01*
X58628097Y-39689500D01*
X58628092Y-39689500D01*
X58391908Y-39689500D01*
X58391903Y-39689500D01*
X58158631Y-39726446D01*
X57934003Y-39799433D01*
X57723566Y-39906657D01*
X57614550Y-39985862D01*
X57532490Y-40045483D01*
X57532488Y-40045485D01*
X57532487Y-40045485D01*
X57365485Y-40212487D01*
X57365485Y-40212488D01*
X57365483Y-40212490D01*
X57251386Y-40369531D01*
X57237687Y-40388386D01*
X57182357Y-40431051D01*
X57137369Y-40439500D01*
X53382631Y-40439500D01*
X53315592Y-40419815D01*
X53282313Y-40388386D01*
X53268614Y-40369531D01*
X53154517Y-40212490D01*
X52987510Y-40045483D01*
X52796433Y-39906657D01*
X52585996Y-39799433D01*
X52361368Y-39726446D01*
X52128097Y-39689500D01*
X52128092Y-39689500D01*
X51891908Y-39689500D01*
X51891903Y-39689500D01*
X51658631Y-39726446D01*
X51434003Y-39799433D01*
X51223566Y-39906657D01*
X51114550Y-39985862D01*
X51032490Y-40045483D01*
X51032488Y-40045485D01*
X51032487Y-40045485D01*
X50865485Y-40212487D01*
X50865485Y-40212488D01*
X50865483Y-40212490D01*
X50751386Y-40369531D01*
X50737687Y-40388386D01*
X50682357Y-40431051D01*
X50637369Y-40439500D01*
X44882631Y-40439500D01*
X44815592Y-40419815D01*
X44782313Y-40388386D01*
X44768614Y-40369531D01*
X44654517Y-40212490D01*
X44487510Y-40045483D01*
X44296433Y-39906657D01*
X44085996Y-39799433D01*
X43861368Y-39726446D01*
X43628097Y-39689500D01*
X43628092Y-39689500D01*
X43391908Y-39689500D01*
X43391903Y-39689500D01*
X43158631Y-39726446D01*
X42934003Y-39799433D01*
X42723566Y-39906657D01*
X42614550Y-39985862D01*
X42532490Y-40045483D01*
X42532488Y-40045485D01*
X42532487Y-40045485D01*
X42365485Y-40212487D01*
X42365485Y-40212488D01*
X42365483Y-40212490D01*
X42251386Y-40369531D01*
X42237687Y-40388386D01*
X42182357Y-40431051D01*
X42137369Y-40439500D01*
X38382631Y-40439500D01*
X38315592Y-40419815D01*
X38282313Y-40388386D01*
X38268614Y-40369531D01*
X38154517Y-40212490D01*
X37987510Y-40045483D01*
X37796433Y-39906657D01*
X37585996Y-39799433D01*
X37361368Y-39726446D01*
X37128097Y-39689500D01*
X37128092Y-39689500D01*
X36891908Y-39689500D01*
X36891903Y-39689500D01*
X36658631Y-39726446D01*
X36434003Y-39799433D01*
X36223566Y-39906657D01*
X36114550Y-39985862D01*
X36032490Y-40045483D01*
X36032488Y-40045485D01*
X36032487Y-40045485D01*
X35865485Y-40212487D01*
X35865485Y-40212488D01*
X35865483Y-40212490D01*
X35815328Y-40281522D01*
X35726657Y-40403566D01*
X35619433Y-40614003D01*
X35546446Y-40838631D01*
X35509500Y-41071902D01*
X25500500Y-41071902D01*
X25500500Y-36571902D01*
X35509500Y-36571902D01*
X35509500Y-36808097D01*
X35546446Y-37041368D01*
X35619433Y-37265996D01*
X35708348Y-37440500D01*
X35726657Y-37476433D01*
X35865483Y-37667510D01*
X36032490Y-37834517D01*
X36223567Y-37973343D01*
X36322991Y-38024002D01*
X36434003Y-38080566D01*
X36434005Y-38080566D01*
X36434008Y-38080568D01*
X36554412Y-38119689D01*
X36658631Y-38153553D01*
X36891903Y-38190500D01*
X36891908Y-38190500D01*
X37128097Y-38190500D01*
X37361368Y-38153553D01*
X37585992Y-38080568D01*
X37796433Y-37973343D01*
X37987510Y-37834517D01*
X38154517Y-37667510D01*
X38282313Y-37491613D01*
X38337643Y-37448949D01*
X38382631Y-37440500D01*
X42137369Y-37440500D01*
X42204408Y-37460185D01*
X42237685Y-37491613D01*
X42365483Y-37667510D01*
X42532490Y-37834517D01*
X42723567Y-37973343D01*
X42822991Y-38024002D01*
X42934003Y-38080566D01*
X42934005Y-38080566D01*
X42934008Y-38080568D01*
X43054412Y-38119689D01*
X43158631Y-38153553D01*
X43391903Y-38190500D01*
X43391908Y-38190500D01*
X43628097Y-38190500D01*
X43861368Y-38153553D01*
X44085992Y-38080568D01*
X44296433Y-37973343D01*
X44487510Y-37834517D01*
X44654517Y-37667510D01*
X44793343Y-37476433D01*
X44900568Y-37265992D01*
X44973553Y-37041368D01*
X45010500Y-36808097D01*
X45010500Y-36571902D01*
X50509500Y-36571902D01*
X50509500Y-36808097D01*
X50546446Y-37041368D01*
X50619433Y-37265996D01*
X50708348Y-37440500D01*
X50726657Y-37476433D01*
X50865483Y-37667510D01*
X51032490Y-37834517D01*
X51223567Y-37973343D01*
X51322991Y-38024002D01*
X51434003Y-38080566D01*
X51434005Y-38080566D01*
X51434008Y-38080568D01*
X51554412Y-38119689D01*
X51658631Y-38153553D01*
X51891903Y-38190500D01*
X51891908Y-38190500D01*
X52128097Y-38190500D01*
X52361368Y-38153553D01*
X52585992Y-38080568D01*
X52796433Y-37973343D01*
X52987510Y-37834517D01*
X53154517Y-37667510D01*
X53282313Y-37491613D01*
X53337643Y-37448949D01*
X53382631Y-37440500D01*
X57137369Y-37440500D01*
X57204408Y-37460185D01*
X57237685Y-37491613D01*
X57365483Y-37667510D01*
X57532490Y-37834517D01*
X57723567Y-37973343D01*
X57822991Y-38024002D01*
X57934003Y-38080566D01*
X57934005Y-38080566D01*
X57934008Y-38080568D01*
X58054412Y-38119689D01*
X58158631Y-38153553D01*
X58391903Y-38190500D01*
X58391908Y-38190500D01*
X58628097Y-38190500D01*
X58861368Y-38153553D01*
X59085992Y-38080568D01*
X59296433Y-37973343D01*
X59487510Y-37834517D01*
X59654517Y-37667510D01*
X59793343Y-37476433D01*
X59900568Y-37265992D01*
X59973553Y-37041368D01*
X60010500Y-36808097D01*
X60010500Y-36571902D01*
X65509500Y-36571902D01*
X65509500Y-36808097D01*
X65546446Y-37041368D01*
X65619433Y-37265996D01*
X65708348Y-37440500D01*
X65726657Y-37476433D01*
X65865483Y-37667510D01*
X66032490Y-37834517D01*
X66223567Y-37973343D01*
X66322991Y-38024002D01*
X66434003Y-38080566D01*
X66434005Y-38080566D01*
X66434008Y-38080568D01*
X66554412Y-38119689D01*
X66658631Y-38153553D01*
X66891903Y-38190500D01*
X66891908Y-38190500D01*
X67128097Y-38190500D01*
X67361368Y-38153553D01*
X67585992Y-38080568D01*
X67796433Y-37973343D01*
X67987510Y-37834517D01*
X68154517Y-37667510D01*
X68282313Y-37491613D01*
X68337643Y-37448949D01*
X68382631Y-37440500D01*
X72137369Y-37440500D01*
X72204408Y-37460185D01*
X72237685Y-37491613D01*
X72365483Y-37667510D01*
X72532490Y-37834517D01*
X72723567Y-37973343D01*
X72822991Y-38024002D01*
X72934003Y-38080566D01*
X72934005Y-38080566D01*
X72934008Y-38080568D01*
X73054412Y-38119689D01*
X73158631Y-38153553D01*
X73391903Y-38190500D01*
X73391908Y-38190500D01*
X73628097Y-38190500D01*
X73861368Y-38153553D01*
X74085992Y-38080568D01*
X74296433Y-37973343D01*
X74487510Y-37834517D01*
X74654517Y-37667510D01*
X74793343Y-37476433D01*
X74900568Y-37265992D01*
X74973553Y-37041368D01*
X75010500Y-36808097D01*
X75010500Y-36571902D01*
X80509500Y-36571902D01*
X80509500Y-36808097D01*
X80546446Y-37041368D01*
X80619433Y-37265996D01*
X80708348Y-37440500D01*
X80726657Y-37476433D01*
X80865483Y-37667510D01*
X81032490Y-37834517D01*
X81223567Y-37973343D01*
X81322991Y-38024002D01*
X81434003Y-38080566D01*
X81434005Y-38080566D01*
X81434008Y-38080568D01*
X81554412Y-38119689D01*
X81658631Y-38153553D01*
X81891903Y-38190500D01*
X81891908Y-38190500D01*
X82128097Y-38190500D01*
X82361368Y-38153553D01*
X82585992Y-38080568D01*
X82796433Y-37973343D01*
X82987510Y-37834517D01*
X83154517Y-37667510D01*
X83282313Y-37491613D01*
X83337643Y-37448949D01*
X83382631Y-37440500D01*
X87137369Y-37440500D01*
X87204408Y-37460185D01*
X87237685Y-37491613D01*
X87365483Y-37667510D01*
X87532490Y-37834517D01*
X87723567Y-37973343D01*
X87822991Y-38024002D01*
X87934003Y-38080566D01*
X87934005Y-38080566D01*
X87934008Y-38080568D01*
X88054412Y-38119689D01*
X88158631Y-38153553D01*
X88391903Y-38190500D01*
X88391908Y-38190500D01*
X88628097Y-38190500D01*
X88861368Y-38153553D01*
X89085992Y-38080568D01*
X89296433Y-37973343D01*
X89487510Y-37834517D01*
X89654517Y-37667510D01*
X89793343Y-37476433D01*
X89900568Y-37265992D01*
X89973553Y-37041368D01*
X90010500Y-36808097D01*
X90010500Y-36571902D01*
X89973553Y-36338631D01*
X89900566Y-36114003D01*
X89844002Y-36002991D01*
X89793343Y-35903567D01*
X89654517Y-35712490D01*
X89487510Y-35545483D01*
X89296433Y-35406657D01*
X89085996Y-35299433D01*
X88861368Y-35226446D01*
X88628097Y-35189500D01*
X88628092Y-35189500D01*
X88391908Y-35189500D01*
X88391903Y-35189500D01*
X88158631Y-35226446D01*
X87934003Y-35299433D01*
X87723566Y-35406657D01*
X87614550Y-35485862D01*
X87532490Y-35545483D01*
X87532488Y-35545485D01*
X87532487Y-35545485D01*
X87365485Y-35712487D01*
X87365485Y-35712488D01*
X87365483Y-35712490D01*
X87237687Y-35888386D01*
X87182357Y-35931051D01*
X87137369Y-35939500D01*
X83382631Y-35939500D01*
X83315592Y-35919815D01*
X83282313Y-35888386D01*
X83154517Y-35712490D01*
X82987510Y-35545483D01*
X82796433Y-35406657D01*
X82585996Y-35299433D01*
X82361368Y-35226446D01*
X82128097Y-35189500D01*
X82128092Y-35189500D01*
X81891908Y-35189500D01*
X81891903Y-35189500D01*
X81658631Y-35226446D01*
X81434003Y-35299433D01*
X81223566Y-35406657D01*
X81114550Y-35485862D01*
X81032490Y-35545483D01*
X81032488Y-35545485D01*
X81032487Y-35545485D01*
X80865485Y-35712487D01*
X80865485Y-35712488D01*
X80865483Y-35712490D01*
X80805862Y-35794550D01*
X80726657Y-35903566D01*
X80619433Y-36114003D01*
X80546446Y-36338631D01*
X80509500Y-36571902D01*
X75010500Y-36571902D01*
X74973553Y-36338631D01*
X74900566Y-36114003D01*
X74844002Y-36002991D01*
X74793343Y-35903567D01*
X74654517Y-35712490D01*
X74487510Y-35545483D01*
X74296433Y-35406657D01*
X74085996Y-35299433D01*
X73861368Y-35226446D01*
X73628097Y-35189500D01*
X73628092Y-35189500D01*
X73391908Y-35189500D01*
X73391903Y-35189500D01*
X73158631Y-35226446D01*
X72934003Y-35299433D01*
X72723566Y-35406657D01*
X72614550Y-35485862D01*
X72532490Y-35545483D01*
X72532488Y-35545485D01*
X72532487Y-35545485D01*
X72365485Y-35712487D01*
X72365485Y-35712488D01*
X72365483Y-35712490D01*
X72237687Y-35888386D01*
X72182357Y-35931051D01*
X72137369Y-35939500D01*
X68382631Y-35939500D01*
X68315592Y-35919815D01*
X68282313Y-35888386D01*
X68154517Y-35712490D01*
X67987510Y-35545483D01*
X67796433Y-35406657D01*
X67585996Y-35299433D01*
X67361368Y-35226446D01*
X67128097Y-35189500D01*
X67128092Y-35189500D01*
X66891908Y-35189500D01*
X66891903Y-35189500D01*
X66658631Y-35226446D01*
X66434003Y-35299433D01*
X66223566Y-35406657D01*
X66114550Y-35485862D01*
X66032490Y-35545483D01*
X66032488Y-35545485D01*
X66032487Y-35545485D01*
X65865485Y-35712487D01*
X65865485Y-35712488D01*
X65865483Y-35712490D01*
X65805862Y-35794550D01*
X65726657Y-35903566D01*
X65619433Y-36114003D01*
X65546446Y-36338631D01*
X65509500Y-36571902D01*
X60010500Y-36571902D01*
X59973553Y-36338631D01*
X59900566Y-36114003D01*
X59844002Y-36002991D01*
X59793343Y-35903567D01*
X59654517Y-35712490D01*
X59487510Y-35545483D01*
X59296433Y-35406657D01*
X59085996Y-35299433D01*
X58861368Y-35226446D01*
X58628097Y-35189500D01*
X58628092Y-35189500D01*
X58391908Y-35189500D01*
X58391903Y-35189500D01*
X58158631Y-35226446D01*
X57934003Y-35299433D01*
X57723566Y-35406657D01*
X57614550Y-35485862D01*
X57532490Y-35545483D01*
X57532488Y-35545485D01*
X57532487Y-35545485D01*
X57365485Y-35712487D01*
X57365485Y-35712488D01*
X57365483Y-35712490D01*
X57237687Y-35888386D01*
X57182357Y-35931051D01*
X57137369Y-35939500D01*
X53382631Y-35939500D01*
X53315592Y-35919815D01*
X53282313Y-35888386D01*
X53154517Y-35712490D01*
X52987510Y-35545483D01*
X52796433Y-35406657D01*
X52585996Y-35299433D01*
X52361368Y-35226446D01*
X52128097Y-35189500D01*
X52128092Y-35189500D01*
X51891908Y-35189500D01*
X51891903Y-35189500D01*
X51658631Y-35226446D01*
X51434003Y-35299433D01*
X51223566Y-35406657D01*
X51114550Y-35485862D01*
X51032490Y-35545483D01*
X51032488Y-35545485D01*
X51032487Y-35545485D01*
X50865485Y-35712487D01*
X50865485Y-35712488D01*
X50865483Y-35712490D01*
X50805862Y-35794550D01*
X50726657Y-35903566D01*
X50619433Y-36114003D01*
X50546446Y-36338631D01*
X50509500Y-36571902D01*
X45010500Y-36571902D01*
X44973553Y-36338631D01*
X44900566Y-36114003D01*
X44844002Y-36002991D01*
X44793343Y-35903567D01*
X44654517Y-35712490D01*
X44487510Y-35545483D01*
X44296433Y-35406657D01*
X44085996Y-35299433D01*
X43861368Y-35226446D01*
X43628097Y-35189500D01*
X43628092Y-35189500D01*
X43391908Y-35189500D01*
X43391903Y-35189500D01*
X43158631Y-35226446D01*
X42934003Y-35299433D01*
X42723566Y-35406657D01*
X42614550Y-35485862D01*
X42532490Y-35545483D01*
X42532488Y-35545485D01*
X42532487Y-35545485D01*
X42365485Y-35712487D01*
X42365485Y-35712488D01*
X42365483Y-35712490D01*
X42237687Y-35888386D01*
X42182357Y-35931051D01*
X42137369Y-35939500D01*
X38382631Y-35939500D01*
X38315592Y-35919815D01*
X38282313Y-35888386D01*
X38154517Y-35712490D01*
X37987510Y-35545483D01*
X37796433Y-35406657D01*
X37585996Y-35299433D01*
X37361368Y-35226446D01*
X37128097Y-35189500D01*
X37128092Y-35189500D01*
X36891908Y-35189500D01*
X36891903Y-35189500D01*
X36658631Y-35226446D01*
X36434003Y-35299433D01*
X36223566Y-35406657D01*
X36114550Y-35485862D01*
X36032490Y-35545483D01*
X36032488Y-35545485D01*
X36032487Y-35545485D01*
X35865485Y-35712487D01*
X35865485Y-35712488D01*
X35865483Y-35712490D01*
X35805862Y-35794550D01*
X35726657Y-35903566D01*
X35619433Y-36114003D01*
X35546446Y-36338631D01*
X35509500Y-36571902D01*
X25500500Y-36571902D01*
X25500500Y-27418592D01*
X26673500Y-27418592D01*
X26673500Y-27581407D01*
X26705259Y-27741073D01*
X26705262Y-27741082D01*
X26767562Y-27891490D01*
X26767563Y-27891492D01*
X26858015Y-28026862D01*
X26858018Y-28026866D01*
X26973133Y-28141981D01*
X26973137Y-28141984D01*
X27108505Y-28232435D01*
X27108506Y-28232435D01*
X27108507Y-28232436D01*
X27108509Y-28232437D01*
X27208781Y-28273970D01*
X27258919Y-28294738D01*
X27258921Y-28294738D01*
X27258926Y-28294740D01*
X27418592Y-28326499D01*
X27418595Y-28326500D01*
X27418597Y-28326500D01*
X27581405Y-28326500D01*
X27581406Y-28326499D01*
X27634629Y-28315912D01*
X27741073Y-28294740D01*
X27741076Y-28294738D01*
X27741081Y-28294738D01*
X27891495Y-28232435D01*
X28026863Y-28141984D01*
X28141984Y-28026863D01*
X28232435Y-27891495D01*
X28294738Y-27741081D01*
X28326500Y-27581403D01*
X28326500Y-27418597D01*
X28326500Y-27418594D01*
X28326499Y-27418592D01*
X96673500Y-27418592D01*
X96673500Y-27581407D01*
X96705259Y-27741073D01*
X96705262Y-27741082D01*
X96767562Y-27891490D01*
X96767563Y-27891492D01*
X96858015Y-28026862D01*
X96858018Y-28026866D01*
X96973133Y-28141981D01*
X96973137Y-28141984D01*
X97108505Y-28232435D01*
X97108506Y-28232435D01*
X97108507Y-28232436D01*
X97108509Y-28232437D01*
X97208781Y-28273970D01*
X97258919Y-28294738D01*
X97258921Y-28294738D01*
X97258926Y-28294740D01*
X97418592Y-28326499D01*
X97418595Y-28326500D01*
X97418597Y-28326500D01*
X97581405Y-28326500D01*
X97581406Y-28326499D01*
X97634629Y-28315912D01*
X97741073Y-28294740D01*
X97741076Y-28294738D01*
X97741081Y-28294738D01*
X97891495Y-28232435D01*
X98026863Y-28141984D01*
X98141984Y-28026863D01*
X98232435Y-27891495D01*
X98294738Y-27741081D01*
X98326500Y-27581403D01*
X98326500Y-27418597D01*
X98326500Y-27418594D01*
X98326499Y-27418592D01*
X98294740Y-27258926D01*
X98294737Y-27258917D01*
X98232437Y-27108509D01*
X98232436Y-27108507D01*
X98141984Y-26973137D01*
X98141981Y-26973133D01*
X98026866Y-26858018D01*
X98026862Y-26858015D01*
X97891492Y-26767563D01*
X97891490Y-26767562D01*
X97741082Y-26705262D01*
X97741073Y-26705259D01*
X97581406Y-26673500D01*
X97581403Y-26673500D01*
X97418597Y-26673500D01*
X97418594Y-26673500D01*
X97258926Y-26705259D01*
X97258917Y-26705262D01*
X97108509Y-26767562D01*
X97108507Y-26767563D01*
X96973137Y-26858015D01*
X96973133Y-26858018D01*
X96858018Y-26973133D01*
X96858015Y-26973137D01*
X96767563Y-27108507D01*
X96767562Y-27108509D01*
X96705262Y-27258917D01*
X96705259Y-27258926D01*
X96673500Y-27418592D01*
X28326499Y-27418592D01*
X28294740Y-27258926D01*
X28294737Y-27258917D01*
X28232437Y-27108509D01*
X28232436Y-27108507D01*
X28141984Y-26973137D01*
X28141981Y-26973133D01*
X28026866Y-26858018D01*
X28026862Y-26858015D01*
X27891492Y-26767563D01*
X27891490Y-26767562D01*
X27741082Y-26705262D01*
X27741073Y-26705259D01*
X27581406Y-26673500D01*
X27581403Y-26673500D01*
X27418597Y-26673500D01*
X27418594Y-26673500D01*
X27258926Y-26705259D01*
X27258917Y-26705262D01*
X27108509Y-26767562D01*
X27108507Y-26767563D01*
X26973137Y-26858015D01*
X26973133Y-26858018D01*
X26858018Y-26973133D01*
X26858015Y-26973137D01*
X26767563Y-27108507D01*
X26767562Y-27108509D01*
X26705262Y-27258917D01*
X26705259Y-27258926D01*
X26673500Y-27418592D01*
X25500500Y-27418592D01*
X25500500Y-25624500D01*
X25520185Y-25557461D01*
X25572989Y-25511706D01*
X25624500Y-25500500D01*
X99375500Y-25500500D01*
X99442539Y-25520185D01*
G37*
%TD.AperFunction*%
%TD*%
M02*
