%TF.GenerationSoftware,KiCad,Pcbnew,9.0.5*%
%TF.CreationDate,2025-12-24T11:27:01+01:00*%
%TF.ProjectId,lab0,6c616230-2e6b-4696-9361-645f70636258,rev?*%
%TF.SameCoordinates,Original*%
%TF.FileFunction,Legend,Bot*%
%TF.FilePolarity,Positive*%
%FSLAX46Y46*%
G04 Gerber Fmt 4.6, Leading zero omitted, Abs format (unit mm)*
G04 Created by KiCad (PCBNEW 9.0.5) date 2025-12-24 11:27:01*
%MOMM*%
%LPD*%
G01*
G04 APERTURE LIST*
%ADD10C,0.150000*%
%ADD11C,0.120000*%
G04 APERTURE END LIST*
D10*
X69834819Y-94396666D02*
X70549104Y-94396666D01*
X70549104Y-94396666D02*
X70691961Y-94349047D01*
X70691961Y-94349047D02*
X70787200Y-94253809D01*
X70787200Y-94253809D02*
X70834819Y-94110952D01*
X70834819Y-94110952D02*
X70834819Y-94015714D01*
X70834819Y-95396666D02*
X70834819Y-94825238D01*
X70834819Y-95110952D02*
X69834819Y-95110952D01*
X69834819Y-95110952D02*
X69977676Y-95015714D01*
X69977676Y-95015714D02*
X70072914Y-94920476D01*
X70072914Y-94920476D02*
X70120533Y-94825238D01*
X90654285Y-78144819D02*
X90654285Y-77144819D01*
X90654285Y-77144819D02*
X90416190Y-77144819D01*
X90416190Y-77144819D02*
X90273333Y-77192438D01*
X90273333Y-77192438D02*
X90178095Y-77287676D01*
X90178095Y-77287676D02*
X90130476Y-77382914D01*
X90130476Y-77382914D02*
X90082857Y-77573390D01*
X90082857Y-77573390D02*
X90082857Y-77716247D01*
X90082857Y-77716247D02*
X90130476Y-77906723D01*
X90130476Y-77906723D02*
X90178095Y-78001961D01*
X90178095Y-78001961D02*
X90273333Y-78097200D01*
X90273333Y-78097200D02*
X90416190Y-78144819D01*
X90416190Y-78144819D02*
X90654285Y-78144819D01*
X89130476Y-78144819D02*
X89701904Y-78144819D01*
X89416190Y-78144819D02*
X89416190Y-77144819D01*
X89416190Y-77144819D02*
X89511428Y-77287676D01*
X89511428Y-77287676D02*
X89606666Y-77382914D01*
X89606666Y-77382914D02*
X89701904Y-77430533D01*
X88273333Y-77144819D02*
X88463809Y-77144819D01*
X88463809Y-77144819D02*
X88559047Y-77192438D01*
X88559047Y-77192438D02*
X88606666Y-77240057D01*
X88606666Y-77240057D02*
X88701904Y-77382914D01*
X88701904Y-77382914D02*
X88749523Y-77573390D01*
X88749523Y-77573390D02*
X88749523Y-77954342D01*
X88749523Y-77954342D02*
X88701904Y-78049580D01*
X88701904Y-78049580D02*
X88654285Y-78097200D01*
X88654285Y-78097200D02*
X88559047Y-78144819D01*
X88559047Y-78144819D02*
X88368571Y-78144819D01*
X88368571Y-78144819D02*
X88273333Y-78097200D01*
X88273333Y-78097200D02*
X88225714Y-78049580D01*
X88225714Y-78049580D02*
X88178095Y-77954342D01*
X88178095Y-77954342D02*
X88178095Y-77716247D01*
X88178095Y-77716247D02*
X88225714Y-77621009D01*
X88225714Y-77621009D02*
X88273333Y-77573390D01*
X88273333Y-77573390D02*
X88368571Y-77525771D01*
X88368571Y-77525771D02*
X88559047Y-77525771D01*
X88559047Y-77525771D02*
X88654285Y-77573390D01*
X88654285Y-77573390D02*
X88701904Y-77621009D01*
X88701904Y-77621009D02*
X88749523Y-77716247D01*
X75654285Y-78144819D02*
X75654285Y-77144819D01*
X75654285Y-77144819D02*
X75416190Y-77144819D01*
X75416190Y-77144819D02*
X75273333Y-77192438D01*
X75273333Y-77192438D02*
X75178095Y-77287676D01*
X75178095Y-77287676D02*
X75130476Y-77382914D01*
X75130476Y-77382914D02*
X75082857Y-77573390D01*
X75082857Y-77573390D02*
X75082857Y-77716247D01*
X75082857Y-77716247D02*
X75130476Y-77906723D01*
X75130476Y-77906723D02*
X75178095Y-78001961D01*
X75178095Y-78001961D02*
X75273333Y-78097200D01*
X75273333Y-78097200D02*
X75416190Y-78144819D01*
X75416190Y-78144819D02*
X75654285Y-78144819D01*
X74130476Y-78144819D02*
X74701904Y-78144819D01*
X74416190Y-78144819D02*
X74416190Y-77144819D01*
X74416190Y-77144819D02*
X74511428Y-77287676D01*
X74511428Y-77287676D02*
X74606666Y-77382914D01*
X74606666Y-77382914D02*
X74701904Y-77430533D01*
X73225714Y-77144819D02*
X73701904Y-77144819D01*
X73701904Y-77144819D02*
X73749523Y-77621009D01*
X73749523Y-77621009D02*
X73701904Y-77573390D01*
X73701904Y-77573390D02*
X73606666Y-77525771D01*
X73606666Y-77525771D02*
X73368571Y-77525771D01*
X73368571Y-77525771D02*
X73273333Y-77573390D01*
X73273333Y-77573390D02*
X73225714Y-77621009D01*
X73225714Y-77621009D02*
X73178095Y-77716247D01*
X73178095Y-77716247D02*
X73178095Y-77954342D01*
X73178095Y-77954342D02*
X73225714Y-78049580D01*
X73225714Y-78049580D02*
X73273333Y-78097200D01*
X73273333Y-78097200D02*
X73368571Y-78144819D01*
X73368571Y-78144819D02*
X73606666Y-78144819D01*
X73606666Y-78144819D02*
X73701904Y-78097200D01*
X73701904Y-78097200D02*
X73749523Y-78049580D01*
X60654285Y-78144819D02*
X60654285Y-77144819D01*
X60654285Y-77144819D02*
X60416190Y-77144819D01*
X60416190Y-77144819D02*
X60273333Y-77192438D01*
X60273333Y-77192438D02*
X60178095Y-77287676D01*
X60178095Y-77287676D02*
X60130476Y-77382914D01*
X60130476Y-77382914D02*
X60082857Y-77573390D01*
X60082857Y-77573390D02*
X60082857Y-77716247D01*
X60082857Y-77716247D02*
X60130476Y-77906723D01*
X60130476Y-77906723D02*
X60178095Y-78001961D01*
X60178095Y-78001961D02*
X60273333Y-78097200D01*
X60273333Y-78097200D02*
X60416190Y-78144819D01*
X60416190Y-78144819D02*
X60654285Y-78144819D01*
X59130476Y-78144819D02*
X59701904Y-78144819D01*
X59416190Y-78144819D02*
X59416190Y-77144819D01*
X59416190Y-77144819D02*
X59511428Y-77287676D01*
X59511428Y-77287676D02*
X59606666Y-77382914D01*
X59606666Y-77382914D02*
X59701904Y-77430533D01*
X58273333Y-77478152D02*
X58273333Y-78144819D01*
X58511428Y-77097200D02*
X58749523Y-77811485D01*
X58749523Y-77811485D02*
X58130476Y-77811485D01*
X45654285Y-78144819D02*
X45654285Y-77144819D01*
X45654285Y-77144819D02*
X45416190Y-77144819D01*
X45416190Y-77144819D02*
X45273333Y-77192438D01*
X45273333Y-77192438D02*
X45178095Y-77287676D01*
X45178095Y-77287676D02*
X45130476Y-77382914D01*
X45130476Y-77382914D02*
X45082857Y-77573390D01*
X45082857Y-77573390D02*
X45082857Y-77716247D01*
X45082857Y-77716247D02*
X45130476Y-77906723D01*
X45130476Y-77906723D02*
X45178095Y-78001961D01*
X45178095Y-78001961D02*
X45273333Y-78097200D01*
X45273333Y-78097200D02*
X45416190Y-78144819D01*
X45416190Y-78144819D02*
X45654285Y-78144819D01*
X44130476Y-78144819D02*
X44701904Y-78144819D01*
X44416190Y-78144819D02*
X44416190Y-77144819D01*
X44416190Y-77144819D02*
X44511428Y-77287676D01*
X44511428Y-77287676D02*
X44606666Y-77382914D01*
X44606666Y-77382914D02*
X44701904Y-77430533D01*
X43797142Y-77144819D02*
X43178095Y-77144819D01*
X43178095Y-77144819D02*
X43511428Y-77525771D01*
X43511428Y-77525771D02*
X43368571Y-77525771D01*
X43368571Y-77525771D02*
X43273333Y-77573390D01*
X43273333Y-77573390D02*
X43225714Y-77621009D01*
X43225714Y-77621009D02*
X43178095Y-77716247D01*
X43178095Y-77716247D02*
X43178095Y-77954342D01*
X43178095Y-77954342D02*
X43225714Y-78049580D01*
X43225714Y-78049580D02*
X43273333Y-78097200D01*
X43273333Y-78097200D02*
X43368571Y-78144819D01*
X43368571Y-78144819D02*
X43654285Y-78144819D01*
X43654285Y-78144819D02*
X43749523Y-78097200D01*
X43749523Y-78097200D02*
X43797142Y-78049580D01*
X90654285Y-63144819D02*
X90654285Y-62144819D01*
X90654285Y-62144819D02*
X90416190Y-62144819D01*
X90416190Y-62144819D02*
X90273333Y-62192438D01*
X90273333Y-62192438D02*
X90178095Y-62287676D01*
X90178095Y-62287676D02*
X90130476Y-62382914D01*
X90130476Y-62382914D02*
X90082857Y-62573390D01*
X90082857Y-62573390D02*
X90082857Y-62716247D01*
X90082857Y-62716247D02*
X90130476Y-62906723D01*
X90130476Y-62906723D02*
X90178095Y-63001961D01*
X90178095Y-63001961D02*
X90273333Y-63097200D01*
X90273333Y-63097200D02*
X90416190Y-63144819D01*
X90416190Y-63144819D02*
X90654285Y-63144819D01*
X89130476Y-63144819D02*
X89701904Y-63144819D01*
X89416190Y-63144819D02*
X89416190Y-62144819D01*
X89416190Y-62144819D02*
X89511428Y-62287676D01*
X89511428Y-62287676D02*
X89606666Y-62382914D01*
X89606666Y-62382914D02*
X89701904Y-62430533D01*
X88749523Y-62240057D02*
X88701904Y-62192438D01*
X88701904Y-62192438D02*
X88606666Y-62144819D01*
X88606666Y-62144819D02*
X88368571Y-62144819D01*
X88368571Y-62144819D02*
X88273333Y-62192438D01*
X88273333Y-62192438D02*
X88225714Y-62240057D01*
X88225714Y-62240057D02*
X88178095Y-62335295D01*
X88178095Y-62335295D02*
X88178095Y-62430533D01*
X88178095Y-62430533D02*
X88225714Y-62573390D01*
X88225714Y-62573390D02*
X88797142Y-63144819D01*
X88797142Y-63144819D02*
X88178095Y-63144819D01*
X75654285Y-63144819D02*
X75654285Y-62144819D01*
X75654285Y-62144819D02*
X75416190Y-62144819D01*
X75416190Y-62144819D02*
X75273333Y-62192438D01*
X75273333Y-62192438D02*
X75178095Y-62287676D01*
X75178095Y-62287676D02*
X75130476Y-62382914D01*
X75130476Y-62382914D02*
X75082857Y-62573390D01*
X75082857Y-62573390D02*
X75082857Y-62716247D01*
X75082857Y-62716247D02*
X75130476Y-62906723D01*
X75130476Y-62906723D02*
X75178095Y-63001961D01*
X75178095Y-63001961D02*
X75273333Y-63097200D01*
X75273333Y-63097200D02*
X75416190Y-63144819D01*
X75416190Y-63144819D02*
X75654285Y-63144819D01*
X74130476Y-63144819D02*
X74701904Y-63144819D01*
X74416190Y-63144819D02*
X74416190Y-62144819D01*
X74416190Y-62144819D02*
X74511428Y-62287676D01*
X74511428Y-62287676D02*
X74606666Y-62382914D01*
X74606666Y-62382914D02*
X74701904Y-62430533D01*
X73178095Y-63144819D02*
X73749523Y-63144819D01*
X73463809Y-63144819D02*
X73463809Y-62144819D01*
X73463809Y-62144819D02*
X73559047Y-62287676D01*
X73559047Y-62287676D02*
X73654285Y-62382914D01*
X73654285Y-62382914D02*
X73749523Y-62430533D01*
X60654285Y-63144819D02*
X60654285Y-62144819D01*
X60654285Y-62144819D02*
X60416190Y-62144819D01*
X60416190Y-62144819D02*
X60273333Y-62192438D01*
X60273333Y-62192438D02*
X60178095Y-62287676D01*
X60178095Y-62287676D02*
X60130476Y-62382914D01*
X60130476Y-62382914D02*
X60082857Y-62573390D01*
X60082857Y-62573390D02*
X60082857Y-62716247D01*
X60082857Y-62716247D02*
X60130476Y-62906723D01*
X60130476Y-62906723D02*
X60178095Y-63001961D01*
X60178095Y-63001961D02*
X60273333Y-63097200D01*
X60273333Y-63097200D02*
X60416190Y-63144819D01*
X60416190Y-63144819D02*
X60654285Y-63144819D01*
X59130476Y-63144819D02*
X59701904Y-63144819D01*
X59416190Y-63144819D02*
X59416190Y-62144819D01*
X59416190Y-62144819D02*
X59511428Y-62287676D01*
X59511428Y-62287676D02*
X59606666Y-62382914D01*
X59606666Y-62382914D02*
X59701904Y-62430533D01*
X58511428Y-62144819D02*
X58416190Y-62144819D01*
X58416190Y-62144819D02*
X58320952Y-62192438D01*
X58320952Y-62192438D02*
X58273333Y-62240057D01*
X58273333Y-62240057D02*
X58225714Y-62335295D01*
X58225714Y-62335295D02*
X58178095Y-62525771D01*
X58178095Y-62525771D02*
X58178095Y-62763866D01*
X58178095Y-62763866D02*
X58225714Y-62954342D01*
X58225714Y-62954342D02*
X58273333Y-63049580D01*
X58273333Y-63049580D02*
X58320952Y-63097200D01*
X58320952Y-63097200D02*
X58416190Y-63144819D01*
X58416190Y-63144819D02*
X58511428Y-63144819D01*
X58511428Y-63144819D02*
X58606666Y-63097200D01*
X58606666Y-63097200D02*
X58654285Y-63049580D01*
X58654285Y-63049580D02*
X58701904Y-62954342D01*
X58701904Y-62954342D02*
X58749523Y-62763866D01*
X58749523Y-62763866D02*
X58749523Y-62525771D01*
X58749523Y-62525771D02*
X58701904Y-62335295D01*
X58701904Y-62335295D02*
X58654285Y-62240057D01*
X58654285Y-62240057D02*
X58606666Y-62192438D01*
X58606666Y-62192438D02*
X58511428Y-62144819D01*
X45178094Y-63144819D02*
X45178094Y-62144819D01*
X45178094Y-62144819D02*
X44939999Y-62144819D01*
X44939999Y-62144819D02*
X44797142Y-62192438D01*
X44797142Y-62192438D02*
X44701904Y-62287676D01*
X44701904Y-62287676D02*
X44654285Y-62382914D01*
X44654285Y-62382914D02*
X44606666Y-62573390D01*
X44606666Y-62573390D02*
X44606666Y-62716247D01*
X44606666Y-62716247D02*
X44654285Y-62906723D01*
X44654285Y-62906723D02*
X44701904Y-63001961D01*
X44701904Y-63001961D02*
X44797142Y-63097200D01*
X44797142Y-63097200D02*
X44939999Y-63144819D01*
X44939999Y-63144819D02*
X45178094Y-63144819D01*
X44130475Y-63144819D02*
X43939999Y-63144819D01*
X43939999Y-63144819D02*
X43844761Y-63097200D01*
X43844761Y-63097200D02*
X43797142Y-63049580D01*
X43797142Y-63049580D02*
X43701904Y-62906723D01*
X43701904Y-62906723D02*
X43654285Y-62716247D01*
X43654285Y-62716247D02*
X43654285Y-62335295D01*
X43654285Y-62335295D02*
X43701904Y-62240057D01*
X43701904Y-62240057D02*
X43749523Y-62192438D01*
X43749523Y-62192438D02*
X43844761Y-62144819D01*
X43844761Y-62144819D02*
X44035237Y-62144819D01*
X44035237Y-62144819D02*
X44130475Y-62192438D01*
X44130475Y-62192438D02*
X44178094Y-62240057D01*
X44178094Y-62240057D02*
X44225713Y-62335295D01*
X44225713Y-62335295D02*
X44225713Y-62573390D01*
X44225713Y-62573390D02*
X44178094Y-62668628D01*
X44178094Y-62668628D02*
X44130475Y-62716247D01*
X44130475Y-62716247D02*
X44035237Y-62763866D01*
X44035237Y-62763866D02*
X43844761Y-62763866D01*
X43844761Y-62763866D02*
X43749523Y-62716247D01*
X43749523Y-62716247D02*
X43701904Y-62668628D01*
X43701904Y-62668628D02*
X43654285Y-62573390D01*
X90178094Y-48144819D02*
X90178094Y-47144819D01*
X90178094Y-47144819D02*
X89939999Y-47144819D01*
X89939999Y-47144819D02*
X89797142Y-47192438D01*
X89797142Y-47192438D02*
X89701904Y-47287676D01*
X89701904Y-47287676D02*
X89654285Y-47382914D01*
X89654285Y-47382914D02*
X89606666Y-47573390D01*
X89606666Y-47573390D02*
X89606666Y-47716247D01*
X89606666Y-47716247D02*
X89654285Y-47906723D01*
X89654285Y-47906723D02*
X89701904Y-48001961D01*
X89701904Y-48001961D02*
X89797142Y-48097200D01*
X89797142Y-48097200D02*
X89939999Y-48144819D01*
X89939999Y-48144819D02*
X90178094Y-48144819D01*
X89035237Y-47573390D02*
X89130475Y-47525771D01*
X89130475Y-47525771D02*
X89178094Y-47478152D01*
X89178094Y-47478152D02*
X89225713Y-47382914D01*
X89225713Y-47382914D02*
X89225713Y-47335295D01*
X89225713Y-47335295D02*
X89178094Y-47240057D01*
X89178094Y-47240057D02*
X89130475Y-47192438D01*
X89130475Y-47192438D02*
X89035237Y-47144819D01*
X89035237Y-47144819D02*
X88844761Y-47144819D01*
X88844761Y-47144819D02*
X88749523Y-47192438D01*
X88749523Y-47192438D02*
X88701904Y-47240057D01*
X88701904Y-47240057D02*
X88654285Y-47335295D01*
X88654285Y-47335295D02*
X88654285Y-47382914D01*
X88654285Y-47382914D02*
X88701904Y-47478152D01*
X88701904Y-47478152D02*
X88749523Y-47525771D01*
X88749523Y-47525771D02*
X88844761Y-47573390D01*
X88844761Y-47573390D02*
X89035237Y-47573390D01*
X89035237Y-47573390D02*
X89130475Y-47621009D01*
X89130475Y-47621009D02*
X89178094Y-47668628D01*
X89178094Y-47668628D02*
X89225713Y-47763866D01*
X89225713Y-47763866D02*
X89225713Y-47954342D01*
X89225713Y-47954342D02*
X89178094Y-48049580D01*
X89178094Y-48049580D02*
X89130475Y-48097200D01*
X89130475Y-48097200D02*
X89035237Y-48144819D01*
X89035237Y-48144819D02*
X88844761Y-48144819D01*
X88844761Y-48144819D02*
X88749523Y-48097200D01*
X88749523Y-48097200D02*
X88701904Y-48049580D01*
X88701904Y-48049580D02*
X88654285Y-47954342D01*
X88654285Y-47954342D02*
X88654285Y-47763866D01*
X88654285Y-47763866D02*
X88701904Y-47668628D01*
X88701904Y-47668628D02*
X88749523Y-47621009D01*
X88749523Y-47621009D02*
X88844761Y-47573390D01*
X75178094Y-48144819D02*
X75178094Y-47144819D01*
X75178094Y-47144819D02*
X74939999Y-47144819D01*
X74939999Y-47144819D02*
X74797142Y-47192438D01*
X74797142Y-47192438D02*
X74701904Y-47287676D01*
X74701904Y-47287676D02*
X74654285Y-47382914D01*
X74654285Y-47382914D02*
X74606666Y-47573390D01*
X74606666Y-47573390D02*
X74606666Y-47716247D01*
X74606666Y-47716247D02*
X74654285Y-47906723D01*
X74654285Y-47906723D02*
X74701904Y-48001961D01*
X74701904Y-48001961D02*
X74797142Y-48097200D01*
X74797142Y-48097200D02*
X74939999Y-48144819D01*
X74939999Y-48144819D02*
X75178094Y-48144819D01*
X74273332Y-47144819D02*
X73606666Y-47144819D01*
X73606666Y-47144819D02*
X74035237Y-48144819D01*
X60178094Y-48144819D02*
X60178094Y-47144819D01*
X60178094Y-47144819D02*
X59939999Y-47144819D01*
X59939999Y-47144819D02*
X59797142Y-47192438D01*
X59797142Y-47192438D02*
X59701904Y-47287676D01*
X59701904Y-47287676D02*
X59654285Y-47382914D01*
X59654285Y-47382914D02*
X59606666Y-47573390D01*
X59606666Y-47573390D02*
X59606666Y-47716247D01*
X59606666Y-47716247D02*
X59654285Y-47906723D01*
X59654285Y-47906723D02*
X59701904Y-48001961D01*
X59701904Y-48001961D02*
X59797142Y-48097200D01*
X59797142Y-48097200D02*
X59939999Y-48144819D01*
X59939999Y-48144819D02*
X60178094Y-48144819D01*
X58749523Y-47144819D02*
X58939999Y-47144819D01*
X58939999Y-47144819D02*
X59035237Y-47192438D01*
X59035237Y-47192438D02*
X59082856Y-47240057D01*
X59082856Y-47240057D02*
X59178094Y-47382914D01*
X59178094Y-47382914D02*
X59225713Y-47573390D01*
X59225713Y-47573390D02*
X59225713Y-47954342D01*
X59225713Y-47954342D02*
X59178094Y-48049580D01*
X59178094Y-48049580D02*
X59130475Y-48097200D01*
X59130475Y-48097200D02*
X59035237Y-48144819D01*
X59035237Y-48144819D02*
X58844761Y-48144819D01*
X58844761Y-48144819D02*
X58749523Y-48097200D01*
X58749523Y-48097200D02*
X58701904Y-48049580D01*
X58701904Y-48049580D02*
X58654285Y-47954342D01*
X58654285Y-47954342D02*
X58654285Y-47716247D01*
X58654285Y-47716247D02*
X58701904Y-47621009D01*
X58701904Y-47621009D02*
X58749523Y-47573390D01*
X58749523Y-47573390D02*
X58844761Y-47525771D01*
X58844761Y-47525771D02*
X59035237Y-47525771D01*
X59035237Y-47525771D02*
X59130475Y-47573390D01*
X59130475Y-47573390D02*
X59178094Y-47621009D01*
X59178094Y-47621009D02*
X59225713Y-47716247D01*
X45178094Y-48144819D02*
X45178094Y-47144819D01*
X45178094Y-47144819D02*
X44939999Y-47144819D01*
X44939999Y-47144819D02*
X44797142Y-47192438D01*
X44797142Y-47192438D02*
X44701904Y-47287676D01*
X44701904Y-47287676D02*
X44654285Y-47382914D01*
X44654285Y-47382914D02*
X44606666Y-47573390D01*
X44606666Y-47573390D02*
X44606666Y-47716247D01*
X44606666Y-47716247D02*
X44654285Y-47906723D01*
X44654285Y-47906723D02*
X44701904Y-48001961D01*
X44701904Y-48001961D02*
X44797142Y-48097200D01*
X44797142Y-48097200D02*
X44939999Y-48144819D01*
X44939999Y-48144819D02*
X45178094Y-48144819D01*
X43701904Y-47144819D02*
X44178094Y-47144819D01*
X44178094Y-47144819D02*
X44225713Y-47621009D01*
X44225713Y-47621009D02*
X44178094Y-47573390D01*
X44178094Y-47573390D02*
X44082856Y-47525771D01*
X44082856Y-47525771D02*
X43844761Y-47525771D01*
X43844761Y-47525771D02*
X43749523Y-47573390D01*
X43749523Y-47573390D02*
X43701904Y-47621009D01*
X43701904Y-47621009D02*
X43654285Y-47716247D01*
X43654285Y-47716247D02*
X43654285Y-47954342D01*
X43654285Y-47954342D02*
X43701904Y-48049580D01*
X43701904Y-48049580D02*
X43749523Y-48097200D01*
X43749523Y-48097200D02*
X43844761Y-48144819D01*
X43844761Y-48144819D02*
X44082856Y-48144819D01*
X44082856Y-48144819D02*
X44178094Y-48097200D01*
X44178094Y-48097200D02*
X44225713Y-48049580D01*
X90178094Y-33144819D02*
X90178094Y-32144819D01*
X90178094Y-32144819D02*
X89939999Y-32144819D01*
X89939999Y-32144819D02*
X89797142Y-32192438D01*
X89797142Y-32192438D02*
X89701904Y-32287676D01*
X89701904Y-32287676D02*
X89654285Y-32382914D01*
X89654285Y-32382914D02*
X89606666Y-32573390D01*
X89606666Y-32573390D02*
X89606666Y-32716247D01*
X89606666Y-32716247D02*
X89654285Y-32906723D01*
X89654285Y-32906723D02*
X89701904Y-33001961D01*
X89701904Y-33001961D02*
X89797142Y-33097200D01*
X89797142Y-33097200D02*
X89939999Y-33144819D01*
X89939999Y-33144819D02*
X90178094Y-33144819D01*
X88749523Y-32478152D02*
X88749523Y-33144819D01*
X88987618Y-32097200D02*
X89225713Y-32811485D01*
X89225713Y-32811485D02*
X88606666Y-32811485D01*
X75178094Y-33144819D02*
X75178094Y-32144819D01*
X75178094Y-32144819D02*
X74939999Y-32144819D01*
X74939999Y-32144819D02*
X74797142Y-32192438D01*
X74797142Y-32192438D02*
X74701904Y-32287676D01*
X74701904Y-32287676D02*
X74654285Y-32382914D01*
X74654285Y-32382914D02*
X74606666Y-32573390D01*
X74606666Y-32573390D02*
X74606666Y-32716247D01*
X74606666Y-32716247D02*
X74654285Y-32906723D01*
X74654285Y-32906723D02*
X74701904Y-33001961D01*
X74701904Y-33001961D02*
X74797142Y-33097200D01*
X74797142Y-33097200D02*
X74939999Y-33144819D01*
X74939999Y-33144819D02*
X75178094Y-33144819D01*
X74273332Y-32144819D02*
X73654285Y-32144819D01*
X73654285Y-32144819D02*
X73987618Y-32525771D01*
X73987618Y-32525771D02*
X73844761Y-32525771D01*
X73844761Y-32525771D02*
X73749523Y-32573390D01*
X73749523Y-32573390D02*
X73701904Y-32621009D01*
X73701904Y-32621009D02*
X73654285Y-32716247D01*
X73654285Y-32716247D02*
X73654285Y-32954342D01*
X73654285Y-32954342D02*
X73701904Y-33049580D01*
X73701904Y-33049580D02*
X73749523Y-33097200D01*
X73749523Y-33097200D02*
X73844761Y-33144819D01*
X73844761Y-33144819D02*
X74130475Y-33144819D01*
X74130475Y-33144819D02*
X74225713Y-33097200D01*
X74225713Y-33097200D02*
X74273332Y-33049580D01*
X60178094Y-33144819D02*
X60178094Y-32144819D01*
X60178094Y-32144819D02*
X59939999Y-32144819D01*
X59939999Y-32144819D02*
X59797142Y-32192438D01*
X59797142Y-32192438D02*
X59701904Y-32287676D01*
X59701904Y-32287676D02*
X59654285Y-32382914D01*
X59654285Y-32382914D02*
X59606666Y-32573390D01*
X59606666Y-32573390D02*
X59606666Y-32716247D01*
X59606666Y-32716247D02*
X59654285Y-32906723D01*
X59654285Y-32906723D02*
X59701904Y-33001961D01*
X59701904Y-33001961D02*
X59797142Y-33097200D01*
X59797142Y-33097200D02*
X59939999Y-33144819D01*
X59939999Y-33144819D02*
X60178094Y-33144819D01*
X59225713Y-32240057D02*
X59178094Y-32192438D01*
X59178094Y-32192438D02*
X59082856Y-32144819D01*
X59082856Y-32144819D02*
X58844761Y-32144819D01*
X58844761Y-32144819D02*
X58749523Y-32192438D01*
X58749523Y-32192438D02*
X58701904Y-32240057D01*
X58701904Y-32240057D02*
X58654285Y-32335295D01*
X58654285Y-32335295D02*
X58654285Y-32430533D01*
X58654285Y-32430533D02*
X58701904Y-32573390D01*
X58701904Y-32573390D02*
X59273332Y-33144819D01*
X59273332Y-33144819D02*
X58654285Y-33144819D01*
X45178094Y-33144819D02*
X45178094Y-32144819D01*
X45178094Y-32144819D02*
X44939999Y-32144819D01*
X44939999Y-32144819D02*
X44797142Y-32192438D01*
X44797142Y-32192438D02*
X44701904Y-32287676D01*
X44701904Y-32287676D02*
X44654285Y-32382914D01*
X44654285Y-32382914D02*
X44606666Y-32573390D01*
X44606666Y-32573390D02*
X44606666Y-32716247D01*
X44606666Y-32716247D02*
X44654285Y-32906723D01*
X44654285Y-32906723D02*
X44701904Y-33001961D01*
X44701904Y-33001961D02*
X44797142Y-33097200D01*
X44797142Y-33097200D02*
X44939999Y-33144819D01*
X44939999Y-33144819D02*
X45178094Y-33144819D01*
X43654285Y-33144819D02*
X44225713Y-33144819D01*
X43939999Y-33144819D02*
X43939999Y-32144819D01*
X43939999Y-32144819D02*
X44035237Y-32287676D01*
X44035237Y-32287676D02*
X44130475Y-32382914D01*
X44130475Y-32382914D02*
X44225713Y-32430533D01*
D11*
%TO.C,J1*%
X69380000Y-97380000D02*
X69380000Y-96000000D01*
X68000000Y-97380000D02*
X69380000Y-97380000D01*
X66730000Y-97380000D02*
X56460000Y-97380000D01*
X66730000Y-97380000D02*
X66730000Y-94730000D01*
X56460000Y-97380000D02*
X56460000Y-92080000D01*
X69380000Y-94730000D02*
X69380000Y-92080000D01*
X66730000Y-94730000D02*
X69380000Y-94730000D01*
X69380000Y-92080000D02*
X56460000Y-92080000D01*
%TO.C,D16*%
X90925000Y-78385000D02*
X90925000Y-79855000D01*
X90925000Y-79855000D02*
X88640000Y-79855000D01*
X88640000Y-78385000D02*
X90925000Y-78385000D01*
%TO.C,D15*%
X75925000Y-78385000D02*
X75925000Y-79855000D01*
X75925000Y-79855000D02*
X73640000Y-79855000D01*
X73640000Y-78385000D02*
X75925000Y-78385000D01*
%TO.C,D14*%
X60925000Y-78385000D02*
X60925000Y-79855000D01*
X60925000Y-79855000D02*
X58640000Y-79855000D01*
X58640000Y-78385000D02*
X60925000Y-78385000D01*
%TO.C,D13*%
X45925000Y-78385000D02*
X45925000Y-79855000D01*
X45925000Y-79855000D02*
X43640000Y-79855000D01*
X43640000Y-78385000D02*
X45925000Y-78385000D01*
%TO.C,D12*%
X90925000Y-63385000D02*
X90925000Y-64855000D01*
X90925000Y-64855000D02*
X88640000Y-64855000D01*
X88640000Y-63385000D02*
X90925000Y-63385000D01*
%TO.C,D11*%
X75925000Y-63385000D02*
X75925000Y-64855000D01*
X75925000Y-64855000D02*
X73640000Y-64855000D01*
X73640000Y-63385000D02*
X75925000Y-63385000D01*
%TO.C,D10*%
X60925000Y-63385000D02*
X60925000Y-64855000D01*
X60925000Y-64855000D02*
X58640000Y-64855000D01*
X58640000Y-63385000D02*
X60925000Y-63385000D01*
%TO.C,D9*%
X45925000Y-63385000D02*
X45925000Y-64855000D01*
X45925000Y-64855000D02*
X43640000Y-64855000D01*
X43640000Y-63385000D02*
X45925000Y-63385000D01*
%TO.C,D8*%
X90925000Y-48385000D02*
X90925000Y-49855000D01*
X90925000Y-49855000D02*
X88640000Y-49855000D01*
X88640000Y-48385000D02*
X90925000Y-48385000D01*
%TO.C,D7*%
X75925000Y-48385000D02*
X75925000Y-49855000D01*
X75925000Y-49855000D02*
X73640000Y-49855000D01*
X73640000Y-48385000D02*
X75925000Y-48385000D01*
%TO.C,D6*%
X60925000Y-48385000D02*
X60925000Y-49855000D01*
X60925000Y-49855000D02*
X58640000Y-49855000D01*
X58640000Y-48385000D02*
X60925000Y-48385000D01*
%TO.C,D5*%
X45925000Y-48385000D02*
X45925000Y-49855000D01*
X45925000Y-49855000D02*
X43640000Y-49855000D01*
X43640000Y-48385000D02*
X45925000Y-48385000D01*
%TO.C,D4*%
X90925000Y-33385000D02*
X90925000Y-34855000D01*
X90925000Y-34855000D02*
X88640000Y-34855000D01*
X88640000Y-33385000D02*
X90925000Y-33385000D01*
%TO.C,D3*%
X75925000Y-33385000D02*
X75925000Y-34855000D01*
X75925000Y-34855000D02*
X73640000Y-34855000D01*
X73640000Y-33385000D02*
X75925000Y-33385000D01*
%TO.C,D2*%
X60925000Y-33385000D02*
X60925000Y-34855000D01*
X60925000Y-34855000D02*
X58640000Y-34855000D01*
X58640000Y-33385000D02*
X60925000Y-33385000D01*
%TO.C,D1*%
X45925000Y-33385000D02*
X45925000Y-34855000D01*
X45925000Y-34855000D02*
X43640000Y-34855000D01*
X43640000Y-33385000D02*
X45925000Y-33385000D01*
%TD*%
M02*
