%TF.GenerationSoftware,KiCad,Pcbnew,9.0.5*%
%TF.CreationDate,2025-12-24T11:27:01+01:00*%
%TF.ProjectId,lab0,6c616230-2e6b-4696-9361-645f70636258,rev?*%
%TF.SameCoordinates,Original*%
%TF.FileFunction,Legend,Top*%
%TF.FilePolarity,Positive*%
%FSLAX46Y46*%
G04 Gerber Fmt 4.6, Leading zero omitted, Abs format (unit mm)*
G04 Created by KiCad (PCBNEW 9.0.5) date 2025-12-24 11:27:01*
%MOMM*%
%LPD*%
G01*
G04 APERTURE LIST*
%ADD10C,0.200000*%
%ADD11C,0.150000*%
%ADD12C,0.120000*%
G04 APERTURE END LIST*
D10*
X48369673Y-27132569D02*
X48429197Y-27084950D01*
X48429197Y-27084950D02*
X48548244Y-27037331D01*
X48548244Y-27037331D02*
X48845863Y-27037331D01*
X48845863Y-27037331D02*
X48964911Y-27084950D01*
X48964911Y-27084950D02*
X49024435Y-27132569D01*
X49024435Y-27132569D02*
X49083958Y-27227807D01*
X49083958Y-27227807D02*
X49083958Y-27323045D01*
X49083958Y-27323045D02*
X49024435Y-27465902D01*
X49024435Y-27465902D02*
X48310149Y-28037331D01*
X48310149Y-28037331D02*
X49083958Y-28037331D01*
X50155387Y-27370664D02*
X50155387Y-28037331D01*
X49857768Y-26989712D02*
X49560149Y-27703997D01*
X49560149Y-27703997D02*
X50333958Y-27703997D01*
X51703006Y-26989712D02*
X50631577Y-28275426D01*
X52774434Y-28037331D02*
X52060149Y-28037331D01*
X52417292Y-28037331D02*
X52417292Y-27037331D01*
X52417292Y-27037331D02*
X52298244Y-27180188D01*
X52298244Y-27180188D02*
X52179196Y-27275426D01*
X52179196Y-27275426D02*
X52060149Y-27323045D01*
X53250625Y-27132569D02*
X53310149Y-27084950D01*
X53310149Y-27084950D02*
X53429196Y-27037331D01*
X53429196Y-27037331D02*
X53726815Y-27037331D01*
X53726815Y-27037331D02*
X53845863Y-27084950D01*
X53845863Y-27084950D02*
X53905387Y-27132569D01*
X53905387Y-27132569D02*
X53964910Y-27227807D01*
X53964910Y-27227807D02*
X53964910Y-27323045D01*
X53964910Y-27323045D02*
X53905387Y-27465902D01*
X53905387Y-27465902D02*
X53191101Y-28037331D01*
X53191101Y-28037331D02*
X53964910Y-28037331D01*
X55393482Y-26989712D02*
X54322053Y-28275426D01*
X55750625Y-27132569D02*
X55810149Y-27084950D01*
X55810149Y-27084950D02*
X55929196Y-27037331D01*
X55929196Y-27037331D02*
X56226815Y-27037331D01*
X56226815Y-27037331D02*
X56345863Y-27084950D01*
X56345863Y-27084950D02*
X56405387Y-27132569D01*
X56405387Y-27132569D02*
X56464910Y-27227807D01*
X56464910Y-27227807D02*
X56464910Y-27323045D01*
X56464910Y-27323045D02*
X56405387Y-27465902D01*
X56405387Y-27465902D02*
X55691101Y-28037331D01*
X55691101Y-28037331D02*
X56464910Y-28037331D01*
X57238720Y-27037331D02*
X57357767Y-27037331D01*
X57357767Y-27037331D02*
X57476815Y-27084950D01*
X57476815Y-27084950D02*
X57536339Y-27132569D01*
X57536339Y-27132569D02*
X57595863Y-27227807D01*
X57595863Y-27227807D02*
X57655386Y-27418283D01*
X57655386Y-27418283D02*
X57655386Y-27656378D01*
X57655386Y-27656378D02*
X57595863Y-27846854D01*
X57595863Y-27846854D02*
X57536339Y-27942092D01*
X57536339Y-27942092D02*
X57476815Y-27989712D01*
X57476815Y-27989712D02*
X57357767Y-28037331D01*
X57357767Y-28037331D02*
X57238720Y-28037331D01*
X57238720Y-28037331D02*
X57119672Y-27989712D01*
X57119672Y-27989712D02*
X57060148Y-27942092D01*
X57060148Y-27942092D02*
X57000625Y-27846854D01*
X57000625Y-27846854D02*
X56941101Y-27656378D01*
X56941101Y-27656378D02*
X56941101Y-27418283D01*
X56941101Y-27418283D02*
X57000625Y-27227807D01*
X57000625Y-27227807D02*
X57060148Y-27132569D01*
X57060148Y-27132569D02*
X57119672Y-27084950D01*
X57119672Y-27084950D02*
X57238720Y-27037331D01*
X58131577Y-27132569D02*
X58191101Y-27084950D01*
X58191101Y-27084950D02*
X58310148Y-27037331D01*
X58310148Y-27037331D02*
X58607767Y-27037331D01*
X58607767Y-27037331D02*
X58726815Y-27084950D01*
X58726815Y-27084950D02*
X58786339Y-27132569D01*
X58786339Y-27132569D02*
X58845862Y-27227807D01*
X58845862Y-27227807D02*
X58845862Y-27323045D01*
X58845862Y-27323045D02*
X58786339Y-27465902D01*
X58786339Y-27465902D02*
X58072053Y-28037331D01*
X58072053Y-28037331D02*
X58845862Y-28037331D01*
X59976815Y-27037331D02*
X59381577Y-27037331D01*
X59381577Y-27037331D02*
X59322053Y-27513521D01*
X59322053Y-27513521D02*
X59381577Y-27465902D01*
X59381577Y-27465902D02*
X59500624Y-27418283D01*
X59500624Y-27418283D02*
X59798243Y-27418283D01*
X59798243Y-27418283D02*
X59917291Y-27465902D01*
X59917291Y-27465902D02*
X59976815Y-27513521D01*
X59976815Y-27513521D02*
X60036338Y-27608759D01*
X60036338Y-27608759D02*
X60036338Y-27846854D01*
X60036338Y-27846854D02*
X59976815Y-27942092D01*
X59976815Y-27942092D02*
X59917291Y-27989712D01*
X59917291Y-27989712D02*
X59798243Y-28037331D01*
X59798243Y-28037331D02*
X59500624Y-28037331D01*
X59500624Y-28037331D02*
X59381577Y-27989712D01*
X59381577Y-27989712D02*
X59322053Y-27942092D01*
X49024435Y-29647275D02*
X48429197Y-29647275D01*
X48429197Y-29647275D02*
X48429197Y-28647275D01*
X49976816Y-29647275D02*
X49976816Y-29123465D01*
X49976816Y-29123465D02*
X49917292Y-29028227D01*
X49917292Y-29028227D02*
X49798244Y-28980608D01*
X49798244Y-28980608D02*
X49560149Y-28980608D01*
X49560149Y-28980608D02*
X49441102Y-29028227D01*
X49976816Y-29599656D02*
X49857768Y-29647275D01*
X49857768Y-29647275D02*
X49560149Y-29647275D01*
X49560149Y-29647275D02*
X49441102Y-29599656D01*
X49441102Y-29599656D02*
X49381578Y-29504417D01*
X49381578Y-29504417D02*
X49381578Y-29409179D01*
X49381578Y-29409179D02*
X49441102Y-29313941D01*
X49441102Y-29313941D02*
X49560149Y-29266322D01*
X49560149Y-29266322D02*
X49857768Y-29266322D01*
X49857768Y-29266322D02*
X49976816Y-29218703D01*
X50572054Y-29647275D02*
X50572054Y-28647275D01*
X50572054Y-29028227D02*
X50691101Y-28980608D01*
X50691101Y-28980608D02*
X50929196Y-28980608D01*
X50929196Y-28980608D02*
X51048244Y-29028227D01*
X51048244Y-29028227D02*
X51107768Y-29075846D01*
X51107768Y-29075846D02*
X51167292Y-29171084D01*
X51167292Y-29171084D02*
X51167292Y-29456798D01*
X51167292Y-29456798D02*
X51107768Y-29552036D01*
X51107768Y-29552036D02*
X51048244Y-29599656D01*
X51048244Y-29599656D02*
X50929196Y-29647275D01*
X50929196Y-29647275D02*
X50691101Y-29647275D01*
X50691101Y-29647275D02*
X50572054Y-29599656D01*
X51941101Y-28647275D02*
X52060148Y-28647275D01*
X52060148Y-28647275D02*
X52179196Y-28694894D01*
X52179196Y-28694894D02*
X52238720Y-28742513D01*
X52238720Y-28742513D02*
X52298244Y-28837751D01*
X52298244Y-28837751D02*
X52357767Y-29028227D01*
X52357767Y-29028227D02*
X52357767Y-29266322D01*
X52357767Y-29266322D02*
X52298244Y-29456798D01*
X52298244Y-29456798D02*
X52238720Y-29552036D01*
X52238720Y-29552036D02*
X52179196Y-29599656D01*
X52179196Y-29599656D02*
X52060148Y-29647275D01*
X52060148Y-29647275D02*
X51941101Y-29647275D01*
X51941101Y-29647275D02*
X51822053Y-29599656D01*
X51822053Y-29599656D02*
X51762529Y-29552036D01*
X51762529Y-29552036D02*
X51703006Y-29456798D01*
X51703006Y-29456798D02*
X51643482Y-29266322D01*
X51643482Y-29266322D02*
X51643482Y-29028227D01*
X51643482Y-29028227D02*
X51703006Y-28837751D01*
X51703006Y-28837751D02*
X51762529Y-28742513D01*
X51762529Y-28742513D02*
X51822053Y-28694894D01*
X51822053Y-28694894D02*
X51941101Y-28647275D01*
X48429197Y-31257219D02*
X48429197Y-30257219D01*
X48548244Y-30876266D02*
X48905387Y-31257219D01*
X48905387Y-30590552D02*
X48429197Y-30971504D01*
X49917292Y-31209600D02*
X49798244Y-31257219D01*
X49798244Y-31257219D02*
X49560149Y-31257219D01*
X49560149Y-31257219D02*
X49441102Y-31209600D01*
X49441102Y-31209600D02*
X49381578Y-31114361D01*
X49381578Y-31114361D02*
X49381578Y-30733409D01*
X49381578Y-30733409D02*
X49441102Y-30638171D01*
X49441102Y-30638171D02*
X49560149Y-30590552D01*
X49560149Y-30590552D02*
X49798244Y-30590552D01*
X49798244Y-30590552D02*
X49917292Y-30638171D01*
X49917292Y-30638171D02*
X49976816Y-30733409D01*
X49976816Y-30733409D02*
X49976816Y-30828647D01*
X49976816Y-30828647D02*
X49381578Y-30923885D01*
X50393483Y-30590552D02*
X50691102Y-31257219D01*
X50988721Y-30590552D02*
X50691102Y-31257219D01*
X50691102Y-31257219D02*
X50572054Y-31495314D01*
X50572054Y-31495314D02*
X50512531Y-31542933D01*
X50512531Y-31542933D02*
X50393483Y-31590552D01*
X51464912Y-30590552D02*
X51464912Y-31590552D01*
X51464912Y-30638171D02*
X51583959Y-30590552D01*
X51583959Y-30590552D02*
X51822054Y-30590552D01*
X51822054Y-30590552D02*
X51941102Y-30638171D01*
X51941102Y-30638171D02*
X52000626Y-30685790D01*
X52000626Y-30685790D02*
X52060150Y-30781028D01*
X52060150Y-30781028D02*
X52060150Y-31066742D01*
X52060150Y-31066742D02*
X52000626Y-31161980D01*
X52000626Y-31161980D02*
X51941102Y-31209600D01*
X51941102Y-31209600D02*
X51822054Y-31257219D01*
X51822054Y-31257219D02*
X51583959Y-31257219D01*
X51583959Y-31257219D02*
X51464912Y-31209600D01*
X53131578Y-31257219D02*
X53131578Y-30733409D01*
X53131578Y-30733409D02*
X53072054Y-30638171D01*
X53072054Y-30638171D02*
X52953006Y-30590552D01*
X52953006Y-30590552D02*
X52714911Y-30590552D01*
X52714911Y-30590552D02*
X52595864Y-30638171D01*
X53131578Y-31209600D02*
X53012530Y-31257219D01*
X53012530Y-31257219D02*
X52714911Y-31257219D01*
X52714911Y-31257219D02*
X52595864Y-31209600D01*
X52595864Y-31209600D02*
X52536340Y-31114361D01*
X52536340Y-31114361D02*
X52536340Y-31019123D01*
X52536340Y-31019123D02*
X52595864Y-30923885D01*
X52595864Y-30923885D02*
X52714911Y-30876266D01*
X52714911Y-30876266D02*
X53012530Y-30876266D01*
X53012530Y-30876266D02*
X53131578Y-30828647D01*
X54262530Y-31257219D02*
X54262530Y-30257219D01*
X54262530Y-31209600D02*
X54143482Y-31257219D01*
X54143482Y-31257219D02*
X53905387Y-31257219D01*
X53905387Y-31257219D02*
X53786339Y-31209600D01*
X53786339Y-31209600D02*
X53726816Y-31161980D01*
X53726816Y-31161980D02*
X53667292Y-31066742D01*
X53667292Y-31066742D02*
X53667292Y-30781028D01*
X53667292Y-30781028D02*
X53726816Y-30685790D01*
X53726816Y-30685790D02*
X53786339Y-30638171D01*
X53786339Y-30638171D02*
X53905387Y-30590552D01*
X53905387Y-30590552D02*
X54143482Y-30590552D01*
X54143482Y-30590552D02*
X54262530Y-30638171D01*
D11*
X38926667Y-35097200D02*
X39069524Y-35144819D01*
X39069524Y-35144819D02*
X39307619Y-35144819D01*
X39307619Y-35144819D02*
X39402857Y-35097200D01*
X39402857Y-35097200D02*
X39450476Y-35049580D01*
X39450476Y-35049580D02*
X39498095Y-34954342D01*
X39498095Y-34954342D02*
X39498095Y-34859104D01*
X39498095Y-34859104D02*
X39450476Y-34763866D01*
X39450476Y-34763866D02*
X39402857Y-34716247D01*
X39402857Y-34716247D02*
X39307619Y-34668628D01*
X39307619Y-34668628D02*
X39117143Y-34621009D01*
X39117143Y-34621009D02*
X39021905Y-34573390D01*
X39021905Y-34573390D02*
X38974286Y-34525771D01*
X38974286Y-34525771D02*
X38926667Y-34430533D01*
X38926667Y-34430533D02*
X38926667Y-34335295D01*
X38926667Y-34335295D02*
X38974286Y-34240057D01*
X38974286Y-34240057D02*
X39021905Y-34192438D01*
X39021905Y-34192438D02*
X39117143Y-34144819D01*
X39117143Y-34144819D02*
X39355238Y-34144819D01*
X39355238Y-34144819D02*
X39498095Y-34192438D01*
X39831429Y-34144819D02*
X40069524Y-35144819D01*
X40069524Y-35144819D02*
X40260000Y-34430533D01*
X40260000Y-34430533D02*
X40450476Y-35144819D01*
X40450476Y-35144819D02*
X40688572Y-34144819D01*
X41593333Y-35144819D02*
X41021905Y-35144819D01*
X41307619Y-35144819D02*
X41307619Y-34144819D01*
X41307619Y-34144819D02*
X41212381Y-34287676D01*
X41212381Y-34287676D02*
X41117143Y-34382914D01*
X41117143Y-34382914D02*
X41021905Y-34430533D01*
X53926667Y-35097200D02*
X54069524Y-35144819D01*
X54069524Y-35144819D02*
X54307619Y-35144819D01*
X54307619Y-35144819D02*
X54402857Y-35097200D01*
X54402857Y-35097200D02*
X54450476Y-35049580D01*
X54450476Y-35049580D02*
X54498095Y-34954342D01*
X54498095Y-34954342D02*
X54498095Y-34859104D01*
X54498095Y-34859104D02*
X54450476Y-34763866D01*
X54450476Y-34763866D02*
X54402857Y-34716247D01*
X54402857Y-34716247D02*
X54307619Y-34668628D01*
X54307619Y-34668628D02*
X54117143Y-34621009D01*
X54117143Y-34621009D02*
X54021905Y-34573390D01*
X54021905Y-34573390D02*
X53974286Y-34525771D01*
X53974286Y-34525771D02*
X53926667Y-34430533D01*
X53926667Y-34430533D02*
X53926667Y-34335295D01*
X53926667Y-34335295D02*
X53974286Y-34240057D01*
X53974286Y-34240057D02*
X54021905Y-34192438D01*
X54021905Y-34192438D02*
X54117143Y-34144819D01*
X54117143Y-34144819D02*
X54355238Y-34144819D01*
X54355238Y-34144819D02*
X54498095Y-34192438D01*
X54831429Y-34144819D02*
X55069524Y-35144819D01*
X55069524Y-35144819D02*
X55260000Y-34430533D01*
X55260000Y-34430533D02*
X55450476Y-35144819D01*
X55450476Y-35144819D02*
X55688572Y-34144819D01*
X56021905Y-34240057D02*
X56069524Y-34192438D01*
X56069524Y-34192438D02*
X56164762Y-34144819D01*
X56164762Y-34144819D02*
X56402857Y-34144819D01*
X56402857Y-34144819D02*
X56498095Y-34192438D01*
X56498095Y-34192438D02*
X56545714Y-34240057D01*
X56545714Y-34240057D02*
X56593333Y-34335295D01*
X56593333Y-34335295D02*
X56593333Y-34430533D01*
X56593333Y-34430533D02*
X56545714Y-34573390D01*
X56545714Y-34573390D02*
X55974286Y-35144819D01*
X55974286Y-35144819D02*
X56593333Y-35144819D01*
X68926667Y-35097200D02*
X69069524Y-35144819D01*
X69069524Y-35144819D02*
X69307619Y-35144819D01*
X69307619Y-35144819D02*
X69402857Y-35097200D01*
X69402857Y-35097200D02*
X69450476Y-35049580D01*
X69450476Y-35049580D02*
X69498095Y-34954342D01*
X69498095Y-34954342D02*
X69498095Y-34859104D01*
X69498095Y-34859104D02*
X69450476Y-34763866D01*
X69450476Y-34763866D02*
X69402857Y-34716247D01*
X69402857Y-34716247D02*
X69307619Y-34668628D01*
X69307619Y-34668628D02*
X69117143Y-34621009D01*
X69117143Y-34621009D02*
X69021905Y-34573390D01*
X69021905Y-34573390D02*
X68974286Y-34525771D01*
X68974286Y-34525771D02*
X68926667Y-34430533D01*
X68926667Y-34430533D02*
X68926667Y-34335295D01*
X68926667Y-34335295D02*
X68974286Y-34240057D01*
X68974286Y-34240057D02*
X69021905Y-34192438D01*
X69021905Y-34192438D02*
X69117143Y-34144819D01*
X69117143Y-34144819D02*
X69355238Y-34144819D01*
X69355238Y-34144819D02*
X69498095Y-34192438D01*
X69831429Y-34144819D02*
X70069524Y-35144819D01*
X70069524Y-35144819D02*
X70260000Y-34430533D01*
X70260000Y-34430533D02*
X70450476Y-35144819D01*
X70450476Y-35144819D02*
X70688572Y-34144819D01*
X70974286Y-34144819D02*
X71593333Y-34144819D01*
X71593333Y-34144819D02*
X71260000Y-34525771D01*
X71260000Y-34525771D02*
X71402857Y-34525771D01*
X71402857Y-34525771D02*
X71498095Y-34573390D01*
X71498095Y-34573390D02*
X71545714Y-34621009D01*
X71545714Y-34621009D02*
X71593333Y-34716247D01*
X71593333Y-34716247D02*
X71593333Y-34954342D01*
X71593333Y-34954342D02*
X71545714Y-35049580D01*
X71545714Y-35049580D02*
X71498095Y-35097200D01*
X71498095Y-35097200D02*
X71402857Y-35144819D01*
X71402857Y-35144819D02*
X71117143Y-35144819D01*
X71117143Y-35144819D02*
X71021905Y-35097200D01*
X71021905Y-35097200D02*
X70974286Y-35049580D01*
X83926667Y-35097200D02*
X84069524Y-35144819D01*
X84069524Y-35144819D02*
X84307619Y-35144819D01*
X84307619Y-35144819D02*
X84402857Y-35097200D01*
X84402857Y-35097200D02*
X84450476Y-35049580D01*
X84450476Y-35049580D02*
X84498095Y-34954342D01*
X84498095Y-34954342D02*
X84498095Y-34859104D01*
X84498095Y-34859104D02*
X84450476Y-34763866D01*
X84450476Y-34763866D02*
X84402857Y-34716247D01*
X84402857Y-34716247D02*
X84307619Y-34668628D01*
X84307619Y-34668628D02*
X84117143Y-34621009D01*
X84117143Y-34621009D02*
X84021905Y-34573390D01*
X84021905Y-34573390D02*
X83974286Y-34525771D01*
X83974286Y-34525771D02*
X83926667Y-34430533D01*
X83926667Y-34430533D02*
X83926667Y-34335295D01*
X83926667Y-34335295D02*
X83974286Y-34240057D01*
X83974286Y-34240057D02*
X84021905Y-34192438D01*
X84021905Y-34192438D02*
X84117143Y-34144819D01*
X84117143Y-34144819D02*
X84355238Y-34144819D01*
X84355238Y-34144819D02*
X84498095Y-34192438D01*
X84831429Y-34144819D02*
X85069524Y-35144819D01*
X85069524Y-35144819D02*
X85260000Y-34430533D01*
X85260000Y-34430533D02*
X85450476Y-35144819D01*
X85450476Y-35144819D02*
X85688572Y-34144819D01*
X86498095Y-34478152D02*
X86498095Y-35144819D01*
X86260000Y-34097200D02*
X86021905Y-34811485D01*
X86021905Y-34811485D02*
X86640952Y-34811485D01*
X38926667Y-50097200D02*
X39069524Y-50144819D01*
X39069524Y-50144819D02*
X39307619Y-50144819D01*
X39307619Y-50144819D02*
X39402857Y-50097200D01*
X39402857Y-50097200D02*
X39450476Y-50049580D01*
X39450476Y-50049580D02*
X39498095Y-49954342D01*
X39498095Y-49954342D02*
X39498095Y-49859104D01*
X39498095Y-49859104D02*
X39450476Y-49763866D01*
X39450476Y-49763866D02*
X39402857Y-49716247D01*
X39402857Y-49716247D02*
X39307619Y-49668628D01*
X39307619Y-49668628D02*
X39117143Y-49621009D01*
X39117143Y-49621009D02*
X39021905Y-49573390D01*
X39021905Y-49573390D02*
X38974286Y-49525771D01*
X38974286Y-49525771D02*
X38926667Y-49430533D01*
X38926667Y-49430533D02*
X38926667Y-49335295D01*
X38926667Y-49335295D02*
X38974286Y-49240057D01*
X38974286Y-49240057D02*
X39021905Y-49192438D01*
X39021905Y-49192438D02*
X39117143Y-49144819D01*
X39117143Y-49144819D02*
X39355238Y-49144819D01*
X39355238Y-49144819D02*
X39498095Y-49192438D01*
X39831429Y-49144819D02*
X40069524Y-50144819D01*
X40069524Y-50144819D02*
X40260000Y-49430533D01*
X40260000Y-49430533D02*
X40450476Y-50144819D01*
X40450476Y-50144819D02*
X40688572Y-49144819D01*
X41545714Y-49144819D02*
X41069524Y-49144819D01*
X41069524Y-49144819D02*
X41021905Y-49621009D01*
X41021905Y-49621009D02*
X41069524Y-49573390D01*
X41069524Y-49573390D02*
X41164762Y-49525771D01*
X41164762Y-49525771D02*
X41402857Y-49525771D01*
X41402857Y-49525771D02*
X41498095Y-49573390D01*
X41498095Y-49573390D02*
X41545714Y-49621009D01*
X41545714Y-49621009D02*
X41593333Y-49716247D01*
X41593333Y-49716247D02*
X41593333Y-49954342D01*
X41593333Y-49954342D02*
X41545714Y-50049580D01*
X41545714Y-50049580D02*
X41498095Y-50097200D01*
X41498095Y-50097200D02*
X41402857Y-50144819D01*
X41402857Y-50144819D02*
X41164762Y-50144819D01*
X41164762Y-50144819D02*
X41069524Y-50097200D01*
X41069524Y-50097200D02*
X41021905Y-50049580D01*
X53926667Y-50097200D02*
X54069524Y-50144819D01*
X54069524Y-50144819D02*
X54307619Y-50144819D01*
X54307619Y-50144819D02*
X54402857Y-50097200D01*
X54402857Y-50097200D02*
X54450476Y-50049580D01*
X54450476Y-50049580D02*
X54498095Y-49954342D01*
X54498095Y-49954342D02*
X54498095Y-49859104D01*
X54498095Y-49859104D02*
X54450476Y-49763866D01*
X54450476Y-49763866D02*
X54402857Y-49716247D01*
X54402857Y-49716247D02*
X54307619Y-49668628D01*
X54307619Y-49668628D02*
X54117143Y-49621009D01*
X54117143Y-49621009D02*
X54021905Y-49573390D01*
X54021905Y-49573390D02*
X53974286Y-49525771D01*
X53974286Y-49525771D02*
X53926667Y-49430533D01*
X53926667Y-49430533D02*
X53926667Y-49335295D01*
X53926667Y-49335295D02*
X53974286Y-49240057D01*
X53974286Y-49240057D02*
X54021905Y-49192438D01*
X54021905Y-49192438D02*
X54117143Y-49144819D01*
X54117143Y-49144819D02*
X54355238Y-49144819D01*
X54355238Y-49144819D02*
X54498095Y-49192438D01*
X54831429Y-49144819D02*
X55069524Y-50144819D01*
X55069524Y-50144819D02*
X55260000Y-49430533D01*
X55260000Y-49430533D02*
X55450476Y-50144819D01*
X55450476Y-50144819D02*
X55688572Y-49144819D01*
X56498095Y-49144819D02*
X56307619Y-49144819D01*
X56307619Y-49144819D02*
X56212381Y-49192438D01*
X56212381Y-49192438D02*
X56164762Y-49240057D01*
X56164762Y-49240057D02*
X56069524Y-49382914D01*
X56069524Y-49382914D02*
X56021905Y-49573390D01*
X56021905Y-49573390D02*
X56021905Y-49954342D01*
X56021905Y-49954342D02*
X56069524Y-50049580D01*
X56069524Y-50049580D02*
X56117143Y-50097200D01*
X56117143Y-50097200D02*
X56212381Y-50144819D01*
X56212381Y-50144819D02*
X56402857Y-50144819D01*
X56402857Y-50144819D02*
X56498095Y-50097200D01*
X56498095Y-50097200D02*
X56545714Y-50049580D01*
X56545714Y-50049580D02*
X56593333Y-49954342D01*
X56593333Y-49954342D02*
X56593333Y-49716247D01*
X56593333Y-49716247D02*
X56545714Y-49621009D01*
X56545714Y-49621009D02*
X56498095Y-49573390D01*
X56498095Y-49573390D02*
X56402857Y-49525771D01*
X56402857Y-49525771D02*
X56212381Y-49525771D01*
X56212381Y-49525771D02*
X56117143Y-49573390D01*
X56117143Y-49573390D02*
X56069524Y-49621009D01*
X56069524Y-49621009D02*
X56021905Y-49716247D01*
X68926667Y-50097200D02*
X69069524Y-50144819D01*
X69069524Y-50144819D02*
X69307619Y-50144819D01*
X69307619Y-50144819D02*
X69402857Y-50097200D01*
X69402857Y-50097200D02*
X69450476Y-50049580D01*
X69450476Y-50049580D02*
X69498095Y-49954342D01*
X69498095Y-49954342D02*
X69498095Y-49859104D01*
X69498095Y-49859104D02*
X69450476Y-49763866D01*
X69450476Y-49763866D02*
X69402857Y-49716247D01*
X69402857Y-49716247D02*
X69307619Y-49668628D01*
X69307619Y-49668628D02*
X69117143Y-49621009D01*
X69117143Y-49621009D02*
X69021905Y-49573390D01*
X69021905Y-49573390D02*
X68974286Y-49525771D01*
X68974286Y-49525771D02*
X68926667Y-49430533D01*
X68926667Y-49430533D02*
X68926667Y-49335295D01*
X68926667Y-49335295D02*
X68974286Y-49240057D01*
X68974286Y-49240057D02*
X69021905Y-49192438D01*
X69021905Y-49192438D02*
X69117143Y-49144819D01*
X69117143Y-49144819D02*
X69355238Y-49144819D01*
X69355238Y-49144819D02*
X69498095Y-49192438D01*
X69831429Y-49144819D02*
X70069524Y-50144819D01*
X70069524Y-50144819D02*
X70260000Y-49430533D01*
X70260000Y-49430533D02*
X70450476Y-50144819D01*
X70450476Y-50144819D02*
X70688572Y-49144819D01*
X70974286Y-49144819D02*
X71640952Y-49144819D01*
X71640952Y-49144819D02*
X71212381Y-50144819D01*
X83926667Y-50097200D02*
X84069524Y-50144819D01*
X84069524Y-50144819D02*
X84307619Y-50144819D01*
X84307619Y-50144819D02*
X84402857Y-50097200D01*
X84402857Y-50097200D02*
X84450476Y-50049580D01*
X84450476Y-50049580D02*
X84498095Y-49954342D01*
X84498095Y-49954342D02*
X84498095Y-49859104D01*
X84498095Y-49859104D02*
X84450476Y-49763866D01*
X84450476Y-49763866D02*
X84402857Y-49716247D01*
X84402857Y-49716247D02*
X84307619Y-49668628D01*
X84307619Y-49668628D02*
X84117143Y-49621009D01*
X84117143Y-49621009D02*
X84021905Y-49573390D01*
X84021905Y-49573390D02*
X83974286Y-49525771D01*
X83974286Y-49525771D02*
X83926667Y-49430533D01*
X83926667Y-49430533D02*
X83926667Y-49335295D01*
X83926667Y-49335295D02*
X83974286Y-49240057D01*
X83974286Y-49240057D02*
X84021905Y-49192438D01*
X84021905Y-49192438D02*
X84117143Y-49144819D01*
X84117143Y-49144819D02*
X84355238Y-49144819D01*
X84355238Y-49144819D02*
X84498095Y-49192438D01*
X84831429Y-49144819D02*
X85069524Y-50144819D01*
X85069524Y-50144819D02*
X85260000Y-49430533D01*
X85260000Y-49430533D02*
X85450476Y-50144819D01*
X85450476Y-50144819D02*
X85688572Y-49144819D01*
X86212381Y-49573390D02*
X86117143Y-49525771D01*
X86117143Y-49525771D02*
X86069524Y-49478152D01*
X86069524Y-49478152D02*
X86021905Y-49382914D01*
X86021905Y-49382914D02*
X86021905Y-49335295D01*
X86021905Y-49335295D02*
X86069524Y-49240057D01*
X86069524Y-49240057D02*
X86117143Y-49192438D01*
X86117143Y-49192438D02*
X86212381Y-49144819D01*
X86212381Y-49144819D02*
X86402857Y-49144819D01*
X86402857Y-49144819D02*
X86498095Y-49192438D01*
X86498095Y-49192438D02*
X86545714Y-49240057D01*
X86545714Y-49240057D02*
X86593333Y-49335295D01*
X86593333Y-49335295D02*
X86593333Y-49382914D01*
X86593333Y-49382914D02*
X86545714Y-49478152D01*
X86545714Y-49478152D02*
X86498095Y-49525771D01*
X86498095Y-49525771D02*
X86402857Y-49573390D01*
X86402857Y-49573390D02*
X86212381Y-49573390D01*
X86212381Y-49573390D02*
X86117143Y-49621009D01*
X86117143Y-49621009D02*
X86069524Y-49668628D01*
X86069524Y-49668628D02*
X86021905Y-49763866D01*
X86021905Y-49763866D02*
X86021905Y-49954342D01*
X86021905Y-49954342D02*
X86069524Y-50049580D01*
X86069524Y-50049580D02*
X86117143Y-50097200D01*
X86117143Y-50097200D02*
X86212381Y-50144819D01*
X86212381Y-50144819D02*
X86402857Y-50144819D01*
X86402857Y-50144819D02*
X86498095Y-50097200D01*
X86498095Y-50097200D02*
X86545714Y-50049580D01*
X86545714Y-50049580D02*
X86593333Y-49954342D01*
X86593333Y-49954342D02*
X86593333Y-49763866D01*
X86593333Y-49763866D02*
X86545714Y-49668628D01*
X86545714Y-49668628D02*
X86498095Y-49621009D01*
X86498095Y-49621009D02*
X86402857Y-49573390D01*
X38926667Y-65097200D02*
X39069524Y-65144819D01*
X39069524Y-65144819D02*
X39307619Y-65144819D01*
X39307619Y-65144819D02*
X39402857Y-65097200D01*
X39402857Y-65097200D02*
X39450476Y-65049580D01*
X39450476Y-65049580D02*
X39498095Y-64954342D01*
X39498095Y-64954342D02*
X39498095Y-64859104D01*
X39498095Y-64859104D02*
X39450476Y-64763866D01*
X39450476Y-64763866D02*
X39402857Y-64716247D01*
X39402857Y-64716247D02*
X39307619Y-64668628D01*
X39307619Y-64668628D02*
X39117143Y-64621009D01*
X39117143Y-64621009D02*
X39021905Y-64573390D01*
X39021905Y-64573390D02*
X38974286Y-64525771D01*
X38974286Y-64525771D02*
X38926667Y-64430533D01*
X38926667Y-64430533D02*
X38926667Y-64335295D01*
X38926667Y-64335295D02*
X38974286Y-64240057D01*
X38974286Y-64240057D02*
X39021905Y-64192438D01*
X39021905Y-64192438D02*
X39117143Y-64144819D01*
X39117143Y-64144819D02*
X39355238Y-64144819D01*
X39355238Y-64144819D02*
X39498095Y-64192438D01*
X39831429Y-64144819D02*
X40069524Y-65144819D01*
X40069524Y-65144819D02*
X40260000Y-64430533D01*
X40260000Y-64430533D02*
X40450476Y-65144819D01*
X40450476Y-65144819D02*
X40688572Y-64144819D01*
X41117143Y-65144819D02*
X41307619Y-65144819D01*
X41307619Y-65144819D02*
X41402857Y-65097200D01*
X41402857Y-65097200D02*
X41450476Y-65049580D01*
X41450476Y-65049580D02*
X41545714Y-64906723D01*
X41545714Y-64906723D02*
X41593333Y-64716247D01*
X41593333Y-64716247D02*
X41593333Y-64335295D01*
X41593333Y-64335295D02*
X41545714Y-64240057D01*
X41545714Y-64240057D02*
X41498095Y-64192438D01*
X41498095Y-64192438D02*
X41402857Y-64144819D01*
X41402857Y-64144819D02*
X41212381Y-64144819D01*
X41212381Y-64144819D02*
X41117143Y-64192438D01*
X41117143Y-64192438D02*
X41069524Y-64240057D01*
X41069524Y-64240057D02*
X41021905Y-64335295D01*
X41021905Y-64335295D02*
X41021905Y-64573390D01*
X41021905Y-64573390D02*
X41069524Y-64668628D01*
X41069524Y-64668628D02*
X41117143Y-64716247D01*
X41117143Y-64716247D02*
X41212381Y-64763866D01*
X41212381Y-64763866D02*
X41402857Y-64763866D01*
X41402857Y-64763866D02*
X41498095Y-64716247D01*
X41498095Y-64716247D02*
X41545714Y-64668628D01*
X41545714Y-64668628D02*
X41593333Y-64573390D01*
X53450476Y-65097200D02*
X53593333Y-65144819D01*
X53593333Y-65144819D02*
X53831428Y-65144819D01*
X53831428Y-65144819D02*
X53926666Y-65097200D01*
X53926666Y-65097200D02*
X53974285Y-65049580D01*
X53974285Y-65049580D02*
X54021904Y-64954342D01*
X54021904Y-64954342D02*
X54021904Y-64859104D01*
X54021904Y-64859104D02*
X53974285Y-64763866D01*
X53974285Y-64763866D02*
X53926666Y-64716247D01*
X53926666Y-64716247D02*
X53831428Y-64668628D01*
X53831428Y-64668628D02*
X53640952Y-64621009D01*
X53640952Y-64621009D02*
X53545714Y-64573390D01*
X53545714Y-64573390D02*
X53498095Y-64525771D01*
X53498095Y-64525771D02*
X53450476Y-64430533D01*
X53450476Y-64430533D02*
X53450476Y-64335295D01*
X53450476Y-64335295D02*
X53498095Y-64240057D01*
X53498095Y-64240057D02*
X53545714Y-64192438D01*
X53545714Y-64192438D02*
X53640952Y-64144819D01*
X53640952Y-64144819D02*
X53879047Y-64144819D01*
X53879047Y-64144819D02*
X54021904Y-64192438D01*
X54355238Y-64144819D02*
X54593333Y-65144819D01*
X54593333Y-65144819D02*
X54783809Y-64430533D01*
X54783809Y-64430533D02*
X54974285Y-65144819D01*
X54974285Y-65144819D02*
X55212381Y-64144819D01*
X56117142Y-65144819D02*
X55545714Y-65144819D01*
X55831428Y-65144819D02*
X55831428Y-64144819D01*
X55831428Y-64144819D02*
X55736190Y-64287676D01*
X55736190Y-64287676D02*
X55640952Y-64382914D01*
X55640952Y-64382914D02*
X55545714Y-64430533D01*
X56736190Y-64144819D02*
X56831428Y-64144819D01*
X56831428Y-64144819D02*
X56926666Y-64192438D01*
X56926666Y-64192438D02*
X56974285Y-64240057D01*
X56974285Y-64240057D02*
X57021904Y-64335295D01*
X57021904Y-64335295D02*
X57069523Y-64525771D01*
X57069523Y-64525771D02*
X57069523Y-64763866D01*
X57069523Y-64763866D02*
X57021904Y-64954342D01*
X57021904Y-64954342D02*
X56974285Y-65049580D01*
X56974285Y-65049580D02*
X56926666Y-65097200D01*
X56926666Y-65097200D02*
X56831428Y-65144819D01*
X56831428Y-65144819D02*
X56736190Y-65144819D01*
X56736190Y-65144819D02*
X56640952Y-65097200D01*
X56640952Y-65097200D02*
X56593333Y-65049580D01*
X56593333Y-65049580D02*
X56545714Y-64954342D01*
X56545714Y-64954342D02*
X56498095Y-64763866D01*
X56498095Y-64763866D02*
X56498095Y-64525771D01*
X56498095Y-64525771D02*
X56545714Y-64335295D01*
X56545714Y-64335295D02*
X56593333Y-64240057D01*
X56593333Y-64240057D02*
X56640952Y-64192438D01*
X56640952Y-64192438D02*
X56736190Y-64144819D01*
X68450476Y-65097200D02*
X68593333Y-65144819D01*
X68593333Y-65144819D02*
X68831428Y-65144819D01*
X68831428Y-65144819D02*
X68926666Y-65097200D01*
X68926666Y-65097200D02*
X68974285Y-65049580D01*
X68974285Y-65049580D02*
X69021904Y-64954342D01*
X69021904Y-64954342D02*
X69021904Y-64859104D01*
X69021904Y-64859104D02*
X68974285Y-64763866D01*
X68974285Y-64763866D02*
X68926666Y-64716247D01*
X68926666Y-64716247D02*
X68831428Y-64668628D01*
X68831428Y-64668628D02*
X68640952Y-64621009D01*
X68640952Y-64621009D02*
X68545714Y-64573390D01*
X68545714Y-64573390D02*
X68498095Y-64525771D01*
X68498095Y-64525771D02*
X68450476Y-64430533D01*
X68450476Y-64430533D02*
X68450476Y-64335295D01*
X68450476Y-64335295D02*
X68498095Y-64240057D01*
X68498095Y-64240057D02*
X68545714Y-64192438D01*
X68545714Y-64192438D02*
X68640952Y-64144819D01*
X68640952Y-64144819D02*
X68879047Y-64144819D01*
X68879047Y-64144819D02*
X69021904Y-64192438D01*
X69355238Y-64144819D02*
X69593333Y-65144819D01*
X69593333Y-65144819D02*
X69783809Y-64430533D01*
X69783809Y-64430533D02*
X69974285Y-65144819D01*
X69974285Y-65144819D02*
X70212381Y-64144819D01*
X71117142Y-65144819D02*
X70545714Y-65144819D01*
X70831428Y-65144819D02*
X70831428Y-64144819D01*
X70831428Y-64144819D02*
X70736190Y-64287676D01*
X70736190Y-64287676D02*
X70640952Y-64382914D01*
X70640952Y-64382914D02*
X70545714Y-64430533D01*
X72069523Y-65144819D02*
X71498095Y-65144819D01*
X71783809Y-65144819D02*
X71783809Y-64144819D01*
X71783809Y-64144819D02*
X71688571Y-64287676D01*
X71688571Y-64287676D02*
X71593333Y-64382914D01*
X71593333Y-64382914D02*
X71498095Y-64430533D01*
X83450476Y-65097200D02*
X83593333Y-65144819D01*
X83593333Y-65144819D02*
X83831428Y-65144819D01*
X83831428Y-65144819D02*
X83926666Y-65097200D01*
X83926666Y-65097200D02*
X83974285Y-65049580D01*
X83974285Y-65049580D02*
X84021904Y-64954342D01*
X84021904Y-64954342D02*
X84021904Y-64859104D01*
X84021904Y-64859104D02*
X83974285Y-64763866D01*
X83974285Y-64763866D02*
X83926666Y-64716247D01*
X83926666Y-64716247D02*
X83831428Y-64668628D01*
X83831428Y-64668628D02*
X83640952Y-64621009D01*
X83640952Y-64621009D02*
X83545714Y-64573390D01*
X83545714Y-64573390D02*
X83498095Y-64525771D01*
X83498095Y-64525771D02*
X83450476Y-64430533D01*
X83450476Y-64430533D02*
X83450476Y-64335295D01*
X83450476Y-64335295D02*
X83498095Y-64240057D01*
X83498095Y-64240057D02*
X83545714Y-64192438D01*
X83545714Y-64192438D02*
X83640952Y-64144819D01*
X83640952Y-64144819D02*
X83879047Y-64144819D01*
X83879047Y-64144819D02*
X84021904Y-64192438D01*
X84355238Y-64144819D02*
X84593333Y-65144819D01*
X84593333Y-65144819D02*
X84783809Y-64430533D01*
X84783809Y-64430533D02*
X84974285Y-65144819D01*
X84974285Y-65144819D02*
X85212381Y-64144819D01*
X86117142Y-65144819D02*
X85545714Y-65144819D01*
X85831428Y-65144819D02*
X85831428Y-64144819D01*
X85831428Y-64144819D02*
X85736190Y-64287676D01*
X85736190Y-64287676D02*
X85640952Y-64382914D01*
X85640952Y-64382914D02*
X85545714Y-64430533D01*
X86498095Y-64240057D02*
X86545714Y-64192438D01*
X86545714Y-64192438D02*
X86640952Y-64144819D01*
X86640952Y-64144819D02*
X86879047Y-64144819D01*
X86879047Y-64144819D02*
X86974285Y-64192438D01*
X86974285Y-64192438D02*
X87021904Y-64240057D01*
X87021904Y-64240057D02*
X87069523Y-64335295D01*
X87069523Y-64335295D02*
X87069523Y-64430533D01*
X87069523Y-64430533D02*
X87021904Y-64573390D01*
X87021904Y-64573390D02*
X86450476Y-65144819D01*
X86450476Y-65144819D02*
X87069523Y-65144819D01*
X38450476Y-80097200D02*
X38593333Y-80144819D01*
X38593333Y-80144819D02*
X38831428Y-80144819D01*
X38831428Y-80144819D02*
X38926666Y-80097200D01*
X38926666Y-80097200D02*
X38974285Y-80049580D01*
X38974285Y-80049580D02*
X39021904Y-79954342D01*
X39021904Y-79954342D02*
X39021904Y-79859104D01*
X39021904Y-79859104D02*
X38974285Y-79763866D01*
X38974285Y-79763866D02*
X38926666Y-79716247D01*
X38926666Y-79716247D02*
X38831428Y-79668628D01*
X38831428Y-79668628D02*
X38640952Y-79621009D01*
X38640952Y-79621009D02*
X38545714Y-79573390D01*
X38545714Y-79573390D02*
X38498095Y-79525771D01*
X38498095Y-79525771D02*
X38450476Y-79430533D01*
X38450476Y-79430533D02*
X38450476Y-79335295D01*
X38450476Y-79335295D02*
X38498095Y-79240057D01*
X38498095Y-79240057D02*
X38545714Y-79192438D01*
X38545714Y-79192438D02*
X38640952Y-79144819D01*
X38640952Y-79144819D02*
X38879047Y-79144819D01*
X38879047Y-79144819D02*
X39021904Y-79192438D01*
X39355238Y-79144819D02*
X39593333Y-80144819D01*
X39593333Y-80144819D02*
X39783809Y-79430533D01*
X39783809Y-79430533D02*
X39974285Y-80144819D01*
X39974285Y-80144819D02*
X40212381Y-79144819D01*
X41117142Y-80144819D02*
X40545714Y-80144819D01*
X40831428Y-80144819D02*
X40831428Y-79144819D01*
X40831428Y-79144819D02*
X40736190Y-79287676D01*
X40736190Y-79287676D02*
X40640952Y-79382914D01*
X40640952Y-79382914D02*
X40545714Y-79430533D01*
X41450476Y-79144819D02*
X42069523Y-79144819D01*
X42069523Y-79144819D02*
X41736190Y-79525771D01*
X41736190Y-79525771D02*
X41879047Y-79525771D01*
X41879047Y-79525771D02*
X41974285Y-79573390D01*
X41974285Y-79573390D02*
X42021904Y-79621009D01*
X42021904Y-79621009D02*
X42069523Y-79716247D01*
X42069523Y-79716247D02*
X42069523Y-79954342D01*
X42069523Y-79954342D02*
X42021904Y-80049580D01*
X42021904Y-80049580D02*
X41974285Y-80097200D01*
X41974285Y-80097200D02*
X41879047Y-80144819D01*
X41879047Y-80144819D02*
X41593333Y-80144819D01*
X41593333Y-80144819D02*
X41498095Y-80097200D01*
X41498095Y-80097200D02*
X41450476Y-80049580D01*
X53450476Y-80097200D02*
X53593333Y-80144819D01*
X53593333Y-80144819D02*
X53831428Y-80144819D01*
X53831428Y-80144819D02*
X53926666Y-80097200D01*
X53926666Y-80097200D02*
X53974285Y-80049580D01*
X53974285Y-80049580D02*
X54021904Y-79954342D01*
X54021904Y-79954342D02*
X54021904Y-79859104D01*
X54021904Y-79859104D02*
X53974285Y-79763866D01*
X53974285Y-79763866D02*
X53926666Y-79716247D01*
X53926666Y-79716247D02*
X53831428Y-79668628D01*
X53831428Y-79668628D02*
X53640952Y-79621009D01*
X53640952Y-79621009D02*
X53545714Y-79573390D01*
X53545714Y-79573390D02*
X53498095Y-79525771D01*
X53498095Y-79525771D02*
X53450476Y-79430533D01*
X53450476Y-79430533D02*
X53450476Y-79335295D01*
X53450476Y-79335295D02*
X53498095Y-79240057D01*
X53498095Y-79240057D02*
X53545714Y-79192438D01*
X53545714Y-79192438D02*
X53640952Y-79144819D01*
X53640952Y-79144819D02*
X53879047Y-79144819D01*
X53879047Y-79144819D02*
X54021904Y-79192438D01*
X54355238Y-79144819D02*
X54593333Y-80144819D01*
X54593333Y-80144819D02*
X54783809Y-79430533D01*
X54783809Y-79430533D02*
X54974285Y-80144819D01*
X54974285Y-80144819D02*
X55212381Y-79144819D01*
X56117142Y-80144819D02*
X55545714Y-80144819D01*
X55831428Y-80144819D02*
X55831428Y-79144819D01*
X55831428Y-79144819D02*
X55736190Y-79287676D01*
X55736190Y-79287676D02*
X55640952Y-79382914D01*
X55640952Y-79382914D02*
X55545714Y-79430533D01*
X56974285Y-79478152D02*
X56974285Y-80144819D01*
X56736190Y-79097200D02*
X56498095Y-79811485D01*
X56498095Y-79811485D02*
X57117142Y-79811485D01*
X68450476Y-80097200D02*
X68593333Y-80144819D01*
X68593333Y-80144819D02*
X68831428Y-80144819D01*
X68831428Y-80144819D02*
X68926666Y-80097200D01*
X68926666Y-80097200D02*
X68974285Y-80049580D01*
X68974285Y-80049580D02*
X69021904Y-79954342D01*
X69021904Y-79954342D02*
X69021904Y-79859104D01*
X69021904Y-79859104D02*
X68974285Y-79763866D01*
X68974285Y-79763866D02*
X68926666Y-79716247D01*
X68926666Y-79716247D02*
X68831428Y-79668628D01*
X68831428Y-79668628D02*
X68640952Y-79621009D01*
X68640952Y-79621009D02*
X68545714Y-79573390D01*
X68545714Y-79573390D02*
X68498095Y-79525771D01*
X68498095Y-79525771D02*
X68450476Y-79430533D01*
X68450476Y-79430533D02*
X68450476Y-79335295D01*
X68450476Y-79335295D02*
X68498095Y-79240057D01*
X68498095Y-79240057D02*
X68545714Y-79192438D01*
X68545714Y-79192438D02*
X68640952Y-79144819D01*
X68640952Y-79144819D02*
X68879047Y-79144819D01*
X68879047Y-79144819D02*
X69021904Y-79192438D01*
X69355238Y-79144819D02*
X69593333Y-80144819D01*
X69593333Y-80144819D02*
X69783809Y-79430533D01*
X69783809Y-79430533D02*
X69974285Y-80144819D01*
X69974285Y-80144819D02*
X70212381Y-79144819D01*
X71117142Y-80144819D02*
X70545714Y-80144819D01*
X70831428Y-80144819D02*
X70831428Y-79144819D01*
X70831428Y-79144819D02*
X70736190Y-79287676D01*
X70736190Y-79287676D02*
X70640952Y-79382914D01*
X70640952Y-79382914D02*
X70545714Y-79430533D01*
X72021904Y-79144819D02*
X71545714Y-79144819D01*
X71545714Y-79144819D02*
X71498095Y-79621009D01*
X71498095Y-79621009D02*
X71545714Y-79573390D01*
X71545714Y-79573390D02*
X71640952Y-79525771D01*
X71640952Y-79525771D02*
X71879047Y-79525771D01*
X71879047Y-79525771D02*
X71974285Y-79573390D01*
X71974285Y-79573390D02*
X72021904Y-79621009D01*
X72021904Y-79621009D02*
X72069523Y-79716247D01*
X72069523Y-79716247D02*
X72069523Y-79954342D01*
X72069523Y-79954342D02*
X72021904Y-80049580D01*
X72021904Y-80049580D02*
X71974285Y-80097200D01*
X71974285Y-80097200D02*
X71879047Y-80144819D01*
X71879047Y-80144819D02*
X71640952Y-80144819D01*
X71640952Y-80144819D02*
X71545714Y-80097200D01*
X71545714Y-80097200D02*
X71498095Y-80049580D01*
X83450476Y-80097200D02*
X83593333Y-80144819D01*
X83593333Y-80144819D02*
X83831428Y-80144819D01*
X83831428Y-80144819D02*
X83926666Y-80097200D01*
X83926666Y-80097200D02*
X83974285Y-80049580D01*
X83974285Y-80049580D02*
X84021904Y-79954342D01*
X84021904Y-79954342D02*
X84021904Y-79859104D01*
X84021904Y-79859104D02*
X83974285Y-79763866D01*
X83974285Y-79763866D02*
X83926666Y-79716247D01*
X83926666Y-79716247D02*
X83831428Y-79668628D01*
X83831428Y-79668628D02*
X83640952Y-79621009D01*
X83640952Y-79621009D02*
X83545714Y-79573390D01*
X83545714Y-79573390D02*
X83498095Y-79525771D01*
X83498095Y-79525771D02*
X83450476Y-79430533D01*
X83450476Y-79430533D02*
X83450476Y-79335295D01*
X83450476Y-79335295D02*
X83498095Y-79240057D01*
X83498095Y-79240057D02*
X83545714Y-79192438D01*
X83545714Y-79192438D02*
X83640952Y-79144819D01*
X83640952Y-79144819D02*
X83879047Y-79144819D01*
X83879047Y-79144819D02*
X84021904Y-79192438D01*
X84355238Y-79144819D02*
X84593333Y-80144819D01*
X84593333Y-80144819D02*
X84783809Y-79430533D01*
X84783809Y-79430533D02*
X84974285Y-80144819D01*
X84974285Y-80144819D02*
X85212381Y-79144819D01*
X86117142Y-80144819D02*
X85545714Y-80144819D01*
X85831428Y-80144819D02*
X85831428Y-79144819D01*
X85831428Y-79144819D02*
X85736190Y-79287676D01*
X85736190Y-79287676D02*
X85640952Y-79382914D01*
X85640952Y-79382914D02*
X85545714Y-79430533D01*
X86974285Y-79144819D02*
X86783809Y-79144819D01*
X86783809Y-79144819D02*
X86688571Y-79192438D01*
X86688571Y-79192438D02*
X86640952Y-79240057D01*
X86640952Y-79240057D02*
X86545714Y-79382914D01*
X86545714Y-79382914D02*
X86498095Y-79573390D01*
X86498095Y-79573390D02*
X86498095Y-79954342D01*
X86498095Y-79954342D02*
X86545714Y-80049580D01*
X86545714Y-80049580D02*
X86593333Y-80097200D01*
X86593333Y-80097200D02*
X86688571Y-80144819D01*
X86688571Y-80144819D02*
X86879047Y-80144819D01*
X86879047Y-80144819D02*
X86974285Y-80097200D01*
X86974285Y-80097200D02*
X87021904Y-80049580D01*
X87021904Y-80049580D02*
X87069523Y-79954342D01*
X87069523Y-79954342D02*
X87069523Y-79716247D01*
X87069523Y-79716247D02*
X87021904Y-79621009D01*
X87021904Y-79621009D02*
X86974285Y-79573390D01*
X86974285Y-79573390D02*
X86879047Y-79525771D01*
X86879047Y-79525771D02*
X86688571Y-79525771D01*
X86688571Y-79525771D02*
X86593333Y-79573390D01*
X86593333Y-79573390D02*
X86545714Y-79621009D01*
X86545714Y-79621009D02*
X86498095Y-79716247D01*
X91808333Y-88084819D02*
X91475000Y-87608628D01*
X91236905Y-88084819D02*
X91236905Y-87084819D01*
X91236905Y-87084819D02*
X91617857Y-87084819D01*
X91617857Y-87084819D02*
X91713095Y-87132438D01*
X91713095Y-87132438D02*
X91760714Y-87180057D01*
X91760714Y-87180057D02*
X91808333Y-87275295D01*
X91808333Y-87275295D02*
X91808333Y-87418152D01*
X91808333Y-87418152D02*
X91760714Y-87513390D01*
X91760714Y-87513390D02*
X91713095Y-87561009D01*
X91713095Y-87561009D02*
X91617857Y-87608628D01*
X91617857Y-87608628D02*
X91236905Y-87608628D01*
X92665476Y-87418152D02*
X92665476Y-88084819D01*
X92427381Y-87037200D02*
X92189286Y-87751485D01*
X92189286Y-87751485D02*
X92808333Y-87751485D01*
X91778333Y-73094819D02*
X91445000Y-72618628D01*
X91206905Y-73094819D02*
X91206905Y-72094819D01*
X91206905Y-72094819D02*
X91587857Y-72094819D01*
X91587857Y-72094819D02*
X91683095Y-72142438D01*
X91683095Y-72142438D02*
X91730714Y-72190057D01*
X91730714Y-72190057D02*
X91778333Y-72285295D01*
X91778333Y-72285295D02*
X91778333Y-72428152D01*
X91778333Y-72428152D02*
X91730714Y-72523390D01*
X91730714Y-72523390D02*
X91683095Y-72571009D01*
X91683095Y-72571009D02*
X91587857Y-72618628D01*
X91587857Y-72618628D02*
X91206905Y-72618628D01*
X92111667Y-72094819D02*
X92730714Y-72094819D01*
X92730714Y-72094819D02*
X92397381Y-72475771D01*
X92397381Y-72475771D02*
X92540238Y-72475771D01*
X92540238Y-72475771D02*
X92635476Y-72523390D01*
X92635476Y-72523390D02*
X92683095Y-72571009D01*
X92683095Y-72571009D02*
X92730714Y-72666247D01*
X92730714Y-72666247D02*
X92730714Y-72904342D01*
X92730714Y-72904342D02*
X92683095Y-72999580D01*
X92683095Y-72999580D02*
X92635476Y-73047200D01*
X92635476Y-73047200D02*
X92540238Y-73094819D01*
X92540238Y-73094819D02*
X92254524Y-73094819D01*
X92254524Y-73094819D02*
X92159286Y-73047200D01*
X92159286Y-73047200D02*
X92111667Y-72999580D01*
X91798333Y-58074819D02*
X91465000Y-57598628D01*
X91226905Y-58074819D02*
X91226905Y-57074819D01*
X91226905Y-57074819D02*
X91607857Y-57074819D01*
X91607857Y-57074819D02*
X91703095Y-57122438D01*
X91703095Y-57122438D02*
X91750714Y-57170057D01*
X91750714Y-57170057D02*
X91798333Y-57265295D01*
X91798333Y-57265295D02*
X91798333Y-57408152D01*
X91798333Y-57408152D02*
X91750714Y-57503390D01*
X91750714Y-57503390D02*
X91703095Y-57551009D01*
X91703095Y-57551009D02*
X91607857Y-57598628D01*
X91607857Y-57598628D02*
X91226905Y-57598628D01*
X92179286Y-57170057D02*
X92226905Y-57122438D01*
X92226905Y-57122438D02*
X92322143Y-57074819D01*
X92322143Y-57074819D02*
X92560238Y-57074819D01*
X92560238Y-57074819D02*
X92655476Y-57122438D01*
X92655476Y-57122438D02*
X92703095Y-57170057D01*
X92703095Y-57170057D02*
X92750714Y-57265295D01*
X92750714Y-57265295D02*
X92750714Y-57360533D01*
X92750714Y-57360533D02*
X92703095Y-57503390D01*
X92703095Y-57503390D02*
X92131667Y-58074819D01*
X92131667Y-58074819D02*
X92750714Y-58074819D01*
X91668333Y-43084819D02*
X91335000Y-42608628D01*
X91096905Y-43084819D02*
X91096905Y-42084819D01*
X91096905Y-42084819D02*
X91477857Y-42084819D01*
X91477857Y-42084819D02*
X91573095Y-42132438D01*
X91573095Y-42132438D02*
X91620714Y-42180057D01*
X91620714Y-42180057D02*
X91668333Y-42275295D01*
X91668333Y-42275295D02*
X91668333Y-42418152D01*
X91668333Y-42418152D02*
X91620714Y-42513390D01*
X91620714Y-42513390D02*
X91573095Y-42561009D01*
X91573095Y-42561009D02*
X91477857Y-42608628D01*
X91477857Y-42608628D02*
X91096905Y-42608628D01*
X92620714Y-43084819D02*
X92049286Y-43084819D01*
X92335000Y-43084819D02*
X92335000Y-42084819D01*
X92335000Y-42084819D02*
X92239762Y-42227676D01*
X92239762Y-42227676D02*
X92144524Y-42322914D01*
X92144524Y-42322914D02*
X92049286Y-42370533D01*
X30488095Y-27554819D02*
X30488095Y-26554819D01*
X30488095Y-27031009D02*
X31059523Y-27031009D01*
X31059523Y-27554819D02*
X31059523Y-26554819D01*
X32059523Y-27554819D02*
X31488095Y-27554819D01*
X31773809Y-27554819D02*
X31773809Y-26554819D01*
X31773809Y-26554819D02*
X31678571Y-26697676D01*
X31678571Y-26697676D02*
X31583333Y-26792914D01*
X31583333Y-26792914D02*
X31488095Y-26840533D01*
X92988095Y-90054819D02*
X92988095Y-89054819D01*
X92988095Y-89531009D02*
X93559523Y-89531009D01*
X93559523Y-90054819D02*
X93559523Y-89054819D01*
X94464285Y-89388152D02*
X94464285Y-90054819D01*
X94226190Y-89007200D02*
X93988095Y-89721485D01*
X93988095Y-89721485D02*
X94607142Y-89721485D01*
X30488095Y-90054819D02*
X30488095Y-89054819D01*
X30488095Y-89531009D02*
X31059523Y-89531009D01*
X31059523Y-90054819D02*
X31059523Y-89054819D01*
X31440476Y-89054819D02*
X32059523Y-89054819D01*
X32059523Y-89054819D02*
X31726190Y-89435771D01*
X31726190Y-89435771D02*
X31869047Y-89435771D01*
X31869047Y-89435771D02*
X31964285Y-89483390D01*
X31964285Y-89483390D02*
X32011904Y-89531009D01*
X32011904Y-89531009D02*
X32059523Y-89626247D01*
X32059523Y-89626247D02*
X32059523Y-89864342D01*
X32059523Y-89864342D02*
X32011904Y-89959580D01*
X32011904Y-89959580D02*
X31964285Y-90007200D01*
X31964285Y-90007200D02*
X31869047Y-90054819D01*
X31869047Y-90054819D02*
X31583333Y-90054819D01*
X31583333Y-90054819D02*
X31488095Y-90007200D01*
X31488095Y-90007200D02*
X31440476Y-89959580D01*
X92988095Y-27554819D02*
X92988095Y-26554819D01*
X92988095Y-27031009D02*
X93559523Y-27031009D01*
X93559523Y-27554819D02*
X93559523Y-26554819D01*
X93988095Y-26650057D02*
X94035714Y-26602438D01*
X94035714Y-26602438D02*
X94130952Y-26554819D01*
X94130952Y-26554819D02*
X94369047Y-26554819D01*
X94369047Y-26554819D02*
X94464285Y-26602438D01*
X94464285Y-26602438D02*
X94511904Y-26650057D01*
X94511904Y-26650057D02*
X94559523Y-26745295D01*
X94559523Y-26745295D02*
X94559523Y-26840533D01*
X94559523Y-26840533D02*
X94511904Y-26983390D01*
X94511904Y-26983390D02*
X93940476Y-27554819D01*
X93940476Y-27554819D02*
X94559523Y-27554819D01*
D12*
%TO.C,SW1*%
X43760000Y-39690000D02*
X43760000Y-38190000D01*
X42510000Y-35690000D02*
X38010000Y-35690000D01*
X38010000Y-42190000D02*
X42510000Y-42190000D01*
X36760000Y-38190000D02*
X36760000Y-39690000D01*
%TO.C,SW2*%
X58760000Y-39690000D02*
X58760000Y-38190000D01*
X57510000Y-35690000D02*
X53010000Y-35690000D01*
X53010000Y-42190000D02*
X57510000Y-42190000D01*
X51760000Y-38190000D02*
X51760000Y-39690000D01*
%TO.C,SW3*%
X73760000Y-39690000D02*
X73760000Y-38190000D01*
X72510000Y-35690000D02*
X68010000Y-35690000D01*
X68010000Y-42190000D02*
X72510000Y-42190000D01*
X66760000Y-38190000D02*
X66760000Y-39690000D01*
%TO.C,SW4*%
X88760000Y-39690000D02*
X88760000Y-38190000D01*
X87510000Y-35690000D02*
X83010000Y-35690000D01*
X83010000Y-42190000D02*
X87510000Y-42190000D01*
X81760000Y-38190000D02*
X81760000Y-39690000D01*
%TO.C,SW5*%
X43760000Y-54690000D02*
X43760000Y-53190000D01*
X42510000Y-50690000D02*
X38010000Y-50690000D01*
X38010000Y-57190000D02*
X42510000Y-57190000D01*
X36760000Y-53190000D02*
X36760000Y-54690000D01*
%TO.C,SW6*%
X58760000Y-54690000D02*
X58760000Y-53190000D01*
X57510000Y-50690000D02*
X53010000Y-50690000D01*
X53010000Y-57190000D02*
X57510000Y-57190000D01*
X51760000Y-53190000D02*
X51760000Y-54690000D01*
%TO.C,SW7*%
X73760000Y-54690000D02*
X73760000Y-53190000D01*
X72510000Y-50690000D02*
X68010000Y-50690000D01*
X68010000Y-57190000D02*
X72510000Y-57190000D01*
X66760000Y-53190000D02*
X66760000Y-54690000D01*
%TO.C,SW8*%
X88760000Y-54690000D02*
X88760000Y-53190000D01*
X87510000Y-50690000D02*
X83010000Y-50690000D01*
X83010000Y-57190000D02*
X87510000Y-57190000D01*
X81760000Y-53190000D02*
X81760000Y-54690000D01*
%TO.C,SW9*%
X43760000Y-69690000D02*
X43760000Y-68190000D01*
X42510000Y-65690000D02*
X38010000Y-65690000D01*
X38010000Y-72190000D02*
X42510000Y-72190000D01*
X36760000Y-68190000D02*
X36760000Y-69690000D01*
%TO.C,SW10*%
X58760000Y-69690000D02*
X58760000Y-68190000D01*
X57510000Y-65690000D02*
X53010000Y-65690000D01*
X53010000Y-72190000D02*
X57510000Y-72190000D01*
X51760000Y-68190000D02*
X51760000Y-69690000D01*
%TO.C,SW11*%
X73760000Y-69690000D02*
X73760000Y-68190000D01*
X72510000Y-65690000D02*
X68010000Y-65690000D01*
X68010000Y-72190000D02*
X72510000Y-72190000D01*
X66760000Y-68190000D02*
X66760000Y-69690000D01*
%TO.C,SW12*%
X88760000Y-69690000D02*
X88760000Y-68190000D01*
X87510000Y-65690000D02*
X83010000Y-65690000D01*
X83010000Y-72190000D02*
X87510000Y-72190000D01*
X81760000Y-68190000D02*
X81760000Y-69690000D01*
%TO.C,SW13*%
X43760000Y-84690000D02*
X43760000Y-83190000D01*
X42510000Y-80690000D02*
X38010000Y-80690000D01*
X38010000Y-87190000D02*
X42510000Y-87190000D01*
X36760000Y-83190000D02*
X36760000Y-84690000D01*
%TO.C,SW14*%
X58760000Y-84690000D02*
X58760000Y-83190000D01*
X57510000Y-80690000D02*
X53010000Y-80690000D01*
X53010000Y-87190000D02*
X57510000Y-87190000D01*
X51760000Y-83190000D02*
X51760000Y-84690000D01*
%TO.C,SW15*%
X73760000Y-84690000D02*
X73760000Y-83190000D01*
X72510000Y-80690000D02*
X68010000Y-80690000D01*
X68010000Y-87190000D02*
X72510000Y-87190000D01*
X66760000Y-83190000D02*
X66760000Y-84690000D01*
%TO.C,SW16*%
X88760000Y-84690000D02*
X88760000Y-83190000D01*
X87510000Y-80690000D02*
X83010000Y-80690000D01*
X83010000Y-87190000D02*
X87510000Y-87190000D01*
X81760000Y-83190000D02*
X81760000Y-84690000D01*
%TO.C,R4*%
X92212258Y-86722500D02*
X91737742Y-86722500D01*
X92212258Y-85677500D02*
X91737742Y-85677500D01*
%TO.C,R3*%
X92182258Y-71732500D02*
X91707742Y-71732500D01*
X92182258Y-70687500D02*
X91707742Y-70687500D01*
%TO.C,R2*%
X92202258Y-56712500D02*
X91727742Y-56712500D01*
X92202258Y-55667500D02*
X91727742Y-55667500D01*
%TO.C,R1*%
X92072258Y-41722500D02*
X91597742Y-41722500D01*
X92072258Y-40677500D02*
X91597742Y-40677500D01*
%TD*%
M02*
