M48
; DRILL file {KiCad 9.0.5} date 2025-12-25T13:02:37+0100
; FORMAT={-:-/ absolute / inch / decimal}
; #@! TF.CreationDate,2025-12-25T13:02:37+01:00
; #@! TF.GenerationSoftware,Kicad,Pcbnew,9.0.5
; #@! TF.FileFunction,Plated,1,6,PTH
FMAT,2
INCH
; #@! TA.AperFunction,Plated,PTH,ViaDrill
T1C0.0157
; #@! TA.AperFunction,Plated,PTH,ComponentDrill
T2C0.0299
; #@! TA.AperFunction,Plated,PTH,ComponentDrill
T3C0.0394
; #@! TA.AperFunction,Plated,PTH,ComponentDrill
T4C0.0433
; #@! TA.AperFunction,Plated,PTH,ComponentDrill
T5C0.0551
%
G90
G05
T1
X1.3736Y-1.5728
X1.3799Y-2.9917
X1.3811Y-2.2831
X1.3839Y-4.4083
X1.3839Y-5.1169
X1.3843Y-3.7004
X1.3858Y-5.8256
X1.4205Y-6.5697
X1.4335Y-4.5343
X1.4398Y-5.9524
X1.4406Y-2.4091
X1.4409Y-5.2449
X1.4413Y-3.8252
X1.4417Y-3.1185
X1.4417Y-6.3315
X1.4417Y-6.663
X1.4437Y-5.6146
X1.4441Y-1.363
X1.4453Y-4.9098
X1.4465Y-2.074
X1.4472Y-3.4945
X1.4488Y-1.7008
X1.4492Y-2.7874
X1.5146Y-3.702
X1.515Y-3.6315
X1.5161Y-5.1193
X1.5165Y-2.2854
X1.5165Y-5.828
X1.5165Y-6.4815
X1.5165Y-6.537
X1.5173Y-1.5161
X1.5173Y-5.0535
X1.5181Y-2.9276
X1.5181Y-2.9921
X1.5181Y-4.4106
X1.5185Y-2.2224
X1.5185Y-4.352
X1.5213Y-1.5764
X1.5213Y-5.7673
X1.565Y-1.4075
X1.5665Y-4.2437
X1.5681Y-4.9504
X1.5697Y-5.6591
X1.5709Y-2.1169
X1.5717Y-3.5331
X1.5724Y-2.8236
X1.5787Y-6.3669
X1.6713Y-6.528
X1.6724Y-2.2843
X1.674Y-3.6992
X1.6894Y-6.063
X1.7055Y-5.0795
X1.7091Y-5.7894
X1.7094Y-4.3728
X1.7098Y-1.5386
X1.7236Y-6.7921
X1.726Y-6.7091
X1.7402Y-6.015
X1.7402Y-6.0614
X1.7402Y-6.1047
X1.7783Y-3.5791
X1.7783Y-4.9933
X1.7783Y-5.7028
X1.7787Y-1.4539
X1.7787Y-2.8732
X1.7791Y-2.1634
X1.7799Y-6.415
X1.7803Y-4.2843
X1.7807Y-6.5331
X1.7866Y-6.0614
X1.7969Y-2.9583
X1.7988Y-3.6665
X1.7992Y-5.0827
X1.7996Y-4.3756
X1.802Y-5.7917
X1.8039Y-2.2488
X1.8053Y-1.5795
X1.8291Y-6.4441
X1.8339Y-1.4839
X1.8382Y-3.6071
X1.8402Y-2.9
X1.8402Y-4.3209
X1.8417Y-6.5354
X1.8425Y-2.1921
X1.8437Y-3.9626
X1.8461Y-5.0264
X1.848Y-5.7343
X1.8701Y-6.7122
X1.8701Y-6.7917
X1.8803Y-1.3488
X1.8969Y-3.6228
X1.8984Y-2.915
X1.8988Y-2.2079
X1.8992Y-4.3315
X1.8992Y-5.0366
X1.8992Y-5.7484
X1.9049Y-1.5429
X1.9055Y-6.274
X1.9138Y-2.7839
X1.9177Y-3.9295
X1.928Y-4.2862
X1.9283Y-2.0882
X1.9295Y-3.5748
X1.9295Y-4.9976
X1.9299Y-6.4039
X1.9571Y-4.1244
X1.9665Y-4.002
X1.9693Y-2.7488
X1.9693Y-3.4705
X1.9701Y-2.0291
X1.9709Y-5.4949
X1.9713Y-4.7661
X1.9717Y-1.4098
X1.9839Y-3.8768
X1.9894Y-4.0382
X2.02Y-3.6688
X2.0217Y-2.9606
X2.022Y-2.2512
X2.0224Y-5.0854
X2.0236Y-4.3764
X2.0236Y-6.1091
X2.0252Y-1.5417
X2.0626Y-4.3039
X2.0638Y-3.4976
X2.065Y-3.5972
X2.0665Y-1.3709
X2.0673Y-2.8866
X2.0681Y-2.0787
X2.0689Y-5.9378
X2.0697Y-1.4709
X2.0697Y-4.9165
X2.0697Y-6.0358
X2.0705Y-4.2039
X2.072Y-2.789
X2.0736Y-5.0154
X2.0768Y-2.1776
X2.0783Y-5.6227
X2.0787Y-5.7227
X2.0835Y-3.9433
X2.1157Y-4.0465
X2.1539Y-2.2524
X2.1551Y-5.0866
X2.1555Y-4.3764
X2.1559Y-3.6677
X2.1563Y-1.5421
X2.1571Y-6.1083
X2.1583Y-5.7949
X2.1587Y-2.9606
X2.437Y-6.0366
X2.4378Y-2.8866
X2.439Y-4.3047
X2.4398Y-5.7224
X2.4409Y-1.472
X2.4429Y-3.5976
X2.4445Y-5.0142
X2.4461Y-2.1799
X2.5232Y-3.8449
X2.5232Y-3.9067
X2.5232Y-3.9689
X2.7051Y-5.0079
X2.7071Y-3.5925
X2.7079Y-6.0366
X2.7083Y-1.4689
X2.7083Y-2.1756
X2.7094Y-2.8874
X2.7094Y-4.3031
X2.7118Y-5.7185
X2.7276Y-4.1701
X2.7276Y-5.5882
X2.7283Y-2.7528
X2.7291Y-4.8772
X2.7303Y-5.902
X2.7323Y-2.0409
X2.7327Y-3.4638
X2.7331Y-1.335
X2.7331Y-6.7091
X2.735Y-6.7898
X2.8756Y-4.9953
X2.8768Y-4.8961
X2.8783Y-5.1953
X2.8787Y-6.7909
X2.8827Y-6.7087
X3.2161Y-4.9445
X3.3748Y-4.7953
X3.5031Y-4.7764
X3.9941Y-4.8949
X4.0657Y-6.1787
X4.0657Y-6.2213
X4.0732Y-6.2807
X4.1874Y-6.1917
X4.1874Y-6.2307
X4.1878Y-6.2701
X4.2034Y-6.3776
X4.2216Y-6.0854
X4.222Y-6.1913
X4.222Y-6.2307
X4.222Y-6.2701
X4.252Y-6.5063
X4.2622Y-6.1909
X4.2622Y-6.2307
X4.2622Y-6.2693
X4.2747Y-6.0866
X4.2952Y-6.3697
X4.3137Y-6.0776
X4.3327Y-6.5059
X4.3393Y-6.1378
X4.4331Y-6.1299
T2
X1.9902Y-6.7516
X2.1476Y-6.7516
X2.5413Y-6.7516
X2.6201Y-6.7516
T3
X1.4451Y-6.8087
X1.5451Y-6.8087
X3.0878Y-3.8957
X3.0878Y-3.9957
X3.0878Y-4.0957
X3.0878Y-4.1957
X3.0878Y-4.2957
X3.0878Y-4.3957
X3.0878Y-4.4957
X3.0878Y-4.5957
X3.0878Y-4.6957
X3.0878Y-4.7957
X3.0878Y-4.8957
X3.0878Y-4.9957
X3.0878Y-5.0957
X3.0878Y-5.1957
X3.0878Y-5.2957
X3.0878Y-5.3957
X3.0878Y-5.4957
X3.0878Y-5.5957
X3.0878Y-5.6957
X3.0878Y-5.7957
X3.2949Y-1.2862
X3.2949Y-1.3862
X3.4756Y-1.2862
X3.4756Y-1.3862
X3.7878Y-3.8957
X3.7878Y-3.9957
X3.7878Y-4.0957
X3.7878Y-4.1957
X3.7878Y-4.2957
X3.7878Y-4.3957
X3.7878Y-4.4957
X3.7878Y-4.5957
X3.7878Y-4.6957
X3.7878Y-4.7957
X3.7878Y-4.8957
X3.7878Y-4.9957
X3.7878Y-5.0957
X3.7878Y-5.1957
X3.7878Y-5.2957
X3.7878Y-5.3957
X3.7878Y-5.4957
X3.7878Y-5.5957
X3.7878Y-5.6957
X3.7878Y-5.7957
T4
X4.1362Y-3.863
X4.1362Y-4.0402
X4.3921Y-3.863
X4.3921Y-4.0402
T5
X1.2048Y-1.3077
X1.2048Y-1.6077
X1.2048Y-2.0163
X1.2048Y-2.3163
X1.2048Y-2.725
X1.2048Y-3.025
X1.2048Y-3.4337
X1.2048Y-3.7337
X1.2048Y-4.1423
X1.2048Y-4.4423
X1.2048Y-4.851
X1.2048Y-5.151
X1.2048Y-5.5596
X1.2048Y-5.8596
X1.2048Y-6.2683
X1.2048Y-6.5683
X4.1045Y-6.6655
X4.4045Y-6.6655
M30
