%TF.GenerationSoftware,KiCad,Pcbnew,9.0.5*%
%TF.CreationDate,2025-12-25T13:02:37+01:00*%
%TF.ProjectId,leak_current_detector,6c65616b-5f63-4757-9272-656e745f6465,0.1*%
%TF.SameCoordinates,Original*%
%TF.FileFunction,Legend,Bot*%
%TF.FilePolarity,Positive*%
%FSLAX46Y46*%
G04 Gerber Fmt 4.6, Leading zero omitted, Abs format (unit mm)*
G04 Created by KiCad (PCBNEW 9.0.5) date 2025-12-25 13:02:37*
%MOMM*%
%LPD*%
G01*
G04 APERTURE LIST*
G04 Aperture macros list*
%AMRoundRect*
0 Rectangle with rounded corners*
0 $1 Rounding radius*
0 $2 $3 $4 $5 $6 $7 $8 $9 X,Y pos of 4 corners*
0 Add a 4 corners polygon primitive as box body*
4,1,4,$2,$3,$4,$5,$6,$7,$8,$9,$2,$3,0*
0 Add four circle primitives for the rounded corners*
1,1,$1+$1,$2,$3*
1,1,$1+$1,$4,$5*
1,1,$1+$1,$6,$7*
1,1,$1+$1,$8,$9*
0 Add four rect primitives between the rounded corners*
20,1,$1+$1,$2,$3,$4,$5,0*
20,1,$1+$1,$4,$5,$6,$7,0*
20,1,$1+$1,$6,$7,$8,$9,0*
20,1,$1+$1,$8,$9,$2,$3,0*%
G04 Aperture macros list end*
%ADD10RoundRect,0.250001X-1.549999X0.799999X-1.549999X-0.799999X1.549999X-0.799999X1.549999X0.799999X0*%
%ADD11O,3.600000X2.100000*%
%ADD12RoundRect,0.250001X-0.799999X-1.549999X0.799999X-1.549999X0.799999X1.549999X-0.799999X1.549999X0*%
%ADD13O,2.100000X3.600000*%
%ADD14R,1.700000X1.700000*%
%ADD15C,1.700000*%
%ADD16C,1.300000*%
%ADD17C,3.200000*%
%ADD18C,2.000000*%
%ADD19R,1.303000X1.303000*%
%ADD20C,1.303000*%
G04 APERTURE END LIST*
%LPC*%
D10*
%TO.C,J4*%
X30602500Y-87215000D03*
D11*
X30602500Y-94835000D03*
%TD*%
D10*
%TO.C,J3*%
X30602500Y-69215000D03*
D11*
X30602500Y-76835000D03*
%TD*%
D12*
%TO.C,J9*%
X104255000Y-169302500D03*
D13*
X111875000Y-169302500D03*
%TD*%
D14*
%TO.C,J14*%
X36705000Y-172940000D03*
D15*
X39245000Y-172940000D03*
%TD*%
D16*
%TO.C,H1*%
X27000000Y-27000000D03*
%TD*%
D14*
%TO.C,J11*%
X96210000Y-98950000D03*
D15*
X96210000Y-101490000D03*
X96210000Y-104030000D03*
X96210000Y-106570000D03*
X96210000Y-109110000D03*
X96210000Y-111650000D03*
X96210000Y-114190000D03*
X96210000Y-116730000D03*
X96210000Y-119270000D03*
X96210000Y-121810000D03*
X96210000Y-124350000D03*
X96210000Y-126890000D03*
X96210000Y-129430000D03*
X96210000Y-131970000D03*
X96210000Y-134510000D03*
X96210000Y-137050000D03*
X96210000Y-139590000D03*
X96210000Y-142130000D03*
X96210000Y-144670000D03*
X96210000Y-147210000D03*
%TD*%
D10*
%TO.C,J7*%
X30602500Y-141215000D03*
D11*
X30602500Y-148835000D03*
%TD*%
D14*
%TO.C,J12*%
X83690000Y-32670000D03*
D15*
X83690000Y-35210000D03*
%TD*%
D17*
%TO.C,H4*%
X40000000Y-135000000D03*
%TD*%
D10*
%TO.C,J1*%
X30602500Y-33215000D03*
D11*
X30602500Y-40835000D03*
%TD*%
D10*
%TO.C,J2*%
X30602500Y-51215000D03*
D11*
X30602500Y-58835000D03*
%TD*%
D16*
%TO.C,H2*%
X118000000Y-27000000D03*
%TD*%
D17*
%TO.C,H5*%
X110000000Y-135000000D03*
%TD*%
%TO.C,H6*%
X40000000Y-29000000D03*
%TD*%
D10*
%TO.C,J6*%
X30602500Y-123215000D03*
D11*
X30602500Y-130835000D03*
%TD*%
D14*
%TO.C,J13*%
X88280000Y-32670000D03*
D15*
X88280000Y-35210000D03*
%TD*%
D18*
%TO.C,SW1*%
X105060000Y-98120000D03*
X111560000Y-98120000D03*
X105060000Y-102620000D03*
X111560000Y-102620000D03*
%TD*%
D17*
%TO.C,H7*%
X110000000Y-29000000D03*
%TD*%
D10*
%TO.C,J8*%
X30602500Y-159215000D03*
D11*
X30602500Y-166835000D03*
%TD*%
D14*
%TO.C,J10*%
X78430000Y-98950000D03*
D15*
X78430000Y-101490000D03*
X78430000Y-104030000D03*
X78430000Y-106570000D03*
X78430000Y-109110000D03*
X78430000Y-111650000D03*
X78430000Y-114190000D03*
X78430000Y-116730000D03*
X78430000Y-119270000D03*
X78430000Y-121810000D03*
X78430000Y-124350000D03*
X78430000Y-126890000D03*
X78430000Y-129430000D03*
X78430000Y-131970000D03*
X78430000Y-134510000D03*
X78430000Y-137050000D03*
X78430000Y-139590000D03*
X78430000Y-142130000D03*
X78430000Y-144670000D03*
X78430000Y-147210000D03*
%TD*%
D16*
%TO.C,H3*%
X27000000Y-173000000D03*
%TD*%
D10*
%TO.C,J5*%
X30602500Y-105215000D03*
D11*
X30602500Y-112835000D03*
%TD*%
D19*
%TO.C,PS2*%
X66550000Y-171490000D03*
D20*
X64550000Y-171490000D03*
X54550000Y-171490000D03*
X50550000Y-171490000D03*
%TD*%
%LPD*%
M02*
